<?xml version="1.0" encoding="UTF-8"?>
<svg viewBox="33 0 55 68" version="1.0"
  xmlns="http://www.w3.org/2000/svg"
  xmlns:cc="http://creativecommons.org/ns#"
  xmlns:dc="http://purl.org/dc/elements/1.1/"
  xmlns:rdf="http://www.w3.org/1999/02/22-rdf-syntax-ns#">
  <metadata>
    <rdf:RDF>
      <cc:Work>
        <dc:format>image/svg+xml</dc:format>
        <dc:type rdf:resource="http://purl.org/dc/dcmitype/StillImage"/>
        <dc:title/>
        <cc:license rdf:resource="http://creativecommons.org/publicdomain/zero/1.0/"/>
        <dc:date>2019-10-06</dc:date>
        <dc:creator>
          <cc:Agent>
            <dc:title>U.S. Census Bureau, Abe.suleiman, Lokal_Profil</dc:title>
          </cc:Agent>
        </dc:creator>
        <dc:source>https://commons.wikimedia.org/wiki/File:Usa_counties_large.svg</dc:source>
      </cc:Work>
      <cc:License rdf:about="http://creativecommons.org/publicdomain/zero/1.0/">
        <cc:permits rdf:resource="http://creativecommons.org/ns#Reproduction"/>
        <cc:permits rdf:resource="http://creativecommons.org/ns#Distribution"/>
        <cc:permits rdf:resource="http://creativecommons.org/ns#DerivativeWorks"/>
      </cc:License>
    </rdf:RDF>
  </metadata>
  <g transform="translate(-855 -90)">
    <g id="newhampshiredartk" style="fill:#871f78;stroke-width:.17829;stroke:#fff">
      <path id="c33009" d="m916.01 114.98 1.0768-1.398 1.6509 1.23 1.765 0.298 0.51642 1.0113 1.6195-0.50533 0.48315 0.128 0.65075 0.708 0.78981 1.139 1.1553 1.76 0.6668 3.487-3.1093 1.35 0.9057 2.074 0.36192 0.65 0.62303 1.2126-1.8673 0.95167 0.20478 1.5779-0.91985 1.5779-1.2235 0.37752-1.0104-0.93852-0.47424 1.003-0.42611 1.213-1.0555 0.08-1.8453 0.07-1.872-0.289-1.9932 0.161-0.36612-0.42147 0.28888-1.2862-0.22848-0.58191 0.4165-0.84518 0.33092-0.18948 0.57805-1.0067 0.0553-1.1591-0.26783-1.1591 0.62544-1.2732 0.11229-1.1971-0.40087-0.47492 0.32135-1.6913 0.29371-0.84564-0.35248-0.31348 0.0553-1.1591-0.27277-0.217-0.29953-0.403-0.52773-1.84v-0.144l0.0553-0.234 0.53843-0.972 0.0499-0.04 0.0838-0.08 1.1125-0.692 1.125-0.707" style="stroke:#000">
        <title>Grafton, NH</title>
      </path>
      <path id="c33019" d="m912.68 133.91 1.9932-0.161 1.872 0.289 1.8453-0.07 1.0555-0.08-0.58176 2.1721-0.84754 3e-3 -0.0126 0.4797 0.41229 0.28345 0.13396 0.42261-0.41302 1.8886 0.75535 1.1579 0.37792-0.15431 0.22349 1.0194 0.72385 0.653-0.13015 1.437-2.3201 0.14235-0.0178-0.408 0.14378-0.58779-2.7622 1.1261-0.61143 0.20422 0.13722 0.8331-0.98771 0.168-0.47602-0.489-0.0642-1.695 0.0731-2.01-0.40962-0.26945 0.0655-0.63055-0.35096 0.0211-0.44598-3.685-0.14681-1.209 0.76546-0.84795" style="stroke:#000">
        <title>Sullivan, NH</title>
      </path>
    </g>
    <g id="newhampshire" style="fill:#e58fd8;stroke-width:.17829;stroke:#fff">
      <path id="c33007" d="m922.53 90.736 0.61865 1.767 3.3999 10.253 0.24068 0.772 3.0148 9.586-0.23534 1.181-3.1554 0.6777-0.34945 2.4208 0.20206 1.2258-0.42315 0.24557-0.59353-1.5541-0.47862-0.26719-0.54756-0.74977-0.44689 0.15617-0.65075-0.708-0.48315-0.128-1.6195 0.50533-0.51642-1.0113-1.765-0.298-1.6509-1.23 0.34409 0.03 0.51525-0.378 0.041-0.06 0.22464-0.29 0.0945-0.137 0.066-0.104 0.79516-1.398 0.0802-0.137 0.18542-0.515-0.32106-1.0665 0.53678-0.93451-0.41719-0.673-0.0713-0.115-0.40293-0.499-0.73811-0.907-0.60439-0.596-0.1355-0.383 1.155-4.1131-1.1318-1.5299 0.38688-0.795-0.1355-1.366 0.3851-4.154 1.2926-1.688 0.17829-0.127 0.34409 0.177 0.14442 0.287 0.0731 0.08 0.51525 0.257 0.8433 0.06 0.70602-0.147 0.10519-0.09 0.3851-1.526" style="stroke:#000">
        <title>Coos, NH</title>
      </path>
      <path id="c33017" d="m931.8 130.37 0.4557-1.068 0.63087 1.2678 0.44305-0.0229 0.38859-0.59269 0.42836 6e-3 0.23707 0.82303 0.35382-0.63656 0.37154-0.88595 0.27991 3.135 0.12302 0.513 0.15154 0.323 0.46712 0.649 0.29595 0.153 0.80586 0.401 1.9433 1.159 0.0499 0.06 0.624 2.507-0.62065 0.0834 0.11432 0.90658-1.0673 0.0234-2.2537 0.72355 0.41006-1.456-4.4006-1.791 0.12123-0.289 0.79516-1.913-0.79516-1.784-0.65074-1.568 0.29774-0.722" style="stroke:#000">
        <title>Strafford, NH</title>
      </path>
      <path id="c33015" d="m942.1 139.06-0.69532 4.685-0.59191 0.37101-0.59191-0.30101-0.48851 0.03-0.11232 0.06-0.13193 0.06h-7e-3l-1.5493 1.15-0.22913 1.276-1.3523 0.073-0.21751 0.227-0.35774 0.71899 0.39716 1.0555-0.9469 0.0475-2.0717-0.40557-0.70376-1.0455-0.75995 0.0564-0.92532-2.2728 1.2543-0.62921-0.75507-1.0223 0.7702-6.541 4.4006 1.791-0.41006 1.456 2.2537-0.72355 1.0673-0.0234-0.11432-0.90658 0.62065-0.0834 2.2482 0.901" style="stroke:#000">
        <title>Rockingham, NH</title>
      </path>
      <path id="c33005" d="m913.2 144.24 0.47602 0.489 0.98771-0.168-0.13722-0.8331 0.61143-0.20422 2.7622-1.1261-0.14378 0.58779 0.0178 0.408 2.3201-0.14235 0.30487 2.54 0.48547 1.402 0.91639-0.218 1.3276 2.9967 0.54031-0.0288 0.61157 2.1701-5.8318 1.263-2.8936 0.618-1.8381-1.478-0.59742-0.87938-0.37658-0.55571 0.37153-1.0535-0.25933-0.9314 1.0153-1.0528-0.45882-1.2846 0.16662-1.4531-0.37836-1.0656" style="stroke:#000">
        <title>Cheshire, NH</title>
      </path>
      <path id="c33011" d="m920.22 141.81 1.5605-0.95955 1.3398 1.5327 2.8898-1.4114 0.89081 1.8619 2.0636-0.70345 1.1821 0.79499 1.1146 0.26587 0.75507 1.0223-1.2543 0.62921 0.92532 2.2728 0.75995-0.0564 0.70376 1.0455 2.0717 0.40557-0.10698 0.242-0.41541 0.988-5.5465 1.278-0.0713 0.02-0.2496 0.06-4.0649 0.909-0.49208 0.11-0.61157-2.1701-0.54031 0.0288-1.3276-2.9967-0.91639 0.218-0.48547-1.402-0.30487-2.54 0.13015-1.437" style="stroke:#000">
        <title>Hillsborough, NH</title>
      </path>
      <path id="c33001" d="m924.54 126.91 1.4138 0.885 4.0828 2.266 1.7615 0.313-0.29774 0.722 0.65074 1.568 0.79516 1.784-0.79516 1.913-2.0831-1.0193-3.9287-1.5716-0.75416 0.62-0.86466-1.1433-0.27856 0.19102-0.75146-0.48186-0.0598-0.37907-0.84994-0.35183 0.91985-1.5779-0.20478-1.5779 1.8673-0.95167-0.62303-1.2126" style="stroke:#000">
        <title>Belknap, NH</title>
      </path>
      <path id="c33013" d="m922.58 132.23 0.84994 0.35183 0.0598 0.37907 0.75146 0.48186 0.27856-0.19102 0.86466 1.1433 0.75416-0.62 3.9287 1.5716 2.0831 1.0193-0.12123 0.289-0.7702 6.541-1.1146-0.26537-1.1821-0.79449-2.0636 0.70295-0.89081-1.8624-2.8898 1.4114-1.3398-1.5327-1.5605 0.95955-0.72385-0.653-0.22349-1.0194-0.37792 0.15431-0.75535-1.1579 0.41302-1.8886-0.13396-0.42261-0.41229-0.28345 0.0126-0.4797 0.84754-3e-3 0.58176-2.1721 0.42611-1.212 0.47424-1.004 1.0104 0.93852 1.2235-0.37752" style="stroke:#000">
        <title>Merrimack, NH</title>
      </path>
      <path id="c33003" d="m929.8 113.11 3.284 10.872 2.0253 5.279-0.37154 0.88595-0.35382 0.63666-0.23707-0.82293-0.42835-6e-3 -0.3886 0.59269-0.44305 0.0229-0.63087-1.2678-0.4557 1.068-1.7615-0.313-4.0828-2.266-1.4138-0.885-0.36192-0.65-0.9057-2.074 3.1093-1.35-0.6668-3.487-1.1553-1.76-0.78981-1.139 0.44689-0.15617 0.54756 0.74977 0.47862 0.26719 0.59353 1.5541 0.42315-0.24557-0.20206-1.2258 0.34945-2.4208 3.1554-0.6777 0.23534-1.181" style="stroke:#000">
        <title>Carroll, NH</title>
      </path>
    </g>
    <g id="vermontdark" style="fill:#1f77b4;stroke-width:.17829;stroke:#fff">
      <path id="c50027" d="m903.23 127.69 0.0963 0.355 0.21751 0.346 1.3104 0.112 1.8863 0.225 4.8209 0.554 2.1466 0.298-0.57805 1.0067-0.33097 0.18948-0.4165 0.84518 0.22848 0.58191-0.28888 1.2862 0.36612 0.42147-0.76546 0.84795 0.14681 1.209 0.44598 3.685 0.35096-0.0211-0.0655 0.63055 0.40962 0.26945-0.0731 2.01-1.9754 0.433-2.0895 0.843-2.3534-0.199-0.18433-0.9841-0.86221 0.1631-0.27549-1.0522 0.18605-0.10813-0.0867-0.54869 0.41681-0.234 0.82774 0.17146 0.24033-1.4858-0.0114-0.94041-0.34707-0.1642-0.49309 0.0222-0.0945-0.37635-0.34624-0.0197-0.1967-2.108 0.37628-0.0677 0.37627-2.3124-2.1989-0.31159 0.10877-0.64725-0.2269-0.0179 0.23464-1.6123-0.28704-0.312-0.66591-0.0825-0.12046 0.27414-0.54004-0.12446-0.0785-0.39718-1.1838 1.045-0.15333-0.273-0.28347-0.611 1.3425-1.132 0.1392 0.67251 0.22312 0.085 0.34302-1.7733 0.10323 0.0251 0.22906-0.69128" style="stroke:#000">
        <title>Windsor, VT</title>
      </path>
      <path id="c50017" d="m914.15 120.31-0.0553 1.1591 0.35248 0.31348-0.29371 0.84564-0.32135 1.6913 0.40087 0.47492-0.11229 1.1971-0.62544 1.2732 0.26783 1.1591-0.0553 1.1591-2.1466-0.298-4.8209-0.554-1.8863-0.225-1.3104-0.112-0.21751-0.346-0.0963-0.355 0.41897-1.711 1.018 0.137 0.29848-1.9247 0.15317 0.0378 0.18312-1.7853 0.46481 0.0457 0.0423-0.27118 2.0478 0.33484-0.13379-2.1492 0.91639 0.169 1.1232 0.207 2.1056-0.747 2.2821 0.274" style="stroke:#000">
        <title>Orange, VT</title>
      </path>
    </g>
    <g id="vermont" style="fill:#98caed;stroke-width:.17829;stroke:#fff">
      <path id="c50009" d="m911.49 100.69 6.1973-1.72-0.38688 0.795 1.1318 1.5299-1.155 4.1131 0.1355 0.383 0.60439 0.596 0.73811 0.907 0.40293 0.499 0.0713 0.114 0.41719 0.674-0.53678 0.93451 0.32106 1.0665-0.18542 0.515-0.0802 0.137-0.79516 1.398-0.066 0.103-0.0945 0.138-0.22464 0.29-0.041 0.06-0.51525 0.378-0.34409-0.03-1.0768 1.397-1.8078-1.478 0.48613-0.4299 0.51912-1.0568-1.1306-0.9578 0.68409-1.7167-1.3218-0.49885 0.69888-1.881-1.9291-0.738-0.64362-0.25 1.0353-2.3658-1.0103-0.51818-0.0981-2.395" style="stroke:#000">
        <title>Essex, VT</title>
      </path>
      <path id="c50019" d="m911.59 103.09 1.0103 0.51818-1.0353 2.3658 0.64362 0.25-0.6972 1.8284-1.8322-0.70174 0.74876 1.4311-1.0327-0.28188-1.0109 4.0941-2.0093-0.481 0.0714-0.23833-1.948-0.54659 0.4884-2.1234-2.9513-0.68267 0.51941-1.4018-0.63625-1.9259 0.11627-0.17898-0.78405-1.7109 4.1714-0.9058 0.69562-0.0369 3.4055-1.0217 1.9685-0.64507z" style="stroke:#000">
        <title>Orleans, VT</title>
      </path>
      <path id="c50003" d="m906.71 143.62-0.50812-0.04 0.25673 1.3228-0.16043 0.0192 0.40293 2.09-2.1234 0.385 0.0802 0.481 0.78803 3.801 1.4334-0.273 0.89856 4.251-1.5279 0.321-3.9847 0.861-0.44574 0.13121-0.68757-1.5386 0.34887-1.0319-0.44574-1.9647-1.7187-8.397 6.347-1.238 0.86221-0.1631 0.18433 0.9841" style="stroke:#000">
        <title>Bennington, VT</title>
      </path>
      <path id="c50013" d="m891.04 105.75-0.17658 1.3099-0.19075 0.26139 0.40438 0.60146 0.6311 0.063 0.0501 1.31 0.1635 0.41725-7e-3 0.28972-0.33108 0.23893-0.26023 0.98992 0.19319 0.42313 0.60412 0.60734 0.22102 0.86776-0.0579 0.18598 0.12805 0.61984-0.24383 0.13949-0.0269 0.35643 0.17454 0.57335-0.19735 0.51138-1.3285 0.96073-0.26564-0.224-0.28669-0.9659-0.13199-0.89134-0.0825-1.5937 0.11906-1.7884-1.0042-0.71828-0.0389-0.96389 0.32883-1.072-0.16872-0.83409-0.623-0.63939 0.025-0.394 2.3783-0.642" style="stroke:#000">
        <title>Grand Isle, VT</title>
      </path>
      <path id="c50023" d="m905.87 114.09 3.8082 0.972 0.0642 0.05 0.12123 0.224-0.025 0.369-0.34595 1.3831-0.60143 1.1125 0.19509 0.61661-0.45115 1.7588-0.91639-0.169 0.13379 2.1492-2.0478-0.33484-0.0423 0.27118-0.46481-0.0457-0.18312 1.7853-0.15317-0.0378-0.29848 1.9247-1.018-0.137-2.7634-0.40764-0.34017 0.11867-0.71297-1.9208-0.30728 0.0967 0.27456-2.795-0.27456-0.07 0.44381-2.0957 0.52717-0.0117 0.15205-0.77234-0.63987-0.1263 0.27278-1.212 0.74527 5e-3 1.954 0.58876 0.55884-1.9896 1.8926 0.7196 0.44215-2.025" style="stroke:#000">
        <title>Washington, VT</title>
      </path>
      <path id="c50005" d="m912.21 106.22 1.9291 0.738-0.69888 1.881 1.3218 0.49935-0.68409 1.7168 1.1306 0.95793-0.51912 1.0569-0.48613 0.43003 1.8078 1.478-1.125 0.707-1.1125 0.692-0.0838 0.08-0.0499 0.04-0.53843 0.972-0.0553 0.234v0.144l0.52773 1.84 0.29953 0.403 0.27277 0.217-2.2821-0.274-2.1056 0.747-1.1232-0.207 0.45115-1.7588-0.19509-0.61661 0.60143-1.1125 0.34595-1.3831 0.025-0.369-0.12123-0.224-0.0642-0.05-3.8082-0.972 0.50634-1.977 2.0093 0.481 1.0109-4.0941 1.0327 0.28188-0.74876-1.4311 1.8322 0.70174 0.6972-1.8284" style="stroke:#000">
        <title>Caledonia, VT</title>
      </path>
      <path id="c50015" d="m902.04 108.52 2.9513 0.68267-0.4884 2.1234 1.948 0.54659-0.0714 0.23833-0.50634 1.977-0.44215 2.025-1.8926-0.7196-0.55884 1.9896-1.954-0.58876-0.74527-5e-3 -0.53973-0.0417 0.29387-1.24-0.46679-0.13553 0.18967-0.8024-0.35217 0.0208-1.7005-1.4433-0.32507 0.0572-1e-3 -0.48685 0.41587-0.0268 0.40517-1.578 0.92938 0.17642-0.0129-1.0358 0.17962-0.0301-0.013-0.62923 0.0512-0.51155 2.0556-0.876 0.65075 0.314" style="stroke:#000">
        <title>Lamoille, VT</title>
      </path>
      <path id="c50011" d="m901.25 103.3 0.78405 1.7109-0.11627 0.17898 0.63625 1.9259-0.51941 1.4018-0.65075-0.314-2.0556 0.876-0.0512 0.51155 0.0129 0.62923-0.17961 0.0301 0.0129 1.0358-0.92938-0.17642-0.40517 1.578-0.41588 0.0268 1e-3 0.48685-1.9011 8e-3 -3.3576-0.95233-0.60412-0.60734-0.1932-0.42313 0.26024-0.98992 0.33108-0.23892 7e-3 -0.28973-0.1635-0.41725-0.0501-1.31-0.6311-0.063-0.40438-0.60146 0.19075-0.26139 0.17658-1.3099 10.216-2.4456" style="stroke:#000">
        <title>Franklin, VT</title>
      </path>
      <path id="c50007" d="m892.12 112.26 3.3576 0.95233 1.9011-8e-3 0.32507-0.0572 1.7005 1.4433 0.35217-0.0208-0.18967 0.8024 0.46679 0.13553-0.29387 1.24 0.53973 0.0417-0.27278 1.212 0.63987 0.1263-0.15205 0.77234-0.52717 0.0117-0.44381 2.0957 0.27456 0.07-0.27456 2.795-0.73097-1.913-0.30626-1.0655-0.76474 0.0182 0.11156 0.40962-0.83666 0.30543-0.0541-0.0951-3.042 1.3763-0.86826 0.1-0.62531-2.379 0.17599-1.381-0.025-0.25-9e-3 -0.01-0.29774-0.804-0.22999-0.499-0.76486-0.924-0.46711-0.273 1.3285-0.96073 0.19735-0.51138-0.17454-0.57335 0.0269-0.35643 0.24383-0.13949-0.12805-0.61984 0.0579-0.18598-0.22102-0.86776" style="stroke:#000">
        <title>Chittenden, VT</title>
      </path>
      <path id="c50001" d="m893.03 123 0.86826-0.1 3.042-1.3763 0.0541 0.0951 0.83666-0.30543-0.11156-0.40962 0.76474-0.0182 0.30626 1.0655 0.73097 1.913 0.30728-0.0967 0.71297 1.9208 0.34017-0.11867 2.7634 0.40764-0.41897 1.711-0.22906 0.73924-0.10323-0.0251-0.34302 1.7254-0.22312-0.085-0.1392-0.67251-1.3425 1.132 0.28347 0.611 0.15333 0.273-0.84092 0.71269-0.42135-0.88169-2.0004 0.586-0.97167 0.369 0.58478 1.535-2.4194 0.901-0.59548-1.157-0.27991-0.507-1.4457-4.2424-0.50652-0.36255-0.0392-0.765v-0.749l9e-3 -1.902 0.67392-1.922" style="stroke:#000">
        <title>Addison, VT</title>
      </path>
      <path id="c50021" d="m895.21 134.61 2.4194-0.901-0.58478-1.535 0.97167-0.369 2.0004-0.586 0.42134 0.88169 0.84093-0.71269 1.1838-1.045 0.0785 0.39718 0.54004 0.12446 0.12046-0.27414 0.66591 0.0825 0.28704 0.312-0.23464 1.6123 0.2269 0.0179-0.10877 0.64725 2.1989 0.31159-0.37627 2.3124-0.37628 0.0677 0.1967 2.108 0.34624 0.0197 0.0945 0.37635 0.49309-0.0223 0.34707 0.1642 0.0114 0.94041-0.24033 1.4858-0.82774-0.17146-0.41684 0.234 0.0867 0.54869-0.18607 0.10813 0.27546 1.0522-6.347 1.238-0.97345-4.525-0.44493-1.1229-0.79749-0.26665-0.44863-0.90683-1.077 0.15436 5e-3 1.532-0.54556-0.226-0.0642-0.09-0.16224-1.342 0.0909-0.933 0.31022-1.704" style="stroke:#000">
        <title>Rutland, VT</title>
      </path>
      <path id="c50025" d="m906.71 143.62 2.3534 0.199 2.0895-0.843 1.9754-0.433 0.0642 1.695 0.37836 1.0656-0.16662 1.4531 0.45882 1.2846-1.0153 1.0528 0.25933 0.9314-0.37153 1.0535 0.37658 0.55571 0.59742 0.87938 1.8381 1.478-7.7698 1.664-0.89856-4.251-1.4334 0.273-0.78803-3.801-0.0802-0.481 2.1234-0.385-0.40293-2.09 0.16043-0.0192-0.25673-1.3228 0.50812 0.04" style="stroke:#000">
        <title>Windham, VT</title>
      </path>
    </g>
  </g>
</svg>
