<svg version="1.1" viewBox="40 10 440 195" width="100%" xmlns="http://www.w3.org/2000/svg" xmlns:xlink="http://www.w3.org/1999/xlink">
 <defs>
  <style type="text/css">
*{stroke-linecap:butt;stroke-linejoin:round;}
  </style>
 </defs>
 <g id="figure_1">
  <g id="patch_1">
   <path d="M 0 216 
L 504 216 
L 504 0 
L 0 0 
z
" style="fill:#ffffff;"/>
  </g>
  <g id="axes_1">
   <g id="patch_2">
    <path d="M 63 192.24 
L 453.6 192.24 
L 453.6 25.92 
L 63 25.92 
z
" style="fill:#ffffff;"/>
   </g>
   <g id="matplotlib.axis_1">
    <g id="xtick_1">
     <g id="line2d_1"/>
     <g id="text_1">
      <!-- Mar -->
      <defs>
       <path d="M 7.421875 0 
L 7.421875 71.578125 
L 21.6875 71.578125 
L 38.625 20.90625 
Q 40.96875 13.8125 42.046875 10.296875 
Q 43.265625 14.203125 45.84375 21.78125 
L 62.984375 71.578125 
L 75.734375 71.578125 
L 75.734375 0 
L 66.609375 0 
L 66.609375 59.90625 
L 45.796875 0 
L 37.25 0 
L 16.546875 60.9375 
L 16.546875 0 
z
" id="ArialMT-77"/>
       <path d="M 40.4375 6.390625 
Q 35.546875 2.25 31.03125 0.53125 
Q 26.515625 -1.171875 21.34375 -1.171875 
Q 12.796875 -1.171875 8.203125 3 
Q 3.609375 7.171875 3.609375 13.671875 
Q 3.609375 17.484375 5.34375 20.625 
Q 7.078125 23.78125 9.890625 25.6875 
Q 12.703125 27.59375 16.21875 28.5625 
Q 18.796875 29.25 24.03125 29.890625 
Q 34.671875 31.15625 39.703125 32.90625 
Q 39.75 34.71875 39.75 35.203125 
Q 39.75 40.578125 37.25 42.78125 
Q 33.890625 45.75 27.25 45.75 
Q 21.046875 45.75 18.09375 43.578125 
Q 15.140625 41.40625 13.71875 35.890625 
L 5.125 37.0625 
Q 6.296875 42.578125 8.984375 45.96875 
Q 11.671875 49.359375 16.75 51.1875 
Q 21.828125 53.03125 28.515625 53.03125 
Q 35.15625 53.03125 39.296875 51.46875 
Q 43.453125 49.90625 45.40625 47.53125 
Q 47.359375 45.171875 48.140625 41.546875 
Q 48.578125 39.3125 48.578125 33.453125 
L 48.578125 21.734375 
Q 48.578125 9.46875 49.140625 6.21875 
Q 49.703125 2.984375 51.375 0 
L 42.1875 0 
Q 40.828125 2.734375 40.4375 6.390625 
z
M 39.703125 26.03125 
Q 34.90625 24.078125 25.34375 22.703125 
Q 19.921875 21.921875 17.671875 20.9375 
Q 15.4375 19.96875 14.203125 18.09375 
Q 12.984375 16.21875 12.984375 13.921875 
Q 12.984375 10.40625 15.640625 8.0625 
Q 18.3125 5.71875 23.4375 5.71875 
Q 28.515625 5.71875 32.46875 7.9375 
Q 36.421875 10.15625 38.28125 14.015625 
Q 39.703125 17 39.703125 22.796875 
z
" id="ArialMT-97"/>
       <path d="M 6.5 0 
L 6.5 51.859375 
L 14.40625 51.859375 
L 14.40625 44 
Q 17.4375 49.515625 20 51.265625 
Q 22.5625 53.03125 25.640625 53.03125 
Q 30.078125 53.03125 34.671875 50.203125 
L 31.640625 42.046875 
Q 28.421875 43.953125 25.203125 43.953125 
Q 22.3125 43.953125 20.015625 42.21875 
Q 17.71875 40.484375 16.75 37.40625 
Q 15.28125 32.71875 15.28125 27.15625 
L 15.28125 0 
z
" id="ArialMT-114"/>
      </defs>
      <g style="fill:#871f78;" transform="translate(69.957532 202.897813)scale(0.1 -0.1)">
       <use xlink:href="#ArialMT-77"/>
       <use x="83.300781" xlink:href="#ArialMT-97"/>
       <use x="138.916016" xlink:href="#ArialMT-114"/>
      </g>
     </g>
    </g>
    <g id="xtick_2">
     <g id="line2d_2"/>
     <g id="text_2">
      <!-- Apr -->
      <defs>
       <path d="M -0.140625 0 
L 27.34375 71.578125 
L 37.546875 71.578125 
L 66.84375 0 
L 56.0625 0 
L 47.703125 21.6875 
L 17.78125 21.6875 
L 9.90625 0 
z
M 20.515625 29.390625 
L 44.78125 29.390625 
L 37.3125 49.21875 
Q 33.890625 58.25 32.234375 64.0625 
Q 30.859375 57.171875 28.375 50.390625 
z
" id="ArialMT-65"/>
       <path d="M 6.59375 -19.875 
L 6.59375 51.859375 
L 14.59375 51.859375 
L 14.59375 45.125 
Q 17.4375 49.078125 21 51.046875 
Q 24.5625 53.03125 29.640625 53.03125 
Q 36.28125 53.03125 41.359375 49.609375 
Q 46.4375 46.1875 49.015625 39.953125 
Q 51.609375 33.734375 51.609375 26.3125 
Q 51.609375 18.359375 48.75 11.984375 
Q 45.90625 5.609375 40.453125 2.21875 
Q 35.015625 -1.171875 29 -1.171875 
Q 24.609375 -1.171875 21.109375 0.6875 
Q 17.625 2.546875 15.375 5.375 
L 15.375 -19.875 
z
M 14.546875 25.640625 
Q 14.546875 15.625 18.59375 10.84375 
Q 22.65625 6.0625 28.421875 6.0625 
Q 34.28125 6.0625 38.453125 11.015625 
Q 42.625 15.96875 42.625 26.375 
Q 42.625 36.28125 38.546875 41.203125 
Q 34.46875 46.140625 28.8125 46.140625 
Q 23.1875 46.140625 18.859375 40.890625 
Q 14.546875 35.640625 14.546875 25.640625 
z
" id="ArialMT-112"/>
      </defs>
      <g style="fill:#871f78;" transform="translate(113.157575 202.897813)scale(0.1 -0.1)">
       <use xlink:href="#ArialMT-65"/>
       <use x="66.699219" xlink:href="#ArialMT-112"/>
       <use x="122.314453" xlink:href="#ArialMT-114"/>
      </g>
     </g>
    </g>
    <g id="xtick_3">
     <g id="line2d_3"/>
     <g id="text_3">
      <!-- May -->
      <defs>
       <path d="M 6.203125 -19.96875 
L 5.21875 -11.71875 
Q 8.109375 -12.5 10.25 -12.5 
Q 13.1875 -12.5 14.9375 -11.515625 
Q 16.703125 -10.546875 17.828125 -8.796875 
Q 18.65625 -7.46875 20.515625 -2.25 
Q 20.75 -1.515625 21.296875 -0.09375 
L 1.609375 51.859375 
L 11.078125 51.859375 
L 21.875 21.828125 
Q 23.96875 16.109375 25.640625 9.8125 
Q 27.15625 15.875 29.25 21.625 
L 40.328125 51.859375 
L 49.125 51.859375 
L 29.390625 -0.875 
Q 26.21875 -9.421875 24.46875 -12.640625 
Q 22.125 -17 19.09375 -19.015625 
Q 16.0625 -21.046875 11.859375 -21.046875 
Q 9.328125 -21.046875 6.203125 -19.96875 
z
" id="ArialMT-121"/>
      </defs>
      <g style="fill:#871f78;" transform="translate(152.4963 202.897813)scale(0.1 -0.1)">
       <use xlink:href="#ArialMT-77"/>
       <use x="83.300781" xlink:href="#ArialMT-97"/>
       <use x="138.916016" xlink:href="#ArialMT-121"/>
      </g>
     </g>
    </g>
    <g id="xtick_4">
     <g id="line2d_4"/>
     <g id="text_4">
      <!-- Jun -->
      <defs>
       <path d="M 2.875 20.3125 
L 11.421875 21.484375 
Q 11.765625 13.28125 14.5 10.25 
Q 17.234375 7.234375 22.078125 7.234375 
Q 25.640625 7.234375 28.21875 8.859375 
Q 30.8125 10.5 31.78125 13.296875 
Q 32.765625 16.109375 32.765625 22.265625 
L 32.765625 71.578125 
L 42.234375 71.578125 
L 42.234375 22.796875 
Q 42.234375 13.8125 40.0625 8.875 
Q 37.890625 3.953125 33.171875 1.359375 
Q 28.46875 -1.21875 22.125 -1.21875 
Q 12.703125 -1.21875 7.6875 4.203125 
Q 2.6875 9.625 2.875 20.3125 
z
" id="ArialMT-74"/>
       <path d="M 40.578125 0 
L 40.578125 7.625 
Q 34.515625 -1.171875 24.125 -1.171875 
Q 19.53125 -1.171875 15.546875 0.578125 
Q 11.578125 2.34375 9.640625 5 
Q 7.71875 7.671875 6.9375 11.53125 
Q 6.390625 14.109375 6.390625 19.734375 
L 6.390625 51.859375 
L 15.1875 51.859375 
L 15.1875 23.09375 
Q 15.1875 16.21875 15.71875 13.8125 
Q 16.546875 10.359375 19.234375 8.375 
Q 21.921875 6.390625 25.875 6.390625 
Q 29.828125 6.390625 33.296875 8.421875 
Q 36.765625 10.453125 38.203125 13.9375 
Q 39.65625 17.4375 39.65625 24.078125 
L 39.65625 51.859375 
L 48.4375 51.859375 
L 48.4375 0 
z
" id="ArialMT-117"/>
       <path d="M 6.59375 0 
L 6.59375 51.859375 
L 14.5 51.859375 
L 14.5 44.484375 
Q 20.21875 53.03125 31 53.03125 
Q 35.6875 53.03125 39.625 51.34375 
Q 43.5625 49.65625 45.515625 46.921875 
Q 47.46875 44.1875 48.25 40.4375 
Q 48.734375 37.984375 48.734375 31.890625 
L 48.734375 0 
L 39.9375 0 
L 39.9375 31.546875 
Q 39.9375 36.921875 38.90625 39.578125 
Q 37.890625 42.234375 35.28125 43.8125 
Q 32.671875 45.40625 29.15625 45.40625 
Q 23.53125 45.40625 19.453125 41.84375 
Q 15.375 38.28125 15.375 28.328125 
L 15.375 0 
z
" id="ArialMT-110"/>
      </defs>
      <g style="fill:#871f78;" transform="translate(196.25103 202.897813)scale(0.1 -0.1)">
       <use xlink:href="#ArialMT-74"/>
       <use x="50" xlink:href="#ArialMT-117"/>
       <use x="105.615234" xlink:href="#ArialMT-110"/>
      </g>
     </g>
    </g>
    <g id="xtick_5">
     <g id="line2d_5"/>
     <g id="text_5">
      <!-- Jul -->
      <defs>
       <path d="M 6.390625 0 
L 6.390625 71.578125 
L 15.1875 71.578125 
L 15.1875 0 
z
" id="ArialMT-108"/>
      </defs>
      <g style="fill:#871f78;" transform="translate(238.92413 202.897813)scale(0.1 -0.1)">
       <use xlink:href="#ArialMT-74"/>
       <use x="50" xlink:href="#ArialMT-117"/>
       <use x="105.615234" xlink:href="#ArialMT-108"/>
      </g>
     </g>
    </g>
    <g id="xtick_6">
     <g id="line2d_6"/>
     <g id="text_6">
      <!-- Aug -->
      <defs>
       <path d="M 4.984375 -4.296875 
L 13.53125 -5.5625 
Q 14.0625 -9.515625 16.5 -11.328125 
Q 19.78125 -13.765625 25.4375 -13.765625 
Q 31.546875 -13.765625 34.859375 -11.328125 
Q 38.1875 -8.890625 39.359375 -4.5 
Q 40.046875 -1.8125 39.984375 6.78125 
Q 34.234375 0 25.640625 0 
Q 14.9375 0 9.078125 7.71875 
Q 3.21875 15.4375 3.21875 26.21875 
Q 3.21875 33.640625 5.90625 39.90625 
Q 8.59375 46.1875 13.6875 49.609375 
Q 18.796875 53.03125 25.6875 53.03125 
Q 34.859375 53.03125 40.828125 45.609375 
L 40.828125 51.859375 
L 48.921875 51.859375 
L 48.921875 7.03125 
Q 48.921875 -5.078125 46.453125 -10.125 
Q 44 -15.1875 38.640625 -18.109375 
Q 33.296875 -21.046875 25.484375 -21.046875 
Q 16.21875 -21.046875 10.5 -16.875 
Q 4.78125 -12.703125 4.984375 -4.296875 
z
M 12.25 26.859375 
Q 12.25 16.65625 16.296875 11.96875 
Q 20.359375 7.28125 26.46875 7.28125 
Q 32.515625 7.28125 36.609375 11.9375 
Q 40.71875 16.609375 40.71875 26.5625 
Q 40.71875 36.078125 36.5 40.90625 
Q 32.28125 45.75 26.3125 45.75 
Q 20.453125 45.75 16.34375 40.984375 
Q 12.25 36.234375 12.25 26.859375 
z
" id="ArialMT-103"/>
      </defs>
      <g style="fill:#871f78;" transform="translate(278.789797 202.897813)scale(0.1 -0.1)">
       <use xlink:href="#ArialMT-65"/>
       <use x="66.699219" xlink:href="#ArialMT-117"/>
       <use x="122.314453" xlink:href="#ArialMT-103"/>
      </g>
     </g>
    </g>
    <g id="xtick_7">
     <g id="line2d_7"/>
     <g id="text_7">
      <!-- Sep -->
      <defs>
       <path d="M 4.5 23 
L 13.421875 23.78125 
Q 14.0625 18.40625 16.375 14.96875 
Q 18.703125 11.53125 23.578125 9.40625 
Q 28.46875 7.28125 34.578125 7.28125 
Q 39.984375 7.28125 44.140625 8.890625 
Q 48.296875 10.5 50.3125 13.296875 
Q 52.34375 16.109375 52.34375 19.4375 
Q 52.34375 22.796875 50.390625 25.3125 
Q 48.4375 27.828125 43.953125 29.546875 
Q 41.0625 30.671875 31.203125 33.03125 
Q 21.34375 35.40625 17.390625 37.5 
Q 12.25 40.1875 9.734375 44.15625 
Q 7.234375 48.140625 7.234375 53.078125 
Q 7.234375 58.5 10.296875 63.203125 
Q 13.375 67.921875 19.28125 70.359375 
Q 25.203125 72.796875 32.421875 72.796875 
Q 40.375 72.796875 46.453125 70.234375 
Q 52.546875 67.671875 55.8125 62.6875 
Q 59.078125 57.71875 59.328125 51.421875 
L 50.25 50.734375 
Q 49.515625 57.515625 45.28125 60.984375 
Q 41.0625 64.453125 32.8125 64.453125 
Q 24.21875 64.453125 20.28125 61.296875 
Q 16.359375 58.15625 16.359375 53.71875 
Q 16.359375 49.859375 19.140625 47.359375 
Q 21.875 44.875 33.421875 42.265625 
Q 44.96875 39.65625 49.265625 37.703125 
Q 55.515625 34.8125 58.484375 30.390625 
Q 61.46875 25.984375 61.46875 20.21875 
Q 61.46875 14.5 58.203125 9.4375 
Q 54.9375 4.390625 48.796875 1.578125 
Q 42.671875 -1.21875 35.015625 -1.21875 
Q 25.296875 -1.21875 18.71875 1.609375 
Q 12.15625 4.4375 8.421875 10.125 
Q 4.6875 15.828125 4.5 23 
z
" id="ArialMT-83"/>
       <path d="M 42.09375 16.703125 
L 51.171875 15.578125 
Q 49.03125 7.625 43.21875 3.21875 
Q 37.40625 -1.171875 28.375 -1.171875 
Q 17 -1.171875 10.328125 5.828125 
Q 3.65625 12.84375 3.65625 25.484375 
Q 3.65625 38.578125 10.390625 45.796875 
Q 17.140625 53.03125 27.875 53.03125 
Q 38.28125 53.03125 44.875 45.953125 
Q 51.46875 38.875 51.46875 26.03125 
Q 51.46875 25.25 51.421875 23.6875 
L 12.75 23.6875 
Q 13.234375 15.140625 17.578125 10.59375 
Q 21.921875 6.0625 28.421875 6.0625 
Q 33.25 6.0625 36.671875 8.59375 
Q 40.09375 11.140625 42.09375 16.703125 
z
M 13.234375 30.90625 
L 42.1875 30.90625 
Q 41.609375 37.453125 38.875 40.71875 
Q 34.671875 45.796875 27.984375 45.796875 
Q 21.921875 45.796875 17.796875 41.75 
Q 13.671875 37.703125 13.234375 30.90625 
z
" id="ArialMT-101"/>
      </defs>
      <g style="fill:#871f78;" transform="translate(321.160152 203.019688)scale(0.1 -0.1)">
       <use xlink:href="#ArialMT-83"/>
       <use x="66.699219" xlink:href="#ArialMT-101"/>
       <use x="122.314453" xlink:href="#ArialMT-112"/>
      </g>
     </g>
    </g>
    <g id="xtick_8">
     <g id="line2d_8"/>
     <g id="text_8">
      <!-- Oct -->
      <defs>
       <path d="M 4.828125 34.859375 
Q 4.828125 52.6875 14.390625 62.765625 
Q 23.96875 72.859375 39.109375 72.859375 
Q 49.03125 72.859375 56.984375 68.109375 
Q 64.9375 63.375 69.109375 54.90625 
Q 73.296875 46.4375 73.296875 35.6875 
Q 73.296875 24.8125 68.890625 16.21875 
Q 64.5 7.625 56.4375 3.203125 
Q 48.390625 -1.21875 39.0625 -1.21875 
Q 28.953125 -1.21875 20.984375 3.65625 
Q 13.03125 8.546875 8.921875 16.984375 
Q 4.828125 25.4375 4.828125 34.859375 
z
M 14.59375 34.71875 
Q 14.59375 21.78125 21.546875 14.328125 
Q 28.515625 6.890625 39.015625 6.890625 
Q 49.703125 6.890625 56.609375 14.40625 
Q 63.53125 21.921875 63.53125 35.75 
Q 63.53125 44.484375 60.578125 51 
Q 57.625 57.515625 51.921875 61.109375 
Q 46.234375 64.703125 39.15625 64.703125 
Q 29.109375 64.703125 21.84375 57.78125 
Q 14.59375 50.875 14.59375 34.71875 
z
" id="ArialMT-79"/>
       <path d="M 40.4375 19 
L 49.078125 17.875 
Q 47.65625 8.9375 41.8125 3.875 
Q 35.984375 -1.171875 27.484375 -1.171875 
Q 16.84375 -1.171875 10.375 5.78125 
Q 3.90625 12.75 3.90625 25.734375 
Q 3.90625 34.125 6.6875 40.421875 
Q 9.46875 46.734375 15.15625 49.875 
Q 20.84375 53.03125 27.546875 53.03125 
Q 35.984375 53.03125 41.359375 48.75 
Q 46.734375 44.484375 48.25 36.625 
L 39.703125 35.296875 
Q 38.484375 40.53125 35.375 43.15625 
Q 32.28125 45.796875 27.875 45.796875 
Q 21.234375 45.796875 17.078125 41.03125 
Q 12.9375 36.28125 12.9375 25.984375 
Q 12.9375 15.53125 16.9375 10.796875 
Q 20.953125 6.0625 27.390625 6.0625 
Q 32.5625 6.0625 36.03125 9.234375 
Q 39.5 12.40625 40.4375 19 
z
" id="ArialMT-99"/>
       <path d="M 25.78125 7.859375 
L 27.046875 0.09375 
Q 23.34375 -0.6875 20.40625 -0.6875 
Q 15.625 -0.6875 12.984375 0.828125 
Q 10.359375 2.34375 9.28125 4.8125 
Q 8.203125 7.28125 8.203125 15.1875 
L 8.203125 45.015625 
L 1.765625 45.015625 
L 1.765625 51.859375 
L 8.203125 51.859375 
L 8.203125 64.703125 
L 16.9375 69.96875 
L 16.9375 51.859375 
L 25.78125 51.859375 
L 25.78125 45.015625 
L 16.9375 45.015625 
L 16.9375 14.703125 
Q 16.9375 10.9375 17.40625 9.859375 
Q 17.875 8.796875 18.921875 8.15625 
Q 19.96875 7.515625 21.921875 7.515625 
Q 23.390625 7.515625 25.78125 7.859375 
z
" id="ArialMT-116"/>
      </defs>
      <g style="fill:#871f78;" transform="translate(363.28169 202.897813)scale(0.1 -0.1)">
       <use xlink:href="#ArialMT-79"/>
       <use x="77.783203" xlink:href="#ArialMT-99"/>
       <use x="127.783203" xlink:href="#ArialMT-116"/>
      </g>
     </g>
    </g>
    <g id="xtick_9">
     <g id="line2d_9"/>
     <g id="text_9">
      <!-- Nov -->
      <defs>
       <path d="M 7.625 0 
L 7.625 71.578125 
L 17.328125 71.578125 
L 54.9375 15.375 
L 54.9375 71.578125 
L 64.015625 71.578125 
L 64.015625 0 
L 54.296875 0 
L 16.703125 56.25 
L 16.703125 0 
z
" id="ArialMT-78"/>
       <path d="M 3.328125 25.921875 
Q 3.328125 40.328125 11.328125 47.265625 
Q 18.015625 53.03125 27.640625 53.03125 
Q 38.328125 53.03125 45.109375 46.015625 
Q 51.90625 39.015625 51.90625 26.65625 
Q 51.90625 16.65625 48.90625 10.90625 
Q 45.90625 5.171875 40.15625 2 
Q 34.421875 -1.171875 27.640625 -1.171875 
Q 16.75 -1.171875 10.03125 5.8125 
Q 3.328125 12.796875 3.328125 25.921875 
z
M 12.359375 25.921875 
Q 12.359375 15.96875 16.703125 11.015625 
Q 21.046875 6.0625 27.640625 6.0625 
Q 34.1875 6.0625 38.53125 11.03125 
Q 42.875 16.015625 42.875 26.21875 
Q 42.875 35.84375 38.5 40.796875 
Q 34.125 45.75 27.640625 45.75 
Q 21.046875 45.75 16.703125 40.8125 
Q 12.359375 35.890625 12.359375 25.921875 
z
" id="ArialMT-111"/>
       <path d="M 21 0 
L 1.265625 51.859375 
L 10.546875 51.859375 
L 21.6875 20.796875 
Q 23.484375 15.765625 25 10.359375 
Q 26.171875 14.453125 28.265625 20.21875 
L 39.796875 51.859375 
L 48.828125 51.859375 
L 29.203125 0 
z
" id="ArialMT-118"/>
      </defs>
      <g style="fill:#871f78;" transform="translate(404.538764 202.897813)scale(0.1 -0.1)">
       <use xlink:href="#ArialMT-78"/>
       <use x="72.216797" xlink:href="#ArialMT-111"/>
       <use x="127.832031" xlink:href="#ArialMT-118"/>
      </g>
     </g>
    </g>
   </g>
   <g id="matplotlib.axis_2">
    <g id="ytick_1">
     <g id="line2d_10">
      <path clip-path="url(#p9210aa35d3)" d="M 63 192.24 
L 453.6 192.24 
" style="fill:none;stroke:#cccccc;stroke-linecap:round;stroke-width:0.8;"/>
     </g>
     <g id="line2d_11"/>
     <g id="text_10">
      <!-- 0 -->
      <defs>
       <path d="M 4.15625 35.296875 
Q 4.15625 48 6.765625 55.734375 
Q 9.375 63.484375 14.515625 67.671875 
Q 19.671875 71.875 27.484375 71.875 
Q 33.25 71.875 37.59375 69.546875 
Q 41.9375 67.234375 44.765625 62.859375 
Q 47.609375 58.5 49.21875 52.21875 
Q 50.828125 45.953125 50.828125 35.296875 
Q 50.828125 22.703125 48.234375 14.96875 
Q 45.65625 7.234375 40.5 3 
Q 35.359375 -1.21875 27.484375 -1.21875 
Q 17.140625 -1.21875 11.234375 6.203125 
Q 4.15625 15.140625 4.15625 35.296875 
z
M 13.1875 35.296875 
Q 13.1875 17.671875 17.3125 11.828125 
Q 21.4375 6 27.484375 6 
Q 33.546875 6 37.671875 11.859375 
Q 41.796875 17.71875 41.796875 35.296875 
Q 41.796875 52.984375 37.671875 58.78125 
Q 33.546875 64.59375 27.390625 64.59375 
Q 21.34375 64.59375 17.71875 59.46875 
Q 13.1875 52.9375 13.1875 35.296875 
z
" id="ArialMT-48"/>
      </defs>
      <g style="fill:#871f78;" transform="translate(53.939062 195.818906)scale(0.1 -0.1)">
       <use xlink:href="#ArialMT-48"/>
      </g>
     </g>
    </g>
    <g id="ytick_2">
     <g id="line2d_12">
      <path clip-path="url(#p9210aa35d3)" d="M 63 162 
L 453.6 162 
" style="fill:none;stroke:#cccccc;stroke-linecap:round;stroke-width:0.8;"/>
     </g>
     <g id="line2d_13"/>
     <g id="text_11">
      <!-- 10 -->
      <defs>
       <path d="M 37.25 0 
L 28.46875 0 
L 28.46875 56 
Q 25.296875 52.984375 20.140625 49.953125 
Q 14.984375 46.921875 10.890625 45.40625 
L 10.890625 53.90625 
Q 18.265625 57.375 23.78125 62.296875 
Q 29.296875 67.234375 31.59375 71.875 
L 37.25 71.875 
z
" id="ArialMT-49"/>
      </defs>
      <g style="fill:#871f78;" transform="translate(48.378125 165.578906)scale(0.1 -0.1)">
       <use xlink:href="#ArialMT-49"/>
       <use x="55.615234" xlink:href="#ArialMT-48"/>
      </g>
     </g>
    </g>
    <g id="ytick_3">
     <g id="line2d_14">
      <path clip-path="url(#p9210aa35d3)" d="M 63 131.76 
L 453.6 131.76 
" style="fill:none;stroke:#cccccc;stroke-linecap:round;stroke-width:0.8;"/>
     </g>
     <g id="line2d_15"/>
     <g id="text_12">
      <!-- 20 -->
      <defs>
       <path d="M 50.34375 8.453125 
L 50.34375 0 
L 3.03125 0 
Q 2.9375 3.171875 4.046875 6.109375 
Q 5.859375 10.9375 9.828125 15.625 
Q 13.8125 20.3125 21.34375 26.46875 
Q 33.015625 36.03125 37.109375 41.625 
Q 41.21875 47.21875 41.21875 52.203125 
Q 41.21875 57.421875 37.46875 61 
Q 33.734375 64.59375 27.734375 64.59375 
Q 21.390625 64.59375 17.578125 60.78125 
Q 13.765625 56.984375 13.71875 50.25 
L 4.6875 51.171875 
Q 5.609375 61.28125 11.65625 66.578125 
Q 17.71875 71.875 27.9375 71.875 
Q 38.234375 71.875 44.234375 66.15625 
Q 50.25 60.453125 50.25 52 
Q 50.25 47.703125 48.484375 43.546875 
Q 46.734375 39.40625 42.65625 34.8125 
Q 38.578125 30.21875 29.109375 22.21875 
Q 21.1875 15.578125 18.9375 13.203125 
Q 16.703125 10.84375 15.234375 8.453125 
z
" id="ArialMT-50"/>
      </defs>
      <g style="fill:#871f78;" transform="translate(48.378125 135.338906)scale(0.1 -0.1)">
       <use xlink:href="#ArialMT-50"/>
       <use x="55.615234" xlink:href="#ArialMT-48"/>
      </g>
     </g>
    </g>
    <g id="ytick_4">
     <g id="line2d_16">
      <path clip-path="url(#p9210aa35d3)" d="M 63 101.52 
L 453.6 101.52 
" style="fill:none;stroke:#cccccc;stroke-linecap:round;stroke-width:0.8;"/>
     </g>
     <g id="line2d_17"/>
     <g id="text_13">
      <!-- 30 -->
      <defs>
       <path d="M 4.203125 18.890625 
L 12.984375 20.0625 
Q 14.5 12.59375 18.140625 9.296875 
Q 21.78125 6 27 6 
Q 33.203125 6 37.46875 10.296875 
Q 41.75 14.59375 41.75 20.953125 
Q 41.75 27 37.796875 30.921875 
Q 33.84375 34.859375 27.734375 34.859375 
Q 25.25 34.859375 21.53125 33.890625 
L 22.515625 41.609375 
Q 23.390625 41.5 23.921875 41.5 
Q 29.546875 41.5 34.03125 44.421875 
Q 38.53125 47.359375 38.53125 53.46875 
Q 38.53125 58.296875 35.25 61.46875 
Q 31.984375 64.65625 26.8125 64.65625 
Q 21.6875 64.65625 18.265625 61.421875 
Q 14.84375 58.203125 13.875 51.765625 
L 5.078125 53.328125 
Q 6.6875 62.15625 12.390625 67.015625 
Q 18.109375 71.875 26.609375 71.875 
Q 32.46875 71.875 37.390625 69.359375 
Q 42.328125 66.84375 44.9375 62.5 
Q 47.5625 58.15625 47.5625 53.265625 
Q 47.5625 48.640625 45.0625 44.828125 
Q 42.578125 41.015625 37.703125 38.765625 
Q 44.046875 37.3125 47.5625 32.6875 
Q 51.078125 28.078125 51.078125 21.140625 
Q 51.078125 11.765625 44.234375 5.25 
Q 37.40625 -1.265625 26.953125 -1.265625 
Q 17.53125 -1.265625 11.296875 4.34375 
Q 5.078125 9.96875 4.203125 18.890625 
z
" id="ArialMT-51"/>
      </defs>
      <g style="fill:#871f78;" transform="translate(48.378125 105.098906)scale(0.1 -0.1)">
       <use xlink:href="#ArialMT-51"/>
       <use x="55.615234" xlink:href="#ArialMT-48"/>
      </g>
     </g>
    </g>
    <g id="ytick_5">
     <g id="line2d_18">
      <path clip-path="url(#p9210aa35d3)" d="M 63 71.28 
L 453.6 71.28 
" style="fill:none;stroke:#cccccc;stroke-linecap:round;stroke-width:0.8;"/>
     </g>
     <g id="line2d_19"/>
     <g id="text_14">
      <!-- 40 -->
      <defs>
       <path d="M 32.328125 0 
L 32.328125 17.140625 
L 1.265625 17.140625 
L 1.265625 25.203125 
L 33.9375 71.578125 
L 41.109375 71.578125 
L 41.109375 25.203125 
L 50.78125 25.203125 
L 50.78125 17.140625 
L 41.109375 17.140625 
L 41.109375 0 
z
M 32.328125 25.203125 
L 32.328125 57.46875 
L 9.90625 25.203125 
z
" id="ArialMT-52"/>
      </defs>
      <g style="fill:#871f78;" transform="translate(48.378125 74.858906)scale(0.1 -0.1)">
       <use xlink:href="#ArialMT-52"/>
       <use x="55.615234" xlink:href="#ArialMT-48"/>
      </g>
     </g>
    </g>
    <g id="ytick_6">
     <g id="line2d_20">
      <path clip-path="url(#p9210aa35d3)" d="M 63 41.04 
L 453.6 41.04 
" style="fill:none;stroke:#cccccc;stroke-linecap:round;stroke-width:0.8;"/>
     </g>
     <g id="line2d_21"/>
     <g id="text_15">
      <!-- 50 -->
      <defs>
       <path d="M 4.15625 18.75 
L 13.375 19.53125 
Q 14.40625 12.796875 18.140625 9.390625 
Q 21.875 6 27.15625 6 
Q 33.5 6 37.890625 10.78125 
Q 42.28125 15.578125 42.28125 23.484375 
Q 42.28125 31 38.0625 35.34375 
Q 33.84375 39.703125 27 39.703125 
Q 22.75 39.703125 19.328125 37.765625 
Q 15.921875 35.84375 13.96875 32.765625 
L 5.71875 33.84375 
L 12.640625 70.609375 
L 48.25 70.609375 
L 48.25 62.203125 
L 19.671875 62.203125 
L 15.828125 42.96875 
Q 22.265625 47.46875 29.34375 47.46875 
Q 38.71875 47.46875 45.15625 40.96875 
Q 51.609375 34.46875 51.609375 24.265625 
Q 51.609375 14.546875 45.953125 7.46875 
Q 39.0625 -1.21875 27.15625 -1.21875 
Q 17.390625 -1.21875 11.203125 4.25 
Q 5.03125 9.71875 4.15625 18.75 
z
" id="ArialMT-53"/>
      </defs>
      <g style="fill:#871f78;" transform="translate(48.378125 44.618906)scale(0.1 -0.1)">
       <use xlink:href="#ArialMT-53"/>
       <use x="55.615234" xlink:href="#ArialMT-48"/>
      </g>
     </g>
    </g>
   </g>
   <g id="patch_3">
    <path clip-path="url(#p9210aa35d3)" d="M 80.754545 192.24 
L 81.847974 192.24 
L 81.847974 188.875739 
L 80.754545 188.875739 
z
" style="fill:#871f78;opacity:0.35;"/>
   </g>
   <g id="patch_4">
    <path clip-path="url(#p9210aa35d3)" d="M 82.121331 192.24 
L 83.21476 192.24 
L 83.21476 192.24 
L 82.121331 192.24 
z
" style="fill:#871f78;opacity:0.35;"/>
   </g>
   <g id="patch_5">
    <path clip-path="url(#p9210aa35d3)" d="M 83.488117 192.24 
L 84.581545 192.24 
L 84.581545 192.24 
L 83.488117 192.24 
z
" style="fill:#871f78;opacity:0.35;"/>
   </g>
   <g id="patch_6">
    <path clip-path="url(#p9210aa35d3)" d="M 84.854902 192.24 
L 85.948331 192.24 
L 85.948331 192.24 
L 84.854902 192.24 
z
" style="fill:#871f78;opacity:0.35;"/>
   </g>
   <g id="patch_7">
    <path clip-path="url(#p9210aa35d3)" d="M 86.221688 192.24 
L 87.315117 192.24 
L 87.315117 188.875739 
L 86.221688 188.875739 
z
" style="fill:#871f78;opacity:0.35;"/>
   </g>
   <g id="patch_8">
    <path clip-path="url(#p9210aa35d3)" d="M 87.588474 192.24 
L 88.681902 192.24 
L 88.681902 192.24 
L 87.588474 192.24 
z
" style="fill:#871f78;opacity:0.35;"/>
   </g>
   <g id="patch_9">
    <path clip-path="url(#p9210aa35d3)" d="M 88.955259 192.24 
L 90.048688 192.24 
L 90.048688 192.24 
L 88.955259 192.24 
z
" style="fill:#871f78;opacity:0.35;"/>
   </g>
   <g id="patch_10">
    <path clip-path="url(#p9210aa35d3)" d="M 90.322045 192.24 
L 91.415473 192.24 
L 91.415473 192.24 
L 90.322045 192.24 
z
" style="fill:#871f78;opacity:0.35;"/>
   </g>
   <g id="patch_11">
    <path clip-path="url(#p9210aa35d3)" d="M 91.688831 192.24 
L 92.782259 192.24 
L 92.782259 192.24 
L 91.688831 192.24 
z
" style="fill:#871f78;opacity:0.35;"/>
   </g>
   <g id="patch_12">
    <path clip-path="url(#p9210aa35d3)" d="M 93.055616 192.24 
L 94.149045 192.24 
L 94.149045 192.24 
L 93.055616 192.24 
z
" style="fill:#871f78;opacity:0.35;"/>
   </g>
   <g id="patch_13">
    <path clip-path="url(#p9210aa35d3)" d="M 94.422402 192.24 
L 95.51583 192.24 
L 95.51583 192.24 
L 94.422402 192.24 
z
" style="fill:#871f78;opacity:0.35;"/>
   </g>
   <g id="patch_14">
    <path clip-path="url(#p9210aa35d3)" d="M 95.789187 192.24 
L 96.882616 192.24 
L 96.882616 192.24 
L 95.789187 192.24 
z
" style="fill:#871f78;opacity:0.35;"/>
   </g>
   <g id="patch_15">
    <path clip-path="url(#p9210aa35d3)" d="M 97.155973 192.24 
L 98.249402 192.24 
L 98.249402 192.24 
L 97.155973 192.24 
z
" style="fill:#871f78;opacity:0.35;"/>
   </g>
   <g id="patch_16">
    <path clip-path="url(#p9210aa35d3)" d="M 98.522759 192.24 
L 99.616187 192.24 
L 99.616187 185.511477 
L 98.522759 185.511477 
z
" style="fill:#871f78;opacity:0.35;"/>
   </g>
   <g id="patch_17">
    <path clip-path="url(#p9210aa35d3)" d="M 99.889544 192.24 
L 100.982973 192.24 
L 100.982973 185.511477 
L 99.889544 185.511477 
z
" style="fill:#871f78;opacity:0.35;"/>
   </g>
   <g id="patch_18">
    <path clip-path="url(#p9210aa35d3)" d="M 101.25633 192.24 
L 102.349759 192.24 
L 102.349759 192.24 
L 101.25633 192.24 
z
" style="fill:#871f78;opacity:0.35;"/>
   </g>
   <g id="patch_19">
    <path clip-path="url(#p9210aa35d3)" d="M 102.623116 192.24 
L 103.716544 192.24 
L 103.716544 185.511477 
L 102.623116 185.511477 
z
" style="fill:#871f78;opacity:0.35;"/>
   </g>
   <g id="patch_20">
    <path clip-path="url(#p9210aa35d3)" d="M 103.989901 192.24 
L 105.08333 192.24 
L 105.08333 178.782954 
L 103.989901 178.782954 
z
" style="fill:#871f78;opacity:0.35;"/>
   </g>
   <g id="patch_21">
    <path clip-path="url(#p9210aa35d3)" d="M 105.356687 192.24 
L 106.450115 192.24 
L 106.450115 188.875739 
L 105.356687 188.875739 
z
" style="fill:#871f78;opacity:0.35;"/>
   </g>
   <g id="patch_22">
    <path clip-path="url(#p9210aa35d3)" d="M 106.723473 192.24 
L 107.816901 192.24 
L 107.816901 188.875739 
L 106.723473 188.875739 
z
" style="fill:#871f78;opacity:0.35;"/>
   </g>
   <g id="patch_23">
    <path clip-path="url(#p9210aa35d3)" d="M 108.090258 192.24 
L 109.183687 192.24 
L 109.183687 175.418693 
L 108.090258 175.418693 
z
" style="fill:#871f78;opacity:0.35;"/>
   </g>
   <g id="patch_24">
    <path clip-path="url(#p9210aa35d3)" d="M 109.457044 192.24 
L 110.550472 192.24 
L 110.550472 188.875739 
L 109.457044 188.875739 
z
" style="fill:#871f78;opacity:0.35;"/>
   </g>
   <g id="patch_25">
    <path clip-path="url(#p9210aa35d3)" d="M 110.82383 192.24 
L 111.917258 192.24 
L 111.917258 188.875739 
L 110.82383 188.875739 
z
" style="fill:#871f78;opacity:0.35;"/>
   </g>
   <g id="patch_26">
    <path clip-path="url(#p9210aa35d3)" d="M 112.190615 192.24 
L 113.284044 192.24 
L 113.284044 188.875739 
L 112.190615 188.875739 
z
" style="fill:#871f78;opacity:0.35;"/>
   </g>
   <g id="patch_27">
    <path clip-path="url(#p9210aa35d3)" d="M 113.557401 192.24 
L 114.650829 192.24 
L 114.650829 182.147216 
L 113.557401 182.147216 
z
" style="fill:#871f78;opacity:0.35;"/>
   </g>
   <g id="patch_28">
    <path clip-path="url(#p9210aa35d3)" d="M 114.924186 192.24 
L 116.017615 192.24 
L 116.017615 185.511477 
L 114.924186 185.511477 
z
" style="fill:#871f78;opacity:0.35;"/>
   </g>
   <g id="patch_29">
    <path clip-path="url(#p9210aa35d3)" d="M 116.290972 192.24 
L 117.384401 192.24 
L 117.384401 185.511477 
L 116.290972 185.511477 
z
" style="fill:#871f78;opacity:0.35;"/>
   </g>
   <g id="patch_30">
    <path clip-path="url(#p9210aa35d3)" d="M 117.657758 192.24 
L 118.751186 192.24 
L 118.751186 175.418693 
L 117.657758 175.418693 
z
" style="fill:#871f78;opacity:0.35;"/>
   </g>
   <g id="patch_31">
    <path clip-path="url(#p9210aa35d3)" d="M 119.024543 192.24 
L 120.117972 192.24 
L 120.117972 192.24 
L 119.024543 192.24 
z
" style="fill:#871f78;opacity:0.35;"/>
   </g>
   <g id="patch_32">
    <path clip-path="url(#p9210aa35d3)" d="M 120.391329 192.24 
L 121.484758 192.24 
L 121.484758 188.875739 
L 120.391329 188.875739 
z
" style="fill:#871f78;opacity:0.35;"/>
   </g>
   <g id="patch_33">
    <path clip-path="url(#p9210aa35d3)" d="M 121.758115 192.24 
L 122.851543 192.24 
L 122.851543 185.511477 
L 121.758115 185.511477 
z
" style="fill:#871f78;opacity:0.35;"/>
   </g>
   <g id="patch_34">
    <path clip-path="url(#p9210aa35d3)" d="M 123.1249 192.24 
L 124.218329 192.24 
L 124.218329 192.24 
L 123.1249 192.24 
z
" style="fill:#871f78;opacity:0.35;"/>
   </g>
   <g id="patch_35">
    <path clip-path="url(#p9210aa35d3)" d="M 124.491686 192.24 
L 125.585114 192.24 
L 125.585114 182.147216 
L 124.491686 182.147216 
z
" style="fill:#871f78;opacity:0.35;"/>
   </g>
   <g id="patch_36">
    <path clip-path="url(#p9210aa35d3)" d="M 125.858472 192.24 
L 126.9519 192.24 
L 126.9519 192.24 
L 125.858472 192.24 
z
" style="fill:#871f78;opacity:0.35;"/>
   </g>
   <g id="patch_37">
    <path clip-path="url(#p9210aa35d3)" d="M 127.225257 192.24 
L 128.318686 192.24 
L 128.318686 192.24 
L 127.225257 192.24 
z
" style="fill:#871f78;opacity:0.35;"/>
   </g>
   <g id="patch_38">
    <path clip-path="url(#p9210aa35d3)" d="M 128.592043 192.24 
L 129.685471 192.24 
L 129.685471 192.24 
L 128.592043 192.24 
z
" style="fill:#871f78;opacity:0.35;"/>
   </g>
   <g id="patch_39">
    <path clip-path="url(#p9210aa35d3)" d="M 129.958828 192.24 
L 131.052257 192.24 
L 131.052257 185.511477 
L 129.958828 185.511477 
z
" style="fill:#871f78;opacity:0.35;"/>
   </g>
   <g id="patch_40">
    <path clip-path="url(#p9210aa35d3)" d="M 131.325614 192.24 
L 132.419043 192.24 
L 132.419043 192.24 
L 131.325614 192.24 
z
" style="fill:#871f78;opacity:0.35;"/>
   </g>
   <g id="patch_41">
    <path clip-path="url(#p9210aa35d3)" d="M 132.6924 192.24 
L 133.785828 192.24 
L 133.785828 192.24 
L 132.6924 192.24 
z
" style="fill:#871f78;opacity:0.35;"/>
   </g>
   <g id="patch_42">
    <path clip-path="url(#p9210aa35d3)" d="M 134.059185 192.24 
L 135.152614 192.24 
L 135.152614 192.24 
L 134.059185 192.24 
z
" style="fill:#871f78;opacity:0.35;"/>
   </g>
   <g id="patch_43">
    <path clip-path="url(#p9210aa35d3)" d="M 135.425971 192.24 
L 136.5194 192.24 
L 136.5194 185.511477 
L 135.425971 185.511477 
z
" style="fill:#871f78;opacity:0.35;"/>
   </g>
   <g id="patch_44">
    <path clip-path="url(#p9210aa35d3)" d="M 136.792757 192.24 
L 137.886185 192.24 
L 137.886185 192.24 
L 136.792757 192.24 
z
" style="fill:#871f78;opacity:0.35;"/>
   </g>
   <g id="patch_45">
    <path clip-path="url(#p9210aa35d3)" d="M 138.159542 192.24 
L 139.252971 192.24 
L 139.252971 192.24 
L 138.159542 192.24 
z
" style="fill:#871f78;opacity:0.35;"/>
   </g>
   <g id="patch_46">
    <path clip-path="url(#p9210aa35d3)" d="M 139.526328 192.24 
L 140.619756 192.24 
L 140.619756 195.604261 
L 139.526328 195.604261 
z
" style="fill:#871f78;opacity:0.35;"/>
   </g>
   <g id="patch_47">
    <path clip-path="url(#p9210aa35d3)" d="M 140.893114 192.24 
L 141.986542 192.24 
L 141.986542 192.24 
L 140.893114 192.24 
z
" style="fill:#871f78;opacity:0.35;"/>
   </g>
   <g id="patch_48">
    <path clip-path="url(#p9210aa35d3)" d="M 142.259899 192.24 
L 143.353328 192.24 
L 143.353328 192.24 
L 142.259899 192.24 
z
" style="fill:#871f78;opacity:0.35;"/>
   </g>
   <g id="patch_49">
    <path clip-path="url(#p9210aa35d3)" d="M 143.626685 192.24 
L 144.720113 192.24 
L 144.720113 188.875739 
L 143.626685 188.875739 
z
" style="fill:#871f78;opacity:0.35;"/>
   </g>
   <g id="patch_50">
    <path clip-path="url(#p9210aa35d3)" d="M 144.993471 192.24 
L 146.086899 192.24 
L 146.086899 192.24 
L 144.993471 192.24 
z
" style="fill:#871f78;opacity:0.35;"/>
   </g>
   <g id="patch_51">
    <path clip-path="url(#p9210aa35d3)" d="M 146.360256 192.24 
L 147.453685 192.24 
L 147.453685 192.24 
L 146.360256 192.24 
z
" style="fill:#871f78;opacity:0.35;"/>
   </g>
   <g id="patch_52">
    <path clip-path="url(#p9210aa35d3)" d="M 147.727042 192.24 
L 148.82047 192.24 
L 148.82047 192.24 
L 147.727042 192.24 
z
" style="fill:#871f78;opacity:0.35;"/>
   </g>
   <g id="patch_53">
    <path clip-path="url(#p9210aa35d3)" d="M 149.093827 192.24 
L 150.187256 192.24 
L 150.187256 192.24 
L 149.093827 192.24 
z
" style="fill:#871f78;opacity:0.35;"/>
   </g>
   <g id="patch_54">
    <path clip-path="url(#p9210aa35d3)" d="M 150.460613 192.24 
L 151.554042 192.24 
L 151.554042 188.875739 
L 150.460613 188.875739 
z
" style="fill:#871f78;opacity:0.35;"/>
   </g>
   <g id="patch_55">
    <path clip-path="url(#p9210aa35d3)" d="M 151.827399 192.24 
L 152.920827 192.24 
L 152.920827 188.875739 
L 151.827399 188.875739 
z
" style="fill:#871f78;opacity:0.35;"/>
   </g>
   <g id="patch_56">
    <path clip-path="url(#p9210aa35d3)" d="M 153.194184 192.24 
L 154.287613 192.24 
L 154.287613 192.24 
L 153.194184 192.24 
z
" style="fill:#871f78;opacity:0.35;"/>
   </g>
   <g id="patch_57">
    <path clip-path="url(#p9210aa35d3)" d="M 154.56097 192.24 
L 155.654398 192.24 
L 155.654398 188.875739 
L 154.56097 188.875739 
z
" style="fill:#871f78;opacity:0.35;"/>
   </g>
   <g id="patch_58">
    <path clip-path="url(#p9210aa35d3)" d="M 155.927756 192.24 
L 157.021184 192.24 
L 157.021184 192.24 
L 155.927756 192.24 
z
" style="fill:#871f78;opacity:0.35;"/>
   </g>
   <g id="patch_59">
    <path clip-path="url(#p9210aa35d3)" d="M 157.294541 192.24 
L 158.38797 192.24 
L 158.38797 192.24 
L 157.294541 192.24 
z
" style="fill:#871f78;opacity:0.35;"/>
   </g>
   <g id="patch_60">
    <path clip-path="url(#p9210aa35d3)" d="M 158.661327 192.24 
L 159.754755 192.24 
L 159.754755 192.24 
L 158.661327 192.24 
z
" style="fill:#871f78;opacity:0.35;"/>
   </g>
   <g id="patch_61">
    <path clip-path="url(#p9210aa35d3)" d="M 160.028113 192.24 
L 161.121541 192.24 
L 161.121541 185.511477 
L 160.028113 185.511477 
z
" style="fill:#871f78;opacity:0.35;"/>
   </g>
   <g id="patch_62">
    <path clip-path="url(#p9210aa35d3)" d="M 161.394898 192.24 
L 162.488327 192.24 
L 162.488327 188.875739 
L 161.394898 188.875739 
z
" style="fill:#871f78;opacity:0.35;"/>
   </g>
   <g id="patch_63">
    <path clip-path="url(#p9210aa35d3)" d="M 162.761684 192.24 
L 163.855112 192.24 
L 163.855112 185.511477 
L 162.761684 185.511477 
z
" style="fill:#871f78;opacity:0.35;"/>
   </g>
   <g id="patch_64">
    <path clip-path="url(#p9210aa35d3)" d="M 164.128469 192.24 
L 165.221898 192.24 
L 165.221898 192.24 
L 164.128469 192.24 
z
" style="fill:#871f78;opacity:0.35;"/>
   </g>
   <g id="patch_65">
    <path clip-path="url(#p9210aa35d3)" d="M 165.495255 192.24 
L 166.588684 192.24 
L 166.588684 192.24 
L 165.495255 192.24 
z
" style="fill:#871f78;opacity:0.35;"/>
   </g>
   <g id="patch_66">
    <path clip-path="url(#p9210aa35d3)" d="M 166.862041 192.24 
L 167.955469 192.24 
L 167.955469 188.875739 
L 166.862041 188.875739 
z
" style="fill:#871f78;opacity:0.35;"/>
   </g>
   <g id="patch_67">
    <path clip-path="url(#p9210aa35d3)" d="M 168.228826 192.24 
L 169.322255 192.24 
L 169.322255 192.24 
L 168.228826 192.24 
z
" style="fill:#871f78;opacity:0.35;"/>
   </g>
   <g id="patch_68">
    <path clip-path="url(#p9210aa35d3)" d="M 169.595612 192.24 
L 170.689041 192.24 
L 170.689041 188.875739 
L 169.595612 188.875739 
z
" style="fill:#871f78;opacity:0.35;"/>
   </g>
   <g id="patch_69">
    <path clip-path="url(#p9210aa35d3)" d="M 170.962398 192.24 
L 172.055826 192.24 
L 172.055826 188.875739 
L 170.962398 188.875739 
z
" style="fill:#871f78;opacity:0.35;"/>
   </g>
   <g id="patch_70">
    <path clip-path="url(#p9210aa35d3)" d="M 172.329183 192.24 
L 173.422612 192.24 
L 173.422612 195.604261 
L 172.329183 195.604261 
z
" style="fill:#871f78;opacity:0.35;"/>
   </g>
   <g id="patch_71">
    <path clip-path="url(#p9210aa35d3)" d="M 173.695969 192.24 
L 174.789397 192.24 
L 174.789397 188.875739 
L 173.695969 188.875739 
z
" style="fill:#871f78;opacity:0.35;"/>
   </g>
   <g id="patch_72">
    <path clip-path="url(#p9210aa35d3)" d="M 175.062755 192.24 
L 176.156183 192.24 
L 176.156183 185.511477 
L 175.062755 185.511477 
z
" style="fill:#871f78;opacity:0.35;"/>
   </g>
   <g id="patch_73">
    <path clip-path="url(#p9210aa35d3)" d="M 176.42954 192.24 
L 177.522969 192.24 
L 177.522969 195.604261 
L 176.42954 195.604261 
z
" style="fill:#871f78;opacity:0.35;"/>
   </g>
   <g id="patch_74">
    <path clip-path="url(#p9210aa35d3)" d="M 177.796326 192.24 
L 178.889754 192.24 
L 178.889754 188.875739 
L 177.796326 188.875739 
z
" style="fill:#871f78;opacity:0.35;"/>
   </g>
   <g id="patch_75">
    <path clip-path="url(#p9210aa35d3)" d="M 179.163111 192.24 
L 180.25654 192.24 
L 180.25654 188.875739 
L 179.163111 188.875739 
z
" style="fill:#871f78;opacity:0.35;"/>
   </g>
   <g id="patch_76">
    <path clip-path="url(#p9210aa35d3)" d="M 180.529897 192.24 
L 181.623326 192.24 
L 181.623326 185.511477 
L 180.529897 185.511477 
z
" style="fill:#871f78;opacity:0.35;"/>
   </g>
   <g id="patch_77">
    <path clip-path="url(#p9210aa35d3)" d="M 181.896683 192.24 
L 182.990111 192.24 
L 182.990111 192.24 
L 181.896683 192.24 
z
" style="fill:#871f78;opacity:0.35;"/>
   </g>
   <g id="patch_78">
    <path clip-path="url(#p9210aa35d3)" d="M 183.263468 192.24 
L 184.356897 192.24 
L 184.356897 192.24 
L 183.263468 192.24 
z
" style="fill:#871f78;opacity:0.35;"/>
   </g>
   <g id="patch_79">
    <path clip-path="url(#p9210aa35d3)" d="M 184.630254 192.24 
L 185.723683 192.24 
L 185.723683 188.875739 
L 184.630254 188.875739 
z
" style="fill:#871f78;opacity:0.35;"/>
   </g>
   <g id="patch_80">
    <path clip-path="url(#p9210aa35d3)" d="M 185.99704 192.24 
L 187.090468 192.24 
L 187.090468 188.875739 
L 185.99704 188.875739 
z
" style="fill:#871f78;opacity:0.35;"/>
   </g>
   <g id="patch_81">
    <path clip-path="url(#p9210aa35d3)" d="M 187.363825 192.24 
L 188.457254 192.24 
L 188.457254 188.875739 
L 187.363825 188.875739 
z
" style="fill:#871f78;opacity:0.35;"/>
   </g>
   <g id="patch_82">
    <path clip-path="url(#p9210aa35d3)" d="M 188.730611 192.24 
L 189.824039 192.24 
L 189.824039 185.511477 
L 188.730611 185.511477 
z
" style="fill:#871f78;opacity:0.35;"/>
   </g>
   <g id="patch_83">
    <path clip-path="url(#p9210aa35d3)" d="M 190.097397 192.24 
L 191.190825 192.24 
L 191.190825 185.511477 
L 190.097397 185.511477 
z
" style="fill:#871f78;opacity:0.35;"/>
   </g>
   <g id="patch_84">
    <path clip-path="url(#p9210aa35d3)" d="M 191.464182 192.24 
L 192.557611 192.24 
L 192.557611 188.875739 
L 191.464182 188.875739 
z
" style="fill:#871f78;opacity:0.35;"/>
   </g>
   <g id="patch_85">
    <path clip-path="url(#p9210aa35d3)" d="M 192.830968 192.24 
L 193.924396 192.24 
L 193.924396 192.24 
L 192.830968 192.24 
z
" style="fill:#871f78;opacity:0.35;"/>
   </g>
   <g id="patch_86">
    <path clip-path="url(#p9210aa35d3)" d="M 194.197754 192.24 
L 195.291182 192.24 
L 195.291182 192.24 
L 194.197754 192.24 
z
" style="fill:#871f78;opacity:0.35;"/>
   </g>
   <g id="patch_87">
    <path clip-path="url(#p9210aa35d3)" d="M 195.564539 192.24 
L 196.657968 192.24 
L 196.657968 192.24 
L 195.564539 192.24 
z
" style="fill:#871f78;opacity:0.35;"/>
   </g>
   <g id="patch_88">
    <path clip-path="url(#p9210aa35d3)" d="M 196.931325 192.24 
L 198.024753 192.24 
L 198.024753 182.147216 
L 196.931325 182.147216 
z
" style="fill:#871f78;opacity:0.35;"/>
   </g>
   <g id="patch_89">
    <path clip-path="url(#p9210aa35d3)" d="M 198.29811 192.24 
L 199.391539 192.24 
L 199.391539 185.511477 
L 198.29811 185.511477 
z
" style="fill:#871f78;opacity:0.35;"/>
   </g>
   <g id="patch_90">
    <path clip-path="url(#p9210aa35d3)" d="M 199.664896 192.24 
L 200.758325 192.24 
L 200.758325 192.24 
L 199.664896 192.24 
z
" style="fill:#871f78;opacity:0.35;"/>
   </g>
   <g id="patch_91">
    <path clip-path="url(#p9210aa35d3)" d="M 201.031682 192.24 
L 202.12511 192.24 
L 202.12511 188.875739 
L 201.031682 188.875739 
z
" style="fill:#871f78;opacity:0.35;"/>
   </g>
   <g id="patch_92">
    <path clip-path="url(#p9210aa35d3)" d="M 202.398467 192.24 
L 203.491896 192.24 
L 203.491896 188.875739 
L 202.398467 188.875739 
z
" style="fill:#871f78;opacity:0.35;"/>
   </g>
   <g id="patch_93">
    <path clip-path="url(#p9210aa35d3)" d="M 203.765253 192.24 
L 204.858682 192.24 
L 204.858682 192.24 
L 203.765253 192.24 
z
" style="fill:#871f78;opacity:0.35;"/>
   </g>
   <g id="patch_94">
    <path clip-path="url(#p9210aa35d3)" d="M 205.132039 192.24 
L 206.225467 192.24 
L 206.225467 192.24 
L 205.132039 192.24 
z
" style="fill:#871f78;opacity:0.35;"/>
   </g>
   <g id="patch_95">
    <path clip-path="url(#p9210aa35d3)" d="M 206.498824 192.24 
L 207.592253 192.24 
L 207.592253 192.24 
L 206.498824 192.24 
z
" style="fill:#871f78;opacity:0.35;"/>
   </g>
   <g id="patch_96">
    <path clip-path="url(#p9210aa35d3)" d="M 207.86561 192.24 
L 208.959038 192.24 
L 208.959038 192.24 
L 207.86561 192.24 
z
" style="fill:#871f78;opacity:0.35;"/>
   </g>
   <g id="patch_97">
    <path clip-path="url(#p9210aa35d3)" d="M 209.232396 192.24 
L 210.325824 192.24 
L 210.325824 192.24 
L 209.232396 192.24 
z
" style="fill:#871f78;opacity:0.35;"/>
   </g>
   <g id="patch_98">
    <path clip-path="url(#p9210aa35d3)" d="M 210.599181 192.24 
L 211.69261 192.24 
L 211.69261 188.875739 
L 210.599181 188.875739 
z
" style="fill:#871f78;opacity:0.35;"/>
   </g>
   <g id="patch_99">
    <path clip-path="url(#p9210aa35d3)" d="M 211.965967 192.24 
L 213.059395 192.24 
L 213.059395 195.604261 
L 211.965967 195.604261 
z
" style="fill:#871f78;opacity:0.35;"/>
   </g>
   <g id="patch_100">
    <path clip-path="url(#p9210aa35d3)" d="M 213.332752 192.24 
L 214.426181 192.24 
L 214.426181 192.24 
L 213.332752 192.24 
z
" style="fill:#871f78;opacity:0.35;"/>
   </g>
   <g id="patch_101">
    <path clip-path="url(#p9210aa35d3)" d="M 214.699538 192.24 
L 215.792967 192.24 
L 215.792967 192.24 
L 214.699538 192.24 
z
" style="fill:#871f78;opacity:0.35;"/>
   </g>
   <g id="patch_102">
    <path clip-path="url(#p9210aa35d3)" d="M 216.066324 192.24 
L 217.159752 192.24 
L 217.159752 192.24 
L 216.066324 192.24 
z
" style="fill:#871f78;opacity:0.35;"/>
   </g>
   <g id="patch_103">
    <path clip-path="url(#p9210aa35d3)" d="M 217.433109 192.24 
L 218.526538 192.24 
L 218.526538 192.24 
L 217.433109 192.24 
z
" style="fill:#871f78;opacity:0.35;"/>
   </g>
   <g id="patch_104">
    <path clip-path="url(#p9210aa35d3)" d="M 218.799895 192.24 
L 219.893324 192.24 
L 219.893324 192.24 
L 218.799895 192.24 
z
" style="fill:#871f78;opacity:0.35;"/>
   </g>
   <g id="patch_105">
    <path clip-path="url(#p9210aa35d3)" d="M 220.166681 192.24 
L 221.260109 192.24 
L 221.260109 192.24 
L 220.166681 192.24 
z
" style="fill:#871f78;opacity:0.35;"/>
   </g>
   <g id="patch_106">
    <path clip-path="url(#p9210aa35d3)" d="M 221.533466 192.24 
L 222.626895 192.24 
L 222.626895 192.24 
L 221.533466 192.24 
z
" style="fill:#871f78;opacity:0.35;"/>
   </g>
   <g id="patch_107">
    <path clip-path="url(#p9210aa35d3)" d="M 222.900252 192.24 
L 223.99368 192.24 
L 223.99368 192.24 
L 222.900252 192.24 
z
" style="fill:#871f78;opacity:0.35;"/>
   </g>
   <g id="patch_108">
    <path clip-path="url(#p9210aa35d3)" d="M 224.267038 192.24 
L 225.360466 192.24 
L 225.360466 195.604261 
L 224.267038 195.604261 
z
" style="fill:#871f78;opacity:0.35;"/>
   </g>
   <g id="patch_109">
    <path clip-path="url(#p9210aa35d3)" d="M 225.633823 192.24 
L 226.727252 192.24 
L 226.727252 192.24 
L 225.633823 192.24 
z
" style="fill:#871f78;opacity:0.35;"/>
   </g>
   <g id="patch_110">
    <path clip-path="url(#p9210aa35d3)" d="M 227.000609 192.24 
L 228.094037 192.24 
L 228.094037 188.875739 
L 227.000609 188.875739 
z
" style="fill:#871f78;opacity:0.35;"/>
   </g>
   <g id="patch_111">
    <path clip-path="url(#p9210aa35d3)" d="M 228.367394 192.24 
L 229.460823 192.24 
L 229.460823 192.24 
L 228.367394 192.24 
z
" style="fill:#871f78;opacity:0.35;"/>
   </g>
   <g id="patch_112">
    <path clip-path="url(#p9210aa35d3)" d="M 229.73418 192.24 
L 230.827609 192.24 
L 230.827609 192.24 
L 229.73418 192.24 
z
" style="fill:#871f78;opacity:0.35;"/>
   </g>
   <g id="patch_113">
    <path clip-path="url(#p9210aa35d3)" d="M 231.100966 192.24 
L 232.194394 192.24 
L 232.194394 192.24 
L 231.100966 192.24 
z
" style="fill:#871f78;opacity:0.35;"/>
   </g>
   <g id="patch_114">
    <path clip-path="url(#p9210aa35d3)" d="M 232.467751 192.24 
L 233.56118 192.24 
L 233.56118 192.24 
L 232.467751 192.24 
z
" style="fill:#871f78;opacity:0.35;"/>
   </g>
   <g id="patch_115">
    <path clip-path="url(#p9210aa35d3)" d="M 233.834537 192.24 
L 234.927966 192.24 
L 234.927966 192.24 
L 233.834537 192.24 
z
" style="fill:#871f78;opacity:0.35;"/>
   </g>
   <g id="patch_116">
    <path clip-path="url(#p9210aa35d3)" d="M 235.201323 192.24 
L 236.294751 192.24 
L 236.294751 188.875739 
L 235.201323 188.875739 
z
" style="fill:#871f78;opacity:0.35;"/>
   </g>
   <g id="patch_117">
    <path clip-path="url(#p9210aa35d3)" d="M 236.568108 192.24 
L 237.661537 192.24 
L 237.661537 182.147216 
L 236.568108 182.147216 
z
" style="fill:#871f78;opacity:0.35;"/>
   </g>
   <g id="patch_118">
    <path clip-path="url(#p9210aa35d3)" d="M 237.934894 192.24 
L 239.028322 192.24 
L 239.028322 182.147216 
L 237.934894 182.147216 
z
" style="fill:#871f78;opacity:0.35;"/>
   </g>
   <g id="patch_119">
    <path clip-path="url(#p9210aa35d3)" d="M 239.30168 192.24 
L 240.395108 192.24 
L 240.395108 192.24 
L 239.30168 192.24 
z
" style="fill:#871f78;opacity:0.35;"/>
   </g>
   <g id="patch_120">
    <path clip-path="url(#p9210aa35d3)" d="M 240.668465 192.24 
L 241.761894 192.24 
L 241.761894 188.875739 
L 240.668465 188.875739 
z
" style="fill:#871f78;opacity:0.35;"/>
   </g>
   <g id="patch_121">
    <path clip-path="url(#p9210aa35d3)" d="M 242.035251 192.24 
L 243.128679 192.24 
L 243.128679 192.24 
L 242.035251 192.24 
z
" style="fill:#871f78;opacity:0.35;"/>
   </g>
   <g id="patch_122">
    <path clip-path="url(#p9210aa35d3)" d="M 243.402037 192.24 
L 244.495465 192.24 
L 244.495465 188.875739 
L 243.402037 188.875739 
z
" style="fill:#871f78;opacity:0.35;"/>
   </g>
   <g id="patch_123">
    <path clip-path="url(#p9210aa35d3)" d="M 244.768822 192.24 
L 245.862251 192.24 
L 245.862251 188.875739 
L 244.768822 188.875739 
z
" style="fill:#871f78;opacity:0.35;"/>
   </g>
   <g id="patch_124">
    <path clip-path="url(#p9210aa35d3)" d="M 246.135608 192.24 
L 247.229036 192.24 
L 247.229036 192.24 
L 246.135608 192.24 
z
" style="fill:#871f78;opacity:0.35;"/>
   </g>
   <g id="patch_125">
    <path clip-path="url(#p9210aa35d3)" d="M 247.502393 192.24 
L 248.595822 192.24 
L 248.595822 188.875739 
L 247.502393 188.875739 
z
" style="fill:#871f78;opacity:0.35;"/>
   </g>
   <g id="patch_126">
    <path clip-path="url(#p9210aa35d3)" d="M 248.869179 192.24 
L 249.962608 192.24 
L 249.962608 192.24 
L 248.869179 192.24 
z
" style="fill:#871f78;opacity:0.35;"/>
   </g>
   <g id="patch_127">
    <path clip-path="url(#p9210aa35d3)" d="M 250.235965 192.24 
L 251.329393 192.24 
L 251.329393 188.875739 
L 250.235965 188.875739 
z
" style="fill:#871f78;opacity:0.35;"/>
   </g>
   <g id="patch_128">
    <path clip-path="url(#p9210aa35d3)" d="M 251.60275 192.24 
L 252.696179 192.24 
L 252.696179 192.24 
L 251.60275 192.24 
z
" style="fill:#871f78;opacity:0.35;"/>
   </g>
   <g id="patch_129">
    <path clip-path="url(#p9210aa35d3)" d="M 252.969536 192.24 
L 254.062965 192.24 
L 254.062965 192.24 
L 252.969536 192.24 
z
" style="fill:#871f78;opacity:0.35;"/>
   </g>
   <g id="patch_130">
    <path clip-path="url(#p9210aa35d3)" d="M 254.336322 192.24 
L 255.42975 192.24 
L 255.42975 185.511477 
L 254.336322 185.511477 
z
" style="fill:#871f78;opacity:0.35;"/>
   </g>
   <g id="patch_131">
    <path clip-path="url(#p9210aa35d3)" d="M 255.703107 192.24 
L 256.796536 192.24 
L 256.796536 192.24 
L 255.703107 192.24 
z
" style="fill:#871f78;opacity:0.35;"/>
   </g>
   <g id="patch_132">
    <path clip-path="url(#p9210aa35d3)" d="M 257.069893 192.24 
L 258.163321 192.24 
L 258.163321 192.24 
L 257.069893 192.24 
z
" style="fill:#871f78;opacity:0.35;"/>
   </g>
   <g id="patch_133">
    <path clip-path="url(#p9210aa35d3)" d="M 258.436679 192.24 
L 259.530107 192.24 
L 259.530107 188.875739 
L 258.436679 188.875739 
z
" style="fill:#871f78;opacity:0.35;"/>
   </g>
   <g id="patch_134">
    <path clip-path="url(#p9210aa35d3)" d="M 259.803464 192.24 
L 260.896893 192.24 
L 260.896893 192.24 
L 259.803464 192.24 
z
" style="fill:#871f78;opacity:0.35;"/>
   </g>
   <g id="patch_135">
    <path clip-path="url(#p9210aa35d3)" d="M 261.17025 192.24 
L 262.263678 192.24 
L 262.263678 188.875739 
L 261.17025 188.875739 
z
" style="fill:#871f78;opacity:0.35;"/>
   </g>
   <g id="patch_136">
    <path clip-path="url(#p9210aa35d3)" d="M 262.537035 192.24 
L 263.630464 192.24 
L 263.630464 185.511477 
L 262.537035 185.511477 
z
" style="fill:#871f78;opacity:0.35;"/>
   </g>
   <g id="patch_137">
    <path clip-path="url(#p9210aa35d3)" d="M 263.903821 192.24 
L 264.99725 192.24 
L 264.99725 185.511477 
L 263.903821 185.511477 
z
" style="fill:#871f78;opacity:0.35;"/>
   </g>
   <g id="patch_138">
    <path clip-path="url(#p9210aa35d3)" d="M 265.270607 192.24 
L 266.364035 192.24 
L 266.364035 188.875739 
L 265.270607 188.875739 
z
" style="fill:#871f78;opacity:0.35;"/>
   </g>
   <g id="patch_139">
    <path clip-path="url(#p9210aa35d3)" d="M 266.637392 192.24 
L 267.730821 192.24 
L 267.730821 188.875739 
L 266.637392 188.875739 
z
" style="fill:#871f78;opacity:0.35;"/>
   </g>
   <g id="patch_140">
    <path clip-path="url(#p9210aa35d3)" d="M 268.004178 192.24 
L 269.097607 192.24 
L 269.097607 192.24 
L 268.004178 192.24 
z
" style="fill:#871f78;opacity:0.35;"/>
   </g>
   <g id="patch_141">
    <path clip-path="url(#p9210aa35d3)" d="M 269.370964 192.24 
L 270.464392 192.24 
L 270.464392 188.875739 
L 269.370964 188.875739 
z
" style="fill:#871f78;opacity:0.35;"/>
   </g>
   <g id="patch_142">
    <path clip-path="url(#p9210aa35d3)" d="M 270.737749 192.24 
L 271.831178 192.24 
L 271.831178 192.24 
L 270.737749 192.24 
z
" style="fill:#871f78;opacity:0.35;"/>
   </g>
   <g id="patch_143">
    <path clip-path="url(#p9210aa35d3)" d="M 272.104535 192.24 
L 273.197963 192.24 
L 273.197963 192.24 
L 272.104535 192.24 
z
" style="fill:#871f78;opacity:0.35;"/>
   </g>
   <g id="patch_144">
    <path clip-path="url(#p9210aa35d3)" d="M 273.471321 192.24 
L 274.564749 192.24 
L 274.564749 192.24 
L 273.471321 192.24 
z
" style="fill:#871f78;opacity:0.35;"/>
   </g>
   <g id="patch_145">
    <path clip-path="url(#p9210aa35d3)" d="M 274.838106 192.24 
L 275.931535 192.24 
L 275.931535 195.604261 
L 274.838106 195.604261 
z
" style="fill:#871f78;opacity:0.35;"/>
   </g>
   <g id="patch_146">
    <path clip-path="url(#p9210aa35d3)" d="M 276.204892 192.24 
L 277.29832 192.24 
L 277.29832 192.24 
L 276.204892 192.24 
z
" style="fill:#871f78;opacity:0.35;"/>
   </g>
   <g id="patch_147">
    <path clip-path="url(#p9210aa35d3)" d="M 277.571678 192.24 
L 278.665106 192.24 
L 278.665106 188.875739 
L 277.571678 188.875739 
z
" style="fill:#871f78;opacity:0.35;"/>
   </g>
   <g id="patch_148">
    <path clip-path="url(#p9210aa35d3)" d="M 278.938463 192.24 
L 280.031892 192.24 
L 280.031892 185.511477 
L 278.938463 185.511477 
z
" style="fill:#871f78;opacity:0.35;"/>
   </g>
   <g id="patch_149">
    <path clip-path="url(#p9210aa35d3)" d="M 280.305249 192.24 
L 281.398677 192.24 
L 281.398677 192.24 
L 280.305249 192.24 
z
" style="fill:#871f78;opacity:0.35;"/>
   </g>
   <g id="patch_150">
    <path clip-path="url(#p9210aa35d3)" d="M 281.672034 192.24 
L 282.765463 192.24 
L 282.765463 185.511477 
L 281.672034 185.511477 
z
" style="fill:#871f78;opacity:0.35;"/>
   </g>
   <g id="patch_151">
    <path clip-path="url(#p9210aa35d3)" d="M 283.03882 192.24 
L 284.132249 192.24 
L 284.132249 192.24 
L 283.03882 192.24 
z
" style="fill:#871f78;opacity:0.35;"/>
   </g>
   <g id="patch_152">
    <path clip-path="url(#p9210aa35d3)" d="M 284.405606 192.24 
L 285.499034 192.24 
L 285.499034 192.24 
L 284.405606 192.24 
z
" style="fill:#871f78;opacity:0.35;"/>
   </g>
   <g id="patch_153">
    <path clip-path="url(#p9210aa35d3)" d="M 285.772391 192.24 
L 286.86582 192.24 
L 286.86582 192.24 
L 285.772391 192.24 
z
" style="fill:#871f78;opacity:0.35;"/>
   </g>
   <g id="patch_154">
    <path clip-path="url(#p9210aa35d3)" d="M 287.139177 192.24 
L 288.232606 192.24 
L 288.232606 192.24 
L 287.139177 192.24 
z
" style="fill:#871f78;opacity:0.35;"/>
   </g>
   <g id="patch_155">
    <path clip-path="url(#p9210aa35d3)" d="M 288.505963 192.24 
L 289.599391 192.24 
L 289.599391 192.24 
L 288.505963 192.24 
z
" style="fill:#871f78;opacity:0.35;"/>
   </g>
   <g id="patch_156">
    <path clip-path="url(#p9210aa35d3)" d="M 289.872748 192.24 
L 290.966177 192.24 
L 290.966177 192.24 
L 289.872748 192.24 
z
" style="fill:#871f78;opacity:0.35;"/>
   </g>
   <g id="patch_157">
    <path clip-path="url(#p9210aa35d3)" d="M 291.239534 192.24 
L 292.332962 192.24 
L 292.332962 192.24 
L 291.239534 192.24 
z
" style="fill:#871f78;opacity:0.35;"/>
   </g>
   <g id="patch_158">
    <path clip-path="url(#p9210aa35d3)" d="M 292.60632 192.24 
L 293.699748 192.24 
L 293.699748 192.24 
L 292.60632 192.24 
z
" style="fill:#871f78;opacity:0.35;"/>
   </g>
   <g id="patch_159">
    <path clip-path="url(#p9210aa35d3)" d="M 293.973105 192.24 
L 295.066534 192.24 
L 295.066534 192.24 
L 293.973105 192.24 
z
" style="fill:#871f78;opacity:0.35;"/>
   </g>
   <g id="patch_160">
    <path clip-path="url(#p9210aa35d3)" d="M 295.339891 192.24 
L 296.433319 192.24 
L 296.433319 192.24 
L 295.339891 192.24 
z
" style="fill:#871f78;opacity:0.35;"/>
   </g>
   <g id="patch_161">
    <path clip-path="url(#p9210aa35d3)" d="M 296.706676 192.24 
L 297.800105 192.24 
L 297.800105 192.24 
L 296.706676 192.24 
z
" style="fill:#871f78;opacity:0.35;"/>
   </g>
   <g id="patch_162">
    <path clip-path="url(#p9210aa35d3)" d="M 298.073462 192.24 
L 299.166891 192.24 
L 299.166891 192.24 
L 298.073462 192.24 
z
" style="fill:#871f78;opacity:0.35;"/>
   </g>
   <g id="patch_163">
    <path clip-path="url(#p9210aa35d3)" d="M 299.440248 192.24 
L 300.533676 192.24 
L 300.533676 192.24 
L 299.440248 192.24 
z
" style="fill:#871f78;opacity:0.35;"/>
   </g>
   <g id="patch_164">
    <path clip-path="url(#p9210aa35d3)" d="M 300.807033 192.24 
L 301.900462 192.24 
L 301.900462 188.875739 
L 300.807033 188.875739 
z
" style="fill:#871f78;opacity:0.35;"/>
   </g>
   <g id="patch_165">
    <path clip-path="url(#p9210aa35d3)" d="M 302.173819 192.24 
L 303.267248 192.24 
L 303.267248 188.875739 
L 302.173819 188.875739 
z
" style="fill:#871f78;opacity:0.35;"/>
   </g>
   <g id="patch_166">
    <path clip-path="url(#p9210aa35d3)" d="M 303.540605 192.24 
L 304.634033 192.24 
L 304.634033 192.24 
L 303.540605 192.24 
z
" style="fill:#871f78;opacity:0.35;"/>
   </g>
   <g id="patch_167">
    <path clip-path="url(#p9210aa35d3)" d="M 304.90739 192.24 
L 306.000819 192.24 
L 306.000819 188.875739 
L 304.90739 188.875739 
z
" style="fill:#871f78;opacity:0.35;"/>
   </g>
   <g id="patch_168">
    <path clip-path="url(#p9210aa35d3)" d="M 306.274176 192.24 
L 307.367604 192.24 
L 307.367604 188.875739 
L 306.274176 188.875739 
z
" style="fill:#871f78;opacity:0.35;"/>
   </g>
   <g id="patch_169">
    <path clip-path="url(#p9210aa35d3)" d="M 307.640962 192.24 
L 308.73439 192.24 
L 308.73439 192.24 
L 307.640962 192.24 
z
" style="fill:#871f78;opacity:0.35;"/>
   </g>
   <g id="patch_170">
    <path clip-path="url(#p9210aa35d3)" d="M 309.007747 192.24 
L 310.101176 192.24 
L 310.101176 192.24 
L 309.007747 192.24 
z
" style="fill:#871f78;opacity:0.35;"/>
   </g>
   <g id="patch_171">
    <path clip-path="url(#p9210aa35d3)" d="M 310.374533 192.24 
L 311.467961 192.24 
L 311.467961 192.24 
L 310.374533 192.24 
z
" style="fill:#871f78;opacity:0.35;"/>
   </g>
   <g id="patch_172">
    <path clip-path="url(#p9210aa35d3)" d="M 311.741318 192.24 
L 312.834747 192.24 
L 312.834747 192.24 
L 311.741318 192.24 
z
" style="fill:#871f78;opacity:0.35;"/>
   </g>
   <g id="patch_173">
    <path clip-path="url(#p9210aa35d3)" d="M 313.108104 192.24 
L 314.201533 192.24 
L 314.201533 192.24 
L 313.108104 192.24 
z
" style="fill:#871f78;opacity:0.35;"/>
   </g>
   <g id="patch_174">
    <path clip-path="url(#p9210aa35d3)" d="M 314.47489 192.24 
L 315.568318 192.24 
L 315.568318 192.24 
L 314.47489 192.24 
z
" style="fill:#871f78;opacity:0.35;"/>
   </g>
   <g id="patch_175">
    <path clip-path="url(#p9210aa35d3)" d="M 315.841675 192.24 
L 316.935104 192.24 
L 316.935104 185.511477 
L 315.841675 185.511477 
z
" style="fill:#871f78;opacity:0.35;"/>
   </g>
   <g id="patch_176">
    <path clip-path="url(#p9210aa35d3)" d="M 317.208461 192.24 
L 318.30189 192.24 
L 318.30189 192.24 
L 317.208461 192.24 
z
" style="fill:#871f78;opacity:0.35;"/>
   </g>
   <g id="patch_177">
    <path clip-path="url(#p9210aa35d3)" d="M 318.575247 192.24 
L 319.668675 192.24 
L 319.668675 192.24 
L 318.575247 192.24 
z
" style="fill:#871f78;opacity:0.35;"/>
   </g>
   <g id="patch_178">
    <path clip-path="url(#p9210aa35d3)" d="M 319.942032 192.24 
L 321.035461 192.24 
L 321.035461 192.24 
L 319.942032 192.24 
z
" style="fill:#871f78;opacity:0.35;"/>
   </g>
   <g id="patch_179">
    <path clip-path="url(#p9210aa35d3)" d="M 321.308818 192.24 
L 322.402246 192.24 
L 322.402246 188.875739 
L 321.308818 188.875739 
z
" style="fill:#871f78;opacity:0.35;"/>
   </g>
   <g id="patch_180">
    <path clip-path="url(#p9210aa35d3)" d="M 322.675604 192.24 
L 323.769032 192.24 
L 323.769032 185.511477 
L 322.675604 185.511477 
z
" style="fill:#871f78;opacity:0.35;"/>
   </g>
   <g id="patch_181">
    <path clip-path="url(#p9210aa35d3)" d="M 324.042389 192.24 
L 325.135818 192.24 
L 325.135818 188.875739 
L 324.042389 188.875739 
z
" style="fill:#871f78;opacity:0.35;"/>
   </g>
   <g id="patch_182">
    <path clip-path="url(#p9210aa35d3)" d="M 325.409175 192.24 
L 326.502603 192.24 
L 326.502603 192.24 
L 325.409175 192.24 
z
" style="fill:#871f78;opacity:0.35;"/>
   </g>
   <g id="patch_183">
    <path clip-path="url(#p9210aa35d3)" d="M 326.775961 192.24 
L 327.869389 192.24 
L 327.869389 192.24 
L 326.775961 192.24 
z
" style="fill:#871f78;opacity:0.35;"/>
   </g>
   <g id="patch_184">
    <path clip-path="url(#p9210aa35d3)" d="M 328.142746 192.24 
L 329.236175 192.24 
L 329.236175 188.875739 
L 328.142746 188.875739 
z
" style="fill:#871f78;opacity:0.35;"/>
   </g>
   <g id="patch_185">
    <path clip-path="url(#p9210aa35d3)" d="M 329.509532 192.24 
L 330.60296 192.24 
L 330.60296 192.24 
L 329.509532 192.24 
z
" style="fill:#871f78;opacity:0.35;"/>
   </g>
   <g id="patch_186">
    <path clip-path="url(#p9210aa35d3)" d="M 330.876317 192.24 
L 331.969746 192.24 
L 331.969746 192.24 
L 330.876317 192.24 
z
" style="fill:#871f78;opacity:0.35;"/>
   </g>
   <g id="patch_187">
    <path clip-path="url(#p9210aa35d3)" d="M 332.243103 192.24 
L 333.336532 192.24 
L 333.336532 192.24 
L 332.243103 192.24 
z
" style="fill:#871f78;opacity:0.35;"/>
   </g>
   <g id="patch_188">
    <path clip-path="url(#p9210aa35d3)" d="M 333.609889 192.24 
L 334.703317 192.24 
L 334.703317 188.875739 
L 333.609889 188.875739 
z
" style="fill:#871f78;opacity:0.35;"/>
   </g>
   <g id="patch_189">
    <path clip-path="url(#p9210aa35d3)" d="M 334.976674 192.24 
L 336.070103 192.24 
L 336.070103 182.147216 
L 334.976674 182.147216 
z
" style="fill:#871f78;opacity:0.35;"/>
   </g>
   <g id="patch_190">
    <path clip-path="url(#p9210aa35d3)" d="M 336.34346 192.24 
L 337.436889 192.24 
L 337.436889 192.24 
L 336.34346 192.24 
z
" style="fill:#871f78;opacity:0.35;"/>
   </g>
   <g id="patch_191">
    <path clip-path="url(#p9210aa35d3)" d="M 337.710246 192.24 
L 338.803674 192.24 
L 338.803674 185.511477 
L 337.710246 185.511477 
z
" style="fill:#871f78;opacity:0.35;"/>
   </g>
   <g id="patch_192">
    <path clip-path="url(#p9210aa35d3)" d="M 339.077031 192.24 
L 340.17046 192.24 
L 340.17046 185.511477 
L 339.077031 185.511477 
z
" style="fill:#871f78;opacity:0.35;"/>
   </g>
   <g id="patch_193">
    <path clip-path="url(#p9210aa35d3)" d="M 340.443817 192.24 
L 341.537245 192.24 
L 341.537245 188.875739 
L 340.443817 188.875739 
z
" style="fill:#871f78;opacity:0.35;"/>
   </g>
   <g id="patch_194">
    <path clip-path="url(#p9210aa35d3)" d="M 341.810603 192.24 
L 342.904031 192.24 
L 342.904031 185.511477 
L 341.810603 185.511477 
z
" style="fill:#871f78;opacity:0.35;"/>
   </g>
   <g id="patch_195">
    <path clip-path="url(#p9210aa35d3)" d="M 343.177388 192.24 
L 344.270817 192.24 
L 344.270817 188.875739 
L 343.177388 188.875739 
z
" style="fill:#871f78;opacity:0.35;"/>
   </g>
   <g id="patch_196">
    <path clip-path="url(#p9210aa35d3)" d="M 344.544174 192.24 
L 345.637602 192.24 
L 345.637602 192.24 
L 344.544174 192.24 
z
" style="fill:#871f78;opacity:0.35;"/>
   </g>
   <g id="patch_197">
    <path clip-path="url(#p9210aa35d3)" d="M 345.910959 192.24 
L 347.004388 192.24 
L 347.004388 188.875739 
L 345.910959 188.875739 
z
" style="fill:#871f78;opacity:0.35;"/>
   </g>
   <g id="patch_198">
    <path clip-path="url(#p9210aa35d3)" d="M 347.277745 192.24 
L 348.371174 192.24 
L 348.371174 188.875739 
L 347.277745 188.875739 
z
" style="fill:#871f78;opacity:0.35;"/>
   </g>
   <g id="patch_199">
    <path clip-path="url(#p9210aa35d3)" d="M 348.644531 192.24 
L 349.737959 192.24 
L 349.737959 188.875739 
L 348.644531 188.875739 
z
" style="fill:#871f78;opacity:0.35;"/>
   </g>
   <g id="patch_200">
    <path clip-path="url(#p9210aa35d3)" d="M 350.011316 192.24 
L 351.104745 192.24 
L 351.104745 188.875739 
L 350.011316 188.875739 
z
" style="fill:#871f78;opacity:0.35;"/>
   </g>
   <g id="patch_201">
    <path clip-path="url(#p9210aa35d3)" d="M 351.378102 192.24 
L 352.471531 192.24 
L 352.471531 192.24 
L 351.378102 192.24 
z
" style="fill:#871f78;opacity:0.35;"/>
   </g>
   <g id="patch_202">
    <path clip-path="url(#p9210aa35d3)" d="M 352.744888 192.24 
L 353.838316 192.24 
L 353.838316 188.875739 
L 352.744888 188.875739 
z
" style="fill:#871f78;opacity:0.35;"/>
   </g>
   <g id="patch_203">
    <path clip-path="url(#p9210aa35d3)" d="M 354.111673 192.24 
L 355.205102 192.24 
L 355.205102 188.875739 
L 354.111673 188.875739 
z
" style="fill:#871f78;opacity:0.35;"/>
   </g>
   <g id="patch_204">
    <path clip-path="url(#p9210aa35d3)" d="M 355.478459 192.24 
L 356.571887 192.24 
L 356.571887 185.511477 
L 355.478459 185.511477 
z
" style="fill:#871f78;opacity:0.35;"/>
   </g>
   <g id="patch_205">
    <path clip-path="url(#p9210aa35d3)" d="M 356.845245 192.24 
L 357.938673 192.24 
L 357.938673 192.24 
L 356.845245 192.24 
z
" style="fill:#871f78;opacity:0.35;"/>
   </g>
   <g id="patch_206">
    <path clip-path="url(#p9210aa35d3)" d="M 358.21203 192.24 
L 359.305459 192.24 
L 359.305459 182.147216 
L 358.21203 182.147216 
z
" style="fill:#871f78;opacity:0.35;"/>
   </g>
   <g id="patch_207">
    <path clip-path="url(#p9210aa35d3)" d="M 359.578816 192.24 
L 360.672244 192.24 
L 360.672244 192.24 
L 359.578816 192.24 
z
" style="fill:#871f78;opacity:0.35;"/>
   </g>
   <g id="patch_208">
    <path clip-path="url(#p9210aa35d3)" d="M 360.945602 192.24 
L 362.03903 192.24 
L 362.03903 188.875739 
L 360.945602 188.875739 
z
" style="fill:#871f78;opacity:0.35;"/>
   </g>
   <g id="patch_209">
    <path clip-path="url(#p9210aa35d3)" d="M 362.312387 192.24 
L 363.405816 192.24 
L 363.405816 192.24 
L 362.312387 192.24 
z
" style="fill:#871f78;opacity:0.35;"/>
   </g>
   <g id="patch_210">
    <path clip-path="url(#p9210aa35d3)" d="M 363.679173 192.24 
L 364.772601 192.24 
L 364.772601 192.24 
L 363.679173 192.24 
z
" style="fill:#871f78;opacity:0.35;"/>
   </g>
   <g id="patch_211">
    <path clip-path="url(#p9210aa35d3)" d="M 365.045958 192.24 
L 366.139387 192.24 
L 366.139387 182.147216 
L 365.045958 182.147216 
z
" style="fill:#871f78;opacity:0.35;"/>
   </g>
   <g id="patch_212">
    <path clip-path="url(#p9210aa35d3)" d="M 366.412744 192.24 
L 367.506173 192.24 
L 367.506173 188.875739 
L 366.412744 188.875739 
z
" style="fill:#871f78;opacity:0.35;"/>
   </g>
   <g id="patch_213">
    <path clip-path="url(#p9210aa35d3)" d="M 367.77953 192.24 
L 368.872958 192.24 
L 368.872958 192.24 
L 367.77953 192.24 
z
" style="fill:#871f78;opacity:0.35;"/>
   </g>
   <g id="patch_214">
    <path clip-path="url(#p9210aa35d3)" d="M 369.146315 192.24 
L 370.239744 192.24 
L 370.239744 185.511477 
L 369.146315 185.511477 
z
" style="fill:#871f78;opacity:0.35;"/>
   </g>
   <g id="patch_215">
    <path clip-path="url(#p9210aa35d3)" d="M 370.513101 192.24 
L 371.606529 192.24 
L 371.606529 188.875739 
L 370.513101 188.875739 
z
" style="fill:#871f78;opacity:0.35;"/>
   </g>
   <g id="patch_216">
    <path clip-path="url(#p9210aa35d3)" d="M 371.879887 192.24 
L 372.973315 192.24 
L 372.973315 168.69017 
L 371.879887 168.69017 
z
" style="fill:#871f78;opacity:0.35;"/>
   </g>
   <g id="patch_217">
    <path clip-path="url(#p9210aa35d3)" d="M 373.246672 192.24 
L 374.340101 192.24 
L 374.340101 185.511477 
L 373.246672 185.511477 
z
" style="fill:#871f78;opacity:0.35;"/>
   </g>
   <g id="patch_218">
    <path clip-path="url(#p9210aa35d3)" d="M 374.613458 192.24 
L 375.706886 192.24 
L 375.706886 188.875739 
L 374.613458 188.875739 
z
" style="fill:#871f78;opacity:0.35;"/>
   </g>
   <g id="patch_219">
    <path clip-path="url(#p9210aa35d3)" d="M 375.980244 192.24 
L 377.073672 192.24 
L 377.073672 192.24 
L 375.980244 192.24 
z
" style="fill:#871f78;opacity:0.35;"/>
   </g>
   <g id="patch_220">
    <path clip-path="url(#p9210aa35d3)" d="M 377.347029 192.24 
L 378.440458 192.24 
L 378.440458 188.875739 
L 377.347029 188.875739 
z
" style="fill:#871f78;opacity:0.35;"/>
   </g>
   <g id="patch_221">
    <path clip-path="url(#p9210aa35d3)" d="M 378.713815 192.24 
L 379.807243 192.24 
L 379.807243 192.24 
L 378.713815 192.24 
z
" style="fill:#871f78;opacity:0.35;"/>
   </g>
   <g id="patch_222">
    <path clip-path="url(#p9210aa35d3)" d="M 380.0806 192.24 
L 381.174029 192.24 
L 381.174029 188.875739 
L 380.0806 188.875739 
z
" style="fill:#871f78;opacity:0.35;"/>
   </g>
   <g id="patch_223">
    <path clip-path="url(#p9210aa35d3)" d="M 381.447386 192.24 
L 382.540815 192.24 
L 382.540815 185.511477 
L 381.447386 185.511477 
z
" style="fill:#871f78;opacity:0.35;"/>
   </g>
   <g id="patch_224">
    <path clip-path="url(#p9210aa35d3)" d="M 382.814172 192.24 
L 383.9076 192.24 
L 383.9076 175.418693 
L 382.814172 175.418693 
z
" style="fill:#871f78;opacity:0.35;"/>
   </g>
   <g id="patch_225">
    <path clip-path="url(#p9210aa35d3)" d="M 384.180957 192.24 
L 385.274386 192.24 
L 385.274386 188.875739 
L 384.180957 188.875739 
z
" style="fill:#871f78;opacity:0.35;"/>
   </g>
   <g id="patch_226">
    <path clip-path="url(#p9210aa35d3)" d="M 385.547743 192.24 
L 386.641172 192.24 
L 386.641172 178.782954 
L 385.547743 178.782954 
z
" style="fill:#871f78;opacity:0.35;"/>
   </g>
   <g id="patch_227">
    <path clip-path="url(#p9210aa35d3)" d="M 386.914529 192.24 
L 388.007957 192.24 
L 388.007957 188.875739 
L 386.914529 188.875739 
z
" style="fill:#871f78;opacity:0.35;"/>
   </g>
   <g id="patch_228">
    <path clip-path="url(#p9210aa35d3)" d="M 388.281314 192.24 
L 389.374743 192.24 
L 389.374743 185.511477 
L 388.281314 185.511477 
z
" style="fill:#871f78;opacity:0.35;"/>
   </g>
   <g id="patch_229">
    <path clip-path="url(#p9210aa35d3)" d="M 389.6481 192.24 
L 390.741528 192.24 
L 390.741528 185.511477 
L 389.6481 185.511477 
z
" style="fill:#871f78;opacity:0.35;"/>
   </g>
   <g id="patch_230">
    <path clip-path="url(#p9210aa35d3)" d="M 391.014886 192.24 
L 392.108314 192.24 
L 392.108314 185.511477 
L 391.014886 185.511477 
z
" style="fill:#871f78;opacity:0.35;"/>
   </g>
   <g id="patch_231">
    <path clip-path="url(#p9210aa35d3)" d="M 392.381671 192.24 
L 393.4751 192.24 
L 393.4751 178.782954 
L 392.381671 178.782954 
z
" style="fill:#871f78;opacity:0.35;"/>
   </g>
   <g id="patch_232">
    <path clip-path="url(#p9210aa35d3)" d="M 393.748457 192.24 
L 394.841885 192.24 
L 394.841885 188.875739 
L 393.748457 188.875739 
z
" style="fill:#871f78;opacity:0.35;"/>
   </g>
   <g id="patch_233">
    <path clip-path="url(#p9210aa35d3)" d="M 395.115242 192.24 
L 396.208671 192.24 
L 396.208671 185.511477 
L 395.115242 185.511477 
z
" style="fill:#871f78;opacity:0.35;"/>
   </g>
   <g id="patch_234">
    <path clip-path="url(#p9210aa35d3)" d="M 396.482028 192.24 
L 397.575457 192.24 
L 397.575457 185.511477 
L 396.482028 185.511477 
z
" style="fill:#871f78;opacity:0.35;"/>
   </g>
   <g id="patch_235">
    <path clip-path="url(#p9210aa35d3)" d="M 397.848814 192.24 
L 398.942242 192.24 
L 398.942242 185.511477 
L 397.848814 185.511477 
z
" style="fill:#871f78;opacity:0.35;"/>
   </g>
   <g id="patch_236">
    <path clip-path="url(#p9210aa35d3)" d="M 399.215599 192.24 
L 400.309028 192.24 
L 400.309028 185.511477 
L 399.215599 185.511477 
z
" style="fill:#871f78;opacity:0.35;"/>
   </g>
   <g id="patch_237">
    <path clip-path="url(#p9210aa35d3)" d="M 400.582385 192.24 
L 401.675814 192.24 
L 401.675814 185.511477 
L 400.582385 185.511477 
z
" style="fill:#871f78;opacity:0.35;"/>
   </g>
   <g id="patch_238">
    <path clip-path="url(#p9210aa35d3)" d="M 401.949171 192.24 
L 403.042599 192.24 
L 403.042599 182.147216 
L 401.949171 182.147216 
z
" style="fill:#871f78;opacity:0.35;"/>
   </g>
   <g id="patch_239">
    <path clip-path="url(#p9210aa35d3)" d="M 403.315956 192.24 
L 404.409385 192.24 
L 404.409385 185.511477 
L 403.315956 185.511477 
z
" style="fill:#871f78;opacity:0.35;"/>
   </g>
   <g id="patch_240">
    <path clip-path="url(#p9210aa35d3)" d="M 404.682742 192.24 
L 405.77617 192.24 
L 405.77617 182.147216 
L 404.682742 182.147216 
z
" style="fill:#871f78;opacity:0.35;"/>
   </g>
   <g id="patch_241">
    <path clip-path="url(#p9210aa35d3)" d="M 406.049528 192.24 
L 407.142956 192.24 
L 407.142956 165.325909 
L 406.049528 165.325909 
z
" style="fill:#871f78;opacity:0.35;"/>
   </g>
   <g id="patch_242">
    <path clip-path="url(#p9210aa35d3)" d="M 407.416313 192.24 
L 408.509742 192.24 
L 408.509742 175.418693 
L 407.416313 175.418693 
z
" style="fill:#871f78;opacity:0.35;"/>
   </g>
   <g id="patch_243">
    <path clip-path="url(#p9210aa35d3)" d="M 408.783099 192.24 
L 409.876527 192.24 
L 409.876527 131.683295 
L 408.783099 131.683295 
z
" style="fill:#871f78;opacity:0.35;"/>
   </g>
   <g id="patch_244">
    <path clip-path="url(#p9210aa35d3)" d="M 410.149885 192.24 
L 411.243313 192.24 
L 411.243313 172.054432 
L 410.149885 172.054432 
z
" style="fill:#871f78;opacity:0.35;"/>
   </g>
   <g id="patch_245">
    <path clip-path="url(#p9210aa35d3)" d="M 411.51667 192.24 
L 412.610099 192.24 
L 412.610099 161.961647 
L 411.51667 161.961647 
z
" style="fill:#871f78;opacity:0.35;"/>
   </g>
   <g id="patch_246">
    <path clip-path="url(#p9210aa35d3)" d="M 412.883456 192.24 
L 413.976884 192.24 
L 413.976884 158.597386 
L 412.883456 158.597386 
z
" style="fill:#871f78;opacity:0.35;"/>
   </g>
   <g id="patch_247">
    <path clip-path="url(#p9210aa35d3)" d="M 414.250241 192.24 
L 415.34367 192.24 
L 415.34367 161.961647 
L 414.250241 161.961647 
z
" style="fill:#871f78;opacity:0.35;"/>
   </g>
   <g id="patch_248">
    <path clip-path="url(#p9210aa35d3)" d="M 415.617027 192.24 
L 416.710456 192.24 
L 416.710456 175.418693 
L 415.617027 175.418693 
z
" style="fill:#871f78;opacity:0.35;"/>
   </g>
   <g id="patch_249">
    <path clip-path="url(#p9210aa35d3)" d="M 416.983813 192.24 
L 418.077241 192.24 
L 418.077241 165.325909 
L 416.983813 165.325909 
z
" style="fill:#871f78;opacity:0.35;"/>
   </g>
   <g id="patch_250">
    <path clip-path="url(#p9210aa35d3)" d="M 418.350598 192.24 
L 419.444027 192.24 
L 419.444027 175.418693 
L 418.350598 175.418693 
z
" style="fill:#871f78;opacity:0.35;"/>
   </g>
   <g id="patch_251">
    <path clip-path="url(#p9210aa35d3)" d="M 419.717384 192.24 
L 420.810813 192.24 
L 420.810813 151.868863 
L 419.717384 151.868863 
z
" style="fill:#871f78;opacity:0.35;"/>
   </g>
   <g id="patch_252">
    <path clip-path="url(#p9210aa35d3)" d="M 421.08417 192.24 
L 422.177598 192.24 
L 422.177598 165.325909 
L 421.08417 165.325909 
z
" style="fill:#871f78;opacity:0.35;"/>
   </g>
   <g id="patch_253">
    <path clip-path="url(#p9210aa35d3)" d="M 422.450955 192.24 
L 423.544384 192.24 
L 423.544384 145.14034 
L 422.450955 145.14034 
z
" style="fill:#871f78;opacity:0.35;"/>
   </g>
   <g id="patch_254">
    <path clip-path="url(#p9210aa35d3)" d="M 423.817741 192.24 
L 424.911169 192.24 
L 424.911169 165.325909 
L 423.817741 165.325909 
z
" style="fill:#871f78;opacity:0.35;"/>
   </g>
   <g id="patch_255">
    <path clip-path="url(#p9210aa35d3)" d="M 425.184527 192.24 
L 426.277955 192.24 
L 426.277955 161.961647 
L 425.184527 161.961647 
z
" style="fill:#871f78;opacity:0.35;"/>
   </g>
   <g id="patch_256">
    <path clip-path="url(#p9210aa35d3)" d="M 426.551312 192.24 
L 427.644741 192.24 
L 427.644741 161.961647 
L 426.551312 161.961647 
z
" style="fill:#871f78;opacity:0.35;"/>
   </g>
   <g id="patch_257">
    <path clip-path="url(#p9210aa35d3)" d="M 427.918098 192.24 
L 429.011526 192.24 
L 429.011526 161.961647 
L 427.918098 161.961647 
z
" style="fill:#871f78;opacity:0.35;"/>
   </g>
   <g id="patch_258">
    <path clip-path="url(#p9210aa35d3)" d="M 429.284883 192.24 
L 430.378312 192.24 
L 430.378312 128.319033 
L 429.284883 128.319033 
z
" style="fill:#871f78;opacity:0.35;"/>
   </g>
   <g id="patch_259">
    <path clip-path="url(#p9210aa35d3)" d="M 430.651669 192.24 
L 431.745098 192.24 
L 431.745098 141.776079 
L 430.651669 141.776079 
z
" style="fill:#871f78;opacity:0.35;"/>
   </g>
   <g id="patch_260">
    <path clip-path="url(#p9210aa35d3)" d="M 432.018455 192.24 
L 433.111883 192.24 
L 433.111883 145.14034 
L 432.018455 145.14034 
z
" style="fill:#871f78;opacity:0.35;"/>
   </g>
   <g id="patch_261">
    <path clip-path="url(#p9210aa35d3)" d="M 433.38524 192.24 
L 434.478669 192.24 
L 434.478669 165.325909 
L 433.38524 165.325909 
z
" style="fill:#871f78;opacity:0.35;"/>
   </g>
   <g id="patch_262">
    <path clip-path="url(#p9210aa35d3)" d="M 434.752026 192.24 
L 435.845455 192.24 
L 435.845455 151.868863 
L 434.752026 151.868863 
z
" style="fill:#871f78;opacity:0.35;"/>
   </g>
   <g id="line2d_22">
    <path clip-path="url(#p9210aa35d3)" d="M 89.501974 191.278782 
L 90.868759 191.759391 
L 94.969116 191.759391 
L 96.335902 192.24 
L 97.702687 192.24 
L 100.436259 190.317565 
L 101.803044 190.317565 
L 103.16983 189.356347 
L 104.536616 187.433912 
L 107.270187 186.472695 
L 108.636972 185.030868 
L 110.003758 185.511477 
L 111.370544 185.030868 
L 114.104115 185.992086 
L 116.837686 185.030868 
L 118.204472 185.030868 
L 119.571258 185.511477 
L 120.938043 185.511477 
L 122.304829 185.030868 
L 123.671615 186.472695 
L 125.0384 185.992086 
L 126.405186 186.953304 
L 127.771971 189.356347 
L 129.138757 189.356347 
L 130.505543 188.875739 
L 131.872328 189.836956 
L 133.239114 189.836956 
L 134.6059 191.278782 
L 135.972685 190.317565 
L 138.706257 190.317565 
L 140.073042 191.759391 
L 142.806613 191.759391 
L 144.173399 191.278782 
L 145.540185 192.24 
L 148.273756 192.24 
L 152.374113 190.798174 
L 153.740899 191.278782 
L 155.107684 190.798174 
L 159.208041 190.798174 
L 160.574827 190.317565 
L 161.941612 190.317565 
L 163.308398 189.356347 
L 164.675184 189.836956 
L 166.041969 189.836956 
L 167.408755 189.356347 
L 168.775541 189.356347 
L 170.142326 189.836956 
L 171.509112 189.836956 
L 172.875898 191.278782 
L 174.242683 190.798174 
L 175.609469 189.836956 
L 176.976254 190.798174 
L 178.34304 190.317565 
L 179.709826 190.317565 
L 182.443397 189.356347 
L 185.176968 190.317565 
L 186.543754 189.356347 
L 187.91054 189.356347 
L 189.277325 188.875739 
L 190.644111 188.875739 
L 192.010896 188.39513 
L 193.377682 188.39513 
L 196.111253 189.356347 
L 197.478039 188.39513 
L 198.844825 188.39513 
L 200.21161 189.356347 
L 201.578396 189.356347 
L 202.945182 188.875739 
L 205.678753 188.875739 
L 207.045539 190.317565 
L 208.412324 191.278782 
L 211.145895 191.278782 
L 212.512681 192.24 
L 219.346609 192.24 
L 220.713395 192.720609 
L 222.080181 192.24 
L 223.446966 192.24 
L 224.813752 192.720609 
L 226.180537 192.720609 
L 227.547323 192.24 
L 233.014466 192.24 
L 235.748037 191.278782 
L 237.114823 190.317565 
L 238.481608 188.875739 
L 239.848394 188.875739 
L 241.21518 188.39513 
L 242.581965 188.39513 
L 243.948751 187.914521 
L 245.315536 187.914521 
L 246.682322 189.356347 
L 248.049108 190.317565 
L 252.149465 190.317565 
L 253.51625 190.798174 
L 254.883036 190.317565 
L 256.249822 190.317565 
L 257.616607 190.798174 
L 258.983393 190.317565 
L 260.350178 190.798174 
L 261.716964 190.317565 
L 263.08375 189.356347 
L 264.450535 189.356347 
L 267.184107 188.39513 
L 268.550892 188.875739 
L 269.917678 188.39513 
L 271.284464 188.875739 
L 275.38482 191.759391 
L 276.751606 192.24 
L 279.485177 191.278782 
L 280.851963 191.278782 
L 282.218749 190.317565 
L 283.585534 190.317565 
L 284.95232 189.836956 
L 286.319106 189.836956 
L 287.685891 190.317565 
L 289.052677 191.278782 
L 290.419463 191.278782 
L 291.786248 192.24 
L 299.986962 192.24 
L 302.720533 191.278782 
L 304.087319 191.278782 
L 306.82089 190.317565 
L 309.554461 190.317565 
L 312.288033 191.278782 
L 313.654818 191.278782 
L 315.021604 191.759391 
L 316.38839 191.278782 
L 320.488747 191.278782 
L 321.855532 190.798174 
L 323.222318 189.836956 
L 324.589104 189.356347 
L 325.955889 190.317565 
L 327.322675 190.317565 
L 328.68946 189.836956 
L 330.056246 189.836956 
L 331.423032 190.317565 
L 332.789817 191.278782 
L 334.156603 191.278782 
L 335.523389 189.836956 
L 336.890174 189.836956 
L 338.25696 189.356347 
L 339.623746 188.39513 
L 340.990531 187.914521 
L 342.357317 186.953304 
L 343.724102 186.953304 
L 345.090888 188.39513 
L 346.457674 187.914521 
L 349.191245 188.875739 
L 350.558031 188.875739 
L 351.924816 189.836956 
L 353.291602 189.836956 
L 356.025173 188.875739 
L 357.391959 189.356347 
L 358.758744 188.39513 
L 360.12553 188.875739 
L 361.492316 188.39513 
L 364.225887 189.356347 
L 366.959458 188.39513 
L 368.326244 189.836956 
L 369.69303 188.875739 
L 371.059815 188.875739 
L 372.426601 185.511477 
L 373.793387 184.55026 
L 375.160172 185.511477 
L 376.526958 185.992086 
L 377.893743 185.511477 
L 379.260529 186.472695 
L 380.627315 186.472695 
L 381.9941 188.875739 
L 383.360886 187.433912 
L 384.727672 187.433912 
L 386.094457 185.511477 
L 387.461243 185.511477 
L 388.828029 184.55026 
L 390.194814 184.069651 
L 391.5616 184.069651 
L 392.928385 184.55026 
L 394.295171 184.55026 
L 395.661957 185.511477 
L 397.028742 185.030868 
L 401.129099 185.030868 
L 402.495885 185.511477 
L 405.229456 184.55026 
L 406.596242 181.666607 
L 407.963028 180.224781 
L 409.329813 172.53504 
L 410.696599 170.612605 
L 412.063384 167.728953 
L 413.43017 163.884083 
L 414.796956 161.00043 
L 416.163741 162.442256 
L 417.530527 161.00043 
L 418.897313 167.248344 
L 420.264098 164.364691 
L 421.630884 164.8453 
L 422.99767 162.922865 
L 424.364455 163.403474 
L 425.731241 161.481039 
L 427.098026 161.00043 
L 428.464812 159.077995 
L 431.198383 152.349472 
L 433.931955 152.349472 
L 435.29874 150.907646 
L 435.29874 150.907646 
" style="fill:none;stroke:#871f78;stroke-linecap:round;stroke-width:1.5;"/>
   </g>
   <g id="patch_263">
    <path d="M 63 192.24 
L 453.6 192.24 
" style="fill:none;stroke:#cccccc;stroke-linecap:square;stroke-linejoin:miter;"/>
   </g>
   <g id="text_16">
    <!-- 7-day -->
    <defs>
     <path d="M 14.5 0 
Q 15.671875 7.234375 19.484375 17.390625 
Q 24.03125 29.640625 31.390625 41.71875 
Q 38.765625 53.8125 47.796875 62.5 
L 12.109375 62.5 
L 13.8125 70.609375 
L 59.515625 70.609375 
L 57.859375 62.5 
Q 46.234375 52.296875 37.546875 36.1875 
Q 27.4375 17.578125 23.734375 0 
z
" id="Arial-ItalicMT-55"/>
     <path d="M 4.640625 21.484375 
L 6.5 30.328125 
L 33.453125 30.328125 
L 31.640625 21.484375 
z
" id="Arial-ItalicMT-45"/>
     <path d="M 38.28125 7.515625 
Q 30.71875 -1.171875 22.46875 -1.171875 
Q 15.09375 -1.171875 10.1875 4.265625 
Q 5.28125 9.71875 5.28125 20.0625 
Q 5.28125 29.546875 9.15625 37.375 
Q 13.03125 45.21875 18.859375 49.125 
Q 24.703125 53.03125 30.5625 53.03125 
Q 40.234375 53.03125 45.171875 43.703125 
L 51.03125 71.578125 
L 59.8125 71.578125 
L 44.875 0 
L 36.71875 0 
z
M 14.0625 21.734375 
Q 14.0625 16.3125 15.140625 13.1875 
Q 16.21875 10.0625 18.796875 7.984375 
Q 21.390625 5.90625 25 5.90625 
Q 31 5.90625 35.890625 12.15625 
Q 42.4375 20.453125 42.4375 32.671875 
Q 42.4375 38.8125 39.203125 42.28125 
Q 35.984375 45.75 31.109375 45.75 
Q 27.9375 45.75 25.3125 44.328125 
Q 22.703125 42.921875 20.140625 39.53125 
Q 17.578125 36.140625 15.8125 30.90625 
Q 14.0625 25.6875 14.0625 21.734375 
z
" id="Arial-ItalicMT-100"/>
     <path d="M 38.28125 6.453125 
Q 33.6875 2.484375 29.4375 0.65625 
Q 25.203125 -1.171875 20.359375 -1.171875 
Q 13.1875 -1.171875 8.78125 3.046875 
Q 4.390625 7.28125 4.390625 13.875 
Q 4.390625 18.21875 6.359375 21.5625 
Q 8.34375 24.90625 11.609375 26.921875 
Q 14.890625 28.953125 19.625 29.828125 
Q 22.609375 30.421875 30.9375 30.765625 
Q 39.265625 31.109375 42.875 32.515625 
Q 43.890625 36.140625 43.890625 38.53125 
Q 43.890625 41.609375 41.65625 43.359375 
Q 38.578125 45.796875 32.671875 45.796875 
Q 27.09375 45.796875 23.546875 43.328125 
Q 20.015625 40.875 18.40625 36.328125 
L 9.46875 37.109375 
Q 12.203125 44.828125 18.140625 48.921875 
Q 24.078125 53.03125 33.109375 53.03125 
Q 42.71875 53.03125 48.34375 48.4375 
Q 52.640625 45.015625 52.640625 39.546875 
Q 52.640625 35.40625 51.421875 29.9375 
L 48.53125 17.046875 
Q 47.171875 10.890625 47.171875 7.03125 
Q 47.171875 4.59375 48.25 0 
L 39.3125 0 
Q 38.578125 2.546875 38.28125 6.453125 
z
M 41.546875 26.265625 
Q 39.703125 25.53125 37.578125 25.140625 
Q 35.453125 24.75 30.46875 24.3125 
Q 22.75 23.640625 19.578125 22.578125 
Q 16.40625 21.53125 14.796875 19.234375 
Q 13.1875 16.9375 13.1875 14.15625 
Q 13.1875 10.453125 15.75 8.0625 
Q 18.3125 5.671875 23.046875 5.671875 
Q 27.4375 5.671875 31.484375 7.984375 
Q 35.546875 10.296875 37.890625 14.453125 
Q 40.234375 18.609375 41.546875 26.265625 
z
" id="Arial-ItalicMT-97"/>
     <path d="M 0 -20.015625 
L 0.53125 -11.71875 
Q 3.265625 -12.5 5.859375 -12.5 
Q 8.546875 -12.5 10.203125 -11.28125 
Q 12.359375 -9.671875 14.890625 -5.21875 
L 17.71875 -0.140625 
L 9.078125 51.859375 
L 17.78125 51.859375 
L 21.6875 25.640625 
Q 22.859375 17.875 23.6875 10.109375 
L 46.875 51.859375 
L 56.109375 51.859375 
L 23.046875 -6.890625 
Q 18.265625 -15.484375 14.546875 -18.265625 
Q 10.84375 -21.046875 6 -21.046875 
Q 2.9375 -21.046875 0 -20.015625 
z
" id="Arial-ItalicMT-121"/>
    </defs>
    <g style="fill:#871f78;" transform="translate(439.399097 140.213583)scale(0.1 -0.1)">
     <use xlink:href="#Arial-ItalicMT-55"/>
     <use x="55.615234" xlink:href="#Arial-ItalicMT-45"/>
     <use x="88.916016" xlink:href="#Arial-ItalicMT-100"/>
     <use x="144.53125" xlink:href="#Arial-ItalicMT-97"/>
     <use x="200.146484" xlink:href="#Arial-ItalicMT-121"/>
    </g>
    <!-- avg. -->
    <defs>
     <path d="M 16.40625 0 
L 7.90625 51.859375 
L 16.5 51.859375 
L 20.953125 23.296875 
Q 21.6875 18.609375 22.75 8.015625 
Q 25.296875 13.53125 29.25 20.65625 
L 46.578125 51.859375 
L 55.90625 51.859375 
L 26.21875 0 
z
" id="Arial-ItalicMT-118"/>
     <path d="M 2.828125 -4.6875 
L 11.765625 -5.515625 
Q 11.671875 -8.546875 12.5 -10.0625 
Q 13.328125 -11.578125 15.140625 -12.40625 
Q 17.53125 -13.484375 21.34375 -13.484375 
Q 29.34375 -13.484375 32.859375 -9.328125 
Q 35.15625 -6.546875 37.109375 2.78125 
L 37.984375 6.984375 
Q 31.109375 0 23.34375 0 
Q 15.484375 0 10.1875 5.78125 
Q 4.890625 11.578125 4.890625 22.171875 
Q 4.890625 30.90625 9.0625 38.234375 
Q 13.234375 45.5625 18.984375 49.296875 
Q 24.75 53.03125 30.859375 53.03125 
Q 41.0625 53.03125 46.578125 43.359375 
L 48.34375 51.859375 
L 56.453125 51.859375 
L 46 1.8125 
Q 44.28125 -6.453125 41.5 -11.0625 
Q 38.71875 -15.671875 33.765625 -18.203125 
Q 28.8125 -20.75 22.3125 -20.75 
Q 16.0625 -20.75 11.546875 -19.140625 
Q 7.03125 -17.53125 4.8125 -14.421875 
Q 2.59375 -11.328125 2.59375 -7.328125 
Q 2.59375 -6.109375 2.828125 -4.6875 
z
M 13.875 22.953125 
Q 13.875 17.625 14.890625 14.9375 
Q 16.359375 11.1875 19.0625 9.203125 
Q 21.78125 7.234375 25.09375 7.234375 
Q 29.4375 7.234375 33.734375 10.28125 
Q 38.03125 13.328125 40.6875 19.71875 
Q 43.359375 26.125 43.359375 31.9375 
Q 43.359375 38.328125 39.8125 42.109375 
Q 36.28125 45.90625 31.0625 45.90625 
Q 27.828125 45.90625 24.796875 44.171875 
Q 21.78125 42.4375 19.15625 38.890625 
Q 16.546875 35.359375 15.203125 30.421875 
Q 13.875 25.484375 13.875 22.953125 
z
" id="Arial-ItalicMT-103"/>
     <path d="M 5.765625 0 
L 7.859375 10.015625 
L 17.875 10.015625 
L 15.71875 0 
z
" id="Arial-ItalicMT-46"/>
    </defs>
    <g style="fill:#871f78;" transform="translate(439.399097 150.907646)scale(0.1 -0.1)">
     <use xlink:href="#Arial-ItalicMT-97"/>
     <use x="55.615234" xlink:href="#Arial-ItalicMT-118"/>
     <use x="105.615234" xlink:href="#Arial-ItalicMT-103"/>
     <use x="161.230469" xlink:href="#Arial-ItalicMT-46"/>
    </g>
   </g>
  </g>
 </g>
 <defs>
  <clipPath id="p9210aa35d3">
   <rect height="166.32" width="390.6" x="63" y="25.92"/>
  </clipPath>
 </defs>
</svg>
