<svg version="1.1" viewBox="40 10 440 195" width="100%" xmlns="http://www.w3.org/2000/svg" xmlns:xlink="http://www.w3.org/1999/xlink">
 <defs>
  <style type="text/css">
*{stroke-linecap:butt;stroke-linejoin:round;}
  </style>
 </defs>
 <g id="figure_1">
  <g id="patch_1">
   <path d="M 0 216 
L 504 216 
L 504 0 
L 0 0 
z
" style="fill:#ffffff;"/>
  </g>
  <g id="axes_1">
   <g id="patch_2">
    <path d="M 63 192.24 
L 453.6 192.24 
L 453.6 25.92 
L 63 25.92 
z
" style="fill:#ffffff;"/>
   </g>
   <g id="matplotlib.axis_1">
    <g id="xtick_1">
     <g id="line2d_1"/>
     <g id="text_1">
      <!-- Mar -->
      <defs>
       <path d="M 7.421875 0 
L 7.421875 71.578125 
L 21.6875 71.578125 
L 38.625 20.90625 
Q 40.96875 13.8125 42.046875 10.296875 
Q 43.265625 14.203125 45.84375 21.78125 
L 62.984375 71.578125 
L 75.734375 71.578125 
L 75.734375 0 
L 66.609375 0 
L 66.609375 59.90625 
L 45.796875 0 
L 37.25 0 
L 16.546875 60.9375 
L 16.546875 0 
z
" id="ArialMT-77"/>
       <path d="M 40.4375 6.390625 
Q 35.546875 2.25 31.03125 0.53125 
Q 26.515625 -1.171875 21.34375 -1.171875 
Q 12.796875 -1.171875 8.203125 3 
Q 3.609375 7.171875 3.609375 13.671875 
Q 3.609375 17.484375 5.34375 20.625 
Q 7.078125 23.78125 9.890625 25.6875 
Q 12.703125 27.59375 16.21875 28.5625 
Q 18.796875 29.25 24.03125 29.890625 
Q 34.671875 31.15625 39.703125 32.90625 
Q 39.75 34.71875 39.75 35.203125 
Q 39.75 40.578125 37.25 42.78125 
Q 33.890625 45.75 27.25 45.75 
Q 21.046875 45.75 18.09375 43.578125 
Q 15.140625 41.40625 13.71875 35.890625 
L 5.125 37.0625 
Q 6.296875 42.578125 8.984375 45.96875 
Q 11.671875 49.359375 16.75 51.1875 
Q 21.828125 53.03125 28.515625 53.03125 
Q 35.15625 53.03125 39.296875 51.46875 
Q 43.453125 49.90625 45.40625 47.53125 
Q 47.359375 45.171875 48.140625 41.546875 
Q 48.578125 39.3125 48.578125 33.453125 
L 48.578125 21.734375 
Q 48.578125 9.46875 49.140625 6.21875 
Q 49.703125 2.984375 51.375 0 
L 42.1875 0 
Q 40.828125 2.734375 40.4375 6.390625 
z
M 39.703125 26.03125 
Q 34.90625 24.078125 25.34375 22.703125 
Q 19.921875 21.921875 17.671875 20.9375 
Q 15.4375 19.96875 14.203125 18.09375 
Q 12.984375 16.21875 12.984375 13.921875 
Q 12.984375 10.40625 15.640625 8.0625 
Q 18.3125 5.71875 23.4375 5.71875 
Q 28.515625 5.71875 32.46875 7.9375 
Q 36.421875 10.15625 38.28125 14.015625 
Q 39.703125 17 39.703125 22.796875 
z
" id="ArialMT-97"/>
       <path d="M 6.5 0 
L 6.5 51.859375 
L 14.40625 51.859375 
L 14.40625 44 
Q 17.4375 49.515625 20 51.265625 
Q 22.5625 53.03125 25.640625 53.03125 
Q 30.078125 53.03125 34.671875 50.203125 
L 31.640625 42.046875 
Q 28.421875 43.953125 25.203125 43.953125 
Q 22.3125 43.953125 20.015625 42.21875 
Q 17.71875 40.484375 16.75 37.40625 
Q 15.28125 32.71875 15.28125 27.15625 
L 15.28125 0 
z
" id="ArialMT-114"/>
      </defs>
      <g style="fill:#871f78;" transform="translate(69.965917 202.897813)scale(0.1 -0.1)">
       <use xlink:href="#ArialMT-77"/>
       <use x="83.300781" xlink:href="#ArialMT-97"/>
       <use x="138.916016" xlink:href="#ArialMT-114"/>
      </g>
     </g>
    </g>
    <g id="xtick_2">
     <g id="line2d_2"/>
     <g id="text_2">
      <!-- Apr -->
      <defs>
       <path d="M -0.140625 0 
L 27.34375 71.578125 
L 37.546875 71.578125 
L 66.84375 0 
L 56.0625 0 
L 47.703125 21.6875 
L 17.78125 21.6875 
L 9.90625 0 
z
M 20.515625 29.390625 
L 44.78125 29.390625 
L 37.3125 49.21875 
Q 33.890625 58.25 32.234375 64.0625 
Q 30.859375 57.171875 28.375 50.390625 
z
" id="ArialMT-65"/>
       <path d="M 6.59375 -19.875 
L 6.59375 51.859375 
L 14.59375 51.859375 
L 14.59375 45.125 
Q 17.4375 49.078125 21 51.046875 
Q 24.5625 53.03125 29.640625 53.03125 
Q 36.28125 53.03125 41.359375 49.609375 
Q 46.4375 46.1875 49.015625 39.953125 
Q 51.609375 33.734375 51.609375 26.3125 
Q 51.609375 18.359375 48.75 11.984375 
Q 45.90625 5.609375 40.453125 2.21875 
Q 35.015625 -1.171875 29 -1.171875 
Q 24.609375 -1.171875 21.109375 0.6875 
Q 17.625 2.546875 15.375 5.375 
L 15.375 -19.875 
z
M 14.546875 25.640625 
Q 14.546875 15.625 18.59375 10.84375 
Q 22.65625 6.0625 28.421875 6.0625 
Q 34.28125 6.0625 38.453125 11.015625 
Q 42.625 15.96875 42.625 26.375 
Q 42.625 36.28125 38.546875 41.203125 
Q 34.46875 46.140625 28.8125 46.140625 
Q 23.1875 46.140625 18.859375 40.890625 
Q 14.546875 35.640625 14.546875 25.640625 
z
" id="ArialMT-112"/>
      </defs>
      <g style="fill:#871f78;" transform="translate(113.003497 202.897813)scale(0.1 -0.1)">
       <use xlink:href="#ArialMT-65"/>
       <use x="66.699219" xlink:href="#ArialMT-112"/>
       <use x="122.314453" xlink:href="#ArialMT-114"/>
      </g>
     </g>
    </g>
    <g id="xtick_3">
     <g id="line2d_3"/>
     <g id="text_3">
      <!-- May -->
      <defs>
       <path d="M 6.203125 -19.96875 
L 5.21875 -11.71875 
Q 8.109375 -12.5 10.25 -12.5 
Q 13.1875 -12.5 14.9375 -11.515625 
Q 16.703125 -10.546875 17.828125 -8.796875 
Q 18.65625 -7.46875 20.515625 -2.25 
Q 20.75 -1.515625 21.296875 -0.09375 
L 1.609375 51.859375 
L 11.078125 51.859375 
L 21.875 21.828125 
Q 23.96875 16.109375 25.640625 9.8125 
Q 27.15625 15.875 29.25 21.625 
L 40.328125 51.859375 
L 49.125 51.859375 
L 29.390625 -0.875 
Q 26.21875 -9.421875 24.46875 -12.640625 
Q 22.125 -17 19.09375 -19.015625 
Q 16.0625 -21.046875 11.859375 -21.046875 
Q 9.328125 -21.046875 6.203125 -19.96875 
z
" id="ArialMT-121"/>
      </defs>
      <g style="fill:#871f78;" transform="translate(152.185 202.897813)scale(0.1 -0.1)">
       <use xlink:href="#ArialMT-77"/>
       <use x="83.300781" xlink:href="#ArialMT-97"/>
       <use x="138.916016" xlink:href="#ArialMT-121"/>
      </g>
     </g>
    </g>
    <g id="xtick_4">
     <g id="line2d_4"/>
     <g id="text_4">
      <!-- Jun -->
      <defs>
       <path d="M 2.875 20.3125 
L 11.421875 21.484375 
Q 11.765625 13.28125 14.5 10.25 
Q 17.234375 7.234375 22.078125 7.234375 
Q 25.640625 7.234375 28.21875 8.859375 
Q 30.8125 10.5 31.78125 13.296875 
Q 32.765625 16.109375 32.765625 22.265625 
L 32.765625 71.578125 
L 42.234375 71.578125 
L 42.234375 22.796875 
Q 42.234375 13.8125 40.0625 8.875 
Q 37.890625 3.953125 33.171875 1.359375 
Q 28.46875 -1.21875 22.125 -1.21875 
Q 12.703125 -1.21875 7.6875 4.203125 
Q 2.6875 9.625 2.875 20.3125 
z
" id="ArialMT-74"/>
       <path d="M 40.578125 0 
L 40.578125 7.625 
Q 34.515625 -1.171875 24.125 -1.171875 
Q 19.53125 -1.171875 15.546875 0.578125 
Q 11.578125 2.34375 9.640625 5 
Q 7.71875 7.671875 6.9375 11.53125 
Q 6.390625 14.109375 6.390625 19.734375 
L 6.390625 51.859375 
L 15.1875 51.859375 
L 15.1875 23.09375 
Q 15.1875 16.21875 15.71875 13.8125 
Q 16.546875 10.359375 19.234375 8.375 
Q 21.921875 6.390625 25.875 6.390625 
Q 29.828125 6.390625 33.296875 8.421875 
Q 36.765625 10.453125 38.203125 13.9375 
Q 39.65625 17.4375 39.65625 24.078125 
L 39.65625 51.859375 
L 48.4375 51.859375 
L 48.4375 0 
z
" id="ArialMT-117"/>
       <path d="M 6.59375 0 
L 6.59375 51.859375 
L 14.5 51.859375 
L 14.5 44.484375 
Q 20.21875 53.03125 31 53.03125 
Q 35.6875 53.03125 39.625 51.34375 
Q 43.5625 49.65625 45.515625 46.921875 
Q 47.46875 44.1875 48.25 40.4375 
Q 48.734375 37.984375 48.734375 31.890625 
L 48.734375 0 
L 39.9375 0 
L 39.9375 31.546875 
Q 39.9375 36.921875 38.90625 39.578125 
Q 37.890625 42.234375 35.28125 43.8125 
Q 32.671875 45.40625 29.15625 45.40625 
Q 23.53125 45.40625 19.453125 41.84375 
Q 15.375 38.28125 15.375 28.328125 
L 15.375 0 
z
" id="ArialMT-110"/>
      </defs>
      <g style="fill:#871f78;" transform="translate(195.777267 202.897813)scale(0.1 -0.1)">
       <use xlink:href="#ArialMT-74"/>
       <use x="50" xlink:href="#ArialMT-117"/>
       <use x="105.615234" xlink:href="#ArialMT-110"/>
      </g>
     </g>
    </g>
    <g id="xtick_5">
     <g id="line2d_5"/>
     <g id="text_5">
      <!-- Jul -->
      <defs>
       <path d="M 6.390625 0 
L 6.390625 71.578125 
L 15.1875 71.578125 
L 15.1875 0 
z
" id="ArialMT-108"/>
      </defs>
      <g style="fill:#871f78;" transform="translate(238.293145 202.897813)scale(0.1 -0.1)">
       <use xlink:href="#ArialMT-74"/>
       <use x="50" xlink:href="#ArialMT-117"/>
       <use x="105.615234" xlink:href="#ArialMT-108"/>
      </g>
     </g>
    </g>
    <g id="xtick_6">
     <g id="line2d_6"/>
     <g id="text_6">
      <!-- Aug -->
      <defs>
       <path d="M 4.984375 -4.296875 
L 13.53125 -5.5625 
Q 14.0625 -9.515625 16.5 -11.328125 
Q 19.78125 -13.765625 25.4375 -13.765625 
Q 31.546875 -13.765625 34.859375 -11.328125 
Q 38.1875 -8.890625 39.359375 -4.5 
Q 40.046875 -1.8125 39.984375 6.78125 
Q 34.234375 0 25.640625 0 
Q 14.9375 0 9.078125 7.71875 
Q 3.21875 15.4375 3.21875 26.21875 
Q 3.21875 33.640625 5.90625 39.90625 
Q 8.59375 46.1875 13.6875 49.609375 
Q 18.796875 53.03125 25.6875 53.03125 
Q 34.859375 53.03125 40.828125 45.609375 
L 40.828125 51.859375 
L 48.921875 51.859375 
L 48.921875 7.03125 
Q 48.921875 -5.078125 46.453125 -10.125 
Q 44 -15.1875 38.640625 -18.109375 
Q 33.296875 -21.046875 25.484375 -21.046875 
Q 16.21875 -21.046875 10.5 -16.875 
Q 4.78125 -12.703125 4.984375 -4.296875 
z
M 12.25 26.859375 
Q 12.25 16.65625 16.296875 11.96875 
Q 20.359375 7.28125 26.46875 7.28125 
Q 32.515625 7.28125 36.609375 11.9375 
Q 40.71875 16.609375 40.71875 26.5625 
Q 40.71875 36.078125 36.5 40.90625 
Q 32.28125 45.75 26.3125 45.75 
Q 20.453125 45.75 16.34375 40.984375 
Q 12.25 36.234375 12.25 26.859375 
z
" id="ArialMT-103"/>
      </defs>
      <g style="fill:#871f78;" transform="translate(277.996349 202.897813)scale(0.1 -0.1)">
       <use xlink:href="#ArialMT-65"/>
       <use x="66.699219" xlink:href="#ArialMT-117"/>
       <use x="122.314453" xlink:href="#ArialMT-103"/>
      </g>
     </g>
    </g>
    <g id="xtick_7">
     <g id="line2d_7"/>
     <g id="text_7">
      <!-- Sep -->
      <defs>
       <path d="M 4.5 23 
L 13.421875 23.78125 
Q 14.0625 18.40625 16.375 14.96875 
Q 18.703125 11.53125 23.578125 9.40625 
Q 28.46875 7.28125 34.578125 7.28125 
Q 39.984375 7.28125 44.140625 8.890625 
Q 48.296875 10.5 50.3125 13.296875 
Q 52.34375 16.109375 52.34375 19.4375 
Q 52.34375 22.796875 50.390625 25.3125 
Q 48.4375 27.828125 43.953125 29.546875 
Q 41.0625 30.671875 31.203125 33.03125 
Q 21.34375 35.40625 17.390625 37.5 
Q 12.25 40.1875 9.734375 44.15625 
Q 7.234375 48.140625 7.234375 53.078125 
Q 7.234375 58.5 10.296875 63.203125 
Q 13.375 67.921875 19.28125 70.359375 
Q 25.203125 72.796875 32.421875 72.796875 
Q 40.375 72.796875 46.453125 70.234375 
Q 52.546875 67.671875 55.8125 62.6875 
Q 59.078125 57.71875 59.328125 51.421875 
L 50.25 50.734375 
Q 49.515625 57.515625 45.28125 60.984375 
Q 41.0625 64.453125 32.8125 64.453125 
Q 24.21875 64.453125 20.28125 61.296875 
Q 16.359375 58.15625 16.359375 53.71875 
Q 16.359375 49.859375 19.140625 47.359375 
Q 21.875 44.875 33.421875 42.265625 
Q 44.96875 39.65625 49.265625 37.703125 
Q 55.515625 34.8125 58.484375 30.390625 
Q 61.46875 25.984375 61.46875 20.21875 
Q 61.46875 14.5 58.203125 9.4375 
Q 54.9375 4.390625 48.796875 1.578125 
Q 42.671875 -1.21875 35.015625 -1.21875 
Q 25.296875 -1.21875 18.71875 1.609375 
Q 12.15625 4.4375 8.421875 10.125 
Q 4.6875 15.828125 4.5 23 
z
" id="ArialMT-83"/>
       <path d="M 42.09375 16.703125 
L 51.171875 15.578125 
Q 49.03125 7.625 43.21875 3.21875 
Q 37.40625 -1.171875 28.375 -1.171875 
Q 17 -1.171875 10.328125 5.828125 
Q 3.65625 12.84375 3.65625 25.484375 
Q 3.65625 38.578125 10.390625 45.796875 
Q 17.140625 53.03125 27.875 53.03125 
Q 38.28125 53.03125 44.875 45.953125 
Q 51.46875 38.875 51.46875 26.03125 
Q 51.46875 25.25 51.421875 23.6875 
L 12.75 23.6875 
Q 13.234375 15.140625 17.578125 10.59375 
Q 21.921875 6.0625 28.421875 6.0625 
Q 33.25 6.0625 36.671875 8.59375 
Q 40.09375 11.140625 42.09375 16.703125 
z
M 13.234375 30.90625 
L 42.1875 30.90625 
Q 41.609375 37.453125 38.875 40.71875 
Q 34.671875 45.796875 27.984375 45.796875 
Q 21.921875 45.796875 17.796875 41.75 
Q 13.671875 37.703125 13.234375 30.90625 
z
" id="ArialMT-101"/>
      </defs>
      <g style="fill:#871f78;" transform="translate(320.204241 203.019688)scale(0.1 -0.1)">
       <use xlink:href="#ArialMT-83"/>
       <use x="66.699219" xlink:href="#ArialMT-101"/>
       <use x="122.314453" xlink:href="#ArialMT-112"/>
      </g>
     </g>
    </g>
    <g id="xtick_8">
     <g id="line2d_8"/>
     <g id="text_8">
      <!-- Oct -->
      <defs>
       <path d="M 4.828125 34.859375 
Q 4.828125 52.6875 14.390625 62.765625 
Q 23.96875 72.859375 39.109375 72.859375 
Q 49.03125 72.859375 56.984375 68.109375 
Q 64.9375 63.375 69.109375 54.90625 
Q 73.296875 46.4375 73.296875 35.6875 
Q 73.296875 24.8125 68.890625 16.21875 
Q 64.5 7.625 56.4375 3.203125 
Q 48.390625 -1.21875 39.0625 -1.21875 
Q 28.953125 -1.21875 20.984375 3.65625 
Q 13.03125 8.546875 8.921875 16.984375 
Q 4.828125 25.4375 4.828125 34.859375 
z
M 14.59375 34.71875 
Q 14.59375 21.78125 21.546875 14.328125 
Q 28.515625 6.890625 39.015625 6.890625 
Q 49.703125 6.890625 56.609375 14.40625 
Q 63.53125 21.921875 63.53125 35.75 
Q 63.53125 44.484375 60.578125 51 
Q 57.625 57.515625 51.921875 61.109375 
Q 46.234375 64.703125 39.15625 64.703125 
Q 29.109375 64.703125 21.84375 57.78125 
Q 14.59375 50.875 14.59375 34.71875 
z
" id="ArialMT-79"/>
       <path d="M 40.4375 19 
L 49.078125 17.875 
Q 47.65625 8.9375 41.8125 3.875 
Q 35.984375 -1.171875 27.484375 -1.171875 
Q 16.84375 -1.171875 10.375 5.78125 
Q 3.90625 12.75 3.90625 25.734375 
Q 3.90625 34.125 6.6875 40.421875 
Q 9.46875 46.734375 15.15625 49.875 
Q 20.84375 53.03125 27.546875 53.03125 
Q 35.984375 53.03125 41.359375 48.75 
Q 46.734375 44.484375 48.25 36.625 
L 39.703125 35.296875 
Q 38.484375 40.53125 35.375 43.15625 
Q 32.28125 45.796875 27.875 45.796875 
Q 21.234375 45.796875 17.078125 41.03125 
Q 12.9375 36.28125 12.9375 25.984375 
Q 12.9375 15.53125 16.9375 10.796875 
Q 20.953125 6.0625 27.390625 6.0625 
Q 32.5625 6.0625 36.03125 9.234375 
Q 39.5 12.40625 40.4375 19 
z
" id="ArialMT-99"/>
       <path d="M 25.78125 7.859375 
L 27.046875 0.09375 
Q 23.34375 -0.6875 20.40625 -0.6875 
Q 15.625 -0.6875 12.984375 0.828125 
Q 10.359375 2.34375 9.28125 4.8125 
Q 8.203125 7.28125 8.203125 15.1875 
L 8.203125 45.015625 
L 1.765625 45.015625 
L 1.765625 51.859375 
L 8.203125 51.859375 
L 8.203125 64.703125 
L 16.9375 69.96875 
L 16.9375 51.859375 
L 25.78125 51.859375 
L 25.78125 45.015625 
L 16.9375 45.015625 
L 16.9375 14.703125 
Q 16.9375 10.9375 17.40625 9.859375 
Q 17.875 8.796875 18.921875 8.15625 
Q 19.96875 7.515625 21.921875 7.515625 
Q 23.390625 7.515625 25.78125 7.859375 
z
" id="ArialMT-116"/>
      </defs>
      <g style="fill:#871f78;" transform="translate(362.168557 202.897813)scale(0.1 -0.1)">
       <use xlink:href="#ArialMT-79"/>
       <use x="77.783203" xlink:href="#ArialMT-99"/>
       <use x="127.783203" xlink:href="#ArialMT-116"/>
      </g>
     </g>
    </g>
    <g id="xtick_9">
     <g id="line2d_9"/>
     <g id="text_9">
      <!-- Nov -->
      <defs>
       <path d="M 7.625 0 
L 7.625 71.578125 
L 17.328125 71.578125 
L 54.9375 15.375 
L 54.9375 71.578125 
L 64.015625 71.578125 
L 64.015625 0 
L 54.296875 0 
L 16.703125 56.25 
L 16.703125 0 
z
" id="ArialMT-78"/>
       <path d="M 3.328125 25.921875 
Q 3.328125 40.328125 11.328125 47.265625 
Q 18.015625 53.03125 27.640625 53.03125 
Q 38.328125 53.03125 45.109375 46.015625 
Q 51.90625 39.015625 51.90625 26.65625 
Q 51.90625 16.65625 48.90625 10.90625 
Q 45.90625 5.171875 40.15625 2 
Q 34.421875 -1.171875 27.640625 -1.171875 
Q 16.75 -1.171875 10.03125 5.8125 
Q 3.328125 12.796875 3.328125 25.921875 
z
M 12.359375 25.921875 
Q 12.359375 15.96875 16.703125 11.015625 
Q 21.046875 6.0625 27.640625 6.0625 
Q 34.1875 6.0625 38.53125 11.03125 
Q 42.875 16.015625 42.875 26.21875 
Q 42.875 35.84375 38.5 40.796875 
Q 34.125 45.75 27.640625 45.75 
Q 21.046875 45.75 16.703125 40.8125 
Q 12.359375 35.890625 12.359375 25.921875 
z
" id="ArialMT-111"/>
       <path d="M 21 0 
L 1.265625 51.859375 
L 10.546875 51.859375 
L 21.6875 20.796875 
Q 23.484375 15.765625 25 10.359375 
Q 26.171875 14.453125 28.265625 20.21875 
L 39.796875 51.859375 
L 48.828125 51.859375 
L 29.203125 0 
z
" id="ArialMT-118"/>
      </defs>
      <g style="fill:#871f78;" transform="translate(403.263167 202.897813)scale(0.1 -0.1)">
       <use xlink:href="#ArialMT-78"/>
       <use x="72.216797" xlink:href="#ArialMT-111"/>
       <use x="127.832031" xlink:href="#ArialMT-118"/>
      </g>
     </g>
    </g>
    <g id="xtick_10">
     <g id="line2d_10"/>
     <g id="text_10">
      <!-- Dec -->
      <defs>
       <path d="M 7.71875 0 
L 7.71875 71.578125 
L 32.375 71.578125 
Q 40.71875 71.578125 45.125 70.5625 
Q 51.265625 69.140625 55.609375 65.4375 
Q 61.28125 60.640625 64.078125 53.1875 
Q 66.890625 45.75 66.890625 36.1875 
Q 66.890625 28.03125 64.984375 21.734375 
Q 63.09375 15.4375 60.109375 11.296875 
Q 57.125 7.171875 53.578125 4.796875 
Q 50.046875 2.4375 45.046875 1.21875 
Q 40.046875 0 33.546875 0 
z
M 17.1875 8.453125 
L 32.46875 8.453125 
Q 39.546875 8.453125 43.578125 9.765625 
Q 47.609375 11.078125 50 13.484375 
Q 53.375 16.84375 55.25 22.53125 
Q 57.125 28.21875 57.125 36.328125 
Q 57.125 47.5625 53.4375 53.59375 
Q 49.75 59.625 44.484375 61.671875 
Q 40.671875 63.140625 32.234375 63.140625 
L 17.1875 63.140625 
z
" id="ArialMT-68"/>
      </defs>
      <g style="fill:#871f78;" transform="translate(444.109514 202.897813)scale(0.1 -0.1)">
       <use xlink:href="#ArialMT-68"/>
       <use x="72.216797" xlink:href="#ArialMT-101"/>
       <use x="127.832031" xlink:href="#ArialMT-99"/>
      </g>
     </g>
    </g>
   </g>
   <g id="matplotlib.axis_2">
    <g id="ytick_1">
     <g id="line2d_11">
      <path clip-path="url(#p48d28419fa)" d="M 63 192.24 
L 453.6 192.24 
" style="fill:none;stroke:#cccccc;stroke-linecap:round;stroke-width:0.8;"/>
     </g>
     <g id="line2d_12"/>
     <g id="text_11">
      <!-- 0 -->
      <defs>
       <path d="M 4.15625 35.296875 
Q 4.15625 48 6.765625 55.734375 
Q 9.375 63.484375 14.515625 67.671875 
Q 19.671875 71.875 27.484375 71.875 
Q 33.25 71.875 37.59375 69.546875 
Q 41.9375 67.234375 44.765625 62.859375 
Q 47.609375 58.5 49.21875 52.21875 
Q 50.828125 45.953125 50.828125 35.296875 
Q 50.828125 22.703125 48.234375 14.96875 
Q 45.65625 7.234375 40.5 3 
Q 35.359375 -1.21875 27.484375 -1.21875 
Q 17.140625 -1.21875 11.234375 6.203125 
Q 4.15625 15.140625 4.15625 35.296875 
z
M 13.1875 35.296875 
Q 13.1875 17.671875 17.3125 11.828125 
Q 21.4375 6 27.484375 6 
Q 33.546875 6 37.671875 11.859375 
Q 41.796875 17.71875 41.796875 35.296875 
Q 41.796875 52.984375 37.671875 58.78125 
Q 33.546875 64.59375 27.390625 64.59375 
Q 21.34375 64.59375 17.71875 59.46875 
Q 13.1875 52.9375 13.1875 35.296875 
z
" id="ArialMT-48"/>
      </defs>
      <g style="fill:#871f78;" transform="translate(53.939062 195.818906)scale(0.1 -0.1)">
       <use xlink:href="#ArialMT-48"/>
      </g>
     </g>
    </g>
    <g id="ytick_2">
     <g id="line2d_13">
      <path clip-path="url(#p48d28419fa)" d="M 63 162 
L 453.6 162 
" style="fill:none;stroke:#cccccc;stroke-linecap:round;stroke-width:0.8;"/>
     </g>
     <g id="line2d_14"/>
     <g id="text_12">
      <!-- 10 -->
      <defs>
       <path d="M 37.25 0 
L 28.46875 0 
L 28.46875 56 
Q 25.296875 52.984375 20.140625 49.953125 
Q 14.984375 46.921875 10.890625 45.40625 
L 10.890625 53.90625 
Q 18.265625 57.375 23.78125 62.296875 
Q 29.296875 67.234375 31.59375 71.875 
L 37.25 71.875 
z
" id="ArialMT-49"/>
      </defs>
      <g style="fill:#871f78;" transform="translate(48.378125 165.578906)scale(0.1 -0.1)">
       <use xlink:href="#ArialMT-49"/>
       <use x="55.615234" xlink:href="#ArialMT-48"/>
      </g>
     </g>
    </g>
    <g id="ytick_3">
     <g id="line2d_15">
      <path clip-path="url(#p48d28419fa)" d="M 63 131.76 
L 453.6 131.76 
" style="fill:none;stroke:#cccccc;stroke-linecap:round;stroke-width:0.8;"/>
     </g>
     <g id="line2d_16"/>
     <g id="text_13">
      <!-- 20 -->
      <defs>
       <path d="M 50.34375 8.453125 
L 50.34375 0 
L 3.03125 0 
Q 2.9375 3.171875 4.046875 6.109375 
Q 5.859375 10.9375 9.828125 15.625 
Q 13.8125 20.3125 21.34375 26.46875 
Q 33.015625 36.03125 37.109375 41.625 
Q 41.21875 47.21875 41.21875 52.203125 
Q 41.21875 57.421875 37.46875 61 
Q 33.734375 64.59375 27.734375 64.59375 
Q 21.390625 64.59375 17.578125 60.78125 
Q 13.765625 56.984375 13.71875 50.25 
L 4.6875 51.171875 
Q 5.609375 61.28125 11.65625 66.578125 
Q 17.71875 71.875 27.9375 71.875 
Q 38.234375 71.875 44.234375 66.15625 
Q 50.25 60.453125 50.25 52 
Q 50.25 47.703125 48.484375 43.546875 
Q 46.734375 39.40625 42.65625 34.8125 
Q 38.578125 30.21875 29.109375 22.21875 
Q 21.1875 15.578125 18.9375 13.203125 
Q 16.703125 10.84375 15.234375 8.453125 
z
" id="ArialMT-50"/>
      </defs>
      <g style="fill:#871f78;" transform="translate(48.378125 135.338906)scale(0.1 -0.1)">
       <use xlink:href="#ArialMT-50"/>
       <use x="55.615234" xlink:href="#ArialMT-48"/>
      </g>
     </g>
    </g>
    <g id="ytick_4">
     <g id="line2d_17">
      <path clip-path="url(#p48d28419fa)" d="M 63 101.52 
L 453.6 101.52 
" style="fill:none;stroke:#cccccc;stroke-linecap:round;stroke-width:0.8;"/>
     </g>
     <g id="line2d_18"/>
     <g id="text_14">
      <!-- 30 -->
      <defs>
       <path d="M 4.203125 18.890625 
L 12.984375 20.0625 
Q 14.5 12.59375 18.140625 9.296875 
Q 21.78125 6 27 6 
Q 33.203125 6 37.46875 10.296875 
Q 41.75 14.59375 41.75 20.953125 
Q 41.75 27 37.796875 30.921875 
Q 33.84375 34.859375 27.734375 34.859375 
Q 25.25 34.859375 21.53125 33.890625 
L 22.515625 41.609375 
Q 23.390625 41.5 23.921875 41.5 
Q 29.546875 41.5 34.03125 44.421875 
Q 38.53125 47.359375 38.53125 53.46875 
Q 38.53125 58.296875 35.25 61.46875 
Q 31.984375 64.65625 26.8125 64.65625 
Q 21.6875 64.65625 18.265625 61.421875 
Q 14.84375 58.203125 13.875 51.765625 
L 5.078125 53.328125 
Q 6.6875 62.15625 12.390625 67.015625 
Q 18.109375 71.875 26.609375 71.875 
Q 32.46875 71.875 37.390625 69.359375 
Q 42.328125 66.84375 44.9375 62.5 
Q 47.5625 58.15625 47.5625 53.265625 
Q 47.5625 48.640625 45.0625 44.828125 
Q 42.578125 41.015625 37.703125 38.765625 
Q 44.046875 37.3125 47.5625 32.6875 
Q 51.078125 28.078125 51.078125 21.140625 
Q 51.078125 11.765625 44.234375 5.25 
Q 37.40625 -1.265625 26.953125 -1.265625 
Q 17.53125 -1.265625 11.296875 4.34375 
Q 5.078125 9.96875 4.203125 18.890625 
z
" id="ArialMT-51"/>
      </defs>
      <g style="fill:#871f78;" transform="translate(48.378125 105.098906)scale(0.1 -0.1)">
       <use xlink:href="#ArialMT-51"/>
       <use x="55.615234" xlink:href="#ArialMT-48"/>
      </g>
     </g>
    </g>
    <g id="ytick_5">
     <g id="line2d_19">
      <path clip-path="url(#p48d28419fa)" d="M 63 71.28 
L 453.6 71.28 
" style="fill:none;stroke:#cccccc;stroke-linecap:round;stroke-width:0.8;"/>
     </g>
     <g id="line2d_20"/>
     <g id="text_15">
      <!-- 40 -->
      <defs>
       <path d="M 32.328125 0 
L 32.328125 17.140625 
L 1.265625 17.140625 
L 1.265625 25.203125 
L 33.9375 71.578125 
L 41.109375 71.578125 
L 41.109375 25.203125 
L 50.78125 25.203125 
L 50.78125 17.140625 
L 41.109375 17.140625 
L 41.109375 0 
z
M 32.328125 25.203125 
L 32.328125 57.46875 
L 9.90625 25.203125 
z
" id="ArialMT-52"/>
      </defs>
      <g style="fill:#871f78;" transform="translate(48.378125 74.858906)scale(0.1 -0.1)">
       <use xlink:href="#ArialMT-52"/>
       <use x="55.615234" xlink:href="#ArialMT-48"/>
      </g>
     </g>
    </g>
    <g id="ytick_6">
     <g id="line2d_21">
      <path clip-path="url(#p48d28419fa)" d="M 63 41.04 
L 453.6 41.04 
" style="fill:none;stroke:#cccccc;stroke-linecap:round;stroke-width:0.8;"/>
     </g>
     <g id="line2d_22"/>
     <g id="text_16">
      <!-- 50 -->
      <defs>
       <path d="M 4.15625 18.75 
L 13.375 19.53125 
Q 14.40625 12.796875 18.140625 9.390625 
Q 21.875 6 27.15625 6 
Q 33.5 6 37.890625 10.78125 
Q 42.28125 15.578125 42.28125 23.484375 
Q 42.28125 31 38.0625 35.34375 
Q 33.84375 39.703125 27 39.703125 
Q 22.75 39.703125 19.328125 37.765625 
Q 15.921875 35.84375 13.96875 32.765625 
L 5.71875 33.84375 
L 12.640625 70.609375 
L 48.25 70.609375 
L 48.25 62.203125 
L 19.671875 62.203125 
L 15.828125 42.96875 
Q 22.265625 47.46875 29.34375 47.46875 
Q 38.71875 47.46875 45.15625 40.96875 
Q 51.609375 34.46875 51.609375 24.265625 
Q 51.609375 14.546875 45.953125 7.46875 
Q 39.0625 -1.21875 27.15625 -1.21875 
Q 17.390625 -1.21875 11.203125 4.25 
Q 5.03125 9.71875 4.15625 18.75 
z
" id="ArialMT-53"/>
      </defs>
      <g style="fill:#871f78;" transform="translate(48.378125 44.618906)scale(0.1 -0.1)">
       <use xlink:href="#ArialMT-53"/>
       <use x="55.615234" xlink:href="#ArialMT-48"/>
      </g>
     </g>
    </g>
   </g>
   <g id="patch_3">
    <path clip-path="url(#p48d28419fa)" d="M 80.754545 192.24 
L 81.843781 192.24 
L 81.843781 188.875739 
L 80.754545 188.875739 
z
" style="fill:#871f78;opacity:0.35;"/>
   </g>
   <g id="patch_4">
    <path clip-path="url(#p48d28419fa)" d="M 82.11609 192.24 
L 83.205326 192.24 
L 83.205326 192.24 
L 82.11609 192.24 
z
" style="fill:#871f78;opacity:0.35;"/>
   </g>
   <g id="patch_5">
    <path clip-path="url(#p48d28419fa)" d="M 83.477635 192.24 
L 84.566871 192.24 
L 84.566871 192.24 
L 83.477635 192.24 
z
" style="fill:#871f78;opacity:0.35;"/>
   </g>
   <g id="patch_6">
    <path clip-path="url(#p48d28419fa)" d="M 84.83918 192.24 
L 85.928416 192.24 
L 85.928416 192.24 
L 84.83918 192.24 
z
" style="fill:#871f78;opacity:0.35;"/>
   </g>
   <g id="patch_7">
    <path clip-path="url(#p48d28419fa)" d="M 86.200725 192.24 
L 87.289961 192.24 
L 87.289961 188.875739 
L 86.200725 188.875739 
z
" style="fill:#871f78;opacity:0.35;"/>
   </g>
   <g id="patch_8">
    <path clip-path="url(#p48d28419fa)" d="M 87.56227 192.24 
L 88.651506 192.24 
L 88.651506 192.24 
L 87.56227 192.24 
z
" style="fill:#871f78;opacity:0.35;"/>
   </g>
   <g id="patch_9">
    <path clip-path="url(#p48d28419fa)" d="M 88.923815 192.24 
L 90.013051 192.24 
L 90.013051 192.24 
L 88.923815 192.24 
z
" style="fill:#871f78;opacity:0.35;"/>
   </g>
   <g id="patch_10">
    <path clip-path="url(#p48d28419fa)" d="M 90.28536 192.24 
L 91.374596 192.24 
L 91.374596 192.24 
L 90.28536 192.24 
z
" style="fill:#871f78;opacity:0.35;"/>
   </g>
   <g id="patch_11">
    <path clip-path="url(#p48d28419fa)" d="M 91.646905 192.24 
L 92.736141 192.24 
L 92.736141 192.24 
L 91.646905 192.24 
z
" style="fill:#871f78;opacity:0.35;"/>
   </g>
   <g id="patch_12">
    <path clip-path="url(#p48d28419fa)" d="M 93.00845 192.24 
L 94.097685 192.24 
L 94.097685 192.24 
L 93.00845 192.24 
z
" style="fill:#871f78;opacity:0.35;"/>
   </g>
   <g id="patch_13">
    <path clip-path="url(#p48d28419fa)" d="M 94.369994 192.24 
L 95.45923 192.24 
L 95.45923 192.24 
L 94.369994 192.24 
z
" style="fill:#871f78;opacity:0.35;"/>
   </g>
   <g id="patch_14">
    <path clip-path="url(#p48d28419fa)" d="M 95.731539 192.24 
L 96.820775 192.24 
L 96.820775 192.24 
L 95.731539 192.24 
z
" style="fill:#871f78;opacity:0.35;"/>
   </g>
   <g id="patch_15">
    <path clip-path="url(#p48d28419fa)" d="M 97.093084 192.24 
L 98.18232 192.24 
L 98.18232 192.24 
L 97.093084 192.24 
z
" style="fill:#871f78;opacity:0.35;"/>
   </g>
   <g id="patch_16">
    <path clip-path="url(#p48d28419fa)" d="M 98.454629 192.24 
L 99.543865 192.24 
L 99.543865 185.511477 
L 98.454629 185.511477 
z
" style="fill:#871f78;opacity:0.35;"/>
   </g>
   <g id="patch_17">
    <path clip-path="url(#p48d28419fa)" d="M 99.816174 192.24 
L 100.90541 192.24 
L 100.90541 185.511477 
L 99.816174 185.511477 
z
" style="fill:#871f78;opacity:0.35;"/>
   </g>
   <g id="patch_18">
    <path clip-path="url(#p48d28419fa)" d="M 101.177719 192.24 
L 102.266955 192.24 
L 102.266955 192.24 
L 101.177719 192.24 
z
" style="fill:#871f78;opacity:0.35;"/>
   </g>
   <g id="patch_19">
    <path clip-path="url(#p48d28419fa)" d="M 102.539264 192.24 
L 103.6285 192.24 
L 103.6285 185.511477 
L 102.539264 185.511477 
z
" style="fill:#871f78;opacity:0.35;"/>
   </g>
   <g id="patch_20">
    <path clip-path="url(#p48d28419fa)" d="M 103.900809 192.24 
L 104.990045 192.24 
L 104.990045 178.782954 
L 103.900809 178.782954 
z
" style="fill:#871f78;opacity:0.35;"/>
   </g>
   <g id="patch_21">
    <path clip-path="url(#p48d28419fa)" d="M 105.262354 192.24 
L 106.35159 192.24 
L 106.35159 188.875739 
L 105.262354 188.875739 
z
" style="fill:#871f78;opacity:0.35;"/>
   </g>
   <g id="patch_22">
    <path clip-path="url(#p48d28419fa)" d="M 106.623898 192.24 
L 107.713134 192.24 
L 107.713134 188.875739 
L 106.623898 188.875739 
z
" style="fill:#871f78;opacity:0.35;"/>
   </g>
   <g id="patch_23">
    <path clip-path="url(#p48d28419fa)" d="M 107.985443 192.24 
L 109.074679 192.24 
L 109.074679 175.418693 
L 107.985443 175.418693 
z
" style="fill:#871f78;opacity:0.35;"/>
   </g>
   <g id="patch_24">
    <path clip-path="url(#p48d28419fa)" d="M 109.346988 192.24 
L 110.436224 192.24 
L 110.436224 188.875739 
L 109.346988 188.875739 
z
" style="fill:#871f78;opacity:0.35;"/>
   </g>
   <g id="patch_25">
    <path clip-path="url(#p48d28419fa)" d="M 110.708533 192.24 
L 111.797769 192.24 
L 111.797769 188.875739 
L 110.708533 188.875739 
z
" style="fill:#871f78;opacity:0.35;"/>
   </g>
   <g id="patch_26">
    <path clip-path="url(#p48d28419fa)" d="M 112.070078 192.24 
L 113.159314 192.24 
L 113.159314 188.875739 
L 112.070078 188.875739 
z
" style="fill:#871f78;opacity:0.35;"/>
   </g>
   <g id="patch_27">
    <path clip-path="url(#p48d28419fa)" d="M 113.431623 192.24 
L 114.520859 192.24 
L 114.520859 182.147216 
L 113.431623 182.147216 
z
" style="fill:#871f78;opacity:0.35;"/>
   </g>
   <g id="patch_28">
    <path clip-path="url(#p48d28419fa)" d="M 114.793168 192.24 
L 115.882404 192.24 
L 115.882404 185.511477 
L 114.793168 185.511477 
z
" style="fill:#871f78;opacity:0.35;"/>
   </g>
   <g id="patch_29">
    <path clip-path="url(#p48d28419fa)" d="M 116.154713 192.24 
L 117.243949 192.24 
L 117.243949 185.511477 
L 116.154713 185.511477 
z
" style="fill:#871f78;opacity:0.35;"/>
   </g>
   <g id="patch_30">
    <path clip-path="url(#p48d28419fa)" d="M 117.516258 192.24 
L 118.605494 192.24 
L 118.605494 175.418693 
L 117.516258 175.418693 
z
" style="fill:#871f78;opacity:0.35;"/>
   </g>
   <g id="patch_31">
    <path clip-path="url(#p48d28419fa)" d="M 118.877803 192.24 
L 119.967038 192.24 
L 119.967038 192.24 
L 118.877803 192.24 
z
" style="fill:#871f78;opacity:0.35;"/>
   </g>
   <g id="patch_32">
    <path clip-path="url(#p48d28419fa)" d="M 120.239347 192.24 
L 121.328583 192.24 
L 121.328583 188.875739 
L 120.239347 188.875739 
z
" style="fill:#871f78;opacity:0.35;"/>
   </g>
   <g id="patch_33">
    <path clip-path="url(#p48d28419fa)" d="M 121.600892 192.24 
L 122.690128 192.24 
L 122.690128 185.511477 
L 121.600892 185.511477 
z
" style="fill:#871f78;opacity:0.35;"/>
   </g>
   <g id="patch_34">
    <path clip-path="url(#p48d28419fa)" d="M 122.962437 192.24 
L 124.051673 192.24 
L 124.051673 192.24 
L 122.962437 192.24 
z
" style="fill:#871f78;opacity:0.35;"/>
   </g>
   <g id="patch_35">
    <path clip-path="url(#p48d28419fa)" d="M 124.323982 192.24 
L 125.413218 192.24 
L 125.413218 182.147216 
L 124.323982 182.147216 
z
" style="fill:#871f78;opacity:0.35;"/>
   </g>
   <g id="patch_36">
    <path clip-path="url(#p48d28419fa)" d="M 125.685527 192.24 
L 126.774763 192.24 
L 126.774763 192.24 
L 125.685527 192.24 
z
" style="fill:#871f78;opacity:0.35;"/>
   </g>
   <g id="patch_37">
    <path clip-path="url(#p48d28419fa)" d="M 127.047072 192.24 
L 128.136308 192.24 
L 128.136308 192.24 
L 127.047072 192.24 
z
" style="fill:#871f78;opacity:0.35;"/>
   </g>
   <g id="patch_38">
    <path clip-path="url(#p48d28419fa)" d="M 128.408617 192.24 
L 129.497853 192.24 
L 129.497853 192.24 
L 128.408617 192.24 
z
" style="fill:#871f78;opacity:0.35;"/>
   </g>
   <g id="patch_39">
    <path clip-path="url(#p48d28419fa)" d="M 129.770162 192.24 
L 130.859398 192.24 
L 130.859398 185.511477 
L 129.770162 185.511477 
z
" style="fill:#871f78;opacity:0.35;"/>
   </g>
   <g id="patch_40">
    <path clip-path="url(#p48d28419fa)" d="M 131.131707 192.24 
L 132.220943 192.24 
L 132.220943 192.24 
L 131.131707 192.24 
z
" style="fill:#871f78;opacity:0.35;"/>
   </g>
   <g id="patch_41">
    <path clip-path="url(#p48d28419fa)" d="M 132.493252 192.24 
L 133.582487 192.24 
L 133.582487 192.24 
L 132.493252 192.24 
z
" style="fill:#871f78;opacity:0.35;"/>
   </g>
   <g id="patch_42">
    <path clip-path="url(#p48d28419fa)" d="M 133.854796 192.24 
L 134.944032 192.24 
L 134.944032 192.24 
L 133.854796 192.24 
z
" style="fill:#871f78;opacity:0.35;"/>
   </g>
   <g id="patch_43">
    <path clip-path="url(#p48d28419fa)" d="M 135.216341 192.24 
L 136.305577 192.24 
L 136.305577 185.511477 
L 135.216341 185.511477 
z
" style="fill:#871f78;opacity:0.35;"/>
   </g>
   <g id="patch_44">
    <path clip-path="url(#p48d28419fa)" d="M 136.577886 192.24 
L 137.667122 192.24 
L 137.667122 192.24 
L 136.577886 192.24 
z
" style="fill:#871f78;opacity:0.35;"/>
   </g>
   <g id="patch_45">
    <path clip-path="url(#p48d28419fa)" d="M 137.939431 192.24 
L 139.028667 192.24 
L 139.028667 192.24 
L 137.939431 192.24 
z
" style="fill:#871f78;opacity:0.35;"/>
   </g>
   <g id="patch_46">
    <path clip-path="url(#p48d28419fa)" d="M 139.300976 192.24 
L 140.390212 192.24 
L 140.390212 195.604261 
L 139.300976 195.604261 
z
" style="fill:#871f78;opacity:0.35;"/>
   </g>
   <g id="patch_47">
    <path clip-path="url(#p48d28419fa)" d="M 140.662521 192.24 
L 141.751757 192.24 
L 141.751757 192.24 
L 140.662521 192.24 
z
" style="fill:#871f78;opacity:0.35;"/>
   </g>
   <g id="patch_48">
    <path clip-path="url(#p48d28419fa)" d="M 142.024066 192.24 
L 143.113302 192.24 
L 143.113302 192.24 
L 142.024066 192.24 
z
" style="fill:#871f78;opacity:0.35;"/>
   </g>
   <g id="patch_49">
    <path clip-path="url(#p48d28419fa)" d="M 143.385611 192.24 
L 144.474847 192.24 
L 144.474847 188.875739 
L 143.385611 188.875739 
z
" style="fill:#871f78;opacity:0.35;"/>
   </g>
   <g id="patch_50">
    <path clip-path="url(#p48d28419fa)" d="M 144.747156 192.24 
L 145.836392 192.24 
L 145.836392 192.24 
L 144.747156 192.24 
z
" style="fill:#871f78;opacity:0.35;"/>
   </g>
   <g id="patch_51">
    <path clip-path="url(#p48d28419fa)" d="M 146.108701 192.24 
L 147.197936 192.24 
L 147.197936 192.24 
L 146.108701 192.24 
z
" style="fill:#871f78;opacity:0.35;"/>
   </g>
   <g id="patch_52">
    <path clip-path="url(#p48d28419fa)" d="M 147.470245 192.24 
L 148.559481 192.24 
L 148.559481 192.24 
L 147.470245 192.24 
z
" style="fill:#871f78;opacity:0.35;"/>
   </g>
   <g id="patch_53">
    <path clip-path="url(#p48d28419fa)" d="M 148.83179 192.24 
L 149.921026 192.24 
L 149.921026 192.24 
L 148.83179 192.24 
z
" style="fill:#871f78;opacity:0.35;"/>
   </g>
   <g id="patch_54">
    <path clip-path="url(#p48d28419fa)" d="M 150.193335 192.24 
L 151.282571 192.24 
L 151.282571 188.875739 
L 150.193335 188.875739 
z
" style="fill:#871f78;opacity:0.35;"/>
   </g>
   <g id="patch_55">
    <path clip-path="url(#p48d28419fa)" d="M 151.55488 192.24 
L 152.644116 192.24 
L 152.644116 188.875739 
L 151.55488 188.875739 
z
" style="fill:#871f78;opacity:0.35;"/>
   </g>
   <g id="patch_56">
    <path clip-path="url(#p48d28419fa)" d="M 152.916425 192.24 
L 154.005661 192.24 
L 154.005661 192.24 
L 152.916425 192.24 
z
" style="fill:#871f78;opacity:0.35;"/>
   </g>
   <g id="patch_57">
    <path clip-path="url(#p48d28419fa)" d="M 154.27797 192.24 
L 155.367206 192.24 
L 155.367206 188.875739 
L 154.27797 188.875739 
z
" style="fill:#871f78;opacity:0.35;"/>
   </g>
   <g id="patch_58">
    <path clip-path="url(#p48d28419fa)" d="M 155.639515 192.24 
L 156.728751 192.24 
L 156.728751 192.24 
L 155.639515 192.24 
z
" style="fill:#871f78;opacity:0.35;"/>
   </g>
   <g id="patch_59">
    <path clip-path="url(#p48d28419fa)" d="M 157.00106 192.24 
L 158.090296 192.24 
L 158.090296 192.24 
L 157.00106 192.24 
z
" style="fill:#871f78;opacity:0.35;"/>
   </g>
   <g id="patch_60">
    <path clip-path="url(#p48d28419fa)" d="M 158.362605 192.24 
L 159.45184 192.24 
L 159.45184 192.24 
L 158.362605 192.24 
z
" style="fill:#871f78;opacity:0.35;"/>
   </g>
   <g id="patch_61">
    <path clip-path="url(#p48d28419fa)" d="M 159.724149 192.24 
L 160.813385 192.24 
L 160.813385 185.511477 
L 159.724149 185.511477 
z
" style="fill:#871f78;opacity:0.35;"/>
   </g>
   <g id="patch_62">
    <path clip-path="url(#p48d28419fa)" d="M 161.085694 192.24 
L 162.17493 192.24 
L 162.17493 188.875739 
L 161.085694 188.875739 
z
" style="fill:#871f78;opacity:0.35;"/>
   </g>
   <g id="patch_63">
    <path clip-path="url(#p48d28419fa)" d="M 162.447239 192.24 
L 163.536475 192.24 
L 163.536475 185.511477 
L 162.447239 185.511477 
z
" style="fill:#871f78;opacity:0.35;"/>
   </g>
   <g id="patch_64">
    <path clip-path="url(#p48d28419fa)" d="M 163.808784 192.24 
L 164.89802 192.24 
L 164.89802 192.24 
L 163.808784 192.24 
z
" style="fill:#871f78;opacity:0.35;"/>
   </g>
   <g id="patch_65">
    <path clip-path="url(#p48d28419fa)" d="M 165.170329 192.24 
L 166.259565 192.24 
L 166.259565 192.24 
L 165.170329 192.24 
z
" style="fill:#871f78;opacity:0.35;"/>
   </g>
   <g id="patch_66">
    <path clip-path="url(#p48d28419fa)" d="M 166.531874 192.24 
L 167.62111 192.24 
L 167.62111 188.875739 
L 166.531874 188.875739 
z
" style="fill:#871f78;opacity:0.35;"/>
   </g>
   <g id="patch_67">
    <path clip-path="url(#p48d28419fa)" d="M 167.893419 192.24 
L 168.982655 192.24 
L 168.982655 192.24 
L 167.893419 192.24 
z
" style="fill:#871f78;opacity:0.35;"/>
   </g>
   <g id="patch_68">
    <path clip-path="url(#p48d28419fa)" d="M 169.254964 192.24 
L 170.3442 192.24 
L 170.3442 188.875739 
L 169.254964 188.875739 
z
" style="fill:#871f78;opacity:0.35;"/>
   </g>
   <g id="patch_69">
    <path clip-path="url(#p48d28419fa)" d="M 170.616509 192.24 
L 171.705745 192.24 
L 171.705745 188.875739 
L 170.616509 188.875739 
z
" style="fill:#871f78;opacity:0.35;"/>
   </g>
   <g id="patch_70">
    <path clip-path="url(#p48d28419fa)" d="M 171.978054 192.24 
L 173.067289 192.24 
L 173.067289 195.604261 
L 171.978054 195.604261 
z
" style="fill:#871f78;opacity:0.35;"/>
   </g>
   <g id="patch_71">
    <path clip-path="url(#p48d28419fa)" d="M 173.339598 192.24 
L 174.428834 192.24 
L 174.428834 188.875739 
L 173.339598 188.875739 
z
" style="fill:#871f78;opacity:0.35;"/>
   </g>
   <g id="patch_72">
    <path clip-path="url(#p48d28419fa)" d="M 174.701143 192.24 
L 175.790379 192.24 
L 175.790379 185.511477 
L 174.701143 185.511477 
z
" style="fill:#871f78;opacity:0.35;"/>
   </g>
   <g id="patch_73">
    <path clip-path="url(#p48d28419fa)" d="M 176.062688 192.24 
L 177.151924 192.24 
L 177.151924 195.604261 
L 176.062688 195.604261 
z
" style="fill:#871f78;opacity:0.35;"/>
   </g>
   <g id="patch_74">
    <path clip-path="url(#p48d28419fa)" d="M 177.424233 192.24 
L 178.513469 192.24 
L 178.513469 188.875739 
L 177.424233 188.875739 
z
" style="fill:#871f78;opacity:0.35;"/>
   </g>
   <g id="patch_75">
    <path clip-path="url(#p48d28419fa)" d="M 178.785778 192.24 
L 179.875014 192.24 
L 179.875014 188.875739 
L 178.785778 188.875739 
z
" style="fill:#871f78;opacity:0.35;"/>
   </g>
   <g id="patch_76">
    <path clip-path="url(#p48d28419fa)" d="M 180.147323 192.24 
L 181.236559 192.24 
L 181.236559 185.511477 
L 180.147323 185.511477 
z
" style="fill:#871f78;opacity:0.35;"/>
   </g>
   <g id="patch_77">
    <path clip-path="url(#p48d28419fa)" d="M 181.508868 192.24 
L 182.598104 192.24 
L 182.598104 192.24 
L 181.508868 192.24 
z
" style="fill:#871f78;opacity:0.35;"/>
   </g>
   <g id="patch_78">
    <path clip-path="url(#p48d28419fa)" d="M 182.870413 192.24 
L 183.959649 192.24 
L 183.959649 192.24 
L 182.870413 192.24 
z
" style="fill:#871f78;opacity:0.35;"/>
   </g>
   <g id="patch_79">
    <path clip-path="url(#p48d28419fa)" d="M 184.231958 192.24 
L 185.321194 192.24 
L 185.321194 188.875739 
L 184.231958 188.875739 
z
" style="fill:#871f78;opacity:0.35;"/>
   </g>
   <g id="patch_80">
    <path clip-path="url(#p48d28419fa)" d="M 185.593503 192.24 
L 186.682738 192.24 
L 186.682738 188.875739 
L 185.593503 188.875739 
z
" style="fill:#871f78;opacity:0.35;"/>
   </g>
   <g id="patch_81">
    <path clip-path="url(#p48d28419fa)" d="M 186.955047 192.24 
L 188.044283 192.24 
L 188.044283 188.875739 
L 186.955047 188.875739 
z
" style="fill:#871f78;opacity:0.35;"/>
   </g>
   <g id="patch_82">
    <path clip-path="url(#p48d28419fa)" d="M 188.316592 192.24 
L 189.405828 192.24 
L 189.405828 185.511477 
L 188.316592 185.511477 
z
" style="fill:#871f78;opacity:0.35;"/>
   </g>
   <g id="patch_83">
    <path clip-path="url(#p48d28419fa)" d="M 189.678137 192.24 
L 190.767373 192.24 
L 190.767373 185.511477 
L 189.678137 185.511477 
z
" style="fill:#871f78;opacity:0.35;"/>
   </g>
   <g id="patch_84">
    <path clip-path="url(#p48d28419fa)" d="M 191.039682 192.24 
L 192.128918 192.24 
L 192.128918 188.875739 
L 191.039682 188.875739 
z
" style="fill:#871f78;opacity:0.35;"/>
   </g>
   <g id="patch_85">
    <path clip-path="url(#p48d28419fa)" d="M 192.401227 192.24 
L 193.490463 192.24 
L 193.490463 192.24 
L 192.401227 192.24 
z
" style="fill:#871f78;opacity:0.35;"/>
   </g>
   <g id="patch_86">
    <path clip-path="url(#p48d28419fa)" d="M 193.762772 192.24 
L 194.852008 192.24 
L 194.852008 192.24 
L 193.762772 192.24 
z
" style="fill:#871f78;opacity:0.35;"/>
   </g>
   <g id="patch_87">
    <path clip-path="url(#p48d28419fa)" d="M 195.124317 192.24 
L 196.213553 192.24 
L 196.213553 192.24 
L 195.124317 192.24 
z
" style="fill:#871f78;opacity:0.35;"/>
   </g>
   <g id="patch_88">
    <path clip-path="url(#p48d28419fa)" d="M 196.485862 192.24 
L 197.575098 192.24 
L 197.575098 182.147216 
L 196.485862 182.147216 
z
" style="fill:#871f78;opacity:0.35;"/>
   </g>
   <g id="patch_89">
    <path clip-path="url(#p48d28419fa)" d="M 197.847407 192.24 
L 198.936642 192.24 
L 198.936642 185.511477 
L 197.847407 185.511477 
z
" style="fill:#871f78;opacity:0.35;"/>
   </g>
   <g id="patch_90">
    <path clip-path="url(#p48d28419fa)" d="M 199.208951 192.24 
L 200.298187 192.24 
L 200.298187 192.24 
L 199.208951 192.24 
z
" style="fill:#871f78;opacity:0.35;"/>
   </g>
   <g id="patch_91">
    <path clip-path="url(#p48d28419fa)" d="M 200.570496 192.24 
L 201.659732 192.24 
L 201.659732 188.875739 
L 200.570496 188.875739 
z
" style="fill:#871f78;opacity:0.35;"/>
   </g>
   <g id="patch_92">
    <path clip-path="url(#p48d28419fa)" d="M 201.932041 192.24 
L 203.021277 192.24 
L 203.021277 188.875739 
L 201.932041 188.875739 
z
" style="fill:#871f78;opacity:0.35;"/>
   </g>
   <g id="patch_93">
    <path clip-path="url(#p48d28419fa)" d="M 203.293586 192.24 
L 204.382822 192.24 
L 204.382822 192.24 
L 203.293586 192.24 
z
" style="fill:#871f78;opacity:0.35;"/>
   </g>
   <g id="patch_94">
    <path clip-path="url(#p48d28419fa)" d="M 204.655131 192.24 
L 205.744367 192.24 
L 205.744367 192.24 
L 204.655131 192.24 
z
" style="fill:#871f78;opacity:0.35;"/>
   </g>
   <g id="patch_95">
    <path clip-path="url(#p48d28419fa)" d="M 206.016676 192.24 
L 207.105912 192.24 
L 207.105912 192.24 
L 206.016676 192.24 
z
" style="fill:#871f78;opacity:0.35;"/>
   </g>
   <g id="patch_96">
    <path clip-path="url(#p48d28419fa)" d="M 207.378221 192.24 
L 208.467457 192.24 
L 208.467457 192.24 
L 207.378221 192.24 
z
" style="fill:#871f78;opacity:0.35;"/>
   </g>
   <g id="patch_97">
    <path clip-path="url(#p48d28419fa)" d="M 208.739766 192.24 
L 209.829002 192.24 
L 209.829002 192.24 
L 208.739766 192.24 
z
" style="fill:#871f78;opacity:0.35;"/>
   </g>
   <g id="patch_98">
    <path clip-path="url(#p48d28419fa)" d="M 210.101311 192.24 
L 211.190547 192.24 
L 211.190547 188.875739 
L 210.101311 188.875739 
z
" style="fill:#871f78;opacity:0.35;"/>
   </g>
   <g id="patch_99">
    <path clip-path="url(#p48d28419fa)" d="M 211.462856 192.24 
L 212.552091 192.24 
L 212.552091 195.604261 
L 211.462856 195.604261 
z
" style="fill:#871f78;opacity:0.35;"/>
   </g>
   <g id="patch_100">
    <path clip-path="url(#p48d28419fa)" d="M 212.8244 192.24 
L 213.913636 192.24 
L 213.913636 192.24 
L 212.8244 192.24 
z
" style="fill:#871f78;opacity:0.35;"/>
   </g>
   <g id="patch_101">
    <path clip-path="url(#p48d28419fa)" d="M 214.185945 192.24 
L 215.275181 192.24 
L 215.275181 192.24 
L 214.185945 192.24 
z
" style="fill:#871f78;opacity:0.35;"/>
   </g>
   <g id="patch_102">
    <path clip-path="url(#p48d28419fa)" d="M 215.54749 192.24 
L 216.636726 192.24 
L 216.636726 192.24 
L 215.54749 192.24 
z
" style="fill:#871f78;opacity:0.35;"/>
   </g>
   <g id="patch_103">
    <path clip-path="url(#p48d28419fa)" d="M 216.909035 192.24 
L 217.998271 192.24 
L 217.998271 192.24 
L 216.909035 192.24 
z
" style="fill:#871f78;opacity:0.35;"/>
   </g>
   <g id="patch_104">
    <path clip-path="url(#p48d28419fa)" d="M 218.27058 192.24 
L 219.359816 192.24 
L 219.359816 192.24 
L 218.27058 192.24 
z
" style="fill:#871f78;opacity:0.35;"/>
   </g>
   <g id="patch_105">
    <path clip-path="url(#p48d28419fa)" d="M 219.632125 192.24 
L 220.721361 192.24 
L 220.721361 192.24 
L 219.632125 192.24 
z
" style="fill:#871f78;opacity:0.35;"/>
   </g>
   <g id="patch_106">
    <path clip-path="url(#p48d28419fa)" d="M 220.99367 192.24 
L 222.082906 192.24 
L 222.082906 192.24 
L 220.99367 192.24 
z
" style="fill:#871f78;opacity:0.35;"/>
   </g>
   <g id="patch_107">
    <path clip-path="url(#p48d28419fa)" d="M 222.355215 192.24 
L 223.444451 192.24 
L 223.444451 192.24 
L 222.355215 192.24 
z
" style="fill:#871f78;opacity:0.35;"/>
   </g>
   <g id="patch_108">
    <path clip-path="url(#p48d28419fa)" d="M 223.71676 192.24 
L 224.805996 192.24 
L 224.805996 195.604261 
L 223.71676 195.604261 
z
" style="fill:#871f78;opacity:0.35;"/>
   </g>
   <g id="patch_109">
    <path clip-path="url(#p48d28419fa)" d="M 225.078305 192.24 
L 226.16754 192.24 
L 226.16754 192.24 
L 225.078305 192.24 
z
" style="fill:#871f78;opacity:0.35;"/>
   </g>
   <g id="patch_110">
    <path clip-path="url(#p48d28419fa)" d="M 226.439849 192.24 
L 227.529085 192.24 
L 227.529085 188.875739 
L 226.439849 188.875739 
z
" style="fill:#871f78;opacity:0.35;"/>
   </g>
   <g id="patch_111">
    <path clip-path="url(#p48d28419fa)" d="M 227.801394 192.24 
L 228.89063 192.24 
L 228.89063 192.24 
L 227.801394 192.24 
z
" style="fill:#871f78;opacity:0.35;"/>
   </g>
   <g id="patch_112">
    <path clip-path="url(#p48d28419fa)" d="M 229.162939 192.24 
L 230.252175 192.24 
L 230.252175 192.24 
L 229.162939 192.24 
z
" style="fill:#871f78;opacity:0.35;"/>
   </g>
   <g id="patch_113">
    <path clip-path="url(#p48d28419fa)" d="M 230.524484 192.24 
L 231.61372 192.24 
L 231.61372 192.24 
L 230.524484 192.24 
z
" style="fill:#871f78;opacity:0.35;"/>
   </g>
   <g id="patch_114">
    <path clip-path="url(#p48d28419fa)" d="M 231.886029 192.24 
L 232.975265 192.24 
L 232.975265 192.24 
L 231.886029 192.24 
z
" style="fill:#871f78;opacity:0.35;"/>
   </g>
   <g id="patch_115">
    <path clip-path="url(#p48d28419fa)" d="M 233.247574 192.24 
L 234.33681 192.24 
L 234.33681 192.24 
L 233.247574 192.24 
z
" style="fill:#871f78;opacity:0.35;"/>
   </g>
   <g id="patch_116">
    <path clip-path="url(#p48d28419fa)" d="M 234.609119 192.24 
L 235.698355 192.24 
L 235.698355 188.875739 
L 234.609119 188.875739 
z
" style="fill:#871f78;opacity:0.35;"/>
   </g>
   <g id="patch_117">
    <path clip-path="url(#p48d28419fa)" d="M 235.970664 192.24 
L 237.0599 192.24 
L 237.0599 182.147216 
L 235.970664 182.147216 
z
" style="fill:#871f78;opacity:0.35;"/>
   </g>
   <g id="patch_118">
    <path clip-path="url(#p48d28419fa)" d="M 237.332209 192.24 
L 238.421445 192.24 
L 238.421445 182.147216 
L 237.332209 182.147216 
z
" style="fill:#871f78;opacity:0.35;"/>
   </g>
   <g id="patch_119">
    <path clip-path="url(#p48d28419fa)" d="M 238.693753 192.24 
L 239.782989 192.24 
L 239.782989 192.24 
L 238.693753 192.24 
z
" style="fill:#871f78;opacity:0.35;"/>
   </g>
   <g id="patch_120">
    <path clip-path="url(#p48d28419fa)" d="M 240.055298 192.24 
L 241.144534 192.24 
L 241.144534 188.875739 
L 240.055298 188.875739 
z
" style="fill:#871f78;opacity:0.35;"/>
   </g>
   <g id="patch_121">
    <path clip-path="url(#p48d28419fa)" d="M 241.416843 192.24 
L 242.506079 192.24 
L 242.506079 192.24 
L 241.416843 192.24 
z
" style="fill:#871f78;opacity:0.35;"/>
   </g>
   <g id="patch_122">
    <path clip-path="url(#p48d28419fa)" d="M 242.778388 192.24 
L 243.867624 192.24 
L 243.867624 188.875739 
L 242.778388 188.875739 
z
" style="fill:#871f78;opacity:0.35;"/>
   </g>
   <g id="patch_123">
    <path clip-path="url(#p48d28419fa)" d="M 244.139933 192.24 
L 245.229169 192.24 
L 245.229169 188.875739 
L 244.139933 188.875739 
z
" style="fill:#871f78;opacity:0.35;"/>
   </g>
   <g id="patch_124">
    <path clip-path="url(#p48d28419fa)" d="M 245.501478 192.24 
L 246.590714 192.24 
L 246.590714 192.24 
L 245.501478 192.24 
z
" style="fill:#871f78;opacity:0.35;"/>
   </g>
   <g id="patch_125">
    <path clip-path="url(#p48d28419fa)" d="M 246.863023 192.24 
L 247.952259 192.24 
L 247.952259 188.875739 
L 246.863023 188.875739 
z
" style="fill:#871f78;opacity:0.35;"/>
   </g>
   <g id="patch_126">
    <path clip-path="url(#p48d28419fa)" d="M 248.224568 192.24 
L 249.313804 192.24 
L 249.313804 192.24 
L 248.224568 192.24 
z
" style="fill:#871f78;opacity:0.35;"/>
   </g>
   <g id="patch_127">
    <path clip-path="url(#p48d28419fa)" d="M 249.586113 192.24 
L 250.675349 192.24 
L 250.675349 188.875739 
L 249.586113 188.875739 
z
" style="fill:#871f78;opacity:0.35;"/>
   </g>
   <g id="patch_128">
    <path clip-path="url(#p48d28419fa)" d="M 250.947658 192.24 
L 252.036893 192.24 
L 252.036893 192.24 
L 250.947658 192.24 
z
" style="fill:#871f78;opacity:0.35;"/>
   </g>
   <g id="patch_129">
    <path clip-path="url(#p48d28419fa)" d="M 252.309202 192.24 
L 253.398438 192.24 
L 253.398438 192.24 
L 252.309202 192.24 
z
" style="fill:#871f78;opacity:0.35;"/>
   </g>
   <g id="patch_130">
    <path clip-path="url(#p48d28419fa)" d="M 253.670747 192.24 
L 254.759983 192.24 
L 254.759983 185.511477 
L 253.670747 185.511477 
z
" style="fill:#871f78;opacity:0.35;"/>
   </g>
   <g id="patch_131">
    <path clip-path="url(#p48d28419fa)" d="M 255.032292 192.24 
L 256.121528 192.24 
L 256.121528 192.24 
L 255.032292 192.24 
z
" style="fill:#871f78;opacity:0.35;"/>
   </g>
   <g id="patch_132">
    <path clip-path="url(#p48d28419fa)" d="M 256.393837 192.24 
L 257.483073 192.24 
L 257.483073 192.24 
L 256.393837 192.24 
z
" style="fill:#871f78;opacity:0.35;"/>
   </g>
   <g id="patch_133">
    <path clip-path="url(#p48d28419fa)" d="M 257.755382 192.24 
L 258.844618 192.24 
L 258.844618 188.875739 
L 257.755382 188.875739 
z
" style="fill:#871f78;opacity:0.35;"/>
   </g>
   <g id="patch_134">
    <path clip-path="url(#p48d28419fa)" d="M 259.116927 192.24 
L 260.206163 192.24 
L 260.206163 192.24 
L 259.116927 192.24 
z
" style="fill:#871f78;opacity:0.35;"/>
   </g>
   <g id="patch_135">
    <path clip-path="url(#p48d28419fa)" d="M 260.478472 192.24 
L 261.567708 192.24 
L 261.567708 188.875739 
L 260.478472 188.875739 
z
" style="fill:#871f78;opacity:0.35;"/>
   </g>
   <g id="patch_136">
    <path clip-path="url(#p48d28419fa)" d="M 261.840017 192.24 
L 262.929253 192.24 
L 262.929253 185.511477 
L 261.840017 185.511477 
z
" style="fill:#871f78;opacity:0.35;"/>
   </g>
   <g id="patch_137">
    <path clip-path="url(#p48d28419fa)" d="M 263.201562 192.24 
L 264.290798 192.24 
L 264.290798 185.511477 
L 263.201562 185.511477 
z
" style="fill:#871f78;opacity:0.35;"/>
   </g>
   <g id="patch_138">
    <path clip-path="url(#p48d28419fa)" d="M 264.563107 192.24 
L 265.652342 192.24 
L 265.652342 188.875739 
L 264.563107 188.875739 
z
" style="fill:#871f78;opacity:0.35;"/>
   </g>
   <g id="patch_139">
    <path clip-path="url(#p48d28419fa)" d="M 265.924651 192.24 
L 267.013887 192.24 
L 267.013887 188.875739 
L 265.924651 188.875739 
z
" style="fill:#871f78;opacity:0.35;"/>
   </g>
   <g id="patch_140">
    <path clip-path="url(#p48d28419fa)" d="M 267.286196 192.24 
L 268.375432 192.24 
L 268.375432 192.24 
L 267.286196 192.24 
z
" style="fill:#871f78;opacity:0.35;"/>
   </g>
   <g id="patch_141">
    <path clip-path="url(#p48d28419fa)" d="M 268.647741 192.24 
L 269.736977 192.24 
L 269.736977 188.875739 
L 268.647741 188.875739 
z
" style="fill:#871f78;opacity:0.35;"/>
   </g>
   <g id="patch_142">
    <path clip-path="url(#p48d28419fa)" d="M 270.009286 192.24 
L 271.098522 192.24 
L 271.098522 192.24 
L 270.009286 192.24 
z
" style="fill:#871f78;opacity:0.35;"/>
   </g>
   <g id="patch_143">
    <path clip-path="url(#p48d28419fa)" d="M 271.370831 192.24 
L 272.460067 192.24 
L 272.460067 192.24 
L 271.370831 192.24 
z
" style="fill:#871f78;opacity:0.35;"/>
   </g>
   <g id="patch_144">
    <path clip-path="url(#p48d28419fa)" d="M 272.732376 192.24 
L 273.821612 192.24 
L 273.821612 192.24 
L 272.732376 192.24 
z
" style="fill:#871f78;opacity:0.35;"/>
   </g>
   <g id="patch_145">
    <path clip-path="url(#p48d28419fa)" d="M 274.093921 192.24 
L 275.183157 192.24 
L 275.183157 195.604261 
L 274.093921 195.604261 
z
" style="fill:#871f78;opacity:0.35;"/>
   </g>
   <g id="patch_146">
    <path clip-path="url(#p48d28419fa)" d="M 275.455466 192.24 
L 276.544702 192.24 
L 276.544702 192.24 
L 275.455466 192.24 
z
" style="fill:#871f78;opacity:0.35;"/>
   </g>
   <g id="patch_147">
    <path clip-path="url(#p48d28419fa)" d="M 276.817011 192.24 
L 277.906247 192.24 
L 277.906247 188.875739 
L 276.817011 188.875739 
z
" style="fill:#871f78;opacity:0.35;"/>
   </g>
   <g id="patch_148">
    <path clip-path="url(#p48d28419fa)" d="M 278.178555 192.24 
L 279.267791 192.24 
L 279.267791 185.511477 
L 278.178555 185.511477 
z
" style="fill:#871f78;opacity:0.35;"/>
   </g>
   <g id="patch_149">
    <path clip-path="url(#p48d28419fa)" d="M 279.5401 192.24 
L 280.629336 192.24 
L 280.629336 192.24 
L 279.5401 192.24 
z
" style="fill:#871f78;opacity:0.35;"/>
   </g>
   <g id="patch_150">
    <path clip-path="url(#p48d28419fa)" d="M 280.901645 192.24 
L 281.990881 192.24 
L 281.990881 185.511477 
L 280.901645 185.511477 
z
" style="fill:#871f78;opacity:0.35;"/>
   </g>
   <g id="patch_151">
    <path clip-path="url(#p48d28419fa)" d="M 282.26319 192.24 
L 283.352426 192.24 
L 283.352426 192.24 
L 282.26319 192.24 
z
" style="fill:#871f78;opacity:0.35;"/>
   </g>
   <g id="patch_152">
    <path clip-path="url(#p48d28419fa)" d="M 283.624735 192.24 
L 284.713971 192.24 
L 284.713971 192.24 
L 283.624735 192.24 
z
" style="fill:#871f78;opacity:0.35;"/>
   </g>
   <g id="patch_153">
    <path clip-path="url(#p48d28419fa)" d="M 284.98628 192.24 
L 286.075516 192.24 
L 286.075516 192.24 
L 284.98628 192.24 
z
" style="fill:#871f78;opacity:0.35;"/>
   </g>
   <g id="patch_154">
    <path clip-path="url(#p48d28419fa)" d="M 286.347825 192.24 
L 287.437061 192.24 
L 287.437061 192.24 
L 286.347825 192.24 
z
" style="fill:#871f78;opacity:0.35;"/>
   </g>
   <g id="patch_155">
    <path clip-path="url(#p48d28419fa)" d="M 287.70937 192.24 
L 288.798606 192.24 
L 288.798606 192.24 
L 287.70937 192.24 
z
" style="fill:#871f78;opacity:0.35;"/>
   </g>
   <g id="patch_156">
    <path clip-path="url(#p48d28419fa)" d="M 289.070915 192.24 
L 290.160151 192.24 
L 290.160151 192.24 
L 289.070915 192.24 
z
" style="fill:#871f78;opacity:0.35;"/>
   </g>
   <g id="patch_157">
    <path clip-path="url(#p48d28419fa)" d="M 290.43246 192.24 
L 291.521695 192.24 
L 291.521695 192.24 
L 290.43246 192.24 
z
" style="fill:#871f78;opacity:0.35;"/>
   </g>
   <g id="patch_158">
    <path clip-path="url(#p48d28419fa)" d="M 291.794004 192.24 
L 292.88324 192.24 
L 292.88324 192.24 
L 291.794004 192.24 
z
" style="fill:#871f78;opacity:0.35;"/>
   </g>
   <g id="patch_159">
    <path clip-path="url(#p48d28419fa)" d="M 293.155549 192.24 
L 294.244785 192.24 
L 294.244785 192.24 
L 293.155549 192.24 
z
" style="fill:#871f78;opacity:0.35;"/>
   </g>
   <g id="patch_160">
    <path clip-path="url(#p48d28419fa)" d="M 294.517094 192.24 
L 295.60633 192.24 
L 295.60633 192.24 
L 294.517094 192.24 
z
" style="fill:#871f78;opacity:0.35;"/>
   </g>
   <g id="patch_161">
    <path clip-path="url(#p48d28419fa)" d="M 295.878639 192.24 
L 296.967875 192.24 
L 296.967875 192.24 
L 295.878639 192.24 
z
" style="fill:#871f78;opacity:0.35;"/>
   </g>
   <g id="patch_162">
    <path clip-path="url(#p48d28419fa)" d="M 297.240184 192.24 
L 298.32942 192.24 
L 298.32942 192.24 
L 297.240184 192.24 
z
" style="fill:#871f78;opacity:0.35;"/>
   </g>
   <g id="patch_163">
    <path clip-path="url(#p48d28419fa)" d="M 298.601729 192.24 
L 299.690965 192.24 
L 299.690965 192.24 
L 298.601729 192.24 
z
" style="fill:#871f78;opacity:0.35;"/>
   </g>
   <g id="patch_164">
    <path clip-path="url(#p48d28419fa)" d="M 299.963274 192.24 
L 301.05251 192.24 
L 301.05251 188.875739 
L 299.963274 188.875739 
z
" style="fill:#871f78;opacity:0.35;"/>
   </g>
   <g id="patch_165">
    <path clip-path="url(#p48d28419fa)" d="M 301.324819 192.24 
L 302.414055 192.24 
L 302.414055 188.875739 
L 301.324819 188.875739 
z
" style="fill:#871f78;opacity:0.35;"/>
   </g>
   <g id="patch_166">
    <path clip-path="url(#p48d28419fa)" d="M 302.686364 192.24 
L 303.7756 192.24 
L 303.7756 192.24 
L 302.686364 192.24 
z
" style="fill:#871f78;opacity:0.35;"/>
   </g>
   <g id="patch_167">
    <path clip-path="url(#p48d28419fa)" d="M 304.047909 192.24 
L 305.137144 192.24 
L 305.137144 188.875739 
L 304.047909 188.875739 
z
" style="fill:#871f78;opacity:0.35;"/>
   </g>
   <g id="patch_168">
    <path clip-path="url(#p48d28419fa)" d="M 305.409453 192.24 
L 306.498689 192.24 
L 306.498689 188.875739 
L 305.409453 188.875739 
z
" style="fill:#871f78;opacity:0.35;"/>
   </g>
   <g id="patch_169">
    <path clip-path="url(#p48d28419fa)" d="M 306.770998 192.24 
L 307.860234 192.24 
L 307.860234 192.24 
L 306.770998 192.24 
z
" style="fill:#871f78;opacity:0.35;"/>
   </g>
   <g id="patch_170">
    <path clip-path="url(#p48d28419fa)" d="M 308.132543 192.24 
L 309.221779 192.24 
L 309.221779 192.24 
L 308.132543 192.24 
z
" style="fill:#871f78;opacity:0.35;"/>
   </g>
   <g id="patch_171">
    <path clip-path="url(#p48d28419fa)" d="M 309.494088 192.24 
L 310.583324 192.24 
L 310.583324 192.24 
L 309.494088 192.24 
z
" style="fill:#871f78;opacity:0.35;"/>
   </g>
   <g id="patch_172">
    <path clip-path="url(#p48d28419fa)" d="M 310.855633 192.24 
L 311.944869 192.24 
L 311.944869 192.24 
L 310.855633 192.24 
z
" style="fill:#871f78;opacity:0.35;"/>
   </g>
   <g id="patch_173">
    <path clip-path="url(#p48d28419fa)" d="M 312.217178 192.24 
L 313.306414 192.24 
L 313.306414 192.24 
L 312.217178 192.24 
z
" style="fill:#871f78;opacity:0.35;"/>
   </g>
   <g id="patch_174">
    <path clip-path="url(#p48d28419fa)" d="M 313.578723 192.24 
L 314.667959 192.24 
L 314.667959 192.24 
L 313.578723 192.24 
z
" style="fill:#871f78;opacity:0.35;"/>
   </g>
   <g id="patch_175">
    <path clip-path="url(#p48d28419fa)" d="M 314.940268 192.24 
L 316.029504 192.24 
L 316.029504 185.511477 
L 314.940268 185.511477 
z
" style="fill:#871f78;opacity:0.35;"/>
   </g>
   <g id="patch_176">
    <path clip-path="url(#p48d28419fa)" d="M 316.301813 192.24 
L 317.391049 192.24 
L 317.391049 192.24 
L 316.301813 192.24 
z
" style="fill:#871f78;opacity:0.35;"/>
   </g>
   <g id="patch_177">
    <path clip-path="url(#p48d28419fa)" d="M 317.663358 192.24 
L 318.752593 192.24 
L 318.752593 192.24 
L 317.663358 192.24 
z
" style="fill:#871f78;opacity:0.35;"/>
   </g>
   <g id="patch_178">
    <path clip-path="url(#p48d28419fa)" d="M 319.024902 192.24 
L 320.114138 192.24 
L 320.114138 192.24 
L 319.024902 192.24 
z
" style="fill:#871f78;opacity:0.35;"/>
   </g>
   <g id="patch_179">
    <path clip-path="url(#p48d28419fa)" d="M 320.386447 192.24 
L 321.475683 192.24 
L 321.475683 188.875739 
L 320.386447 188.875739 
z
" style="fill:#871f78;opacity:0.35;"/>
   </g>
   <g id="patch_180">
    <path clip-path="url(#p48d28419fa)" d="M 321.747992 192.24 
L 322.837228 192.24 
L 322.837228 185.511477 
L 321.747992 185.511477 
z
" style="fill:#871f78;opacity:0.35;"/>
   </g>
   <g id="patch_181">
    <path clip-path="url(#p48d28419fa)" d="M 323.109537 192.24 
L 324.198773 192.24 
L 324.198773 188.875739 
L 323.109537 188.875739 
z
" style="fill:#871f78;opacity:0.35;"/>
   </g>
   <g id="patch_182">
    <path clip-path="url(#p48d28419fa)" d="M 324.471082 192.24 
L 325.560318 192.24 
L 325.560318 192.24 
L 324.471082 192.24 
z
" style="fill:#871f78;opacity:0.35;"/>
   </g>
   <g id="patch_183">
    <path clip-path="url(#p48d28419fa)" d="M 325.832627 192.24 
L 326.921863 192.24 
L 326.921863 192.24 
L 325.832627 192.24 
z
" style="fill:#871f78;opacity:0.35;"/>
   </g>
   <g id="patch_184">
    <path clip-path="url(#p48d28419fa)" d="M 327.194172 192.24 
L 328.283408 192.24 
L 328.283408 188.875739 
L 327.194172 188.875739 
z
" style="fill:#871f78;opacity:0.35;"/>
   </g>
   <g id="patch_185">
    <path clip-path="url(#p48d28419fa)" d="M 328.555717 192.24 
L 329.644953 192.24 
L 329.644953 192.24 
L 328.555717 192.24 
z
" style="fill:#871f78;opacity:0.35;"/>
   </g>
   <g id="patch_186">
    <path clip-path="url(#p48d28419fa)" d="M 329.917262 192.24 
L 331.006497 192.24 
L 331.006497 192.24 
L 329.917262 192.24 
z
" style="fill:#871f78;opacity:0.35;"/>
   </g>
   <g id="patch_187">
    <path clip-path="url(#p48d28419fa)" d="M 331.278806 192.24 
L 332.368042 192.24 
L 332.368042 192.24 
L 331.278806 192.24 
z
" style="fill:#871f78;opacity:0.35;"/>
   </g>
   <g id="patch_188">
    <path clip-path="url(#p48d28419fa)" d="M 332.640351 192.24 
L 333.729587 192.24 
L 333.729587 188.875739 
L 332.640351 188.875739 
z
" style="fill:#871f78;opacity:0.35;"/>
   </g>
   <g id="patch_189">
    <path clip-path="url(#p48d28419fa)" d="M 334.001896 192.24 
L 335.091132 192.24 
L 335.091132 182.147216 
L 334.001896 182.147216 
z
" style="fill:#871f78;opacity:0.35;"/>
   </g>
   <g id="patch_190">
    <path clip-path="url(#p48d28419fa)" d="M 335.363441 192.24 
L 336.452677 192.24 
L 336.452677 192.24 
L 335.363441 192.24 
z
" style="fill:#871f78;opacity:0.35;"/>
   </g>
   <g id="patch_191">
    <path clip-path="url(#p48d28419fa)" d="M 336.724986 192.24 
L 337.814222 192.24 
L 337.814222 185.511477 
L 336.724986 185.511477 
z
" style="fill:#871f78;opacity:0.35;"/>
   </g>
   <g id="patch_192">
    <path clip-path="url(#p48d28419fa)" d="M 338.086531 192.24 
L 339.175767 192.24 
L 339.175767 185.511477 
L 338.086531 185.511477 
z
" style="fill:#871f78;opacity:0.35;"/>
   </g>
   <g id="patch_193">
    <path clip-path="url(#p48d28419fa)" d="M 339.448076 192.24 
L 340.537312 192.24 
L 340.537312 188.875739 
L 339.448076 188.875739 
z
" style="fill:#871f78;opacity:0.35;"/>
   </g>
   <g id="patch_194">
    <path clip-path="url(#p48d28419fa)" d="M 340.809621 192.24 
L 341.898857 192.24 
L 341.898857 185.511477 
L 340.809621 185.511477 
z
" style="fill:#871f78;opacity:0.35;"/>
   </g>
   <g id="patch_195">
    <path clip-path="url(#p48d28419fa)" d="M 342.171166 192.24 
L 343.260402 192.24 
L 343.260402 188.875739 
L 342.171166 188.875739 
z
" style="fill:#871f78;opacity:0.35;"/>
   </g>
   <g id="patch_196">
    <path clip-path="url(#p48d28419fa)" d="M 343.532711 192.24 
L 344.621946 192.24 
L 344.621946 192.24 
L 343.532711 192.24 
z
" style="fill:#871f78;opacity:0.35;"/>
   </g>
   <g id="patch_197">
    <path clip-path="url(#p48d28419fa)" d="M 344.894255 192.24 
L 345.983491 192.24 
L 345.983491 188.875739 
L 344.894255 188.875739 
z
" style="fill:#871f78;opacity:0.35;"/>
   </g>
   <g id="patch_198">
    <path clip-path="url(#p48d28419fa)" d="M 346.2558 192.24 
L 347.345036 192.24 
L 347.345036 188.875739 
L 346.2558 188.875739 
z
" style="fill:#871f78;opacity:0.35;"/>
   </g>
   <g id="patch_199">
    <path clip-path="url(#p48d28419fa)" d="M 347.617345 192.24 
L 348.706581 192.24 
L 348.706581 188.875739 
L 347.617345 188.875739 
z
" style="fill:#871f78;opacity:0.35;"/>
   </g>
   <g id="patch_200">
    <path clip-path="url(#p48d28419fa)" d="M 348.97889 192.24 
L 350.068126 192.24 
L 350.068126 188.875739 
L 348.97889 188.875739 
z
" style="fill:#871f78;opacity:0.35;"/>
   </g>
   <g id="patch_201">
    <path clip-path="url(#p48d28419fa)" d="M 350.340435 192.24 
L 351.429671 192.24 
L 351.429671 192.24 
L 350.340435 192.24 
z
" style="fill:#871f78;opacity:0.35;"/>
   </g>
   <g id="patch_202">
    <path clip-path="url(#p48d28419fa)" d="M 351.70198 192.24 
L 352.791216 192.24 
L 352.791216 188.875739 
L 351.70198 188.875739 
z
" style="fill:#871f78;opacity:0.35;"/>
   </g>
   <g id="patch_203">
    <path clip-path="url(#p48d28419fa)" d="M 353.063525 192.24 
L 354.152761 192.24 
L 354.152761 188.875739 
L 353.063525 188.875739 
z
" style="fill:#871f78;opacity:0.35;"/>
   </g>
   <g id="patch_204">
    <path clip-path="url(#p48d28419fa)" d="M 354.42507 192.24 
L 355.514306 192.24 
L 355.514306 185.511477 
L 354.42507 185.511477 
z
" style="fill:#871f78;opacity:0.35;"/>
   </g>
   <g id="patch_205">
    <path clip-path="url(#p48d28419fa)" d="M 355.786615 192.24 
L 356.875851 192.24 
L 356.875851 192.24 
L 355.786615 192.24 
z
" style="fill:#871f78;opacity:0.35;"/>
   </g>
   <g id="patch_206">
    <path clip-path="url(#p48d28419fa)" d="M 357.14816 192.24 
L 358.237395 192.24 
L 358.237395 182.147216 
L 357.14816 182.147216 
z
" style="fill:#871f78;opacity:0.35;"/>
   </g>
   <g id="patch_207">
    <path clip-path="url(#p48d28419fa)" d="M 358.509704 192.24 
L 359.59894 192.24 
L 359.59894 192.24 
L 358.509704 192.24 
z
" style="fill:#871f78;opacity:0.35;"/>
   </g>
   <g id="patch_208">
    <path clip-path="url(#p48d28419fa)" d="M 359.871249 192.24 
L 360.960485 192.24 
L 360.960485 188.875739 
L 359.871249 188.875739 
z
" style="fill:#871f78;opacity:0.35;"/>
   </g>
   <g id="patch_209">
    <path clip-path="url(#p48d28419fa)" d="M 361.232794 192.24 
L 362.32203 192.24 
L 362.32203 192.24 
L 361.232794 192.24 
z
" style="fill:#871f78;opacity:0.35;"/>
   </g>
   <g id="patch_210">
    <path clip-path="url(#p48d28419fa)" d="M 362.594339 192.24 
L 363.683575 192.24 
L 363.683575 192.24 
L 362.594339 192.24 
z
" style="fill:#871f78;opacity:0.35;"/>
   </g>
   <g id="patch_211">
    <path clip-path="url(#p48d28419fa)" d="M 363.955884 192.24 
L 365.04512 192.24 
L 365.04512 182.147216 
L 363.955884 182.147216 
z
" style="fill:#871f78;opacity:0.35;"/>
   </g>
   <g id="patch_212">
    <path clip-path="url(#p48d28419fa)" d="M 365.317429 192.24 
L 366.406665 192.24 
L 366.406665 188.875739 
L 365.317429 188.875739 
z
" style="fill:#871f78;opacity:0.35;"/>
   </g>
   <g id="patch_213">
    <path clip-path="url(#p48d28419fa)" d="M 366.678974 192.24 
L 367.76821 192.24 
L 367.76821 192.24 
L 366.678974 192.24 
z
" style="fill:#871f78;opacity:0.35;"/>
   </g>
   <g id="patch_214">
    <path clip-path="url(#p48d28419fa)" d="M 368.040519 192.24 
L 369.129755 192.24 
L 369.129755 185.511477 
L 368.040519 185.511477 
z
" style="fill:#871f78;opacity:0.35;"/>
   </g>
   <g id="patch_215">
    <path clip-path="url(#p48d28419fa)" d="M 369.402064 192.24 
L 370.491299 192.24 
L 370.491299 188.875739 
L 369.402064 188.875739 
z
" style="fill:#871f78;opacity:0.35;"/>
   </g>
   <g id="patch_216">
    <path clip-path="url(#p48d28419fa)" d="M 370.763608 192.24 
L 371.852844 192.24 
L 371.852844 168.69017 
L 370.763608 168.69017 
z
" style="fill:#871f78;opacity:0.35;"/>
   </g>
   <g id="patch_217">
    <path clip-path="url(#p48d28419fa)" d="M 372.125153 192.24 
L 373.214389 192.24 
L 373.214389 185.511477 
L 372.125153 185.511477 
z
" style="fill:#871f78;opacity:0.35;"/>
   </g>
   <g id="patch_218">
    <path clip-path="url(#p48d28419fa)" d="M 373.486698 192.24 
L 374.575934 192.24 
L 374.575934 188.875739 
L 373.486698 188.875739 
z
" style="fill:#871f78;opacity:0.35;"/>
   </g>
   <g id="patch_219">
    <path clip-path="url(#p48d28419fa)" d="M 374.848243 192.24 
L 375.937479 192.24 
L 375.937479 192.24 
L 374.848243 192.24 
z
" style="fill:#871f78;opacity:0.35;"/>
   </g>
   <g id="patch_220">
    <path clip-path="url(#p48d28419fa)" d="M 376.209788 192.24 
L 377.299024 192.24 
L 377.299024 188.875739 
L 376.209788 188.875739 
z
" style="fill:#871f78;opacity:0.35;"/>
   </g>
   <g id="patch_221">
    <path clip-path="url(#p48d28419fa)" d="M 377.571333 192.24 
L 378.660569 192.24 
L 378.660569 192.24 
L 377.571333 192.24 
z
" style="fill:#871f78;opacity:0.35;"/>
   </g>
   <g id="patch_222">
    <path clip-path="url(#p48d28419fa)" d="M 378.932878 192.24 
L 380.022114 192.24 
L 380.022114 188.875739 
L 378.932878 188.875739 
z
" style="fill:#871f78;opacity:0.35;"/>
   </g>
   <g id="patch_223">
    <path clip-path="url(#p48d28419fa)" d="M 380.294423 192.24 
L 381.383659 192.24 
L 381.383659 185.511477 
L 380.294423 185.511477 
z
" style="fill:#871f78;opacity:0.35;"/>
   </g>
   <g id="patch_224">
    <path clip-path="url(#p48d28419fa)" d="M 381.655968 192.24 
L 382.745204 192.24 
L 382.745204 175.418693 
L 381.655968 175.418693 
z
" style="fill:#871f78;opacity:0.35;"/>
   </g>
   <g id="patch_225">
    <path clip-path="url(#p48d28419fa)" d="M 383.017513 192.24 
L 384.106748 192.24 
L 384.106748 188.875739 
L 383.017513 188.875739 
z
" style="fill:#871f78;opacity:0.35;"/>
   </g>
   <g id="patch_226">
    <path clip-path="url(#p48d28419fa)" d="M 384.379057 192.24 
L 385.468293 192.24 
L 385.468293 178.782954 
L 384.379057 178.782954 
z
" style="fill:#871f78;opacity:0.35;"/>
   </g>
   <g id="patch_227">
    <path clip-path="url(#p48d28419fa)" d="M 385.740602 192.24 
L 386.829838 192.24 
L 386.829838 188.875739 
L 385.740602 188.875739 
z
" style="fill:#871f78;opacity:0.35;"/>
   </g>
   <g id="patch_228">
    <path clip-path="url(#p48d28419fa)" d="M 387.102147 192.24 
L 388.191383 192.24 
L 388.191383 185.511477 
L 387.102147 185.511477 
z
" style="fill:#871f78;opacity:0.35;"/>
   </g>
   <g id="patch_229">
    <path clip-path="url(#p48d28419fa)" d="M 388.463692 192.24 
L 389.552928 192.24 
L 389.552928 185.511477 
L 388.463692 185.511477 
z
" style="fill:#871f78;opacity:0.35;"/>
   </g>
   <g id="patch_230">
    <path clip-path="url(#p48d28419fa)" d="M 389.825237 192.24 
L 390.914473 192.24 
L 390.914473 185.511477 
L 389.825237 185.511477 
z
" style="fill:#871f78;opacity:0.35;"/>
   </g>
   <g id="patch_231">
    <path clip-path="url(#p48d28419fa)" d="M 391.186782 192.24 
L 392.276018 192.24 
L 392.276018 178.782954 
L 391.186782 178.782954 
z
" style="fill:#871f78;opacity:0.35;"/>
   </g>
   <g id="patch_232">
    <path clip-path="url(#p48d28419fa)" d="M 392.548327 192.24 
L 393.637563 192.24 
L 393.637563 188.875739 
L 392.548327 188.875739 
z
" style="fill:#871f78;opacity:0.35;"/>
   </g>
   <g id="patch_233">
    <path clip-path="url(#p48d28419fa)" d="M 393.909872 192.24 
L 394.999108 192.24 
L 394.999108 185.511477 
L 393.909872 185.511477 
z
" style="fill:#871f78;opacity:0.35;"/>
   </g>
   <g id="patch_234">
    <path clip-path="url(#p48d28419fa)" d="M 395.271417 192.24 
L 396.360653 192.24 
L 396.360653 185.511477 
L 395.271417 185.511477 
z
" style="fill:#871f78;opacity:0.35;"/>
   </g>
   <g id="patch_235">
    <path clip-path="url(#p48d28419fa)" d="M 396.632962 192.24 
L 397.722197 192.24 
L 397.722197 185.511477 
L 396.632962 185.511477 
z
" style="fill:#871f78;opacity:0.35;"/>
   </g>
   <g id="patch_236">
    <path clip-path="url(#p48d28419fa)" d="M 397.994506 192.24 
L 399.083742 192.24 
L 399.083742 185.511477 
L 397.994506 185.511477 
z
" style="fill:#871f78;opacity:0.35;"/>
   </g>
   <g id="patch_237">
    <path clip-path="url(#p48d28419fa)" d="M 399.356051 192.24 
L 400.445287 192.24 
L 400.445287 185.511477 
L 399.356051 185.511477 
z
" style="fill:#871f78;opacity:0.35;"/>
   </g>
   <g id="patch_238">
    <path clip-path="url(#p48d28419fa)" d="M 400.717596 192.24 
L 401.806832 192.24 
L 401.806832 182.147216 
L 400.717596 182.147216 
z
" style="fill:#871f78;opacity:0.35;"/>
   </g>
   <g id="patch_239">
    <path clip-path="url(#p48d28419fa)" d="M 402.079141 192.24 
L 403.168377 192.24 
L 403.168377 185.511477 
L 402.079141 185.511477 
z
" style="fill:#871f78;opacity:0.35;"/>
   </g>
   <g id="patch_240">
    <path clip-path="url(#p48d28419fa)" d="M 403.440686 192.24 
L 404.529922 192.24 
L 404.529922 182.147216 
L 403.440686 182.147216 
z
" style="fill:#871f78;opacity:0.35;"/>
   </g>
   <g id="patch_241">
    <path clip-path="url(#p48d28419fa)" d="M 404.802231 192.24 
L 405.891467 192.24 
L 405.891467 165.325909 
L 404.802231 165.325909 
z
" style="fill:#871f78;opacity:0.35;"/>
   </g>
   <g id="patch_242">
    <path clip-path="url(#p48d28419fa)" d="M 406.163776 192.24 
L 407.253012 192.24 
L 407.253012 175.418693 
L 406.163776 175.418693 
z
" style="fill:#871f78;opacity:0.35;"/>
   </g>
   <g id="patch_243">
    <path clip-path="url(#p48d28419fa)" d="M 407.525321 192.24 
L 408.614557 192.24 
L 408.614557 131.683295 
L 407.525321 131.683295 
z
" style="fill:#871f78;opacity:0.35;"/>
   </g>
   <g id="patch_244">
    <path clip-path="url(#p48d28419fa)" d="M 408.886866 192.24 
L 409.976102 192.24 
L 409.976102 172.054432 
L 408.886866 172.054432 
z
" style="fill:#871f78;opacity:0.35;"/>
   </g>
   <g id="patch_245">
    <path clip-path="url(#p48d28419fa)" d="M 410.24841 192.24 
L 411.337646 192.24 
L 411.337646 161.961647 
L 410.24841 161.961647 
z
" style="fill:#871f78;opacity:0.35;"/>
   </g>
   <g id="patch_246">
    <path clip-path="url(#p48d28419fa)" d="M 411.609955 192.24 
L 412.699191 192.24 
L 412.699191 158.597386 
L 411.609955 158.597386 
z
" style="fill:#871f78;opacity:0.35;"/>
   </g>
   <g id="patch_247">
    <path clip-path="url(#p48d28419fa)" d="M 412.9715 192.24 
L 414.060736 192.24 
L 414.060736 161.961647 
L 412.9715 161.961647 
z
" style="fill:#871f78;opacity:0.35;"/>
   </g>
   <g id="patch_248">
    <path clip-path="url(#p48d28419fa)" d="M 414.333045 192.24 
L 415.422281 192.24 
L 415.422281 175.418693 
L 414.333045 175.418693 
z
" style="fill:#871f78;opacity:0.35;"/>
   </g>
   <g id="patch_249">
    <path clip-path="url(#p48d28419fa)" d="M 415.69459 192.24 
L 416.783826 192.24 
L 416.783826 165.325909 
L 415.69459 165.325909 
z
" style="fill:#871f78;opacity:0.35;"/>
   </g>
   <g id="patch_250">
    <path clip-path="url(#p48d28419fa)" d="M 417.056135 192.24 
L 418.145371 192.24 
L 418.145371 175.418693 
L 417.056135 175.418693 
z
" style="fill:#871f78;opacity:0.35;"/>
   </g>
   <g id="patch_251">
    <path clip-path="url(#p48d28419fa)" d="M 418.41768 192.24 
L 419.506916 192.24 
L 419.506916 151.868863 
L 418.41768 151.868863 
z
" style="fill:#871f78;opacity:0.35;"/>
   </g>
   <g id="patch_252">
    <path clip-path="url(#p48d28419fa)" d="M 419.779225 192.24 
L 420.868461 192.24 
L 420.868461 165.325909 
L 419.779225 165.325909 
z
" style="fill:#871f78;opacity:0.35;"/>
   </g>
   <g id="patch_253">
    <path clip-path="url(#p48d28419fa)" d="M 421.14077 192.24 
L 422.230006 192.24 
L 422.230006 145.14034 
L 421.14077 145.14034 
z
" style="fill:#871f78;opacity:0.35;"/>
   </g>
   <g id="patch_254">
    <path clip-path="url(#p48d28419fa)" d="M 422.502315 192.24 
L 423.59155 192.24 
L 423.59155 165.325909 
L 422.502315 165.325909 
z
" style="fill:#871f78;opacity:0.35;"/>
   </g>
   <g id="patch_255">
    <path clip-path="url(#p48d28419fa)" d="M 423.863859 192.24 
L 424.953095 192.24 
L 424.953095 161.961647 
L 423.863859 161.961647 
z
" style="fill:#871f78;opacity:0.35;"/>
   </g>
   <g id="patch_256">
    <path clip-path="url(#p48d28419fa)" d="M 425.225404 192.24 
L 426.31464 192.24 
L 426.31464 161.961647 
L 425.225404 161.961647 
z
" style="fill:#871f78;opacity:0.35;"/>
   </g>
   <g id="patch_257">
    <path clip-path="url(#p48d28419fa)" d="M 426.586949 192.24 
L 427.676185 192.24 
L 427.676185 161.961647 
L 426.586949 161.961647 
z
" style="fill:#871f78;opacity:0.35;"/>
   </g>
   <g id="patch_258">
    <path clip-path="url(#p48d28419fa)" d="M 427.948494 192.24 
L 429.03773 192.24 
L 429.03773 128.319033 
L 427.948494 128.319033 
z
" style="fill:#871f78;opacity:0.35;"/>
   </g>
   <g id="patch_259">
    <path clip-path="url(#p48d28419fa)" d="M 429.310039 192.24 
L 430.399275 192.24 
L 430.399275 141.776079 
L 429.310039 141.776079 
z
" style="fill:#871f78;opacity:0.35;"/>
   </g>
   <g id="patch_260">
    <path clip-path="url(#p48d28419fa)" d="M 430.671584 192.24 
L 431.76082 192.24 
L 431.76082 145.14034 
L 430.671584 145.14034 
z
" style="fill:#871f78;opacity:0.35;"/>
   </g>
   <g id="patch_261">
    <path clip-path="url(#p48d28419fa)" d="M 432.033129 192.24 
L 433.122365 192.24 
L 433.122365 165.325909 
L 432.033129 165.325909 
z
" style="fill:#871f78;opacity:0.35;"/>
   </g>
   <g id="patch_262">
    <path clip-path="url(#p48d28419fa)" d="M 433.394674 192.24 
L 434.48391 192.24 
L 434.48391 151.868863 
L 433.394674 151.868863 
z
" style="fill:#871f78;opacity:0.35;"/>
   </g>
   <g id="patch_263">
    <path clip-path="url(#p48d28419fa)" d="M 434.756219 192.24 
L 435.845455 192.24 
L 435.845455 155.233125 
L 434.756219 155.233125 
z
" style="fill:#871f78;opacity:0.35;"/>
   </g>
   <g id="line2d_23">
    <path clip-path="url(#p48d28419fa)" d="M 89.468433 191.278782 
L 90.829978 191.759391 
L 94.914612 191.759391 
L 96.276157 192.24 
L 97.637702 192.24 
L 100.360792 190.317565 
L 101.722337 190.317565 
L 103.083882 189.356347 
L 104.445427 187.433912 
L 107.168516 186.472695 
L 108.530061 185.030868 
L 109.891606 185.511477 
L 111.253151 185.030868 
L 113.976241 185.992086 
L 116.699331 185.030868 
L 118.060876 185.030868 
L 119.422421 185.511477 
L 120.783965 185.511477 
L 122.14551 185.030868 
L 123.507055 186.472695 
L 124.8686 185.992086 
L 126.230145 186.953304 
L 127.59169 189.356347 
L 128.953235 189.356347 
L 130.31478 188.875739 
L 131.676325 189.836956 
L 133.037869 189.836956 
L 134.399414 191.278782 
L 135.760959 190.317565 
L 138.484049 190.317565 
L 139.845594 191.759391 
L 142.568684 191.759391 
L 143.930229 191.278782 
L 145.291774 192.24 
L 148.014863 192.24 
L 152.099498 190.798174 
L 153.461043 191.278782 
L 154.822588 190.798174 
L 158.907223 190.798174 
L 160.268767 190.317565 
L 161.630312 190.317565 
L 162.991857 189.356347 
L 164.353402 189.836956 
L 165.714947 189.836956 
L 167.076492 189.356347 
L 168.438037 189.356347 
L 169.799582 189.836956 
L 171.161127 189.836956 
L 172.522672 191.278782 
L 173.884216 190.798174 
L 175.245761 189.836956 
L 176.607306 190.798174 
L 177.968851 190.317565 
L 179.330396 190.317565 
L 182.053486 189.356347 
L 184.776576 190.317565 
L 186.13812 189.356347 
L 187.499665 189.356347 
L 188.86121 188.875739 
L 190.222755 188.875739 
L 191.5843 188.39513 
L 192.945845 188.39513 
L 195.668935 189.356347 
L 197.03048 188.39513 
L 198.392025 188.39513 
L 199.753569 189.356347 
L 201.115114 189.356347 
L 202.476659 188.875739 
L 205.199749 188.875739 
L 206.561294 190.317565 
L 207.922839 191.278782 
L 210.645929 191.278782 
L 212.007474 192.24 
L 218.815198 192.24 
L 220.176743 192.720609 
L 221.538288 192.24 
L 222.899833 192.24 
L 224.261378 192.720609 
L 225.622922 192.720609 
L 226.984467 192.24 
L 232.430647 192.24 
L 235.153737 191.278782 
L 236.515282 190.317565 
L 237.876827 188.875739 
L 239.238371 188.875739 
L 240.599916 188.39513 
L 241.961461 188.39513 
L 243.323006 187.914521 
L 244.684551 187.914521 
L 246.046096 189.356347 
L 247.407641 190.317565 
L 251.492276 190.317565 
L 252.85382 190.798174 
L 254.215365 190.317565 
L 255.57691 190.317565 
L 256.938455 190.798174 
L 258.3 190.317565 
L 259.661545 190.798174 
L 261.02309 190.317565 
L 262.384635 189.356347 
L 263.74618 189.356347 
L 266.469269 188.39513 
L 267.830814 188.875739 
L 269.192359 188.39513 
L 270.553904 188.875739 
L 274.638539 191.759391 
L 276.000084 192.24 
L 278.723173 191.278782 
L 280.084718 191.278782 
L 281.446263 190.317565 
L 282.807808 190.317565 
L 284.169353 189.836956 
L 285.530898 189.836956 
L 286.892443 190.317565 
L 288.253988 191.278782 
L 289.615533 191.278782 
L 290.977078 192.24 
L 299.146347 192.24 
L 301.869437 191.278782 
L 303.230982 191.278782 
L 305.954071 190.317565 
L 308.677161 190.317565 
L 311.400251 191.278782 
L 312.761796 191.278782 
L 314.123341 191.759391 
L 315.484886 191.278782 
L 319.56952 191.278782 
L 320.931065 190.798174 
L 322.29261 189.836956 
L 323.654155 189.356347 
L 325.0157 190.317565 
L 326.377245 190.317565 
L 327.73879 189.836956 
L 329.100335 189.836956 
L 330.46188 190.317565 
L 331.823424 191.278782 
L 333.184969 191.278782 
L 334.546514 189.836956 
L 335.908059 189.836956 
L 337.269604 189.356347 
L 338.631149 188.39513 
L 339.992694 187.914521 
L 341.354239 186.953304 
L 342.715784 186.953304 
L 344.077328 188.39513 
L 345.438873 187.914521 
L 348.161963 188.875739 
L 349.523508 188.875739 
L 350.885053 189.836956 
L 352.246598 189.836956 
L 354.969688 188.875739 
L 356.331233 189.356347 
L 357.692777 188.39513 
L 359.054322 188.875739 
L 360.415867 188.39513 
L 363.138957 189.356347 
L 365.862047 188.39513 
L 367.223592 189.836956 
L 368.585137 188.875739 
L 369.946682 188.875739 
L 371.308226 185.511477 
L 372.669771 184.55026 
L 374.031316 185.511477 
L 375.392861 185.992086 
L 376.754406 185.511477 
L 378.115951 186.472695 
L 379.477496 186.472695 
L 380.839041 188.875739 
L 382.200586 187.433912 
L 383.562131 187.433912 
L 384.923675 185.511477 
L 386.28522 185.511477 
L 387.646765 184.55026 
L 389.00831 184.069651 
L 390.369855 184.069651 
L 391.7314 184.55026 
L 393.092945 184.55026 
L 394.45449 185.511477 
L 395.816035 185.030868 
L 399.900669 185.030868 
L 401.262214 185.511477 
L 403.985304 184.55026 
L 405.346849 181.666607 
L 406.708394 180.224781 
L 408.069939 172.53504 
L 409.431484 170.612605 
L 410.793028 167.728953 
L 412.154573 163.884083 
L 413.516118 161.00043 
L 414.877663 162.442256 
L 416.239208 161.00043 
L 417.600753 167.248344 
L 418.962298 164.364691 
L 420.323843 164.8453 
L 421.685388 162.922865 
L 423.046933 163.403474 
L 424.408477 161.481039 
L 425.770022 161.00043 
L 427.131567 159.077995 
L 429.854657 152.349472 
L 432.577747 152.349472 
L 433.939292 150.907646 
L 435.300837 149.946428 
L 435.300837 149.946428 
" style="fill:none;stroke:#871f78;stroke-linecap:round;stroke-width:1.5;"/>
   </g>
   <g id="patch_264">
    <path d="M 63 192.24 
L 453.6 192.24 
" style="fill:none;stroke:#cccccc;stroke-linecap:square;stroke-linejoin:miter;"/>
   </g>
   <g id="text_17">
    <!-- 7-day -->
    <defs>
     <path d="M 14.5 0 
Q 15.671875 7.234375 19.484375 17.390625 
Q 24.03125 29.640625 31.390625 41.71875 
Q 38.765625 53.8125 47.796875 62.5 
L 12.109375 62.5 
L 13.8125 70.609375 
L 59.515625 70.609375 
L 57.859375 62.5 
Q 46.234375 52.296875 37.546875 36.1875 
Q 27.4375 17.578125 23.734375 0 
z
" id="Arial-ItalicMT-55"/>
     <path d="M 4.640625 21.484375 
L 6.5 30.328125 
L 33.453125 30.328125 
L 31.640625 21.484375 
z
" id="Arial-ItalicMT-45"/>
     <path d="M 38.28125 7.515625 
Q 30.71875 -1.171875 22.46875 -1.171875 
Q 15.09375 -1.171875 10.1875 4.265625 
Q 5.28125 9.71875 5.28125 20.0625 
Q 5.28125 29.546875 9.15625 37.375 
Q 13.03125 45.21875 18.859375 49.125 
Q 24.703125 53.03125 30.5625 53.03125 
Q 40.234375 53.03125 45.171875 43.703125 
L 51.03125 71.578125 
L 59.8125 71.578125 
L 44.875 0 
L 36.71875 0 
z
M 14.0625 21.734375 
Q 14.0625 16.3125 15.140625 13.1875 
Q 16.21875 10.0625 18.796875 7.984375 
Q 21.390625 5.90625 25 5.90625 
Q 31 5.90625 35.890625 12.15625 
Q 42.4375 20.453125 42.4375 32.671875 
Q 42.4375 38.8125 39.203125 42.28125 
Q 35.984375 45.75 31.109375 45.75 
Q 27.9375 45.75 25.3125 44.328125 
Q 22.703125 42.921875 20.140625 39.53125 
Q 17.578125 36.140625 15.8125 30.90625 
Q 14.0625 25.6875 14.0625 21.734375 
z
" id="Arial-ItalicMT-100"/>
     <path d="M 38.28125 6.453125 
Q 33.6875 2.484375 29.4375 0.65625 
Q 25.203125 -1.171875 20.359375 -1.171875 
Q 13.1875 -1.171875 8.78125 3.046875 
Q 4.390625 7.28125 4.390625 13.875 
Q 4.390625 18.21875 6.359375 21.5625 
Q 8.34375 24.90625 11.609375 26.921875 
Q 14.890625 28.953125 19.625 29.828125 
Q 22.609375 30.421875 30.9375 30.765625 
Q 39.265625 31.109375 42.875 32.515625 
Q 43.890625 36.140625 43.890625 38.53125 
Q 43.890625 41.609375 41.65625 43.359375 
Q 38.578125 45.796875 32.671875 45.796875 
Q 27.09375 45.796875 23.546875 43.328125 
Q 20.015625 40.875 18.40625 36.328125 
L 9.46875 37.109375 
Q 12.203125 44.828125 18.140625 48.921875 
Q 24.078125 53.03125 33.109375 53.03125 
Q 42.71875 53.03125 48.34375 48.4375 
Q 52.640625 45.015625 52.640625 39.546875 
Q 52.640625 35.40625 51.421875 29.9375 
L 48.53125 17.046875 
Q 47.171875 10.890625 47.171875 7.03125 
Q 47.171875 4.59375 48.25 0 
L 39.3125 0 
Q 38.578125 2.546875 38.28125 6.453125 
z
M 41.546875 26.265625 
Q 39.703125 25.53125 37.578125 25.140625 
Q 35.453125 24.75 30.46875 24.3125 
Q 22.75 23.640625 19.578125 22.578125 
Q 16.40625 21.53125 14.796875 19.234375 
Q 13.1875 16.9375 13.1875 14.15625 
Q 13.1875 10.453125 15.75 8.0625 
Q 18.3125 5.671875 23.046875 5.671875 
Q 27.4375 5.671875 31.484375 7.984375 
Q 35.546875 10.296875 37.890625 14.453125 
Q 40.234375 18.609375 41.546875 26.265625 
z
" id="Arial-ItalicMT-97"/>
     <path d="M 0 -20.015625 
L 0.53125 -11.71875 
Q 3.265625 -12.5 5.859375 -12.5 
Q 8.546875 -12.5 10.203125 -11.28125 
Q 12.359375 -9.671875 14.890625 -5.21875 
L 17.71875 -0.140625 
L 9.078125 51.859375 
L 17.78125 51.859375 
L 21.6875 25.640625 
Q 22.859375 17.875 23.6875 10.109375 
L 46.875 51.859375 
L 56.109375 51.859375 
L 23.046875 -6.890625 
Q 18.265625 -15.484375 14.546875 -18.265625 
Q 10.84375 -21.046875 6 -21.046875 
Q 2.9375 -21.046875 0 -20.015625 
z
" id="Arial-ItalicMT-121"/>
    </defs>
    <g style="fill:#871f78;" transform="translate(439.385471 139.252366)scale(0.1 -0.1)">
     <use xlink:href="#Arial-ItalicMT-55"/>
     <use x="55.615234" xlink:href="#Arial-ItalicMT-45"/>
     <use x="88.916016" xlink:href="#Arial-ItalicMT-100"/>
     <use x="144.53125" xlink:href="#Arial-ItalicMT-97"/>
     <use x="200.146484" xlink:href="#Arial-ItalicMT-121"/>
    </g>
    <!-- avg. -->
    <defs>
     <path d="M 16.40625 0 
L 7.90625 51.859375 
L 16.5 51.859375 
L 20.953125 23.296875 
Q 21.6875 18.609375 22.75 8.015625 
Q 25.296875 13.53125 29.25 20.65625 
L 46.578125 51.859375 
L 55.90625 51.859375 
L 26.21875 0 
z
" id="Arial-ItalicMT-118"/>
     <path d="M 2.828125 -4.6875 
L 11.765625 -5.515625 
Q 11.671875 -8.546875 12.5 -10.0625 
Q 13.328125 -11.578125 15.140625 -12.40625 
Q 17.53125 -13.484375 21.34375 -13.484375 
Q 29.34375 -13.484375 32.859375 -9.328125 
Q 35.15625 -6.546875 37.109375 2.78125 
L 37.984375 6.984375 
Q 31.109375 0 23.34375 0 
Q 15.484375 0 10.1875 5.78125 
Q 4.890625 11.578125 4.890625 22.171875 
Q 4.890625 30.90625 9.0625 38.234375 
Q 13.234375 45.5625 18.984375 49.296875 
Q 24.75 53.03125 30.859375 53.03125 
Q 41.0625 53.03125 46.578125 43.359375 
L 48.34375 51.859375 
L 56.453125 51.859375 
L 46 1.8125 
Q 44.28125 -6.453125 41.5 -11.0625 
Q 38.71875 -15.671875 33.765625 -18.203125 
Q 28.8125 -20.75 22.3125 -20.75 
Q 16.0625 -20.75 11.546875 -19.140625 
Q 7.03125 -17.53125 4.8125 -14.421875 
Q 2.59375 -11.328125 2.59375 -7.328125 
Q 2.59375 -6.109375 2.828125 -4.6875 
z
M 13.875 22.953125 
Q 13.875 17.625 14.890625 14.9375 
Q 16.359375 11.1875 19.0625 9.203125 
Q 21.78125 7.234375 25.09375 7.234375 
Q 29.4375 7.234375 33.734375 10.28125 
Q 38.03125 13.328125 40.6875 19.71875 
Q 43.359375 26.125 43.359375 31.9375 
Q 43.359375 38.328125 39.8125 42.109375 
Q 36.28125 45.90625 31.0625 45.90625 
Q 27.828125 45.90625 24.796875 44.171875 
Q 21.78125 42.4375 19.15625 38.890625 
Q 16.546875 35.359375 15.203125 30.421875 
Q 13.875 25.484375 13.875 22.953125 
z
" id="Arial-ItalicMT-103"/>
     <path d="M 5.765625 0 
L 7.859375 10.015625 
L 17.875 10.015625 
L 15.71875 0 
z
" id="Arial-ItalicMT-46"/>
    </defs>
    <g style="fill:#871f78;" transform="translate(439.385471 149.946428)scale(0.1 -0.1)">
     <use xlink:href="#Arial-ItalicMT-97"/>
     <use x="55.615234" xlink:href="#Arial-ItalicMT-118"/>
     <use x="105.615234" xlink:href="#Arial-ItalicMT-103"/>
     <use x="161.230469" xlink:href="#Arial-ItalicMT-46"/>
    </g>
   </g>
  </g>
 </g>
 <defs>
  <clipPath id="p48d28419fa">
   <rect height="166.32" width="390.6" x="63" y="25.92"/>
  </clipPath>
 </defs>
</svg>
