<svg version="1.1" viewBox="40 10 440 195" width="100%" xmlns="http://www.w3.org/2000/svg" xmlns:xlink="http://www.w3.org/1999/xlink">
 <defs>
  <style type="text/css">
*{stroke-linecap:butt;stroke-linejoin:round;}
  </style>
 </defs>
 <g id="figure_1">
  <g id="patch_1">
   <path d="M 0 216 
L 504 216 
L 504 0 
L 0 0 
z
" style="fill:#ffffff;"/>
  </g>
  <g id="axes_1">
   <g id="patch_2">
    <path d="M 63 192.24 
L 453.6 192.24 
L 453.6 25.92 
L 63 25.92 
z
" style="fill:#ffffff;"/>
   </g>
   <g id="matplotlib.axis_1">
    <g id="xtick_1">
     <g id="line2d_1"/>
     <g id="text_1">
      <!-- Apr -->
      <defs>
       <path d="M -0.140625 0 
L 27.34375 71.578125 
L 37.546875 71.578125 
L 66.84375 0 
L 56.0625 0 
L 47.703125 21.6875 
L 17.78125 21.6875 
L 9.90625 0 
z
M 20.515625 29.390625 
L 44.78125 29.390625 
L 37.3125 49.21875 
Q 33.890625 58.25 32.234375 64.0625 
Q 30.859375 57.171875 28.375 50.390625 
z
" id="ArialMT-65"/>
       <path d="M 6.59375 -19.875 
L 6.59375 51.859375 
L 14.59375 51.859375 
L 14.59375 45.125 
Q 17.4375 49.078125 21 51.046875 
Q 24.5625 53.03125 29.640625 53.03125 
Q 36.28125 53.03125 41.359375 49.609375 
Q 46.4375 46.1875 49.015625 39.953125 
Q 51.609375 33.734375 51.609375 26.3125 
Q 51.609375 18.359375 48.75 11.984375 
Q 45.90625 5.609375 40.453125 2.21875 
Q 35.015625 -1.171875 29 -1.171875 
Q 24.609375 -1.171875 21.109375 0.6875 
Q 17.625 2.546875 15.375 5.375 
L 15.375 -19.875 
z
M 14.546875 25.640625 
Q 14.546875 15.625 18.59375 10.84375 
Q 22.65625 6.0625 28.421875 6.0625 
Q 34.28125 6.0625 38.453125 11.015625 
Q 42.625 15.96875 42.625 26.375 
Q 42.625 36.28125 38.546875 41.203125 
Q 34.46875 46.140625 28.8125 46.140625 
Q 23.1875 46.140625 18.859375 40.890625 
Q 14.546875 35.640625 14.546875 25.640625 
z
" id="ArialMT-112"/>
       <path d="M 6.5 0 
L 6.5 51.859375 
L 14.40625 51.859375 
L 14.40625 44 
Q 17.4375 49.515625 20 51.265625 
Q 22.5625 53.03125 25.640625 53.03125 
Q 30.078125 53.03125 34.671875 50.203125 
L 31.640625 42.046875 
Q 28.421875 43.953125 25.203125 43.953125 
Q 22.3125 43.953125 20.015625 42.21875 
Q 17.71875 40.484375 16.75 37.40625 
Q 15.28125 32.71875 15.28125 27.15625 
L 15.28125 0 
z
" id="ArialMT-114"/>
      </defs>
      <g style="fill:#1f77b4;" transform="translate(95.221432 202.897813)scale(0.1 -0.1)">
       <use xlink:href="#ArialMT-65"/>
       <use x="66.699219" xlink:href="#ArialMT-112"/>
       <use x="122.314453" xlink:href="#ArialMT-114"/>
      </g>
     </g>
    </g>
    <g id="xtick_2">
     <g id="line2d_2"/>
     <g id="text_2">
      <!-- May -->
      <defs>
       <path d="M 7.421875 0 
L 7.421875 71.578125 
L 21.6875 71.578125 
L 38.625 20.90625 
Q 40.96875 13.8125 42.046875 10.296875 
Q 43.265625 14.203125 45.84375 21.78125 
L 62.984375 71.578125 
L 75.734375 71.578125 
L 75.734375 0 
L 66.609375 0 
L 66.609375 59.90625 
L 45.796875 0 
L 37.25 0 
L 16.546875 60.9375 
L 16.546875 0 
z
" id="ArialMT-77"/>
       <path d="M 40.4375 6.390625 
Q 35.546875 2.25 31.03125 0.53125 
Q 26.515625 -1.171875 21.34375 -1.171875 
Q 12.796875 -1.171875 8.203125 3 
Q 3.609375 7.171875 3.609375 13.671875 
Q 3.609375 17.484375 5.34375 20.625 
Q 7.078125 23.78125 9.890625 25.6875 
Q 12.703125 27.59375 16.21875 28.5625 
Q 18.796875 29.25 24.03125 29.890625 
Q 34.671875 31.15625 39.703125 32.90625 
Q 39.75 34.71875 39.75 35.203125 
Q 39.75 40.578125 37.25 42.78125 
Q 33.890625 45.75 27.25 45.75 
Q 21.046875 45.75 18.09375 43.578125 
Q 15.140625 41.40625 13.71875 35.890625 
L 5.125 37.0625 
Q 6.296875 42.578125 8.984375 45.96875 
Q 11.671875 49.359375 16.75 51.1875 
Q 21.828125 53.03125 28.515625 53.03125 
Q 35.15625 53.03125 39.296875 51.46875 
Q 43.453125 49.90625 45.40625 47.53125 
Q 47.359375 45.171875 48.140625 41.546875 
Q 48.578125 39.3125 48.578125 33.453125 
L 48.578125 21.734375 
Q 48.578125 9.46875 49.140625 6.21875 
Q 49.703125 2.984375 51.375 0 
L 42.1875 0 
Q 40.828125 2.734375 40.4375 6.390625 
z
M 39.703125 26.03125 
Q 34.90625 24.078125 25.34375 22.703125 
Q 19.921875 21.921875 17.671875 20.9375 
Q 15.4375 19.96875 14.203125 18.09375 
Q 12.984375 16.21875 12.984375 13.921875 
Q 12.984375 10.40625 15.640625 8.0625 
Q 18.3125 5.71875 23.4375 5.71875 
Q 28.515625 5.71875 32.46875 7.9375 
Q 36.421875 10.15625 38.28125 14.015625 
Q 39.703125 17 39.703125 22.796875 
z
" id="ArialMT-97"/>
       <path d="M 6.203125 -19.96875 
L 5.21875 -11.71875 
Q 8.109375 -12.5 10.25 -12.5 
Q 13.1875 -12.5 14.9375 -11.515625 
Q 16.703125 -10.546875 17.828125 -8.796875 
Q 18.65625 -7.46875 20.515625 -2.25 
Q 20.75 -1.515625 21.296875 -0.09375 
L 1.609375 51.859375 
L 11.078125 51.859375 
L 21.875 21.828125 
Q 23.96875 16.109375 25.640625 9.8125 
Q 27.15625 15.875 29.25 21.625 
L 40.328125 51.859375 
L 49.125 51.859375 
L 29.390625 -0.875 
Q 26.21875 -9.421875 24.46875 -12.640625 
Q 22.125 -17 19.09375 -19.015625 
Q 16.0625 -21.046875 11.859375 -21.046875 
Q 9.328125 -21.046875 6.203125 -19.96875 
z
" id="ArialMT-121"/>
      </defs>
      <g style="fill:#1f77b4;" transform="translate(136.895593 202.897813)scale(0.1 -0.1)">
       <use xlink:href="#ArialMT-77"/>
       <use x="83.300781" xlink:href="#ArialMT-97"/>
       <use x="138.916016" xlink:href="#ArialMT-121"/>
      </g>
     </g>
    </g>
    <g id="xtick_3">
     <g id="line2d_3"/>
     <g id="text_3">
      <!-- Jun -->
      <defs>
       <path d="M 2.875 20.3125 
L 11.421875 21.484375 
Q 11.765625 13.28125 14.5 10.25 
Q 17.234375 7.234375 22.078125 7.234375 
Q 25.640625 7.234375 28.21875 8.859375 
Q 30.8125 10.5 31.78125 13.296875 
Q 32.765625 16.109375 32.765625 22.265625 
L 32.765625 71.578125 
L 42.234375 71.578125 
L 42.234375 22.796875 
Q 42.234375 13.8125 40.0625 8.875 
Q 37.890625 3.953125 33.171875 1.359375 
Q 28.46875 -1.21875 22.125 -1.21875 
Q 12.703125 -1.21875 7.6875 4.203125 
Q 2.6875 9.625 2.875 20.3125 
z
" id="ArialMT-74"/>
       <path d="M 40.578125 0 
L 40.578125 7.625 
Q 34.515625 -1.171875 24.125 -1.171875 
Q 19.53125 -1.171875 15.546875 0.578125 
Q 11.578125 2.34375 9.640625 5 
Q 7.71875 7.671875 6.9375 11.53125 
Q 6.390625 14.109375 6.390625 19.734375 
L 6.390625 51.859375 
L 15.1875 51.859375 
L 15.1875 23.09375 
Q 15.1875 16.21875 15.71875 13.8125 
Q 16.546875 10.359375 19.234375 8.375 
Q 21.921875 6.390625 25.875 6.390625 
Q 29.828125 6.390625 33.296875 8.421875 
Q 36.765625 10.453125 38.203125 13.9375 
Q 39.65625 17.4375 39.65625 24.078125 
L 39.65625 51.859375 
L 48.4375 51.859375 
L 48.4375 0 
z
" id="ArialMT-117"/>
       <path d="M 6.59375 0 
L 6.59375 51.859375 
L 14.5 51.859375 
L 14.5 44.484375 
Q 20.21875 53.03125 31 53.03125 
Q 35.6875 53.03125 39.625 51.34375 
Q 43.5625 49.65625 45.515625 46.921875 
Q 47.46875 44.1875 48.25 40.4375 
Q 48.734375 37.984375 48.734375 31.890625 
L 48.734375 0 
L 39.9375 0 
L 39.9375 31.546875 
Q 39.9375 36.921875 38.90625 39.578125 
Q 37.890625 42.234375 35.28125 43.8125 
Q 32.671875 45.40625 29.15625 45.40625 
Q 23.53125 45.40625 19.453125 41.84375 
Q 15.375 38.28125 15.375 28.328125 
L 15.375 0 
z
" id="ArialMT-110"/>
      </defs>
      <g style="fill:#1f77b4;" transform="translate(183.063606 202.897813)scale(0.1 -0.1)">
       <use xlink:href="#ArialMT-74"/>
       <use x="50" xlink:href="#ArialMT-117"/>
       <use x="105.615234" xlink:href="#ArialMT-110"/>
      </g>
     </g>
    </g>
    <g id="xtick_4">
     <g id="line2d_4"/>
     <g id="text_4">
      <!-- Jul -->
      <defs>
       <path d="M 6.390625 0 
L 6.390625 71.578125 
L 15.1875 71.578125 
L 15.1875 0 
z
" id="ArialMT-108"/>
      </defs>
      <g style="fill:#1f77b4;" transform="translate(228.072141 202.897813)scale(0.1 -0.1)">
       <use xlink:href="#ArialMT-74"/>
       <use x="50" xlink:href="#ArialMT-117"/>
       <use x="105.615234" xlink:href="#ArialMT-108"/>
      </g>
     </g>
    </g>
    <g id="xtick_5">
     <g id="line2d_5"/>
     <g id="text_5">
      <!-- Aug -->
      <defs>
       <path d="M 4.984375 -4.296875 
L 13.53125 -5.5625 
Q 14.0625 -9.515625 16.5 -11.328125 
Q 19.78125 -13.765625 25.4375 -13.765625 
Q 31.546875 -13.765625 34.859375 -11.328125 
Q 38.1875 -8.890625 39.359375 -4.5 
Q 40.046875 -1.8125 39.984375 6.78125 
Q 34.234375 0 25.640625 0 
Q 14.9375 0 9.078125 7.71875 
Q 3.21875 15.4375 3.21875 26.21875 
Q 3.21875 33.640625 5.90625 39.90625 
Q 8.59375 46.1875 13.6875 49.609375 
Q 18.796875 53.03125 25.6875 53.03125 
Q 34.859375 53.03125 40.828125 45.609375 
L 40.828125 51.859375 
L 48.921875 51.859375 
L 48.921875 7.03125 
Q 48.921875 -5.078125 46.453125 -10.125 
Q 44 -15.1875 38.640625 -18.109375 
Q 33.296875 -21.046875 25.484375 -21.046875 
Q 16.21875 -21.046875 10.5 -16.875 
Q 4.78125 -12.703125 4.984375 -4.296875 
z
M 12.25 26.859375 
Q 12.25 16.65625 16.296875 11.96875 
Q 20.359375 7.28125 26.46875 7.28125 
Q 32.515625 7.28125 36.609375 11.9375 
Q 40.71875 16.609375 40.71875 26.5625 
Q 40.71875 36.078125 36.5 40.90625 
Q 32.28125 45.75 26.3125 45.75 
Q 20.453125 45.75 16.34375 40.984375 
Q 12.25 36.234375 12.25 26.859375 
z
" id="ArialMT-103"/>
      </defs>
      <g style="fill:#1f77b4;" transform="translate(270.351092 202.897813)scale(0.1 -0.1)">
       <use xlink:href="#ArialMT-65"/>
       <use x="66.699219" xlink:href="#ArialMT-117"/>
       <use x="122.314453" xlink:href="#ArialMT-103"/>
      </g>
     </g>
    </g>
    <g id="xtick_6">
     <g id="line2d_6"/>
     <g id="text_6">
      <!-- Sep -->
      <defs>
       <path d="M 4.5 23 
L 13.421875 23.78125 
Q 14.0625 18.40625 16.375 14.96875 
Q 18.703125 11.53125 23.578125 9.40625 
Q 28.46875 7.28125 34.578125 7.28125 
Q 39.984375 7.28125 44.140625 8.890625 
Q 48.296875 10.5 50.3125 13.296875 
Q 52.34375 16.109375 52.34375 19.4375 
Q 52.34375 22.796875 50.390625 25.3125 
Q 48.4375 27.828125 43.953125 29.546875 
Q 41.0625 30.671875 31.203125 33.03125 
Q 21.34375 35.40625 17.390625 37.5 
Q 12.25 40.1875 9.734375 44.15625 
Q 7.234375 48.140625 7.234375 53.078125 
Q 7.234375 58.5 10.296875 63.203125 
Q 13.375 67.921875 19.28125 70.359375 
Q 25.203125 72.796875 32.421875 72.796875 
Q 40.375 72.796875 46.453125 70.234375 
Q 52.546875 67.671875 55.8125 62.6875 
Q 59.078125 57.71875 59.328125 51.421875 
L 50.25 50.734375 
Q 49.515625 57.515625 45.28125 60.984375 
Q 41.0625 64.453125 32.8125 64.453125 
Q 24.21875 64.453125 20.28125 61.296875 
Q 16.359375 58.15625 16.359375 53.71875 
Q 16.359375 49.859375 19.140625 47.359375 
Q 21.875 44.875 33.421875 42.265625 
Q 44.96875 39.65625 49.265625 37.703125 
Q 55.515625 34.8125 58.484375 30.390625 
Q 61.46875 25.984375 61.46875 20.21875 
Q 61.46875 14.5 58.203125 9.4375 
Q 54.9375 4.390625 48.796875 1.578125 
Q 42.671875 -1.21875 35.015625 -1.21875 
Q 25.296875 -1.21875 18.71875 1.609375 
Q 12.15625 4.4375 8.421875 10.125 
Q 4.6875 15.828125 4.5 23 
z
" id="ArialMT-83"/>
       <path d="M 42.09375 16.703125 
L 51.171875 15.578125 
Q 49.03125 7.625 43.21875 3.21875 
Q 37.40625 -1.171875 28.375 -1.171875 
Q 17 -1.171875 10.328125 5.828125 
Q 3.65625 12.84375 3.65625 25.484375 
Q 3.65625 38.578125 10.390625 45.796875 
Q 17.140625 53.03125 27.875 53.03125 
Q 38.28125 53.03125 44.875 45.953125 
Q 51.46875 38.875 51.46875 26.03125 
Q 51.46875 25.25 51.421875 23.6875 
L 12.75 23.6875 
Q 13.234375 15.140625 17.578125 10.59375 
Q 21.921875 6.0625 28.421875 6.0625 
Q 33.25 6.0625 36.671875 8.59375 
Q 40.09375 11.140625 42.09375 16.703125 
z
M 13.234375 30.90625 
L 42.1875 30.90625 
Q 41.609375 37.453125 38.875 40.71875 
Q 34.671875 45.796875 27.984375 45.796875 
Q 21.921875 45.796875 17.796875 41.75 
Q 13.671875 37.703125 13.234375 30.90625 
z
" id="ArialMT-101"/>
      </defs>
      <g style="fill:#1f77b4;" transform="translate(315.13473 203.019688)scale(0.1 -0.1)">
       <use xlink:href="#ArialMT-83"/>
       <use x="66.699219" xlink:href="#ArialMT-101"/>
       <use x="122.314453" xlink:href="#ArialMT-112"/>
      </g>
     </g>
    </g>
    <g id="xtick_7">
     <g id="line2d_7"/>
     <g id="text_7">
      <!-- Oct -->
      <defs>
       <path d="M 4.828125 34.859375 
Q 4.828125 52.6875 14.390625 62.765625 
Q 23.96875 72.859375 39.109375 72.859375 
Q 49.03125 72.859375 56.984375 68.109375 
Q 64.9375 63.375 69.109375 54.90625 
Q 73.296875 46.4375 73.296875 35.6875 
Q 73.296875 24.8125 68.890625 16.21875 
Q 64.5 7.625 56.4375 3.203125 
Q 48.390625 -1.21875 39.0625 -1.21875 
Q 28.953125 -1.21875 20.984375 3.65625 
Q 13.03125 8.546875 8.921875 16.984375 
Q 4.828125 25.4375 4.828125 34.859375 
z
M 14.59375 34.71875 
Q 14.59375 21.78125 21.546875 14.328125 
Q 28.515625 6.890625 39.015625 6.890625 
Q 49.703125 6.890625 56.609375 14.40625 
Q 63.53125 21.921875 63.53125 35.75 
Q 63.53125 44.484375 60.578125 51 
Q 57.625 57.515625 51.921875 61.109375 
Q 46.234375 64.703125 39.15625 64.703125 
Q 29.109375 64.703125 21.84375 57.78125 
Q 14.59375 50.875 14.59375 34.71875 
z
" id="ArialMT-79"/>
       <path d="M 40.4375 19 
L 49.078125 17.875 
Q 47.65625 8.9375 41.8125 3.875 
Q 35.984375 -1.171875 27.484375 -1.171875 
Q 16.84375 -1.171875 10.375 5.78125 
Q 3.90625 12.75 3.90625 25.734375 
Q 3.90625 34.125 6.6875 40.421875 
Q 9.46875 46.734375 15.15625 49.875 
Q 20.84375 53.03125 27.546875 53.03125 
Q 35.984375 53.03125 41.359375 48.75 
Q 46.734375 44.484375 48.25 36.625 
L 39.703125 35.296875 
Q 38.484375 40.53125 35.375 43.15625 
Q 32.28125 45.796875 27.875 45.796875 
Q 21.234375 45.796875 17.078125 41.03125 
Q 12.9375 36.28125 12.9375 25.984375 
Q 12.9375 15.53125 16.9375 10.796875 
Q 20.953125 6.0625 27.390625 6.0625 
Q 32.5625 6.0625 36.03125 9.234375 
Q 39.5 12.40625 40.4375 19 
z
" id="ArialMT-99"/>
       <path d="M 25.78125 7.859375 
L 27.046875 0.09375 
Q 23.34375 -0.6875 20.40625 -0.6875 
Q 15.625 -0.6875 12.984375 0.828125 
Q 10.359375 2.34375 9.28125 4.8125 
Q 8.203125 7.28125 8.203125 15.1875 
L 8.203125 45.015625 
L 1.765625 45.015625 
L 1.765625 51.859375 
L 8.203125 51.859375 
L 8.203125 64.703125 
L 16.9375 69.96875 
L 16.9375 51.859375 
L 25.78125 51.859375 
L 25.78125 45.015625 
L 16.9375 45.015625 
L 16.9375 14.703125 
Q 16.9375 10.9375 17.40625 9.859375 
Q 17.875 8.796875 18.921875 8.15625 
Q 19.96875 7.515625 21.921875 7.515625 
Q 23.390625 7.515625 25.78125 7.859375 
z
" id="ArialMT-116"/>
      </defs>
      <g style="fill:#1f77b4;" transform="translate(359.591703 202.897813)scale(0.1 -0.1)">
       <use xlink:href="#ArialMT-79"/>
       <use x="77.783203" xlink:href="#ArialMT-99"/>
       <use x="127.783203" xlink:href="#ArialMT-116"/>
      </g>
     </g>
    </g>
    <g id="xtick_8">
     <g id="line2d_8"/>
     <g id="text_8">
      <!-- Nov -->
      <defs>
       <path d="M 7.625 0 
L 7.625 71.578125 
L 17.328125 71.578125 
L 54.9375 15.375 
L 54.9375 71.578125 
L 64.015625 71.578125 
L 64.015625 0 
L 54.296875 0 
L 16.703125 56.25 
L 16.703125 0 
z
" id="ArialMT-78"/>
       <path d="M 3.328125 25.921875 
Q 3.328125 40.328125 11.328125 47.265625 
Q 18.015625 53.03125 27.640625 53.03125 
Q 38.328125 53.03125 45.109375 46.015625 
Q 51.90625 39.015625 51.90625 26.65625 
Q 51.90625 16.65625 48.90625 10.90625 
Q 45.90625 5.171875 40.15625 2 
Q 34.421875 -1.171875 27.640625 -1.171875 
Q 16.75 -1.171875 10.03125 5.8125 
Q 3.328125 12.796875 3.328125 25.921875 
z
M 12.359375 25.921875 
Q 12.359375 15.96875 16.703125 11.015625 
Q 21.046875 6.0625 27.640625 6.0625 
Q 34.1875 6.0625 38.53125 11.03125 
Q 42.875 16.015625 42.875 26.21875 
Q 42.875 35.84375 38.5 40.796875 
Q 34.125 45.75 27.640625 45.75 
Q 21.046875 45.75 16.703125 40.8125 
Q 12.359375 35.890625 12.359375 25.921875 
z
" id="ArialMT-111"/>
       <path d="M 21 0 
L 1.265625 51.859375 
L 10.546875 51.859375 
L 21.6875 20.796875 
Q 23.484375 15.765625 25 10.359375 
Q 26.171875 14.453125 28.265625 20.21875 
L 39.796875 51.859375 
L 48.828125 51.859375 
L 29.203125 0 
z
" id="ArialMT-118"/>
      </defs>
      <g style="fill:#1f77b4;" transform="translate(403.262059 202.897813)scale(0.1 -0.1)">
       <use xlink:href="#ArialMT-78"/>
       <use x="72.216797" xlink:href="#ArialMT-111"/>
       <use x="127.832031" xlink:href="#ArialMT-118"/>
      </g>
     </g>
    </g>
   </g>
   <g id="matplotlib.axis_2">
    <g id="ytick_1">
     <g id="line2d_9">
      <path clip-path="url(#p97de88074b)" d="M 63 192.24 
L 453.6 192.24 
" style="fill:none;stroke:#cccccc;stroke-linecap:round;stroke-width:0.8;"/>
     </g>
     <g id="line2d_10"/>
     <g id="text_9">
      <!-- 0 -->
      <defs>
       <path d="M 4.15625 35.296875 
Q 4.15625 48 6.765625 55.734375 
Q 9.375 63.484375 14.515625 67.671875 
Q 19.671875 71.875 27.484375 71.875 
Q 33.25 71.875 37.59375 69.546875 
Q 41.9375 67.234375 44.765625 62.859375 
Q 47.609375 58.5 49.21875 52.21875 
Q 50.828125 45.953125 50.828125 35.296875 
Q 50.828125 22.703125 48.234375 14.96875 
Q 45.65625 7.234375 40.5 3 
Q 35.359375 -1.21875 27.484375 -1.21875 
Q 17.140625 -1.21875 11.234375 6.203125 
Q 4.15625 15.140625 4.15625 35.296875 
z
M 13.1875 35.296875 
Q 13.1875 17.671875 17.3125 11.828125 
Q 21.4375 6 27.484375 6 
Q 33.546875 6 37.671875 11.859375 
Q 41.796875 17.71875 41.796875 35.296875 
Q 41.796875 52.984375 37.671875 58.78125 
Q 33.546875 64.59375 27.390625 64.59375 
Q 21.34375 64.59375 17.71875 59.46875 
Q 13.1875 52.9375 13.1875 35.296875 
z
" id="ArialMT-48"/>
      </defs>
      <g style="fill:#1f77b4;" transform="translate(53.939062 195.818906)scale(0.1 -0.1)">
       <use xlink:href="#ArialMT-48"/>
      </g>
     </g>
    </g>
    <g id="ytick_2">
     <g id="line2d_11">
      <path clip-path="url(#p97de88074b)" d="M 63 162 
L 453.6 162 
" style="fill:none;stroke:#cccccc;stroke-linecap:round;stroke-width:0.8;"/>
     </g>
     <g id="line2d_12"/>
     <g id="text_10">
      <!-- 10 -->
      <defs>
       <path d="M 37.25 0 
L 28.46875 0 
L 28.46875 56 
Q 25.296875 52.984375 20.140625 49.953125 
Q 14.984375 46.921875 10.890625 45.40625 
L 10.890625 53.90625 
Q 18.265625 57.375 23.78125 62.296875 
Q 29.296875 67.234375 31.59375 71.875 
L 37.25 71.875 
z
" id="ArialMT-49"/>
      </defs>
      <g style="fill:#1f77b4;" transform="translate(48.378125 165.578906)scale(0.1 -0.1)">
       <use xlink:href="#ArialMT-49"/>
       <use x="55.615234" xlink:href="#ArialMT-48"/>
      </g>
     </g>
    </g>
    <g id="ytick_3">
     <g id="line2d_13">
      <path clip-path="url(#p97de88074b)" d="M 63 131.76 
L 453.6 131.76 
" style="fill:none;stroke:#cccccc;stroke-linecap:round;stroke-width:0.8;"/>
     </g>
     <g id="line2d_14"/>
     <g id="text_11">
      <!-- 20 -->
      <defs>
       <path d="M 50.34375 8.453125 
L 50.34375 0 
L 3.03125 0 
Q 2.9375 3.171875 4.046875 6.109375 
Q 5.859375 10.9375 9.828125 15.625 
Q 13.8125 20.3125 21.34375 26.46875 
Q 33.015625 36.03125 37.109375 41.625 
Q 41.21875 47.21875 41.21875 52.203125 
Q 41.21875 57.421875 37.46875 61 
Q 33.734375 64.59375 27.734375 64.59375 
Q 21.390625 64.59375 17.578125 60.78125 
Q 13.765625 56.984375 13.71875 50.25 
L 4.6875 51.171875 
Q 5.609375 61.28125 11.65625 66.578125 
Q 17.71875 71.875 27.9375 71.875 
Q 38.234375 71.875 44.234375 66.15625 
Q 50.25 60.453125 50.25 52 
Q 50.25 47.703125 48.484375 43.546875 
Q 46.734375 39.40625 42.65625 34.8125 
Q 38.578125 30.21875 29.109375 22.21875 
Q 21.1875 15.578125 18.9375 13.203125 
Q 16.703125 10.84375 15.234375 8.453125 
z
" id="ArialMT-50"/>
      </defs>
      <g style="fill:#1f77b4;" transform="translate(48.378125 135.338906)scale(0.1 -0.1)">
       <use xlink:href="#ArialMT-50"/>
       <use x="55.615234" xlink:href="#ArialMT-48"/>
      </g>
     </g>
    </g>
    <g id="ytick_4">
     <g id="line2d_15">
      <path clip-path="url(#p97de88074b)" d="M 63 101.52 
L 453.6 101.52 
" style="fill:none;stroke:#cccccc;stroke-linecap:round;stroke-width:0.8;"/>
     </g>
     <g id="line2d_16"/>
     <g id="text_12">
      <!-- 30 -->
      <defs>
       <path d="M 4.203125 18.890625 
L 12.984375 20.0625 
Q 14.5 12.59375 18.140625 9.296875 
Q 21.78125 6 27 6 
Q 33.203125 6 37.46875 10.296875 
Q 41.75 14.59375 41.75 20.953125 
Q 41.75 27 37.796875 30.921875 
Q 33.84375 34.859375 27.734375 34.859375 
Q 25.25 34.859375 21.53125 33.890625 
L 22.515625 41.609375 
Q 23.390625 41.5 23.921875 41.5 
Q 29.546875 41.5 34.03125 44.421875 
Q 38.53125 47.359375 38.53125 53.46875 
Q 38.53125 58.296875 35.25 61.46875 
Q 31.984375 64.65625 26.8125 64.65625 
Q 21.6875 64.65625 18.265625 61.421875 
Q 14.84375 58.203125 13.875 51.765625 
L 5.078125 53.328125 
Q 6.6875 62.15625 12.390625 67.015625 
Q 18.109375 71.875 26.609375 71.875 
Q 32.46875 71.875 37.390625 69.359375 
Q 42.328125 66.84375 44.9375 62.5 
Q 47.5625 58.15625 47.5625 53.265625 
Q 47.5625 48.640625 45.0625 44.828125 
Q 42.578125 41.015625 37.703125 38.765625 
Q 44.046875 37.3125 47.5625 32.6875 
Q 51.078125 28.078125 51.078125 21.140625 
Q 51.078125 11.765625 44.234375 5.25 
Q 37.40625 -1.265625 26.953125 -1.265625 
Q 17.53125 -1.265625 11.296875 4.34375 
Q 5.078125 9.96875 4.203125 18.890625 
z
" id="ArialMT-51"/>
      </defs>
      <g style="fill:#1f77b4;" transform="translate(48.378125 105.098906)scale(0.1 -0.1)">
       <use xlink:href="#ArialMT-51"/>
       <use x="55.615234" xlink:href="#ArialMT-48"/>
      </g>
     </g>
    </g>
    <g id="ytick_5">
     <g id="line2d_17">
      <path clip-path="url(#p97de88074b)" d="M 63 71.28 
L 453.6 71.28 
" style="fill:none;stroke:#cccccc;stroke-linecap:round;stroke-width:0.8;"/>
     </g>
     <g id="line2d_18"/>
     <g id="text_13">
      <!-- 40 -->
      <defs>
       <path d="M 32.328125 0 
L 32.328125 17.140625 
L 1.265625 17.140625 
L 1.265625 25.203125 
L 33.9375 71.578125 
L 41.109375 71.578125 
L 41.109375 25.203125 
L 50.78125 25.203125 
L 50.78125 17.140625 
L 41.109375 17.140625 
L 41.109375 0 
z
M 32.328125 25.203125 
L 32.328125 57.46875 
L 9.90625 25.203125 
z
" id="ArialMT-52"/>
      </defs>
      <g style="fill:#1f77b4;" transform="translate(48.378125 74.858906)scale(0.1 -0.1)">
       <use xlink:href="#ArialMT-52"/>
       <use x="55.615234" xlink:href="#ArialMT-48"/>
      </g>
     </g>
    </g>
    <g id="ytick_6">
     <g id="line2d_19">
      <path clip-path="url(#p97de88074b)" d="M 63 41.04 
L 453.6 41.04 
" style="fill:none;stroke:#cccccc;stroke-linecap:round;stroke-width:0.8;"/>
     </g>
     <g id="line2d_20"/>
     <g id="text_14">
      <!-- 50 -->
      <defs>
       <path d="M 4.15625 18.75 
L 13.375 19.53125 
Q 14.40625 12.796875 18.140625 9.390625 
Q 21.875 6 27.15625 6 
Q 33.5 6 37.890625 10.78125 
Q 42.28125 15.578125 42.28125 23.484375 
Q 42.28125 31 38.0625 35.34375 
Q 33.84375 39.703125 27 39.703125 
Q 22.75 39.703125 19.328125 37.765625 
Q 15.921875 35.84375 13.96875 32.765625 
L 5.71875 33.84375 
L 12.640625 70.609375 
L 48.25 70.609375 
L 48.25 62.203125 
L 19.671875 62.203125 
L 15.828125 42.96875 
Q 22.265625 47.46875 29.34375 47.46875 
Q 38.71875 47.46875 45.15625 40.96875 
Q 51.609375 34.46875 51.609375 24.265625 
Q 51.609375 14.546875 45.953125 7.46875 
Q 39.0625 -1.21875 27.15625 -1.21875 
Q 17.390625 -1.21875 11.203125 4.25 
Q 5.03125 9.71875 4.15625 18.75 
z
" id="ArialMT-53"/>
      </defs>
      <g style="fill:#1f77b4;" transform="translate(48.378125 44.618906)scale(0.1 -0.1)">
       <use xlink:href="#ArialMT-53"/>
       <use x="55.615234" xlink:href="#ArialMT-48"/>
      </g>
     </g>
    </g>
   </g>
   <g id="patch_3">
    <path clip-path="url(#p97de88074b)" d="M 80.754545 192.24 
L 81.910252 192.24 
L 81.910252 192.24 
L 80.754545 192.24 
z
" style="fill:#1f77b4;opacity:0.35;"/>
   </g>
   <g id="patch_4">
    <path clip-path="url(#p97de88074b)" d="M 82.199179 192.24 
L 83.354886 192.24 
L 83.354886 192.24 
L 82.199179 192.24 
z
" style="fill:#1f77b4;opacity:0.35;"/>
   </g>
   <g id="patch_5">
    <path clip-path="url(#p97de88074b)" d="M 83.643812 192.24 
L 84.799519 192.24 
L 84.799519 181.773435 
L 83.643812 181.773435 
z
" style="fill:#1f77b4;opacity:0.35;"/>
   </g>
   <g id="patch_6">
    <path clip-path="url(#p97de88074b)" d="M 85.088446 192.24 
L 86.244153 192.24 
L 86.244153 181.773435 
L 85.088446 181.773435 
z
" style="fill:#1f77b4;opacity:0.35;"/>
   </g>
   <g id="patch_7">
    <path clip-path="url(#p97de88074b)" d="M 86.533079 192.24 
L 87.688786 192.24 
L 87.688786 192.24 
L 86.533079 192.24 
z
" style="fill:#1f77b4;opacity:0.35;"/>
   </g>
   <g id="patch_8">
    <path clip-path="url(#p97de88074b)" d="M 87.977713 192.24 
L 89.13342 192.24 
L 89.13342 192.24 
L 87.977713 192.24 
z
" style="fill:#1f77b4;opacity:0.35;"/>
   </g>
   <g id="patch_9">
    <path clip-path="url(#p97de88074b)" d="M 89.422346 192.24 
L 90.578053 192.24 
L 90.578053 192.24 
L 89.422346 192.24 
z
" style="fill:#1f77b4;opacity:0.35;"/>
   </g>
   <g id="patch_10">
    <path clip-path="url(#p97de88074b)" d="M 90.86698 192.24 
L 92.022687 192.24 
L 92.022687 192.24 
L 90.86698 192.24 
z
" style="fill:#1f77b4;opacity:0.35;"/>
   </g>
   <g id="patch_11">
    <path clip-path="url(#p97de88074b)" d="M 92.311613 192.24 
L 93.46732 192.24 
L 93.46732 192.24 
L 92.311613 192.24 
z
" style="fill:#1f77b4;opacity:0.35;"/>
   </g>
   <g id="patch_12">
    <path clip-path="url(#p97de88074b)" d="M 93.756247 192.24 
L 94.911954 192.24 
L 94.911954 192.24 
L 93.756247 192.24 
z
" style="fill:#1f77b4;opacity:0.35;"/>
   </g>
   <g id="patch_13">
    <path clip-path="url(#p97de88074b)" d="M 95.20088 192.24 
L 96.356587 192.24 
L 96.356587 192.24 
L 95.20088 192.24 
z
" style="fill:#1f77b4;opacity:0.35;"/>
   </g>
   <g id="patch_14">
    <path clip-path="url(#p97de88074b)" d="M 96.645514 192.24 
L 97.801221 192.24 
L 97.801221 192.24 
L 96.645514 192.24 
z
" style="fill:#1f77b4;opacity:0.35;"/>
   </g>
   <g id="patch_15">
    <path clip-path="url(#p97de88074b)" d="M 98.090147 192.24 
L 99.245854 192.24 
L 99.245854 192.24 
L 98.090147 192.24 
z
" style="fill:#1f77b4;opacity:0.35;"/>
   </g>
   <g id="patch_16">
    <path clip-path="url(#p97de88074b)" d="M 99.534781 192.24 
L 100.690487 192.24 
L 100.690487 181.773435 
L 99.534781 181.773435 
z
" style="fill:#1f77b4;opacity:0.35;"/>
   </g>
   <g id="patch_17">
    <path clip-path="url(#p97de88074b)" d="M 100.979414 192.24 
L 102.135121 192.24 
L 102.135121 192.24 
L 100.979414 192.24 
z
" style="fill:#1f77b4;opacity:0.35;"/>
   </g>
   <g id="patch_18">
    <path clip-path="url(#p97de88074b)" d="M 102.424048 192.24 
L 103.579754 192.24 
L 103.579754 192.24 
L 102.424048 192.24 
z
" style="fill:#1f77b4;opacity:0.35;"/>
   </g>
   <g id="patch_19">
    <path clip-path="url(#p97de88074b)" d="M 103.868681 192.24 
L 105.024388 192.24 
L 105.024388 192.24 
L 103.868681 192.24 
z
" style="fill:#1f77b4;opacity:0.35;"/>
   </g>
   <g id="patch_20">
    <path clip-path="url(#p97de88074b)" d="M 105.313315 192.24 
L 106.469021 192.24 
L 106.469021 192.24 
L 105.313315 192.24 
z
" style="fill:#1f77b4;opacity:0.35;"/>
   </g>
   <g id="patch_21">
    <path clip-path="url(#p97de88074b)" d="M 106.757948 192.24 
L 107.913655 192.24 
L 107.913655 192.24 
L 106.757948 192.24 
z
" style="fill:#1f77b4;opacity:0.35;"/>
   </g>
   <g id="patch_22">
    <path clip-path="url(#p97de88074b)" d="M 108.202582 192.24 
L 109.358288 192.24 
L 109.358288 192.24 
L 108.202582 192.24 
z
" style="fill:#1f77b4;opacity:0.35;"/>
   </g>
   <g id="patch_23">
    <path clip-path="url(#p97de88074b)" d="M 109.647215 192.24 
L 110.802922 192.24 
L 110.802922 192.24 
L 109.647215 192.24 
z
" style="fill:#1f77b4;opacity:0.35;"/>
   </g>
   <g id="patch_24">
    <path clip-path="url(#p97de88074b)" d="M 111.091849 192.24 
L 112.247555 192.24 
L 112.247555 192.24 
L 111.091849 192.24 
z
" style="fill:#1f77b4;opacity:0.35;"/>
   </g>
   <g id="patch_25">
    <path clip-path="url(#p97de88074b)" d="M 112.536482 192.24 
L 113.692189 192.24 
L 113.692189 181.773435 
L 112.536482 181.773435 
z
" style="fill:#1f77b4;opacity:0.35;"/>
   </g>
   <g id="patch_26">
    <path clip-path="url(#p97de88074b)" d="M 113.981115 192.24 
L 115.136822 192.24 
L 115.136822 192.24 
L 113.981115 192.24 
z
" style="fill:#1f77b4;opacity:0.35;"/>
   </g>
   <g id="patch_27">
    <path clip-path="url(#p97de88074b)" d="M 115.425749 192.24 
L 116.581456 192.24 
L 116.581456 192.24 
L 115.425749 192.24 
z
" style="fill:#1f77b4;opacity:0.35;"/>
   </g>
   <g id="patch_28">
    <path clip-path="url(#p97de88074b)" d="M 116.870382 192.24 
L 118.026089 192.24 
L 118.026089 192.24 
L 116.870382 192.24 
z
" style="fill:#1f77b4;opacity:0.35;"/>
   </g>
   <g id="patch_29">
    <path clip-path="url(#p97de88074b)" d="M 118.315016 192.24 
L 119.470723 192.24 
L 119.470723 192.24 
L 118.315016 192.24 
z
" style="fill:#1f77b4;opacity:0.35;"/>
   </g>
   <g id="patch_30">
    <path clip-path="url(#p97de88074b)" d="M 119.759649 192.24 
L 120.915356 192.24 
L 120.915356 192.24 
L 119.759649 192.24 
z
" style="fill:#1f77b4;opacity:0.35;"/>
   </g>
   <g id="patch_31">
    <path clip-path="url(#p97de88074b)" d="M 121.204283 192.24 
L 122.35999 192.24 
L 122.35999 192.24 
L 121.204283 192.24 
z
" style="fill:#1f77b4;opacity:0.35;"/>
   </g>
   <g id="patch_32">
    <path clip-path="url(#p97de88074b)" d="M 122.648916 192.24 
L 123.804623 192.24 
L 123.804623 192.24 
L 122.648916 192.24 
z
" style="fill:#1f77b4;opacity:0.35;"/>
   </g>
   <g id="patch_33">
    <path clip-path="url(#p97de88074b)" d="M 124.09355 192.24 
L 125.249257 192.24 
L 125.249257 192.24 
L 124.09355 192.24 
z
" style="fill:#1f77b4;opacity:0.35;"/>
   </g>
   <g id="patch_34">
    <path clip-path="url(#p97de88074b)" d="M 125.538183 192.24 
L 126.69389 192.24 
L 126.69389 192.24 
L 125.538183 192.24 
z
" style="fill:#1f77b4;opacity:0.35;"/>
   </g>
   <g id="patch_35">
    <path clip-path="url(#p97de88074b)" d="M 126.982817 192.24 
L 128.138524 192.24 
L 128.138524 192.24 
L 126.982817 192.24 
z
" style="fill:#1f77b4;opacity:0.35;"/>
   </g>
   <g id="patch_36">
    <path clip-path="url(#p97de88074b)" d="M 128.42745 192.24 
L 129.583157 192.24 
L 129.583157 192.24 
L 128.42745 192.24 
z
" style="fill:#1f77b4;opacity:0.35;"/>
   </g>
   <g id="patch_37">
    <path clip-path="url(#p97de88074b)" d="M 129.872084 192.24 
L 131.027791 192.24 
L 131.027791 192.24 
L 129.872084 192.24 
z
" style="fill:#1f77b4;opacity:0.35;"/>
   </g>
   <g id="patch_38">
    <path clip-path="url(#p97de88074b)" d="M 131.316717 192.24 
L 132.472424 192.24 
L 132.472424 181.773435 
L 131.316717 181.773435 
z
" style="fill:#1f77b4;opacity:0.35;"/>
   </g>
   <g id="patch_39">
    <path clip-path="url(#p97de88074b)" d="M 132.761351 192.24 
L 133.917057 192.24 
L 133.917057 192.24 
L 132.761351 192.24 
z
" style="fill:#1f77b4;opacity:0.35;"/>
   </g>
   <g id="patch_40">
    <path clip-path="url(#p97de88074b)" d="M 134.205984 192.24 
L 135.361691 192.24 
L 135.361691 192.24 
L 134.205984 192.24 
z
" style="fill:#1f77b4;opacity:0.35;"/>
   </g>
   <g id="patch_41">
    <path clip-path="url(#p97de88074b)" d="M 135.650618 192.24 
L 136.806324 192.24 
L 136.806324 192.24 
L 135.650618 192.24 
z
" style="fill:#1f77b4;opacity:0.35;"/>
   </g>
   <g id="patch_42">
    <path clip-path="url(#p97de88074b)" d="M 137.095251 192.24 
L 138.250958 192.24 
L 138.250958 192.24 
L 137.095251 192.24 
z
" style="fill:#1f77b4;opacity:0.35;"/>
   </g>
   <g id="patch_43">
    <path clip-path="url(#p97de88074b)" d="M 138.539885 192.24 
L 139.695591 192.24 
L 139.695591 192.24 
L 138.539885 192.24 
z
" style="fill:#1f77b4;opacity:0.35;"/>
   </g>
   <g id="patch_44">
    <path clip-path="url(#p97de88074b)" d="M 139.984518 192.24 
L 141.140225 192.24 
L 141.140225 181.773435 
L 139.984518 181.773435 
z
" style="fill:#1f77b4;opacity:0.35;"/>
   </g>
   <g id="patch_45">
    <path clip-path="url(#p97de88074b)" d="M 141.429152 192.24 
L 142.584858 192.24 
L 142.584858 192.24 
L 141.429152 192.24 
z
" style="fill:#1f77b4;opacity:0.35;"/>
   </g>
   <g id="patch_46">
    <path clip-path="url(#p97de88074b)" d="M 142.873785 192.24 
L 144.029492 192.24 
L 144.029492 192.24 
L 142.873785 192.24 
z
" style="fill:#1f77b4;opacity:0.35;"/>
   </g>
   <g id="patch_47">
    <path clip-path="url(#p97de88074b)" d="M 144.318419 192.24 
L 145.474125 192.24 
L 145.474125 192.24 
L 144.318419 192.24 
z
" style="fill:#1f77b4;opacity:0.35;"/>
   </g>
   <g id="patch_48">
    <path clip-path="url(#p97de88074b)" d="M 145.763052 192.24 
L 146.918759 192.24 
L 146.918759 192.24 
L 145.763052 192.24 
z
" style="fill:#1f77b4;opacity:0.35;"/>
   </g>
   <g id="patch_49">
    <path clip-path="url(#p97de88074b)" d="M 147.207685 192.24 
L 148.363392 192.24 
L 148.363392 192.24 
L 147.207685 192.24 
z
" style="fill:#1f77b4;opacity:0.35;"/>
   </g>
   <g id="patch_50">
    <path clip-path="url(#p97de88074b)" d="M 148.652319 192.24 
L 149.808026 192.24 
L 149.808026 192.24 
L 148.652319 192.24 
z
" style="fill:#1f77b4;opacity:0.35;"/>
   </g>
   <g id="patch_51">
    <path clip-path="url(#p97de88074b)" d="M 150.096952 192.24 
L 151.252659 192.24 
L 151.252659 181.773435 
L 150.096952 181.773435 
z
" style="fill:#1f77b4;opacity:0.35;"/>
   </g>
   <g id="patch_52">
    <path clip-path="url(#p97de88074b)" d="M 151.541586 192.24 
L 152.697293 192.24 
L 152.697293 192.24 
L 151.541586 192.24 
z
" style="fill:#1f77b4;opacity:0.35;"/>
   </g>
   <g id="patch_53">
    <path clip-path="url(#p97de88074b)" d="M 152.986219 192.24 
L 154.141926 192.24 
L 154.141926 192.24 
L 152.986219 192.24 
z
" style="fill:#1f77b4;opacity:0.35;"/>
   </g>
   <g id="patch_54">
    <path clip-path="url(#p97de88074b)" d="M 154.430853 192.24 
L 155.58656 192.24 
L 155.58656 192.24 
L 154.430853 192.24 
z
" style="fill:#1f77b4;opacity:0.35;"/>
   </g>
   <g id="patch_55">
    <path clip-path="url(#p97de88074b)" d="M 155.875486 192.24 
L 157.031193 192.24 
L 157.031193 192.24 
L 155.875486 192.24 
z
" style="fill:#1f77b4;opacity:0.35;"/>
   </g>
   <g id="patch_56">
    <path clip-path="url(#p97de88074b)" d="M 157.32012 192.24 
L 158.475827 192.24 
L 158.475827 192.24 
L 157.32012 192.24 
z
" style="fill:#1f77b4;opacity:0.35;"/>
   </g>
   <g id="patch_57">
    <path clip-path="url(#p97de88074b)" d="M 158.764753 192.24 
L 159.92046 192.24 
L 159.92046 192.24 
L 158.764753 192.24 
z
" style="fill:#1f77b4;opacity:0.35;"/>
   </g>
   <g id="patch_58">
    <path clip-path="url(#p97de88074b)" d="M 160.209387 192.24 
L 161.365094 192.24 
L 161.365094 192.24 
L 160.209387 192.24 
z
" style="fill:#1f77b4;opacity:0.35;"/>
   </g>
   <g id="patch_59">
    <path clip-path="url(#p97de88074b)" d="M 161.65402 192.24 
L 162.809727 192.24 
L 162.809727 192.24 
L 161.65402 192.24 
z
" style="fill:#1f77b4;opacity:0.35;"/>
   </g>
   <g id="patch_60">
    <path clip-path="url(#p97de88074b)" d="M 163.098654 192.24 
L 164.254361 192.24 
L 164.254361 192.24 
L 163.098654 192.24 
z
" style="fill:#1f77b4;opacity:0.35;"/>
   </g>
   <g id="patch_61">
    <path clip-path="url(#p97de88074b)" d="M 164.543287 192.24 
L 165.698994 192.24 
L 165.698994 192.24 
L 164.543287 192.24 
z
" style="fill:#1f77b4;opacity:0.35;"/>
   </g>
   <g id="patch_62">
    <path clip-path="url(#p97de88074b)" d="M 165.987921 192.24 
L 167.143627 192.24 
L 167.143627 192.24 
L 165.987921 192.24 
z
" style="fill:#1f77b4;opacity:0.35;"/>
   </g>
   <g id="patch_63">
    <path clip-path="url(#p97de88074b)" d="M 167.432554 192.24 
L 168.588261 192.24 
L 168.588261 192.24 
L 167.432554 192.24 
z
" style="fill:#1f77b4;opacity:0.35;"/>
   </g>
   <g id="patch_64">
    <path clip-path="url(#p97de88074b)" d="M 168.877188 192.24 
L 170.032894 192.24 
L 170.032894 192.24 
L 168.877188 192.24 
z
" style="fill:#1f77b4;opacity:0.35;"/>
   </g>
   <g id="patch_65">
    <path clip-path="url(#p97de88074b)" d="M 170.321821 192.24 
L 171.477528 192.24 
L 171.477528 192.24 
L 170.321821 192.24 
z
" style="fill:#1f77b4;opacity:0.35;"/>
   </g>
   <g id="patch_66">
    <path clip-path="url(#p97de88074b)" d="M 171.766455 192.24 
L 172.922161 192.24 
L 172.922161 192.24 
L 171.766455 192.24 
z
" style="fill:#1f77b4;opacity:0.35;"/>
   </g>
   <g id="patch_67">
    <path clip-path="url(#p97de88074b)" d="M 173.211088 192.24 
L 174.366795 192.24 
L 174.366795 192.24 
L 173.211088 192.24 
z
" style="fill:#1f77b4;opacity:0.35;"/>
   </g>
   <g id="patch_68">
    <path clip-path="url(#p97de88074b)" d="M 174.655722 192.24 
L 175.811428 192.24 
L 175.811428 192.24 
L 174.655722 192.24 
z
" style="fill:#1f77b4;opacity:0.35;"/>
   </g>
   <g id="patch_69">
    <path clip-path="url(#p97de88074b)" d="M 176.100355 192.24 
L 177.256062 192.24 
L 177.256062 192.24 
L 176.100355 192.24 
z
" style="fill:#1f77b4;opacity:0.35;"/>
   </g>
   <g id="patch_70">
    <path clip-path="url(#p97de88074b)" d="M 177.544989 192.24 
L 178.700695 192.24 
L 178.700695 192.24 
L 177.544989 192.24 
z
" style="fill:#1f77b4;opacity:0.35;"/>
   </g>
   <g id="patch_71">
    <path clip-path="url(#p97de88074b)" d="M 178.989622 192.24 
L 180.145329 192.24 
L 180.145329 192.24 
L 178.989622 192.24 
z
" style="fill:#1f77b4;opacity:0.35;"/>
   </g>
   <g id="patch_72">
    <path clip-path="url(#p97de88074b)" d="M 180.434255 192.24 
L 181.589962 192.24 
L 181.589962 192.24 
L 180.434255 192.24 
z
" style="fill:#1f77b4;opacity:0.35;"/>
   </g>
   <g id="patch_73">
    <path clip-path="url(#p97de88074b)" d="M 181.878889 192.24 
L 183.034596 192.24 
L 183.034596 192.24 
L 181.878889 192.24 
z
" style="fill:#1f77b4;opacity:0.35;"/>
   </g>
   <g id="patch_74">
    <path clip-path="url(#p97de88074b)" d="M 183.323522 192.24 
L 184.479229 192.24 
L 184.479229 192.24 
L 183.323522 192.24 
z
" style="fill:#1f77b4;opacity:0.35;"/>
   </g>
   <g id="patch_75">
    <path clip-path="url(#p97de88074b)" d="M 184.768156 192.24 
L 185.923863 192.24 
L 185.923863 192.24 
L 184.768156 192.24 
z
" style="fill:#1f77b4;opacity:0.35;"/>
   </g>
   <g id="patch_76">
    <path clip-path="url(#p97de88074b)" d="M 186.212789 192.24 
L 187.368496 192.24 
L 187.368496 192.24 
L 186.212789 192.24 
z
" style="fill:#1f77b4;opacity:0.35;"/>
   </g>
   <g id="patch_77">
    <path clip-path="url(#p97de88074b)" d="M 187.657423 192.24 
L 188.81313 192.24 
L 188.81313 192.24 
L 187.657423 192.24 
z
" style="fill:#1f77b4;opacity:0.35;"/>
   </g>
   <g id="patch_78">
    <path clip-path="url(#p97de88074b)" d="M 189.102056 192.24 
L 190.257763 192.24 
L 190.257763 181.773435 
L 189.102056 181.773435 
z
" style="fill:#1f77b4;opacity:0.35;"/>
   </g>
   <g id="patch_79">
    <path clip-path="url(#p97de88074b)" d="M 190.54669 192.24 
L 191.702397 192.24 
L 191.702397 192.24 
L 190.54669 192.24 
z
" style="fill:#1f77b4;opacity:0.35;"/>
   </g>
   <g id="patch_80">
    <path clip-path="url(#p97de88074b)" d="M 191.991323 192.24 
L 193.14703 192.24 
L 193.14703 192.24 
L 191.991323 192.24 
z
" style="fill:#1f77b4;opacity:0.35;"/>
   </g>
   <g id="patch_81">
    <path clip-path="url(#p97de88074b)" d="M 193.435957 192.24 
L 194.591664 192.24 
L 194.591664 192.24 
L 193.435957 192.24 
z
" style="fill:#1f77b4;opacity:0.35;"/>
   </g>
   <g id="patch_82">
    <path clip-path="url(#p97de88074b)" d="M 194.88059 192.24 
L 196.036297 192.24 
L 196.036297 192.24 
L 194.88059 192.24 
z
" style="fill:#1f77b4;opacity:0.35;"/>
   </g>
   <g id="patch_83">
    <path clip-path="url(#p97de88074b)" d="M 196.325224 192.24 
L 197.480931 192.24 
L 197.480931 192.24 
L 196.325224 192.24 
z
" style="fill:#1f77b4;opacity:0.35;"/>
   </g>
   <g id="patch_84">
    <path clip-path="url(#p97de88074b)" d="M 197.769857 192.24 
L 198.925564 192.24 
L 198.925564 192.24 
L 197.769857 192.24 
z
" style="fill:#1f77b4;opacity:0.35;"/>
   </g>
   <g id="patch_85">
    <path clip-path="url(#p97de88074b)" d="M 199.214491 192.24 
L 200.370197 192.24 
L 200.370197 192.24 
L 199.214491 192.24 
z
" style="fill:#1f77b4;opacity:0.35;"/>
   </g>
   <g id="patch_86">
    <path clip-path="url(#p97de88074b)" d="M 200.659124 192.24 
L 201.814831 192.24 
L 201.814831 192.24 
L 200.659124 192.24 
z
" style="fill:#1f77b4;opacity:0.35;"/>
   </g>
   <g id="patch_87">
    <path clip-path="url(#p97de88074b)" d="M 202.103758 192.24 
L 203.259464 192.24 
L 203.259464 192.24 
L 202.103758 192.24 
z
" style="fill:#1f77b4;opacity:0.35;"/>
   </g>
   <g id="patch_88">
    <path clip-path="url(#p97de88074b)" d="M 203.548391 192.24 
L 204.704098 192.24 
L 204.704098 192.24 
L 203.548391 192.24 
z
" style="fill:#1f77b4;opacity:0.35;"/>
   </g>
   <g id="patch_89">
    <path clip-path="url(#p97de88074b)" d="M 204.993025 192.24 
L 206.148731 192.24 
L 206.148731 192.24 
L 204.993025 192.24 
z
" style="fill:#1f77b4;opacity:0.35;"/>
   </g>
   <g id="patch_90">
    <path clip-path="url(#p97de88074b)" d="M 206.437658 192.24 
L 207.593365 192.24 
L 207.593365 192.24 
L 206.437658 192.24 
z
" style="fill:#1f77b4;opacity:0.35;"/>
   </g>
   <g id="patch_91">
    <path clip-path="url(#p97de88074b)" d="M 207.882292 192.24 
L 209.037998 192.24 
L 209.037998 192.24 
L 207.882292 192.24 
z
" style="fill:#1f77b4;opacity:0.35;"/>
   </g>
   <g id="patch_92">
    <path clip-path="url(#p97de88074b)" d="M 209.326925 192.24 
L 210.482632 192.24 
L 210.482632 192.24 
L 209.326925 192.24 
z
" style="fill:#1f77b4;opacity:0.35;"/>
   </g>
   <g id="patch_93">
    <path clip-path="url(#p97de88074b)" d="M 210.771559 192.24 
L 211.927265 192.24 
L 211.927265 192.24 
L 210.771559 192.24 
z
" style="fill:#1f77b4;opacity:0.35;"/>
   </g>
   <g id="patch_94">
    <path clip-path="url(#p97de88074b)" d="M 212.216192 192.24 
L 213.371899 192.24 
L 213.371899 192.24 
L 212.216192 192.24 
z
" style="fill:#1f77b4;opacity:0.35;"/>
   </g>
   <g id="patch_95">
    <path clip-path="url(#p97de88074b)" d="M 213.660826 192.24 
L 214.816532 192.24 
L 214.816532 192.24 
L 213.660826 192.24 
z
" style="fill:#1f77b4;opacity:0.35;"/>
   </g>
   <g id="patch_96">
    <path clip-path="url(#p97de88074b)" d="M 215.105459 192.24 
L 216.261166 192.24 
L 216.261166 192.24 
L 215.105459 192.24 
z
" style="fill:#1f77b4;opacity:0.35;"/>
   </g>
   <g id="patch_97">
    <path clip-path="url(#p97de88074b)" d="M 216.550092 192.24 
L 217.705799 192.24 
L 217.705799 192.24 
L 216.550092 192.24 
z
" style="fill:#1f77b4;opacity:0.35;"/>
   </g>
   <g id="patch_98">
    <path clip-path="url(#p97de88074b)" d="M 217.994726 192.24 
L 219.150433 192.24 
L 219.150433 192.24 
L 217.994726 192.24 
z
" style="fill:#1f77b4;opacity:0.35;"/>
   </g>
   <g id="patch_99">
    <path clip-path="url(#p97de88074b)" d="M 219.439359 192.24 
L 220.595066 192.24 
L 220.595066 192.24 
L 219.439359 192.24 
z
" style="fill:#1f77b4;opacity:0.35;"/>
   </g>
   <g id="patch_100">
    <path clip-path="url(#p97de88074b)" d="M 220.883993 192.24 
L 222.0397 192.24 
L 222.0397 192.24 
L 220.883993 192.24 
z
" style="fill:#1f77b4;opacity:0.35;"/>
   </g>
   <g id="patch_101">
    <path clip-path="url(#p97de88074b)" d="M 222.328626 192.24 
L 223.484333 192.24 
L 223.484333 192.24 
L 222.328626 192.24 
z
" style="fill:#1f77b4;opacity:0.35;"/>
   </g>
   <g id="patch_102">
    <path clip-path="url(#p97de88074b)" d="M 223.77326 192.24 
L 224.928967 192.24 
L 224.928967 192.24 
L 223.77326 192.24 
z
" style="fill:#1f77b4;opacity:0.35;"/>
   </g>
   <g id="patch_103">
    <path clip-path="url(#p97de88074b)" d="M 225.217893 192.24 
L 226.3736 192.24 
L 226.3736 192.24 
L 225.217893 192.24 
z
" style="fill:#1f77b4;opacity:0.35;"/>
   </g>
   <g id="patch_104">
    <path clip-path="url(#p97de88074b)" d="M 226.662527 192.24 
L 227.818234 192.24 
L 227.818234 192.24 
L 226.662527 192.24 
z
" style="fill:#1f77b4;opacity:0.35;"/>
   </g>
   <g id="patch_105">
    <path clip-path="url(#p97de88074b)" d="M 228.10716 192.24 
L 229.262867 192.24 
L 229.262867 192.24 
L 228.10716 192.24 
z
" style="fill:#1f77b4;opacity:0.35;"/>
   </g>
   <g id="patch_106">
    <path clip-path="url(#p97de88074b)" d="M 229.551794 192.24 
L 230.707501 192.24 
L 230.707501 192.24 
L 229.551794 192.24 
z
" style="fill:#1f77b4;opacity:0.35;"/>
   </g>
   <g id="patch_107">
    <path clip-path="url(#p97de88074b)" d="M 230.996427 192.24 
L 232.152134 192.24 
L 232.152134 192.24 
L 230.996427 192.24 
z
" style="fill:#1f77b4;opacity:0.35;"/>
   </g>
   <g id="patch_108">
    <path clip-path="url(#p97de88074b)" d="M 232.441061 192.24 
L 233.596768 192.24 
L 233.596768 192.24 
L 232.441061 192.24 
z
" style="fill:#1f77b4;opacity:0.35;"/>
   </g>
   <g id="patch_109">
    <path clip-path="url(#p97de88074b)" d="M 233.885694 192.24 
L 235.041401 192.24 
L 235.041401 192.24 
L 233.885694 192.24 
z
" style="fill:#1f77b4;opacity:0.35;"/>
   </g>
   <g id="patch_110">
    <path clip-path="url(#p97de88074b)" d="M 235.330328 192.24 
L 236.486034 192.24 
L 236.486034 192.24 
L 235.330328 192.24 
z
" style="fill:#1f77b4;opacity:0.35;"/>
   </g>
   <g id="patch_111">
    <path clip-path="url(#p97de88074b)" d="M 236.774961 192.24 
L 237.930668 192.24 
L 237.930668 192.24 
L 236.774961 192.24 
z
" style="fill:#1f77b4;opacity:0.35;"/>
   </g>
   <g id="patch_112">
    <path clip-path="url(#p97de88074b)" d="M 238.219595 192.24 
L 239.375301 192.24 
L 239.375301 192.24 
L 238.219595 192.24 
z
" style="fill:#1f77b4;opacity:0.35;"/>
   </g>
   <g id="patch_113">
    <path clip-path="url(#p97de88074b)" d="M 239.664228 192.24 
L 240.819935 192.24 
L 240.819935 181.773435 
L 239.664228 181.773435 
z
" style="fill:#1f77b4;opacity:0.35;"/>
   </g>
   <g id="patch_114">
    <path clip-path="url(#p97de88074b)" d="M 241.108862 192.24 
L 242.264568 192.24 
L 242.264568 192.24 
L 241.108862 192.24 
z
" style="fill:#1f77b4;opacity:0.35;"/>
   </g>
   <g id="patch_115">
    <path clip-path="url(#p97de88074b)" d="M 242.553495 192.24 
L 243.709202 192.24 
L 243.709202 192.24 
L 242.553495 192.24 
z
" style="fill:#1f77b4;opacity:0.35;"/>
   </g>
   <g id="patch_116">
    <path clip-path="url(#p97de88074b)" d="M 243.998129 192.24 
L 245.153835 192.24 
L 245.153835 192.24 
L 243.998129 192.24 
z
" style="fill:#1f77b4;opacity:0.35;"/>
   </g>
   <g id="patch_117">
    <path clip-path="url(#p97de88074b)" d="M 245.442762 192.24 
L 246.598469 192.24 
L 246.598469 192.24 
L 245.442762 192.24 
z
" style="fill:#1f77b4;opacity:0.35;"/>
   </g>
   <g id="patch_118">
    <path clip-path="url(#p97de88074b)" d="M 246.887396 192.24 
L 248.043102 192.24 
L 248.043102 192.24 
L 246.887396 192.24 
z
" style="fill:#1f77b4;opacity:0.35;"/>
   </g>
   <g id="patch_119">
    <path clip-path="url(#p97de88074b)" d="M 248.332029 192.24 
L 249.487736 192.24 
L 249.487736 192.24 
L 248.332029 192.24 
z
" style="fill:#1f77b4;opacity:0.35;"/>
   </g>
   <g id="patch_120">
    <path clip-path="url(#p97de88074b)" d="M 249.776662 192.24 
L 250.932369 192.24 
L 250.932369 192.24 
L 249.776662 192.24 
z
" style="fill:#1f77b4;opacity:0.35;"/>
   </g>
   <g id="patch_121">
    <path clip-path="url(#p97de88074b)" d="M 251.221296 192.24 
L 252.377003 192.24 
L 252.377003 192.24 
L 251.221296 192.24 
z
" style="fill:#1f77b4;opacity:0.35;"/>
   </g>
   <g id="patch_122">
    <path clip-path="url(#p97de88074b)" d="M 252.665929 192.24 
L 253.821636 192.24 
L 253.821636 192.24 
L 252.665929 192.24 
z
" style="fill:#1f77b4;opacity:0.35;"/>
   </g>
   <g id="patch_123">
    <path clip-path="url(#p97de88074b)" d="M 254.110563 192.24 
L 255.26627 192.24 
L 255.26627 192.24 
L 254.110563 192.24 
z
" style="fill:#1f77b4;opacity:0.35;"/>
   </g>
   <g id="patch_124">
    <path clip-path="url(#p97de88074b)" d="M 255.555196 192.24 
L 256.710903 192.24 
L 256.710903 192.24 
L 255.555196 192.24 
z
" style="fill:#1f77b4;opacity:0.35;"/>
   </g>
   <g id="patch_125">
    <path clip-path="url(#p97de88074b)" d="M 256.99983 192.24 
L 258.155537 192.24 
L 258.155537 192.24 
L 256.99983 192.24 
z
" style="fill:#1f77b4;opacity:0.35;"/>
   </g>
   <g id="patch_126">
    <path clip-path="url(#p97de88074b)" d="M 258.444463 192.24 
L 259.60017 192.24 
L 259.60017 192.24 
L 258.444463 192.24 
z
" style="fill:#1f77b4;opacity:0.35;"/>
   </g>
   <g id="patch_127">
    <path clip-path="url(#p97de88074b)" d="M 259.889097 192.24 
L 261.044804 192.24 
L 261.044804 181.773435 
L 259.889097 181.773435 
z
" style="fill:#1f77b4;opacity:0.35;"/>
   </g>
   <g id="patch_128">
    <path clip-path="url(#p97de88074b)" d="M 261.33373 192.24 
L 262.489437 192.24 
L 262.489437 192.24 
L 261.33373 192.24 
z
" style="fill:#1f77b4;opacity:0.35;"/>
   </g>
   <g id="patch_129">
    <path clip-path="url(#p97de88074b)" d="M 262.778364 192.24 
L 263.934071 192.24 
L 263.934071 192.24 
L 262.778364 192.24 
z
" style="fill:#1f77b4;opacity:0.35;"/>
   </g>
   <g id="patch_130">
    <path clip-path="url(#p97de88074b)" d="M 264.222997 192.24 
L 265.378704 192.24 
L 265.378704 192.24 
L 264.222997 192.24 
z
" style="fill:#1f77b4;opacity:0.35;"/>
   </g>
   <g id="patch_131">
    <path clip-path="url(#p97de88074b)" d="M 265.667631 192.24 
L 266.823338 192.24 
L 266.823338 192.24 
L 265.667631 192.24 
z
" style="fill:#1f77b4;opacity:0.35;"/>
   </g>
   <g id="patch_132">
    <path clip-path="url(#p97de88074b)" d="M 267.112264 192.24 
L 268.267971 192.24 
L 268.267971 192.24 
L 267.112264 192.24 
z
" style="fill:#1f77b4;opacity:0.35;"/>
   </g>
   <g id="patch_133">
    <path clip-path="url(#p97de88074b)" d="M 268.556898 192.24 
L 269.712604 192.24 
L 269.712604 160.840305 
L 268.556898 160.840305 
z
" style="fill:#1f77b4;opacity:0.35;"/>
   </g>
   <g id="patch_134">
    <path clip-path="url(#p97de88074b)" d="M 270.001531 192.24 
L 271.157238 192.24 
L 271.157238 192.24 
L 270.001531 192.24 
z
" style="fill:#1f77b4;opacity:0.35;"/>
   </g>
   <g id="patch_135">
    <path clip-path="url(#p97de88074b)" d="M 271.446165 192.24 
L 272.601871 192.24 
L 272.601871 181.773435 
L 271.446165 181.773435 
z
" style="fill:#1f77b4;opacity:0.35;"/>
   </g>
   <g id="patch_136">
    <path clip-path="url(#p97de88074b)" d="M 272.890798 192.24 
L 274.046505 192.24 
L 274.046505 192.24 
L 272.890798 192.24 
z
" style="fill:#1f77b4;opacity:0.35;"/>
   </g>
   <g id="patch_137">
    <path clip-path="url(#p97de88074b)" d="M 274.335432 192.24 
L 275.491138 192.24 
L 275.491138 192.24 
L 274.335432 192.24 
z
" style="fill:#1f77b4;opacity:0.35;"/>
   </g>
   <g id="patch_138">
    <path clip-path="url(#p97de88074b)" d="M 275.780065 192.24 
L 276.935772 192.24 
L 276.935772 192.24 
L 275.780065 192.24 
z
" style="fill:#1f77b4;opacity:0.35;"/>
   </g>
   <g id="patch_139">
    <path clip-path="url(#p97de88074b)" d="M 277.224699 192.24 
L 278.380405 192.24 
L 278.380405 192.24 
L 277.224699 192.24 
z
" style="fill:#1f77b4;opacity:0.35;"/>
   </g>
   <g id="patch_140">
    <path clip-path="url(#p97de88074b)" d="M 278.669332 192.24 
L 279.825039 192.24 
L 279.825039 181.773435 
L 278.669332 181.773435 
z
" style="fill:#1f77b4;opacity:0.35;"/>
   </g>
   <g id="patch_141">
    <path clip-path="url(#p97de88074b)" d="M 280.113966 192.24 
L 281.269672 192.24 
L 281.269672 192.24 
L 280.113966 192.24 
z
" style="fill:#1f77b4;opacity:0.35;"/>
   </g>
   <g id="patch_142">
    <path clip-path="url(#p97de88074b)" d="M 281.558599 192.24 
L 282.714306 192.24 
L 282.714306 192.24 
L 281.558599 192.24 
z
" style="fill:#1f77b4;opacity:0.35;"/>
   </g>
   <g id="patch_143">
    <path clip-path="url(#p97de88074b)" d="M 283.003232 192.24 
L 284.158939 192.24 
L 284.158939 192.24 
L 283.003232 192.24 
z
" style="fill:#1f77b4;opacity:0.35;"/>
   </g>
   <g id="patch_144">
    <path clip-path="url(#p97de88074b)" d="M 284.447866 192.24 
L 285.603573 192.24 
L 285.603573 213.17313 
L 284.447866 213.17313 
z
" style="fill:#1f77b4;opacity:0.35;"/>
   </g>
   <g id="patch_145">
    <path clip-path="url(#p97de88074b)" d="M 285.892499 192.24 
L 287.048206 192.24 
L 287.048206 192.24 
L 285.892499 192.24 
z
" style="fill:#1f77b4;opacity:0.35;"/>
   </g>
   <g id="patch_146">
    <path clip-path="url(#p97de88074b)" d="M 287.337133 192.24 
L 288.49284 192.24 
L 288.49284 192.24 
L 287.337133 192.24 
z
" style="fill:#1f77b4;opacity:0.35;"/>
   </g>
   <g id="patch_147">
    <path clip-path="url(#p97de88074b)" d="M 288.781766 192.24 
L 289.937473 192.24 
L 289.937473 192.24 
L 288.781766 192.24 
z
" style="fill:#1f77b4;opacity:0.35;"/>
   </g>
   <g id="patch_148">
    <path clip-path="url(#p97de88074b)" d="M 290.2264 192.24 
L 291.382107 192.24 
L 291.382107 192.24 
L 290.2264 192.24 
z
" style="fill:#1f77b4;opacity:0.35;"/>
   </g>
   <g id="patch_149">
    <path clip-path="url(#p97de88074b)" d="M 291.671033 192.24 
L 292.82674 192.24 
L 292.82674 192.24 
L 291.671033 192.24 
z
" style="fill:#1f77b4;opacity:0.35;"/>
   </g>
   <g id="patch_150">
    <path clip-path="url(#p97de88074b)" d="M 293.115667 192.24 
L 294.271374 192.24 
L 294.271374 181.773435 
L 293.115667 181.773435 
z
" style="fill:#1f77b4;opacity:0.35;"/>
   </g>
   <g id="patch_151">
    <path clip-path="url(#p97de88074b)" d="M 294.5603 192.24 
L 295.716007 192.24 
L 295.716007 192.24 
L 294.5603 192.24 
z
" style="fill:#1f77b4;opacity:0.35;"/>
   </g>
   <g id="patch_152">
    <path clip-path="url(#p97de88074b)" d="M 296.004934 192.24 
L 297.160641 192.24 
L 297.160641 181.773435 
L 296.004934 181.773435 
z
" style="fill:#1f77b4;opacity:0.35;"/>
   </g>
   <g id="patch_153">
    <path clip-path="url(#p97de88074b)" d="M 297.449567 192.24 
L 298.605274 192.24 
L 298.605274 192.24 
L 297.449567 192.24 
z
" style="fill:#1f77b4;opacity:0.35;"/>
   </g>
   <g id="patch_154">
    <path clip-path="url(#p97de88074b)" d="M 298.894201 192.24 
L 300.049908 192.24 
L 300.049908 181.773435 
L 298.894201 181.773435 
z
" style="fill:#1f77b4;opacity:0.35;"/>
   </g>
   <g id="patch_155">
    <path clip-path="url(#p97de88074b)" d="M 300.338834 192.24 
L 301.494541 192.24 
L 301.494541 192.24 
L 300.338834 192.24 
z
" style="fill:#1f77b4;opacity:0.35;"/>
   </g>
   <g id="patch_156">
    <path clip-path="url(#p97de88074b)" d="M 301.783468 192.24 
L 302.939174 192.24 
L 302.939174 181.773435 
L 301.783468 181.773435 
z
" style="fill:#1f77b4;opacity:0.35;"/>
   </g>
   <g id="patch_157">
    <path clip-path="url(#p97de88074b)" d="M 303.228101 192.24 
L 304.383808 192.24 
L 304.383808 192.24 
L 303.228101 192.24 
z
" style="fill:#1f77b4;opacity:0.35;"/>
   </g>
   <g id="patch_158">
    <path clip-path="url(#p97de88074b)" d="M 304.672735 192.24 
L 305.828441 192.24 
L 305.828441 192.24 
L 304.672735 192.24 
z
" style="fill:#1f77b4;opacity:0.35;"/>
   </g>
   <g id="patch_159">
    <path clip-path="url(#p97de88074b)" d="M 306.117368 192.24 
L 307.273075 192.24 
L 307.273075 181.773435 
L 306.117368 181.773435 
z
" style="fill:#1f77b4;opacity:0.35;"/>
   </g>
   <g id="patch_160">
    <path clip-path="url(#p97de88074b)" d="M 307.562002 192.24 
L 308.717708 192.24 
L 308.717708 181.773435 
L 307.562002 181.773435 
z
" style="fill:#1f77b4;opacity:0.35;"/>
   </g>
   <g id="patch_161">
    <path clip-path="url(#p97de88074b)" d="M 309.006635 192.24 
L 310.162342 192.24 
L 310.162342 192.24 
L 309.006635 192.24 
z
" style="fill:#1f77b4;opacity:0.35;"/>
   </g>
   <g id="patch_162">
    <path clip-path="url(#p97de88074b)" d="M 310.451269 192.24 
L 311.606975 192.24 
L 311.606975 192.24 
L 310.451269 192.24 
z
" style="fill:#1f77b4;opacity:0.35;"/>
   </g>
   <g id="patch_163">
    <path clip-path="url(#p97de88074b)" d="M 311.895902 192.24 
L 313.051609 192.24 
L 313.051609 192.24 
L 311.895902 192.24 
z
" style="fill:#1f77b4;opacity:0.35;"/>
   </g>
   <g id="patch_164">
    <path clip-path="url(#p97de88074b)" d="M 313.340536 192.24 
L 314.496242 192.24 
L 314.496242 192.24 
L 313.340536 192.24 
z
" style="fill:#1f77b4;opacity:0.35;"/>
   </g>
   <g id="patch_165">
    <path clip-path="url(#p97de88074b)" d="M 314.785169 192.24 
L 315.940876 192.24 
L 315.940876 192.24 
L 314.785169 192.24 
z
" style="fill:#1f77b4;opacity:0.35;"/>
   </g>
   <g id="patch_166">
    <path clip-path="url(#p97de88074b)" d="M 316.229803 192.24 
L 317.385509 192.24 
L 317.385509 192.24 
L 316.229803 192.24 
z
" style="fill:#1f77b4;opacity:0.35;"/>
   </g>
   <g id="patch_167">
    <path clip-path="url(#p97de88074b)" d="M 317.674436 192.24 
L 318.830143 192.24 
L 318.830143 192.24 
L 317.674436 192.24 
z
" style="fill:#1f77b4;opacity:0.35;"/>
   </g>
   <g id="patch_168">
    <path clip-path="url(#p97de88074b)" d="M 319.119069 192.24 
L 320.274776 192.24 
L 320.274776 192.24 
L 319.119069 192.24 
z
" style="fill:#1f77b4;opacity:0.35;"/>
   </g>
   <g id="patch_169">
    <path clip-path="url(#p97de88074b)" d="M 320.563703 192.24 
L 321.71941 192.24 
L 321.71941 192.24 
L 320.563703 192.24 
z
" style="fill:#1f77b4;opacity:0.35;"/>
   </g>
   <g id="patch_170">
    <path clip-path="url(#p97de88074b)" d="M 322.008336 192.24 
L 323.164043 192.24 
L 323.164043 192.24 
L 322.008336 192.24 
z
" style="fill:#1f77b4;opacity:0.35;"/>
   </g>
   <g id="patch_171">
    <path clip-path="url(#p97de88074b)" d="M 323.45297 192.24 
L 324.608677 192.24 
L 324.608677 192.24 
L 323.45297 192.24 
z
" style="fill:#1f77b4;opacity:0.35;"/>
   </g>
   <g id="patch_172">
    <path clip-path="url(#p97de88074b)" d="M 324.897603 192.24 
L 326.05331 192.24 
L 326.05331 192.24 
L 324.897603 192.24 
z
" style="fill:#1f77b4;opacity:0.35;"/>
   </g>
   <g id="patch_173">
    <path clip-path="url(#p97de88074b)" d="M 326.342237 192.24 
L 327.497944 192.24 
L 327.497944 192.24 
L 326.342237 192.24 
z
" style="fill:#1f77b4;opacity:0.35;"/>
   </g>
   <g id="patch_174">
    <path clip-path="url(#p97de88074b)" d="M 327.78687 192.24 
L 328.942577 192.24 
L 328.942577 192.24 
L 327.78687 192.24 
z
" style="fill:#1f77b4;opacity:0.35;"/>
   </g>
   <g id="patch_175">
    <path clip-path="url(#p97de88074b)" d="M 329.231504 192.24 
L 330.387211 192.24 
L 330.387211 192.24 
L 329.231504 192.24 
z
" style="fill:#1f77b4;opacity:0.35;"/>
   </g>
   <g id="patch_176">
    <path clip-path="url(#p97de88074b)" d="M 330.676137 192.24 
L 331.831844 192.24 
L 331.831844 192.24 
L 330.676137 192.24 
z
" style="fill:#1f77b4;opacity:0.35;"/>
   </g>
   <g id="patch_177">
    <path clip-path="url(#p97de88074b)" d="M 332.120771 192.24 
L 333.276478 192.24 
L 333.276478 181.773435 
L 332.120771 181.773435 
z
" style="fill:#1f77b4;opacity:0.35;"/>
   </g>
   <g id="patch_178">
    <path clip-path="url(#p97de88074b)" d="M 333.565404 192.24 
L 334.721111 192.24 
L 334.721111 192.24 
L 333.565404 192.24 
z
" style="fill:#1f77b4;opacity:0.35;"/>
   </g>
   <g id="patch_179">
    <path clip-path="url(#p97de88074b)" d="M 335.010038 192.24 
L 336.165745 192.24 
L 336.165745 192.24 
L 335.010038 192.24 
z
" style="fill:#1f77b4;opacity:0.35;"/>
   </g>
   <g id="patch_180">
    <path clip-path="url(#p97de88074b)" d="M 336.454671 192.24 
L 337.610378 192.24 
L 337.610378 192.24 
L 336.454671 192.24 
z
" style="fill:#1f77b4;opacity:0.35;"/>
   </g>
   <g id="patch_181">
    <path clip-path="url(#p97de88074b)" d="M 337.899305 192.24 
L 339.055011 192.24 
L 339.055011 181.773435 
L 337.899305 181.773435 
z
" style="fill:#1f77b4;opacity:0.35;"/>
   </g>
   <g id="patch_182">
    <path clip-path="url(#p97de88074b)" d="M 339.343938 192.24 
L 340.499645 192.24 
L 340.499645 192.24 
L 339.343938 192.24 
z
" style="fill:#1f77b4;opacity:0.35;"/>
   </g>
   <g id="patch_183">
    <path clip-path="url(#p97de88074b)" d="M 340.788572 192.24 
L 341.944278 192.24 
L 341.944278 192.24 
L 340.788572 192.24 
z
" style="fill:#1f77b4;opacity:0.35;"/>
   </g>
   <g id="patch_184">
    <path clip-path="url(#p97de88074b)" d="M 342.233205 192.24 
L 343.388912 192.24 
L 343.388912 192.24 
L 342.233205 192.24 
z
" style="fill:#1f77b4;opacity:0.35;"/>
   </g>
   <g id="patch_185">
    <path clip-path="url(#p97de88074b)" d="M 343.677839 192.24 
L 344.833545 192.24 
L 344.833545 192.24 
L 343.677839 192.24 
z
" style="fill:#1f77b4;opacity:0.35;"/>
   </g>
   <g id="patch_186">
    <path clip-path="url(#p97de88074b)" d="M 345.122472 192.24 
L 346.278179 192.24 
L 346.278179 192.24 
L 345.122472 192.24 
z
" style="fill:#1f77b4;opacity:0.35;"/>
   </g>
   <g id="patch_187">
    <path clip-path="url(#p97de88074b)" d="M 346.567106 192.24 
L 347.722812 192.24 
L 347.722812 192.24 
L 346.567106 192.24 
z
" style="fill:#1f77b4;opacity:0.35;"/>
   </g>
   <g id="patch_188">
    <path clip-path="url(#p97de88074b)" d="M 348.011739 192.24 
L 349.167446 192.24 
L 349.167446 192.24 
L 348.011739 192.24 
z
" style="fill:#1f77b4;opacity:0.35;"/>
   </g>
   <g id="patch_189">
    <path clip-path="url(#p97de88074b)" d="M 349.456373 192.24 
L 350.612079 192.24 
L 350.612079 192.24 
L 349.456373 192.24 
z
" style="fill:#1f77b4;opacity:0.35;"/>
   </g>
   <g id="patch_190">
    <path clip-path="url(#p97de88074b)" d="M 350.901006 192.24 
L 352.056713 192.24 
L 352.056713 181.773435 
L 350.901006 181.773435 
z
" style="fill:#1f77b4;opacity:0.35;"/>
   </g>
   <g id="patch_191">
    <path clip-path="url(#p97de88074b)" d="M 352.345639 192.24 
L 353.501346 192.24 
L 353.501346 181.773435 
L 352.345639 181.773435 
z
" style="fill:#1f77b4;opacity:0.35;"/>
   </g>
   <g id="patch_192">
    <path clip-path="url(#p97de88074b)" d="M 353.790273 192.24 
L 354.94598 192.24 
L 354.94598 192.24 
L 353.790273 192.24 
z
" style="fill:#1f77b4;opacity:0.35;"/>
   </g>
   <g id="patch_193">
    <path clip-path="url(#p97de88074b)" d="M 355.234906 192.24 
L 356.390613 192.24 
L 356.390613 192.24 
L 355.234906 192.24 
z
" style="fill:#1f77b4;opacity:0.35;"/>
   </g>
   <g id="patch_194">
    <path clip-path="url(#p97de88074b)" d="M 356.67954 192.24 
L 357.835247 192.24 
L 357.835247 192.24 
L 356.67954 192.24 
z
" style="fill:#1f77b4;opacity:0.35;"/>
   </g>
   <g id="patch_195">
    <path clip-path="url(#p97de88074b)" d="M 358.124173 192.24 
L 359.27988 192.24 
L 359.27988 192.24 
L 358.124173 192.24 
z
" style="fill:#1f77b4;opacity:0.35;"/>
   </g>
   <g id="patch_196">
    <path clip-path="url(#p97de88074b)" d="M 359.568807 192.24 
L 360.724514 192.24 
L 360.724514 192.24 
L 359.568807 192.24 
z
" style="fill:#1f77b4;opacity:0.35;"/>
   </g>
   <g id="patch_197">
    <path clip-path="url(#p97de88074b)" d="M 361.01344 192.24 
L 362.169147 192.24 
L 362.169147 181.773435 
L 361.01344 181.773435 
z
" style="fill:#1f77b4;opacity:0.35;"/>
   </g>
   <g id="patch_198">
    <path clip-path="url(#p97de88074b)" d="M 362.458074 192.24 
L 363.613781 192.24 
L 363.613781 192.24 
L 362.458074 192.24 
z
" style="fill:#1f77b4;opacity:0.35;"/>
   </g>
   <g id="patch_199">
    <path clip-path="url(#p97de88074b)" d="M 363.902707 192.24 
L 365.058414 192.24 
L 365.058414 192.24 
L 363.902707 192.24 
z
" style="fill:#1f77b4;opacity:0.35;"/>
   </g>
   <g id="patch_200">
    <path clip-path="url(#p97de88074b)" d="M 365.347341 192.24 
L 366.503048 192.24 
L 366.503048 192.24 
L 365.347341 192.24 
z
" style="fill:#1f77b4;opacity:0.35;"/>
   </g>
   <g id="patch_201">
    <path clip-path="url(#p97de88074b)" d="M 366.791974 192.24 
L 367.947681 192.24 
L 367.947681 192.24 
L 366.791974 192.24 
z
" style="fill:#1f77b4;opacity:0.35;"/>
   </g>
   <g id="patch_202">
    <path clip-path="url(#p97de88074b)" d="M 368.236608 192.24 
L 369.392315 192.24 
L 369.392315 192.24 
L 368.236608 192.24 
z
" style="fill:#1f77b4;opacity:0.35;"/>
   </g>
   <g id="patch_203">
    <path clip-path="url(#p97de88074b)" d="M 369.681241 192.24 
L 370.836948 192.24 
L 370.836948 192.24 
L 369.681241 192.24 
z
" style="fill:#1f77b4;opacity:0.35;"/>
   </g>
   <g id="patch_204">
    <path clip-path="url(#p97de88074b)" d="M 371.125875 192.24 
L 372.281581 192.24 
L 372.281581 192.24 
L 371.125875 192.24 
z
" style="fill:#1f77b4;opacity:0.35;"/>
   </g>
   <g id="patch_205">
    <path clip-path="url(#p97de88074b)" d="M 372.570508 192.24 
L 373.726215 192.24 
L 373.726215 192.24 
L 372.570508 192.24 
z
" style="fill:#1f77b4;opacity:0.35;"/>
   </g>
   <g id="patch_206">
    <path clip-path="url(#p97de88074b)" d="M 374.015142 192.24 
L 375.170848 192.24 
L 375.170848 192.24 
L 374.015142 192.24 
z
" style="fill:#1f77b4;opacity:0.35;"/>
   </g>
   <g id="patch_207">
    <path clip-path="url(#p97de88074b)" d="M 375.459775 192.24 
L 376.615482 192.24 
L 376.615482 192.24 
L 375.459775 192.24 
z
" style="fill:#1f77b4;opacity:0.35;"/>
   </g>
   <g id="patch_208">
    <path clip-path="url(#p97de88074b)" d="M 376.904409 192.24 
L 378.060115 192.24 
L 378.060115 192.24 
L 376.904409 192.24 
z
" style="fill:#1f77b4;opacity:0.35;"/>
   </g>
   <g id="patch_209">
    <path clip-path="url(#p97de88074b)" d="M 378.349042 192.24 
L 379.504749 192.24 
L 379.504749 192.24 
L 378.349042 192.24 
z
" style="fill:#1f77b4;opacity:0.35;"/>
   </g>
   <g id="patch_210">
    <path clip-path="url(#p97de88074b)" d="M 379.793676 192.24 
L 380.949382 192.24 
L 380.949382 192.24 
L 379.793676 192.24 
z
" style="fill:#1f77b4;opacity:0.35;"/>
   </g>
   <g id="patch_211">
    <path clip-path="url(#p97de88074b)" d="M 381.238309 192.24 
L 382.394016 192.24 
L 382.394016 192.24 
L 381.238309 192.24 
z
" style="fill:#1f77b4;opacity:0.35;"/>
   </g>
   <g id="patch_212">
    <path clip-path="url(#p97de88074b)" d="M 382.682943 192.24 
L 383.838649 192.24 
L 383.838649 181.773435 
L 382.682943 181.773435 
z
" style="fill:#1f77b4;opacity:0.35;"/>
   </g>
   <g id="patch_213">
    <path clip-path="url(#p97de88074b)" d="M 384.127576 192.24 
L 385.283283 192.24 
L 385.283283 181.773435 
L 384.127576 181.773435 
z
" style="fill:#1f77b4;opacity:0.35;"/>
   </g>
   <g id="patch_214">
    <path clip-path="url(#p97de88074b)" d="M 385.572209 192.24 
L 386.727916 192.24 
L 386.727916 192.24 
L 385.572209 192.24 
z
" style="fill:#1f77b4;opacity:0.35;"/>
   </g>
   <g id="patch_215">
    <path clip-path="url(#p97de88074b)" d="M 387.016843 192.24 
L 388.17255 192.24 
L 388.17255 192.24 
L 387.016843 192.24 
z
" style="fill:#1f77b4;opacity:0.35;"/>
   </g>
   <g id="patch_216">
    <path clip-path="url(#p97de88074b)" d="M 388.461476 192.24 
L 389.617183 192.24 
L 389.617183 181.773435 
L 388.461476 181.773435 
z
" style="fill:#1f77b4;opacity:0.35;"/>
   </g>
   <g id="patch_217">
    <path clip-path="url(#p97de88074b)" d="M 389.90611 192.24 
L 391.061817 192.24 
L 391.061817 192.24 
L 389.90611 192.24 
z
" style="fill:#1f77b4;opacity:0.35;"/>
   </g>
   <g id="patch_218">
    <path clip-path="url(#p97de88074b)" d="M 391.350743 192.24 
L 392.50645 192.24 
L 392.50645 192.24 
L 391.350743 192.24 
z
" style="fill:#1f77b4;opacity:0.35;"/>
   </g>
   <g id="patch_219">
    <path clip-path="url(#p97de88074b)" d="M 392.795377 192.24 
L 393.951084 192.24 
L 393.951084 171.30687 
L 392.795377 171.30687 
z
" style="fill:#1f77b4;opacity:0.35;"/>
   </g>
   <g id="patch_220">
    <path clip-path="url(#p97de88074b)" d="M 394.24001 192.24 
L 395.395717 192.24 
L 395.395717 181.773435 
L 394.24001 181.773435 
z
" style="fill:#1f77b4;opacity:0.35;"/>
   </g>
   <g id="patch_221">
    <path clip-path="url(#p97de88074b)" d="M 395.684644 192.24 
L 396.840351 192.24 
L 396.840351 192.24 
L 395.684644 192.24 
z
" style="fill:#1f77b4;opacity:0.35;"/>
   </g>
   <g id="patch_222">
    <path clip-path="url(#p97de88074b)" d="M 397.129277 192.24 
L 398.284984 192.24 
L 398.284984 192.24 
L 397.129277 192.24 
z
" style="fill:#1f77b4;opacity:0.35;"/>
   </g>
   <g id="patch_223">
    <path clip-path="url(#p97de88074b)" d="M 398.573911 192.24 
L 399.729618 192.24 
L 399.729618 192.24 
L 398.573911 192.24 
z
" style="fill:#1f77b4;opacity:0.35;"/>
   </g>
   <g id="patch_224">
    <path clip-path="url(#p97de88074b)" d="M 400.018544 192.24 
L 401.174251 192.24 
L 401.174251 181.773435 
L 400.018544 181.773435 
z
" style="fill:#1f77b4;opacity:0.35;"/>
   </g>
   <g id="patch_225">
    <path clip-path="url(#p97de88074b)" d="M 401.463178 192.24 
L 402.618885 192.24 
L 402.618885 192.24 
L 401.463178 192.24 
z
" style="fill:#1f77b4;opacity:0.35;"/>
   </g>
   <g id="patch_226">
    <path clip-path="url(#p97de88074b)" d="M 402.907811 192.24 
L 404.063518 192.24 
L 404.063518 181.773435 
L 402.907811 181.773435 
z
" style="fill:#1f77b4;opacity:0.35;"/>
   </g>
   <g id="patch_227">
    <path clip-path="url(#p97de88074b)" d="M 404.352445 192.24 
L 405.508151 192.24 
L 405.508151 192.24 
L 404.352445 192.24 
z
" style="fill:#1f77b4;opacity:0.35;"/>
   </g>
   <g id="patch_228">
    <path clip-path="url(#p97de88074b)" d="M 405.797078 192.24 
L 406.952785 192.24 
L 406.952785 192.24 
L 405.797078 192.24 
z
" style="fill:#1f77b4;opacity:0.35;"/>
   </g>
   <g id="patch_229">
    <path clip-path="url(#p97de88074b)" d="M 407.241712 192.24 
L 408.397418 192.24 
L 408.397418 181.773435 
L 407.241712 181.773435 
z
" style="fill:#1f77b4;opacity:0.35;"/>
   </g>
   <g id="patch_230">
    <path clip-path="url(#p97de88074b)" d="M 408.686345 192.24 
L 409.842052 192.24 
L 409.842052 192.24 
L 408.686345 192.24 
z
" style="fill:#1f77b4;opacity:0.35;"/>
   </g>
   <g id="patch_231">
    <path clip-path="url(#p97de88074b)" d="M 410.130979 192.24 
L 411.286685 192.24 
L 411.286685 150.373739 
L 410.130979 150.373739 
z
" style="fill:#1f77b4;opacity:0.35;"/>
   </g>
   <g id="patch_232">
    <path clip-path="url(#p97de88074b)" d="M 411.575612 192.24 
L 412.731319 192.24 
L 412.731319 192.24 
L 411.575612 192.24 
z
" style="fill:#1f77b4;opacity:0.35;"/>
   </g>
   <g id="patch_233">
    <path clip-path="url(#p97de88074b)" d="M 413.020246 192.24 
L 414.175952 192.24 
L 414.175952 192.24 
L 413.020246 192.24 
z
" style="fill:#1f77b4;opacity:0.35;"/>
   </g>
   <g id="patch_234">
    <path clip-path="url(#p97de88074b)" d="M 414.464879 192.24 
L 415.620586 192.24 
L 415.620586 171.30687 
L 414.464879 171.30687 
z
" style="fill:#1f77b4;opacity:0.35;"/>
   </g>
   <g id="patch_235">
    <path clip-path="url(#p97de88074b)" d="M 415.909513 192.24 
L 417.065219 192.24 
L 417.065219 192.24 
L 415.909513 192.24 
z
" style="fill:#1f77b4;opacity:0.35;"/>
   </g>
   <g id="patch_236">
    <path clip-path="url(#p97de88074b)" d="M 417.354146 192.24 
L 418.509853 192.24 
L 418.509853 192.24 
L 417.354146 192.24 
z
" style="fill:#1f77b4;opacity:0.35;"/>
   </g>
   <g id="patch_237">
    <path clip-path="url(#p97de88074b)" d="M 418.798779 192.24 
L 419.954486 192.24 
L 419.954486 160.840305 
L 418.798779 160.840305 
z
" style="fill:#1f77b4;opacity:0.35;"/>
   </g>
   <g id="patch_238">
    <path clip-path="url(#p97de88074b)" d="M 420.243413 192.24 
L 421.39912 192.24 
L 421.39912 181.773435 
L 420.243413 181.773435 
z
" style="fill:#1f77b4;opacity:0.35;"/>
   </g>
   <g id="patch_239">
    <path clip-path="url(#p97de88074b)" d="M 421.688046 192.24 
L 422.843753 192.24 
L 422.843753 139.907174 
L 421.688046 139.907174 
z
" style="fill:#1f77b4;opacity:0.35;"/>
   </g>
   <g id="patch_240">
    <path clip-path="url(#p97de88074b)" d="M 423.13268 192.24 
L 424.288387 192.24 
L 424.288387 160.840305 
L 423.13268 160.840305 
z
" style="fill:#1f77b4;opacity:0.35;"/>
   </g>
   <g id="patch_241">
    <path clip-path="url(#p97de88074b)" d="M 424.577313 192.24 
L 425.73302 192.24 
L 425.73302 150.373739 
L 424.577313 150.373739 
z
" style="fill:#1f77b4;opacity:0.35;"/>
   </g>
   <g id="patch_242">
    <path clip-path="url(#p97de88074b)" d="M 426.021947 192.24 
L 427.177654 192.24 
L 427.177654 129.440609 
L 426.021947 129.440609 
z
" style="fill:#1f77b4;opacity:0.35;"/>
   </g>
   <g id="patch_243">
    <path clip-path="url(#p97de88074b)" d="M 427.46658 192.24 
L 428.622287 192.24 
L 428.622287 77.107783 
L 427.46658 77.107783 
z
" style="fill:#1f77b4;opacity:0.35;"/>
   </g>
   <g id="patch_244">
    <path clip-path="url(#p97de88074b)" d="M 428.911214 192.24 
L 430.066921 192.24 
L 430.066921 87.574349 
L 428.911214 87.574349 
z
" style="fill:#1f77b4;opacity:0.35;"/>
   </g>
   <g id="patch_245">
    <path clip-path="url(#p97de88074b)" d="M 430.355847 192.24 
L 431.511554 192.24 
L 431.511554 129.440609 
L 430.355847 129.440609 
z
" style="fill:#1f77b4;opacity:0.35;"/>
   </g>
   <g id="patch_246">
    <path clip-path="url(#p97de88074b)" d="M 431.800481 192.24 
L 432.956188 192.24 
L 432.956188 171.30687 
L 431.800481 171.30687 
z
" style="fill:#1f77b4;opacity:0.35;"/>
   </g>
   <g id="patch_247">
    <path clip-path="url(#p97de88074b)" d="M 433.245114 192.24 
L 434.400821 192.24 
L 434.400821 35.241523 
L 433.245114 35.241523 
z
" style="fill:#1f77b4;opacity:0.35;"/>
   </g>
   <g id="patch_248">
    <path clip-path="url(#p97de88074b)" d="M 434.689748 192.24 
L 435.845455 192.24 
L 435.845455 24.774958 
L 434.689748 24.774958 
z
" style="fill:#1f77b4;opacity:0.35;"/>
   </g>
   <g id="line2d_21">
    <path clip-path="url(#p97de88074b)" d="M 90.0002 189.249553 
L 92.889467 189.249553 
L 95.778734 192.24 
L 98.668001 192.24 
L 100.112634 190.744776 
L 108.780435 190.744776 
L 110.225068 192.24 
L 111.669702 192.24 
L 113.114335 190.744776 
L 121.782136 190.744776 
L 123.22677 192.24 
L 130.449937 192.24 
L 131.894571 190.744776 
L 139.117738 190.744776 
L 140.562371 189.249553 
L 142.007005 190.744776 
L 159.342607 190.744776 
L 160.78724 192.24 
L 188.235276 192.24 
L 189.67991 190.744776 
L 198.347711 190.744776 
L 199.792344 192.24 
L 238.797448 192.24 
L 240.242082 190.744776 
L 248.909882 190.744776 
L 250.354516 192.24 
L 259.022317 192.24 
L 260.46695 190.744776 
L 267.690118 190.744776 
L 269.134751 186.259106 
L 270.579385 187.754329 
L 272.024018 186.259106 
L 277.802552 186.259106 
L 279.247185 189.249553 
L 280.691819 189.249553 
L 282.136452 190.744776 
L 283.581086 190.744776 
L 285.025719 193.735224 
L 287.914986 193.735224 
L 289.35962 195.230447 
L 292.248887 195.230447 
L 293.69352 193.735224 
L 295.138154 190.744776 
L 296.582787 189.249553 
L 298.027421 189.249553 
L 299.472054 187.754329 
L 300.916688 187.754329 
L 302.361321 186.259106 
L 303.805955 187.754329 
L 306.695222 187.754329 
L 308.139855 186.259106 
L 309.584488 187.754329 
L 311.029122 187.754329 
L 312.473755 189.249553 
L 315.363022 189.249553 
L 318.252289 192.24 
L 331.253991 192.24 
L 332.698624 190.744776 
L 337.032525 190.744776 
L 338.477158 189.249553 
L 341.366425 189.249553 
L 342.811059 190.744776 
L 347.144959 190.744776 
L 348.589592 192.24 
L 350.034226 192.24 
L 352.923493 189.249553 
L 361.591294 189.249553 
L 363.035927 190.744776 
L 370.259095 190.744776 
L 371.703728 192.24 
L 381.816162 192.24 
L 384.705429 189.249553 
L 387.594696 189.249553 
L 389.03933 187.754329 
L 391.928597 187.754329 
L 393.37323 186.259106 
L 397.707131 186.259106 
L 399.151764 187.754329 
L 400.596398 186.259106 
L 402.041031 186.259106 
L 404.930298 189.249553 
L 406.374932 189.249553 
L 407.819565 187.754329 
L 409.264199 187.754329 
L 410.708832 183.268658 
L 412.153465 183.268658 
L 413.598099 184.763882 
L 415.042732 181.773435 
L 416.487366 181.773435 
L 417.931999 183.268658 
L 419.376633 178.782988 
L 420.821266 183.268658 
L 422.2659 175.79254 
L 423.710533 171.30687 
L 425.155167 168.316423 
L 426.5998 159.345081 
L 428.044434 142.897621 
L 429.489067 132.431056 
L 430.933701 124.954938 
L 432.378334 129.440609 
L 435.267601 93.555243 
L 435.267601 93.555243 
" style="fill:none;stroke:#1f77b4;stroke-linecap:round;stroke-width:1.5;"/>
   </g>
   <g id="patch_249">
    <path d="M 63 192.24 
L 453.6 192.24 
" style="fill:none;stroke:#cccccc;stroke-linecap:square;stroke-linejoin:miter;"/>
   </g>
   <g id="text_15">
    <!-- 7-day -->
    <defs>
     <path d="M 14.5 0 
Q 15.671875 7.234375 19.484375 17.390625 
Q 24.03125 29.640625 31.390625 41.71875 
Q 38.765625 53.8125 47.796875 62.5 
L 12.109375 62.5 
L 13.8125 70.609375 
L 59.515625 70.609375 
L 57.859375 62.5 
Q 46.234375 52.296875 37.546875 36.1875 
Q 27.4375 17.578125 23.734375 0 
z
" id="Arial-ItalicMT-55"/>
     <path d="M 4.640625 21.484375 
L 6.5 30.328125 
L 33.453125 30.328125 
L 31.640625 21.484375 
z
" id="Arial-ItalicMT-45"/>
     <path d="M 38.28125 7.515625 
Q 30.71875 -1.171875 22.46875 -1.171875 
Q 15.09375 -1.171875 10.1875 4.265625 
Q 5.28125 9.71875 5.28125 20.0625 
Q 5.28125 29.546875 9.15625 37.375 
Q 13.03125 45.21875 18.859375 49.125 
Q 24.703125 53.03125 30.5625 53.03125 
Q 40.234375 53.03125 45.171875 43.703125 
L 51.03125 71.578125 
L 59.8125 71.578125 
L 44.875 0 
L 36.71875 0 
z
M 14.0625 21.734375 
Q 14.0625 16.3125 15.140625 13.1875 
Q 16.21875 10.0625 18.796875 7.984375 
Q 21.390625 5.90625 25 5.90625 
Q 31 5.90625 35.890625 12.15625 
Q 42.4375 20.453125 42.4375 32.671875 
Q 42.4375 38.8125 39.203125 42.28125 
Q 35.984375 45.75 31.109375 45.75 
Q 27.9375 45.75 25.3125 44.328125 
Q 22.703125 42.921875 20.140625 39.53125 
Q 17.578125 36.140625 15.8125 30.90625 
Q 14.0625 25.6875 14.0625 21.734375 
z
" id="Arial-ItalicMT-100"/>
     <path d="M 38.28125 6.453125 
Q 33.6875 2.484375 29.4375 0.65625 
Q 25.203125 -1.171875 20.359375 -1.171875 
Q 13.1875 -1.171875 8.78125 3.046875 
Q 4.390625 7.28125 4.390625 13.875 
Q 4.390625 18.21875 6.359375 21.5625 
Q 8.34375 24.90625 11.609375 26.921875 
Q 14.890625 28.953125 19.625 29.828125 
Q 22.609375 30.421875 30.9375 30.765625 
Q 39.265625 31.109375 42.875 32.515625 
Q 43.890625 36.140625 43.890625 38.53125 
Q 43.890625 41.609375 41.65625 43.359375 
Q 38.578125 45.796875 32.671875 45.796875 
Q 27.09375 45.796875 23.546875 43.328125 
Q 20.015625 40.875 18.40625 36.328125 
L 9.46875 37.109375 
Q 12.203125 44.828125 18.140625 48.921875 
Q 24.078125 53.03125 33.109375 53.03125 
Q 42.71875 53.03125 48.34375 48.4375 
Q 52.640625 45.015625 52.640625 39.546875 
Q 52.640625 35.40625 51.421875 29.9375 
L 48.53125 17.046875 
Q 47.171875 10.890625 47.171875 7.03125 
Q 47.171875 4.59375 48.25 0 
L 39.3125 0 
Q 38.578125 2.546875 38.28125 6.453125 
z
M 41.546875 26.265625 
Q 39.703125 25.53125 37.578125 25.140625 
Q 35.453125 24.75 30.46875 24.3125 
Q 22.75 23.640625 19.578125 22.578125 
Q 16.40625 21.53125 14.796875 19.234375 
Q 13.1875 16.9375 13.1875 14.15625 
Q 13.1875 10.453125 15.75 8.0625 
Q 18.3125 5.671875 23.046875 5.671875 
Q 27.4375 5.671875 31.484375 7.984375 
Q 35.546875 10.296875 37.890625 14.453125 
Q 40.234375 18.609375 41.546875 26.265625 
z
" id="Arial-ItalicMT-97"/>
     <path d="M 0 -20.015625 
L 0.53125 -11.71875 
Q 3.265625 -12.5 5.859375 -12.5 
Q 8.546875 -12.5 10.203125 -11.28125 
Q 12.359375 -9.671875 14.890625 -5.21875 
L 17.71875 -0.140625 
L 9.078125 51.859375 
L 17.78125 51.859375 
L 21.6875 25.640625 
Q 22.859375 17.875 23.6875 10.109375 
L 46.875 51.859375 
L 56.109375 51.859375 
L 23.046875 -6.890625 
Q 18.265625 -15.484375 14.546875 -18.265625 
Q 10.84375 -21.046875 6 -21.046875 
Q 2.9375 -21.046875 0 -20.015625 
z
" id="Arial-ItalicMT-121"/>
    </defs>
    <g style="fill:#1f77b4;" transform="translate(439.601502 82.86118)scale(0.1 -0.1)">
     <use xlink:href="#Arial-ItalicMT-55"/>
     <use x="55.615234" xlink:href="#Arial-ItalicMT-45"/>
     <use x="88.916016" xlink:href="#Arial-ItalicMT-100"/>
     <use x="144.53125" xlink:href="#Arial-ItalicMT-97"/>
     <use x="200.146484" xlink:href="#Arial-ItalicMT-121"/>
    </g>
    <!-- avg. -->
    <defs>
     <path d="M 16.40625 0 
L 7.90625 51.859375 
L 16.5 51.859375 
L 20.953125 23.296875 
Q 21.6875 18.609375 22.75 8.015625 
Q 25.296875 13.53125 29.25 20.65625 
L 46.578125 51.859375 
L 55.90625 51.859375 
L 26.21875 0 
z
" id="Arial-ItalicMT-118"/>
     <path d="M 2.828125 -4.6875 
L 11.765625 -5.515625 
Q 11.671875 -8.546875 12.5 -10.0625 
Q 13.328125 -11.578125 15.140625 -12.40625 
Q 17.53125 -13.484375 21.34375 -13.484375 
Q 29.34375 -13.484375 32.859375 -9.328125 
Q 35.15625 -6.546875 37.109375 2.78125 
L 37.984375 6.984375 
Q 31.109375 0 23.34375 0 
Q 15.484375 0 10.1875 5.78125 
Q 4.890625 11.578125 4.890625 22.171875 
Q 4.890625 30.90625 9.0625 38.234375 
Q 13.234375 45.5625 18.984375 49.296875 
Q 24.75 53.03125 30.859375 53.03125 
Q 41.0625 53.03125 46.578125 43.359375 
L 48.34375 51.859375 
L 56.453125 51.859375 
L 46 1.8125 
Q 44.28125 -6.453125 41.5 -11.0625 
Q 38.71875 -15.671875 33.765625 -18.203125 
Q 28.8125 -20.75 22.3125 -20.75 
Q 16.0625 -20.75 11.546875 -19.140625 
Q 7.03125 -17.53125 4.8125 -14.421875 
Q 2.59375 -11.328125 2.59375 -7.328125 
Q 2.59375 -6.109375 2.828125 -4.6875 
z
M 13.875 22.953125 
Q 13.875 17.625 14.890625 14.9375 
Q 16.359375 11.1875 19.0625 9.203125 
Q 21.78125 7.234375 25.09375 7.234375 
Q 29.4375 7.234375 33.734375 10.28125 
Q 38.03125 13.328125 40.6875 19.71875 
Q 43.359375 26.125 43.359375 31.9375 
Q 43.359375 38.328125 39.8125 42.109375 
Q 36.28125 45.90625 31.0625 45.90625 
Q 27.828125 45.90625 24.796875 44.171875 
Q 21.78125 42.4375 19.15625 38.890625 
Q 16.546875 35.359375 15.203125 30.421875 
Q 13.875 25.484375 13.875 22.953125 
z
" id="Arial-ItalicMT-103"/>
     <path d="M 5.765625 0 
L 7.859375 10.015625 
L 17.875 10.015625 
L 15.71875 0 
z
" id="Arial-ItalicMT-46"/>
    </defs>
    <g style="fill:#1f77b4;" transform="translate(439.601502 93.555243)scale(0.1 -0.1)">
     <use xlink:href="#Arial-ItalicMT-97"/>
     <use x="55.615234" xlink:href="#Arial-ItalicMT-118"/>
     <use x="105.615234" xlink:href="#Arial-ItalicMT-103"/>
     <use x="161.230469" xlink:href="#Arial-ItalicMT-46"/>
    </g>
   </g>
  </g>
 </g>
 <defs>
  <clipPath id="p97de88074b">
   <rect height="166.32" width="390.6" x="63" y="25.92"/>
  </clipPath>
 </defs>
</svg>
