<svg version="1.1" viewBox="40 10 440 195" width="100%" xmlns="http://www.w3.org/2000/svg" xmlns:xlink="http://www.w3.org/1999/xlink">
 <defs>
  <style type="text/css">
*{stroke-linecap:butt;stroke-linejoin:round;}
  </style>
 </defs>
 <g id="figure_1">
  <g id="patch_1">
   <path d="M 0 216 
L 504 216 
L 504 0 
L 0 0 
z
" style="fill:#ffffff;"/>
  </g>
  <g id="axes_1">
   <g id="patch_2">
    <path d="M 63 192.24 
L 453.6 192.24 
L 453.6 25.92 
L 63 25.92 
z
" style="fill:#ffffff;"/>
   </g>
   <g id="matplotlib.axis_1">
    <g id="xtick_1">
     <g id="line2d_1"/>
     <g id="text_1">
      <!-- Apr -->
      <defs>
       <path d="M -0.140625 0 
L 27.34375 71.578125 
L 37.546875 71.578125 
L 66.84375 0 
L 56.0625 0 
L 47.703125 21.6875 
L 17.78125 21.6875 
L 9.90625 0 
z
M 20.515625 29.390625 
L 44.78125 29.390625 
L 37.3125 49.21875 
Q 33.890625 58.25 32.234375 64.0625 
Q 30.859375 57.171875 28.375 50.390625 
z
" id="ArialMT-65"/>
       <path d="M 6.59375 -19.875 
L 6.59375 51.859375 
L 14.59375 51.859375 
L 14.59375 45.125 
Q 17.4375 49.078125 21 51.046875 
Q 24.5625 53.03125 29.640625 53.03125 
Q 36.28125 53.03125 41.359375 49.609375 
Q 46.4375 46.1875 49.015625 39.953125 
Q 51.609375 33.734375 51.609375 26.3125 
Q 51.609375 18.359375 48.75 11.984375 
Q 45.90625 5.609375 40.453125 2.21875 
Q 35.015625 -1.171875 29 -1.171875 
Q 24.609375 -1.171875 21.109375 0.6875 
Q 17.625 2.546875 15.375 5.375 
L 15.375 -19.875 
z
M 14.546875 25.640625 
Q 14.546875 15.625 18.59375 10.84375 
Q 22.65625 6.0625 28.421875 6.0625 
Q 34.28125 6.0625 38.453125 11.015625 
Q 42.625 15.96875 42.625 26.375 
Q 42.625 36.28125 38.546875 41.203125 
Q 34.46875 46.140625 28.8125 46.140625 
Q 23.1875 46.140625 18.859375 40.890625 
Q 14.546875 35.640625 14.546875 25.640625 
z
" id="ArialMT-112"/>
       <path d="M 6.5 0 
L 6.5 51.859375 
L 14.40625 51.859375 
L 14.40625 44 
Q 17.4375 49.515625 20 51.265625 
Q 22.5625 53.03125 25.640625 53.03125 
Q 30.078125 53.03125 34.671875 50.203125 
L 31.640625 42.046875 
Q 28.421875 43.953125 25.203125 43.953125 
Q 22.3125 43.953125 20.015625 42.21875 
Q 17.71875 40.484375 16.75 37.40625 
Q 15.28125 32.71875 15.28125 27.15625 
L 15.28125 0 
z
" id="ArialMT-114"/>
      </defs>
      <g style="fill:#871f78;" transform="translate(86.835599 202.897813)scale(0.1 -0.1)">
       <use xlink:href="#ArialMT-65"/>
       <use x="66.699219" xlink:href="#ArialMT-112"/>
       <use x="122.314453" xlink:href="#ArialMT-114"/>
      </g>
     </g>
    </g>
    <g id="xtick_2">
     <g id="line2d_2"/>
     <g id="text_2">
      <!-- May -->
      <defs>
       <path d="M 7.421875 0 
L 7.421875 71.578125 
L 21.6875 71.578125 
L 38.625 20.90625 
Q 40.96875 13.8125 42.046875 10.296875 
Q 43.265625 14.203125 45.84375 21.78125 
L 62.984375 71.578125 
L 75.734375 71.578125 
L 75.734375 0 
L 66.609375 0 
L 66.609375 59.90625 
L 45.796875 0 
L 37.25 0 
L 16.546875 60.9375 
L 16.546875 0 
z
" id="ArialMT-77"/>
       <path d="M 40.4375 6.390625 
Q 35.546875 2.25 31.03125 0.53125 
Q 26.515625 -1.171875 21.34375 -1.171875 
Q 12.796875 -1.171875 8.203125 3 
Q 3.609375 7.171875 3.609375 13.671875 
Q 3.609375 17.484375 5.34375 20.625 
Q 7.078125 23.78125 9.890625 25.6875 
Q 12.703125 27.59375 16.21875 28.5625 
Q 18.796875 29.25 24.03125 29.890625 
Q 34.671875 31.15625 39.703125 32.90625 
Q 39.75 34.71875 39.75 35.203125 
Q 39.75 40.578125 37.25 42.78125 
Q 33.890625 45.75 27.25 45.75 
Q 21.046875 45.75 18.09375 43.578125 
Q 15.140625 41.40625 13.71875 35.890625 
L 5.125 37.0625 
Q 6.296875 42.578125 8.984375 45.96875 
Q 11.671875 49.359375 16.75 51.1875 
Q 21.828125 53.03125 28.515625 53.03125 
Q 35.15625 53.03125 39.296875 51.46875 
Q 43.453125 49.90625 45.40625 47.53125 
Q 47.359375 45.171875 48.140625 41.546875 
Q 48.578125 39.3125 48.578125 33.453125 
L 48.578125 21.734375 
Q 48.578125 9.46875 49.140625 6.21875 
Q 49.703125 2.984375 51.375 0 
L 42.1875 0 
Q 40.828125 2.734375 40.4375 6.390625 
z
M 39.703125 26.03125 
Q 34.90625 24.078125 25.34375 22.703125 
Q 19.921875 21.921875 17.671875 20.9375 
Q 15.4375 19.96875 14.203125 18.09375 
Q 12.984375 16.21875 12.984375 13.921875 
Q 12.984375 10.40625 15.640625 8.0625 
Q 18.3125 5.71875 23.4375 5.71875 
Q 28.515625 5.71875 32.46875 7.9375 
Q 36.421875 10.15625 38.28125 14.015625 
Q 39.703125 17 39.703125 22.796875 
z
" id="ArialMT-97"/>
       <path d="M 6.203125 -19.96875 
L 5.21875 -11.71875 
Q 8.109375 -12.5 10.25 -12.5 
Q 13.1875 -12.5 14.9375 -11.515625 
Q 16.703125 -10.546875 17.828125 -8.796875 
Q 18.65625 -7.46875 20.515625 -2.25 
Q 20.75 -1.515625 21.296875 -0.09375 
L 1.609375 51.859375 
L 11.078125 51.859375 
L 21.875 21.828125 
Q 23.96875 16.109375 25.640625 9.8125 
Q 27.15625 15.875 29.25 21.625 
L 40.328125 51.859375 
L 49.125 51.859375 
L 29.390625 -0.875 
Q 26.21875 -9.421875 24.46875 -12.640625 
Q 22.125 -17 19.09375 -19.015625 
Q 16.0625 -21.046875 11.859375 -21.046875 
Q 9.328125 -21.046875 6.203125 -19.96875 
z
" id="ArialMT-121"/>
      </defs>
      <g style="fill:#871f78;" transform="translate(129.409656 202.897813)scale(0.1 -0.1)">
       <use xlink:href="#ArialMT-77"/>
       <use x="83.300781" xlink:href="#ArialMT-97"/>
       <use x="138.916016" xlink:href="#ArialMT-121"/>
      </g>
     </g>
    </g>
    <g id="xtick_3">
     <g id="line2d_3"/>
     <g id="text_3">
      <!-- Jun -->
      <defs>
       <path d="M 2.875 20.3125 
L 11.421875 21.484375 
Q 11.765625 13.28125 14.5 10.25 
Q 17.234375 7.234375 22.078125 7.234375 
Q 25.640625 7.234375 28.21875 8.859375 
Q 30.8125 10.5 31.78125 13.296875 
Q 32.765625 16.109375 32.765625 22.265625 
L 32.765625 71.578125 
L 42.234375 71.578125 
L 42.234375 22.796875 
Q 42.234375 13.8125 40.0625 8.875 
Q 37.890625 3.953125 33.171875 1.359375 
Q 28.46875 -1.21875 22.125 -1.21875 
Q 12.703125 -1.21875 7.6875 4.203125 
Q 2.6875 9.625 2.875 20.3125 
z
" id="ArialMT-74"/>
       <path d="M 40.578125 0 
L 40.578125 7.625 
Q 34.515625 -1.171875 24.125 -1.171875 
Q 19.53125 -1.171875 15.546875 0.578125 
Q 11.578125 2.34375 9.640625 5 
Q 7.71875 7.671875 6.9375 11.53125 
Q 6.390625 14.109375 6.390625 19.734375 
L 6.390625 51.859375 
L 15.1875 51.859375 
L 15.1875 23.09375 
Q 15.1875 16.21875 15.71875 13.8125 
Q 16.546875 10.359375 19.234375 8.375 
Q 21.921875 6.390625 25.875 6.390625 
Q 29.828125 6.390625 33.296875 8.421875 
Q 36.765625 10.453125 38.203125 13.9375 
Q 39.65625 17.4375 39.65625 24.078125 
L 39.65625 51.859375 
L 48.4375 51.859375 
L 48.4375 0 
z
" id="ArialMT-117"/>
       <path d="M 6.59375 0 
L 6.59375 51.859375 
L 14.5 51.859375 
L 14.5 44.484375 
Q 20.21875 53.03125 31 53.03125 
Q 35.6875 53.03125 39.625 51.34375 
Q 43.5625 49.65625 45.515625 46.921875 
Q 47.46875 44.1875 48.25 40.4375 
Q 48.734375 37.984375 48.734375 31.890625 
L 48.734375 0 
L 39.9375 0 
L 39.9375 31.546875 
Q 39.9375 36.921875 38.90625 39.578125 
Q 37.890625 42.234375 35.28125 43.8125 
Q 32.671875 45.40625 29.15625 45.40625 
Q 23.53125 45.40625 19.453125 41.84375 
Q 15.375 38.28125 15.375 28.328125 
L 15.375 0 
z
" id="ArialMT-110"/>
      </defs>
      <g style="fill:#871f78;" transform="translate(176.507561 202.897813)scale(0.1 -0.1)">
       <use xlink:href="#ArialMT-74"/>
       <use x="50" xlink:href="#ArialMT-117"/>
       <use x="105.615234" xlink:href="#ArialMT-110"/>
      </g>
     </g>
    </g>
    <g id="xtick_4">
     <g id="line2d_4"/>
     <g id="text_4">
      <!-- Jul -->
      <defs>
       <path d="M 6.390625 0 
L 6.390625 71.578125 
L 15.1875 71.578125 
L 15.1875 0 
z
" id="ArialMT-108"/>
      </defs>
      <g style="fill:#871f78;" transform="translate(222.415993 202.897813)scale(0.1 -0.1)">
       <use xlink:href="#ArialMT-74"/>
       <use x="50" xlink:href="#ArialMT-117"/>
       <use x="105.615234" xlink:href="#ArialMT-108"/>
      </g>
     </g>
    </g>
    <g id="xtick_5">
     <g id="line2d_5"/>
     <g id="text_5">
      <!-- Aug -->
      <defs>
       <path d="M 4.984375 -4.296875 
L 13.53125 -5.5625 
Q 14.0625 -9.515625 16.5 -11.328125 
Q 19.78125 -13.765625 25.4375 -13.765625 
Q 31.546875 -13.765625 34.859375 -11.328125 
Q 38.1875 -8.890625 39.359375 -4.5 
Q 40.046875 -1.8125 39.984375 6.78125 
Q 34.234375 0 25.640625 0 
Q 14.9375 0 9.078125 7.71875 
Q 3.21875 15.4375 3.21875 26.21875 
Q 3.21875 33.640625 5.90625 39.90625 
Q 8.59375 46.1875 13.6875 49.609375 
Q 18.796875 53.03125 25.6875 53.03125 
Q 34.859375 53.03125 40.828125 45.609375 
L 40.828125 51.859375 
L 48.921875 51.859375 
L 48.921875 7.03125 
Q 48.921875 -5.078125 46.453125 -10.125 
Q 44 -15.1875 38.640625 -18.109375 
Q 33.296875 -21.046875 25.484375 -21.046875 
Q 16.21875 -21.046875 10.5 -16.875 
Q 4.78125 -12.703125 4.984375 -4.296875 
z
M 12.25 26.859375 
Q 12.25 16.65625 16.296875 11.96875 
Q 20.359375 7.28125 26.46875 7.28125 
Q 32.515625 7.28125 36.609375 11.9375 
Q 40.71875 16.609375 40.71875 26.5625 
Q 40.71875 36.078125 36.5 40.90625 
Q 32.28125 45.75 26.3125 45.75 
Q 20.453125 45.75 16.34375 40.984375 
Q 12.25 36.234375 12.25 26.859375 
z
" id="ArialMT-103"/>
      </defs>
      <g style="fill:#871f78;" transform="translate(265.624836 202.897813)scale(0.1 -0.1)">
       <use xlink:href="#ArialMT-65"/>
       <use x="66.699219" xlink:href="#ArialMT-117"/>
       <use x="122.314453" xlink:href="#ArialMT-103"/>
      </g>
     </g>
    </g>
    <g id="xtick_6">
     <g id="line2d_6"/>
     <g id="text_6">
      <!-- Sep -->
      <defs>
       <path d="M 4.5 23 
L 13.421875 23.78125 
Q 14.0625 18.40625 16.375 14.96875 
Q 18.703125 11.53125 23.578125 9.40625 
Q 28.46875 7.28125 34.578125 7.28125 
Q 39.984375 7.28125 44.140625 8.890625 
Q 48.296875 10.5 50.3125 13.296875 
Q 52.34375 16.109375 52.34375 19.4375 
Q 52.34375 22.796875 50.390625 25.3125 
Q 48.4375 27.828125 43.953125 29.546875 
Q 41.0625 30.671875 31.203125 33.03125 
Q 21.34375 35.40625 17.390625 37.5 
Q 12.25 40.1875 9.734375 44.15625 
Q 7.234375 48.140625 7.234375 53.078125 
Q 7.234375 58.5 10.296875 63.203125 
Q 13.375 67.921875 19.28125 70.359375 
Q 25.203125 72.796875 32.421875 72.796875 
Q 40.375 72.796875 46.453125 70.234375 
Q 52.546875 67.671875 55.8125 62.6875 
Q 59.078125 57.71875 59.328125 51.421875 
L 50.25 50.734375 
Q 49.515625 57.515625 45.28125 60.984375 
Q 41.0625 64.453125 32.8125 64.453125 
Q 24.21875 64.453125 20.28125 61.296875 
Q 16.359375 58.15625 16.359375 53.71875 
Q 16.359375 49.859375 19.140625 47.359375 
Q 21.875 44.875 33.421875 42.265625 
Q 44.96875 39.65625 49.265625 37.703125 
Q 55.515625 34.8125 58.484375 30.390625 
Q 61.46875 25.984375 61.46875 20.21875 
Q 61.46875 14.5 58.203125 9.4375 
Q 54.9375 4.390625 48.796875 1.578125 
Q 42.671875 -1.21875 35.015625 -1.21875 
Q 25.296875 -1.21875 18.71875 1.609375 
Q 12.15625 4.4375 8.421875 10.125 
Q 4.6875 15.828125 4.5 23 
z
" id="ArialMT-83"/>
       <path d="M 42.09375 16.703125 
L 51.171875 15.578125 
Q 49.03125 7.625 43.21875 3.21875 
Q 37.40625 -1.171875 28.375 -1.171875 
Q 17 -1.171875 10.328125 5.828125 
Q 3.65625 12.84375 3.65625 25.484375 
Q 3.65625 38.578125 10.390625 45.796875 
Q 17.140625 53.03125 27.875 53.03125 
Q 38.28125 53.03125 44.875 45.953125 
Q 51.46875 38.875 51.46875 26.03125 
Q 51.46875 25.25 51.421875 23.6875 
L 12.75 23.6875 
Q 13.234375 15.140625 17.578125 10.59375 
Q 21.921875 6.0625 28.421875 6.0625 
Q 33.25 6.0625 36.671875 8.59375 
Q 40.09375 11.140625 42.09375 16.703125 
z
M 13.234375 30.90625 
L 42.1875 30.90625 
Q 41.609375 37.453125 38.875 40.71875 
Q 34.671875 45.796875 27.984375 45.796875 
Q 21.921875 45.796875 17.796875 41.75 
Q 13.671875 37.703125 13.234375 30.90625 
z
" id="ArialMT-101"/>
      </defs>
      <g style="fill:#871f78;" transform="translate(311.338367 203.019688)scale(0.1 -0.1)">
       <use xlink:href="#ArialMT-83"/>
       <use x="66.699219" xlink:href="#ArialMT-101"/>
       <use x="122.314453" xlink:href="#ArialMT-112"/>
      </g>
     </g>
    </g>
    <g id="xtick_7">
     <g id="line2d_7"/>
     <g id="text_7">
      <!-- Oct -->
      <defs>
       <path d="M 4.828125 34.859375 
Q 4.828125 52.6875 14.390625 62.765625 
Q 23.96875 72.859375 39.109375 72.859375 
Q 49.03125 72.859375 56.984375 68.109375 
Q 64.9375 63.375 69.109375 54.90625 
Q 73.296875 46.4375 73.296875 35.6875 
Q 73.296875 24.8125 68.890625 16.21875 
Q 64.5 7.625 56.4375 3.203125 
Q 48.390625 -1.21875 39.0625 -1.21875 
Q 28.953125 -1.21875 20.984375 3.65625 
Q 13.03125 8.546875 8.921875 16.984375 
Q 4.828125 25.4375 4.828125 34.859375 
z
M 14.59375 34.71875 
Q 14.59375 21.78125 21.546875 14.328125 
Q 28.515625 6.890625 39.015625 6.890625 
Q 49.703125 6.890625 56.609375 14.40625 
Q 63.53125 21.921875 63.53125 35.75 
Q 63.53125 44.484375 60.578125 51 
Q 57.625 57.515625 51.921875 61.109375 
Q 46.234375 64.703125 39.15625 64.703125 
Q 29.109375 64.703125 21.84375 57.78125 
Q 14.59375 50.875 14.59375 34.71875 
z
" id="ArialMT-79"/>
       <path d="M 40.4375 19 
L 49.078125 17.875 
Q 47.65625 8.9375 41.8125 3.875 
Q 35.984375 -1.171875 27.484375 -1.171875 
Q 16.84375 -1.171875 10.375 5.78125 
Q 3.90625 12.75 3.90625 25.734375 
Q 3.90625 34.125 6.6875 40.421875 
Q 9.46875 46.734375 15.15625 49.875 
Q 20.84375 53.03125 27.546875 53.03125 
Q 35.984375 53.03125 41.359375 48.75 
Q 46.734375 44.484375 48.25 36.625 
L 39.703125 35.296875 
Q 38.484375 40.53125 35.375 43.15625 
Q 32.28125 45.796875 27.875 45.796875 
Q 21.234375 45.796875 17.078125 41.03125 
Q 12.9375 36.28125 12.9375 25.984375 
Q 12.9375 15.53125 16.9375 10.796875 
Q 20.953125 6.0625 27.390625 6.0625 
Q 32.5625 6.0625 36.03125 9.234375 
Q 39.5 12.40625 40.4375 19 
z
" id="ArialMT-99"/>
       <path d="M 25.78125 7.859375 
L 27.046875 0.09375 
Q 23.34375 -0.6875 20.40625 -0.6875 
Q 15.625 -0.6875 12.984375 0.828125 
Q 10.359375 2.34375 9.28125 4.8125 
Q 8.203125 7.28125 8.203125 15.1875 
L 8.203125 45.015625 
L 1.765625 45.015625 
L 1.765625 51.859375 
L 8.203125 51.859375 
L 8.203125 64.703125 
L 16.9375 69.96875 
L 16.9375 51.859375 
L 25.78125 51.859375 
L 25.78125 45.015625 
L 16.9375 45.015625 
L 16.9375 14.703125 
Q 16.9375 10.9375 17.40625 9.859375 
Q 17.875 8.796875 18.921875 8.15625 
Q 19.96875 7.515625 21.921875 7.515625 
Q 23.390625 7.515625 25.78125 7.859375 
z
" id="ArialMT-116"/>
      </defs>
      <g style="fill:#871f78;" transform="translate(356.695237 202.897813)scale(0.1 -0.1)">
       <use xlink:href="#ArialMT-79"/>
       <use x="77.783203" xlink:href="#ArialMT-99"/>
       <use x="127.783203" xlink:href="#ArialMT-116"/>
      </g>
     </g>
    </g>
    <g id="xtick_8">
     <g id="line2d_8"/>
     <g id="text_8">
      <!-- Nov -->
      <defs>
       <path d="M 7.625 0 
L 7.625 71.578125 
L 17.328125 71.578125 
L 54.9375 15.375 
L 54.9375 71.578125 
L 64.015625 71.578125 
L 64.015625 0 
L 54.296875 0 
L 16.703125 56.25 
L 16.703125 0 
z
" id="ArialMT-78"/>
       <path d="M 3.328125 25.921875 
Q 3.328125 40.328125 11.328125 47.265625 
Q 18.015625 53.03125 27.640625 53.03125 
Q 38.328125 53.03125 45.109375 46.015625 
Q 51.90625 39.015625 51.90625 26.65625 
Q 51.90625 16.65625 48.90625 10.90625 
Q 45.90625 5.171875 40.15625 2 
Q 34.421875 -1.171875 27.640625 -1.171875 
Q 16.75 -1.171875 10.03125 5.8125 
Q 3.328125 12.796875 3.328125 25.921875 
z
M 12.359375 25.921875 
Q 12.359375 15.96875 16.703125 11.015625 
Q 21.046875 6.0625 27.640625 6.0625 
Q 34.1875 6.0625 38.53125 11.03125 
Q 42.875 16.015625 42.875 26.21875 
Q 42.875 35.84375 38.5 40.796875 
Q 34.125 45.75 27.640625 45.75 
Q 21.046875 45.75 16.703125 40.8125 
Q 12.359375 35.890625 12.359375 25.921875 
z
" id="ArialMT-111"/>
       <path d="M 21 0 
L 1.265625 51.859375 
L 10.546875 51.859375 
L 21.6875 20.796875 
Q 23.484375 15.765625 25 10.359375 
Q 26.171875 14.453125 28.265625 20.21875 
L 39.796875 51.859375 
L 48.828125 51.859375 
L 29.203125 0 
z
" id="ArialMT-118"/>
      </defs>
      <g style="fill:#871f78;" transform="translate(401.295486 202.897813)scale(0.1 -0.1)">
       <use xlink:href="#ArialMT-78"/>
       <use x="72.216797" xlink:href="#ArialMT-111"/>
       <use x="127.832031" xlink:href="#ArialMT-118"/>
      </g>
     </g>
    </g>
   </g>
   <g id="matplotlib.axis_2">
    <g id="ytick_1">
     <g id="line2d_9">
      <path clip-path="url(#ped7569a085)" d="M 63 192.24 
L 453.6 192.24 
" style="fill:none;stroke:#cccccc;stroke-linecap:round;stroke-width:0.8;"/>
     </g>
     <g id="line2d_10"/>
     <g id="text_9">
      <!-- 0 -->
      <defs>
       <path d="M 4.15625 35.296875 
Q 4.15625 48 6.765625 55.734375 
Q 9.375 63.484375 14.515625 67.671875 
Q 19.671875 71.875 27.484375 71.875 
Q 33.25 71.875 37.59375 69.546875 
Q 41.9375 67.234375 44.765625 62.859375 
Q 47.609375 58.5 49.21875 52.21875 
Q 50.828125 45.953125 50.828125 35.296875 
Q 50.828125 22.703125 48.234375 14.96875 
Q 45.65625 7.234375 40.5 3 
Q 35.359375 -1.21875 27.484375 -1.21875 
Q 17.140625 -1.21875 11.234375 6.203125 
Q 4.15625 15.140625 4.15625 35.296875 
z
M 13.1875 35.296875 
Q 13.1875 17.671875 17.3125 11.828125 
Q 21.4375 6 27.484375 6 
Q 33.546875 6 37.671875 11.859375 
Q 41.796875 17.71875 41.796875 35.296875 
Q 41.796875 52.984375 37.671875 58.78125 
Q 33.546875 64.59375 27.390625 64.59375 
Q 21.34375 64.59375 17.71875 59.46875 
Q 13.1875 52.9375 13.1875 35.296875 
z
" id="ArialMT-48"/>
      </defs>
      <g style="fill:#871f78;" transform="translate(53.939062 195.818906)scale(0.1 -0.1)">
       <use xlink:href="#ArialMT-48"/>
      </g>
     </g>
    </g>
    <g id="ytick_2">
     <g id="line2d_11">
      <path clip-path="url(#ped7569a085)" d="M 63 162 
L 453.6 162 
" style="fill:none;stroke:#cccccc;stroke-linecap:round;stroke-width:0.8;"/>
     </g>
     <g id="line2d_12"/>
     <g id="text_10">
      <!-- 10 -->
      <defs>
       <path d="M 37.25 0 
L 28.46875 0 
L 28.46875 56 
Q 25.296875 52.984375 20.140625 49.953125 
Q 14.984375 46.921875 10.890625 45.40625 
L 10.890625 53.90625 
Q 18.265625 57.375 23.78125 62.296875 
Q 29.296875 67.234375 31.59375 71.875 
L 37.25 71.875 
z
" id="ArialMT-49"/>
      </defs>
      <g style="fill:#871f78;" transform="translate(48.378125 165.578906)scale(0.1 -0.1)">
       <use xlink:href="#ArialMT-49"/>
       <use x="55.615234" xlink:href="#ArialMT-48"/>
      </g>
     </g>
    </g>
    <g id="ytick_3">
     <g id="line2d_13">
      <path clip-path="url(#ped7569a085)" d="M 63 131.76 
L 453.6 131.76 
" style="fill:none;stroke:#cccccc;stroke-linecap:round;stroke-width:0.8;"/>
     </g>
     <g id="line2d_14"/>
     <g id="text_11">
      <!-- 20 -->
      <defs>
       <path d="M 50.34375 8.453125 
L 50.34375 0 
L 3.03125 0 
Q 2.9375 3.171875 4.046875 6.109375 
Q 5.859375 10.9375 9.828125 15.625 
Q 13.8125 20.3125 21.34375 26.46875 
Q 33.015625 36.03125 37.109375 41.625 
Q 41.21875 47.21875 41.21875 52.203125 
Q 41.21875 57.421875 37.46875 61 
Q 33.734375 64.59375 27.734375 64.59375 
Q 21.390625 64.59375 17.578125 60.78125 
Q 13.765625 56.984375 13.71875 50.25 
L 4.6875 51.171875 
Q 5.609375 61.28125 11.65625 66.578125 
Q 17.71875 71.875 27.9375 71.875 
Q 38.234375 71.875 44.234375 66.15625 
Q 50.25 60.453125 50.25 52 
Q 50.25 47.703125 48.484375 43.546875 
Q 46.734375 39.40625 42.65625 34.8125 
Q 38.578125 30.21875 29.109375 22.21875 
Q 21.1875 15.578125 18.9375 13.203125 
Q 16.703125 10.84375 15.234375 8.453125 
z
" id="ArialMT-50"/>
      </defs>
      <g style="fill:#871f78;" transform="translate(48.378125 135.338906)scale(0.1 -0.1)">
       <use xlink:href="#ArialMT-50"/>
       <use x="55.615234" xlink:href="#ArialMT-48"/>
      </g>
     </g>
    </g>
    <g id="ytick_4">
     <g id="line2d_15">
      <path clip-path="url(#ped7569a085)" d="M 63 101.52 
L 453.6 101.52 
" style="fill:none;stroke:#cccccc;stroke-linecap:round;stroke-width:0.8;"/>
     </g>
     <g id="line2d_16"/>
     <g id="text_12">
      <!-- 30 -->
      <defs>
       <path d="M 4.203125 18.890625 
L 12.984375 20.0625 
Q 14.5 12.59375 18.140625 9.296875 
Q 21.78125 6 27 6 
Q 33.203125 6 37.46875 10.296875 
Q 41.75 14.59375 41.75 20.953125 
Q 41.75 27 37.796875 30.921875 
Q 33.84375 34.859375 27.734375 34.859375 
Q 25.25 34.859375 21.53125 33.890625 
L 22.515625 41.609375 
Q 23.390625 41.5 23.921875 41.5 
Q 29.546875 41.5 34.03125 44.421875 
Q 38.53125 47.359375 38.53125 53.46875 
Q 38.53125 58.296875 35.25 61.46875 
Q 31.984375 64.65625 26.8125 64.65625 
Q 21.6875 64.65625 18.265625 61.421875 
Q 14.84375 58.203125 13.875 51.765625 
L 5.078125 53.328125 
Q 6.6875 62.15625 12.390625 67.015625 
Q 18.109375 71.875 26.609375 71.875 
Q 32.46875 71.875 37.390625 69.359375 
Q 42.328125 66.84375 44.9375 62.5 
Q 47.5625 58.15625 47.5625 53.265625 
Q 47.5625 48.640625 45.0625 44.828125 
Q 42.578125 41.015625 37.703125 38.765625 
Q 44.046875 37.3125 47.5625 32.6875 
Q 51.078125 28.078125 51.078125 21.140625 
Q 51.078125 11.765625 44.234375 5.25 
Q 37.40625 -1.265625 26.953125 -1.265625 
Q 17.53125 -1.265625 11.296875 4.34375 
Q 5.078125 9.96875 4.203125 18.890625 
z
" id="ArialMT-51"/>
      </defs>
      <g style="fill:#871f78;" transform="translate(48.378125 105.098906)scale(0.1 -0.1)">
       <use xlink:href="#ArialMT-51"/>
       <use x="55.615234" xlink:href="#ArialMT-48"/>
      </g>
     </g>
    </g>
    <g id="ytick_5">
     <g id="line2d_17">
      <path clip-path="url(#ped7569a085)" d="M 63 71.28 
L 453.6 71.28 
" style="fill:none;stroke:#cccccc;stroke-linecap:round;stroke-width:0.8;"/>
     </g>
     <g id="line2d_18"/>
     <g id="text_13">
      <!-- 40 -->
      <defs>
       <path d="M 32.328125 0 
L 32.328125 17.140625 
L 1.265625 17.140625 
L 1.265625 25.203125 
L 33.9375 71.578125 
L 41.109375 71.578125 
L 41.109375 25.203125 
L 50.78125 25.203125 
L 50.78125 17.140625 
L 41.109375 17.140625 
L 41.109375 0 
z
M 32.328125 25.203125 
L 32.328125 57.46875 
L 9.90625 25.203125 
z
" id="ArialMT-52"/>
      </defs>
      <g style="fill:#871f78;" transform="translate(48.378125 74.858906)scale(0.1 -0.1)">
       <use xlink:href="#ArialMT-52"/>
       <use x="55.615234" xlink:href="#ArialMT-48"/>
      </g>
     </g>
    </g>
    <g id="ytick_6">
     <g id="line2d_19">
      <path clip-path="url(#ped7569a085)" d="M 63 41.04 
L 453.6 41.04 
" style="fill:none;stroke:#cccccc;stroke-linecap:round;stroke-width:0.8;"/>
     </g>
     <g id="line2d_20"/>
     <g id="text_14">
      <!-- 50 -->
      <defs>
       <path d="M 4.15625 18.75 
L 13.375 19.53125 
Q 14.40625 12.796875 18.140625 9.390625 
Q 21.875 6 27.15625 6 
Q 33.5 6 37.890625 10.78125 
Q 42.28125 15.578125 42.28125 23.484375 
Q 42.28125 31 38.0625 35.34375 
Q 33.84375 39.703125 27 39.703125 
Q 22.75 39.703125 19.328125 37.765625 
Q 15.921875 35.84375 13.96875 32.765625 
L 5.71875 33.84375 
L 12.640625 70.609375 
L 48.25 70.609375 
L 48.25 62.203125 
L 19.671875 62.203125 
L 15.828125 42.96875 
Q 22.265625 47.46875 29.34375 47.46875 
Q 38.71875 47.46875 45.15625 40.96875 
Q 51.609375 34.46875 51.609375 24.265625 
Q 51.609375 14.546875 45.953125 7.46875 
Q 39.0625 -1.21875 27.15625 -1.21875 
Q 17.390625 -1.21875 11.203125 4.25 
Q 5.03125 9.71875 4.15625 18.75 
z
" id="ArialMT-53"/>
      </defs>
      <g style="fill:#871f78;" transform="translate(48.378125 44.618906)scale(0.1 -0.1)">
       <use xlink:href="#ArialMT-53"/>
       <use x="55.615234" xlink:href="#ArialMT-48"/>
      </g>
     </g>
    </g>
   </g>
   <g id="patch_3">
    <path clip-path="url(#ped7569a085)" d="M 80.754545 192.24 
L 81.934249 192.24 
L 81.934249 192.24 
L 80.754545 192.24 
z
" style="fill:#871f78;opacity:0.35;"/>
   </g>
   <g id="patch_4">
    <path clip-path="url(#ped7569a085)" d="M 82.229175 192.24 
L 83.408879 192.24 
L 83.408879 192.24 
L 82.229175 192.24 
z
" style="fill:#871f78;opacity:0.35;"/>
   </g>
   <g id="patch_5">
    <path clip-path="url(#ped7569a085)" d="M 83.703805 192.24 
L 84.88351 192.24 
L 84.88351 192.24 
L 83.703805 192.24 
z
" style="fill:#871f78;opacity:0.35;"/>
   </g>
   <g id="patch_6">
    <path clip-path="url(#ped7569a085)" d="M 85.178436 192.24 
L 86.35814 192.24 
L 86.35814 185.231239 
L 85.178436 185.231239 
z
" style="fill:#871f78;opacity:0.35;"/>
   </g>
   <g id="patch_7">
    <path clip-path="url(#ped7569a085)" d="M 86.653066 192.24 
L 87.83277 192.24 
L 87.83277 192.24 
L 86.653066 192.24 
z
" style="fill:#871f78;opacity:0.35;"/>
   </g>
   <g id="patch_8">
    <path clip-path="url(#ped7569a085)" d="M 88.127696 192.24 
L 89.3074 192.24 
L 89.3074 192.24 
L 88.127696 192.24 
z
" style="fill:#871f78;opacity:0.35;"/>
   </g>
   <g id="patch_9">
    <path clip-path="url(#ped7569a085)" d="M 89.602326 192.24 
L 90.78203 192.24 
L 90.78203 185.231239 
L 89.602326 185.231239 
z
" style="fill:#871f78;opacity:0.35;"/>
   </g>
   <g id="patch_10">
    <path clip-path="url(#ped7569a085)" d="M 91.076956 192.24 
L 92.25666 192.24 
L 92.25666 192.24 
L 91.076956 192.24 
z
" style="fill:#871f78;opacity:0.35;"/>
   </g>
   <g id="patch_11">
    <path clip-path="url(#ped7569a085)" d="M 92.551586 192.24 
L 93.73129 192.24 
L 93.73129 185.231239 
L 92.551586 185.231239 
z
" style="fill:#871f78;opacity:0.35;"/>
   </g>
   <g id="patch_12">
    <path clip-path="url(#ped7569a085)" d="M 94.026216 192.24 
L 95.20592 192.24 
L 95.20592 192.24 
L 94.026216 192.24 
z
" style="fill:#871f78;opacity:0.35;"/>
   </g>
   <g id="patch_13">
    <path clip-path="url(#ped7569a085)" d="M 95.500846 192.24 
L 96.68055 192.24 
L 96.68055 185.231239 
L 95.500846 185.231239 
z
" style="fill:#871f78;opacity:0.35;"/>
   </g>
   <g id="patch_14">
    <path clip-path="url(#ped7569a085)" d="M 96.975476 192.24 
L 98.15518 192.24 
L 98.15518 192.24 
L 96.975476 192.24 
z
" style="fill:#871f78;opacity:0.35;"/>
   </g>
   <g id="patch_15">
    <path clip-path="url(#ped7569a085)" d="M 98.450106 192.24 
L 99.62981 192.24 
L 99.62981 192.24 
L 98.450106 192.24 
z
" style="fill:#871f78;opacity:0.35;"/>
   </g>
   <g id="patch_16">
    <path clip-path="url(#ped7569a085)" d="M 99.924736 192.24 
L 101.10444 192.24 
L 101.10444 185.231239 
L 99.924736 185.231239 
z
" style="fill:#871f78;opacity:0.35;"/>
   </g>
   <g id="patch_17">
    <path clip-path="url(#ped7569a085)" d="M 101.399366 192.24 
L 102.57907 192.24 
L 102.57907 192.24 
L 101.399366 192.24 
z
" style="fill:#871f78;opacity:0.35;"/>
   </g>
   <g id="patch_18">
    <path clip-path="url(#ped7569a085)" d="M 102.873996 192.24 
L 104.0537 192.24 
L 104.0537 192.24 
L 102.873996 192.24 
z
" style="fill:#871f78;opacity:0.35;"/>
   </g>
   <g id="patch_19">
    <path clip-path="url(#ped7569a085)" d="M 104.348626 192.24 
L 105.52833 192.24 
L 105.52833 192.24 
L 104.348626 192.24 
z
" style="fill:#871f78;opacity:0.35;"/>
   </g>
   <g id="patch_20">
    <path clip-path="url(#ped7569a085)" d="M 105.823256 192.24 
L 107.00296 192.24 
L 107.00296 192.24 
L 105.823256 192.24 
z
" style="fill:#871f78;opacity:0.35;"/>
   </g>
   <g id="patch_21">
    <path clip-path="url(#ped7569a085)" d="M 107.297886 192.24 
L 108.47759 192.24 
L 108.47759 192.24 
L 107.297886 192.24 
z
" style="fill:#871f78;opacity:0.35;"/>
   </g>
   <g id="patch_22">
    <path clip-path="url(#ped7569a085)" d="M 108.772516 192.24 
L 109.95222 192.24 
L 109.95222 192.24 
L 108.772516 192.24 
z
" style="fill:#871f78;opacity:0.35;"/>
   </g>
   <g id="patch_23">
    <path clip-path="url(#ped7569a085)" d="M 110.247146 192.24 
L 111.42685 192.24 
L 111.42685 192.24 
L 110.247146 192.24 
z
" style="fill:#871f78;opacity:0.35;"/>
   </g>
   <g id="patch_24">
    <path clip-path="url(#ped7569a085)" d="M 111.721776 192.24 
L 112.90148 192.24 
L 112.90148 192.24 
L 111.721776 192.24 
z
" style="fill:#871f78;opacity:0.35;"/>
   </g>
   <g id="patch_25">
    <path clip-path="url(#ped7569a085)" d="M 113.196406 192.24 
L 114.37611 192.24 
L 114.37611 185.231239 
L 113.196406 185.231239 
z
" style="fill:#871f78;opacity:0.35;"/>
   </g>
   <g id="patch_26">
    <path clip-path="url(#ped7569a085)" d="M 114.671036 192.24 
L 115.85074 192.24 
L 115.85074 192.24 
L 114.671036 192.24 
z
" style="fill:#871f78;opacity:0.35;"/>
   </g>
   <g id="patch_27">
    <path clip-path="url(#ped7569a085)" d="M 116.145666 192.24 
L 117.32537 192.24 
L 117.32537 185.231239 
L 116.145666 185.231239 
z
" style="fill:#871f78;opacity:0.35;"/>
   </g>
   <g id="patch_28">
    <path clip-path="url(#ped7569a085)" d="M 117.620296 192.24 
L 118.8 192.24 
L 118.8 185.231239 
L 117.620296 185.231239 
z
" style="fill:#871f78;opacity:0.35;"/>
   </g>
   <g id="patch_29">
    <path clip-path="url(#ped7569a085)" d="M 119.094926 192.24 
L 120.27463 192.24 
L 120.27463 185.231239 
L 119.094926 185.231239 
z
" style="fill:#871f78;opacity:0.35;"/>
   </g>
   <g id="patch_30">
    <path clip-path="url(#ped7569a085)" d="M 120.569556 192.24 
L 121.74926 192.24 
L 121.74926 192.24 
L 120.569556 192.24 
z
" style="fill:#871f78;opacity:0.35;"/>
   </g>
   <g id="patch_31">
    <path clip-path="url(#ped7569a085)" d="M 122.044186 192.24 
L 123.22389 192.24 
L 123.22389 192.24 
L 122.044186 192.24 
z
" style="fill:#871f78;opacity:0.35;"/>
   </g>
   <g id="patch_32">
    <path clip-path="url(#ped7569a085)" d="M 123.518816 192.24 
L 124.69852 192.24 
L 124.69852 192.24 
L 123.518816 192.24 
z
" style="fill:#871f78;opacity:0.35;"/>
   </g>
   <g id="patch_33">
    <path clip-path="url(#ped7569a085)" d="M 124.993446 192.24 
L 126.17315 192.24 
L 126.17315 192.24 
L 124.993446 192.24 
z
" style="fill:#871f78;opacity:0.35;"/>
   </g>
   <g id="patch_34">
    <path clip-path="url(#ped7569a085)" d="M 126.468076 192.24 
L 127.64778 192.24 
L 127.64778 192.24 
L 126.468076 192.24 
z
" style="fill:#871f78;opacity:0.35;"/>
   </g>
   <g id="patch_35">
    <path clip-path="url(#ped7569a085)" d="M 127.942706 192.24 
L 129.12241 192.24 
L 129.12241 185.231239 
L 127.942706 185.231239 
z
" style="fill:#871f78;opacity:0.35;"/>
   </g>
   <g id="patch_36">
    <path clip-path="url(#ped7569a085)" d="M 129.417336 192.24 
L 130.59704 192.24 
L 130.59704 199.248761 
L 129.417336 199.248761 
z
" style="fill:#871f78;opacity:0.35;"/>
   </g>
   <g id="patch_37">
    <path clip-path="url(#ped7569a085)" d="M 130.891966 192.24 
L 132.07167 192.24 
L 132.07167 185.231239 
L 130.891966 185.231239 
z
" style="fill:#871f78;opacity:0.35;"/>
   </g>
   <g id="patch_38">
    <path clip-path="url(#ped7569a085)" d="M 132.366596 192.24 
L 133.5463 192.24 
L 133.5463 192.24 
L 132.366596 192.24 
z
" style="fill:#871f78;opacity:0.35;"/>
   </g>
   <g id="patch_39">
    <path clip-path="url(#ped7569a085)" d="M 133.841226 192.24 
L 135.02093 192.24 
L 135.02093 192.24 
L 133.841226 192.24 
z
" style="fill:#871f78;opacity:0.35;"/>
   </g>
   <g id="patch_40">
    <path clip-path="url(#ped7569a085)" d="M 135.315856 192.24 
L 136.49556 192.24 
L 136.49556 192.24 
L 135.315856 192.24 
z
" style="fill:#871f78;opacity:0.35;"/>
   </g>
   <g id="patch_41">
    <path clip-path="url(#ped7569a085)" d="M 136.790486 192.24 
L 137.97019 192.24 
L 137.97019 185.231239 
L 136.790486 185.231239 
z
" style="fill:#871f78;opacity:0.35;"/>
   </g>
   <g id="patch_42">
    <path clip-path="url(#ped7569a085)" d="M 138.265116 192.24 
L 139.44482 192.24 
L 139.44482 192.24 
L 138.265116 192.24 
z
" style="fill:#871f78;opacity:0.35;"/>
   </g>
   <g id="patch_43">
    <path clip-path="url(#ped7569a085)" d="M 139.739746 192.24 
L 140.91945 192.24 
L 140.91945 192.24 
L 139.739746 192.24 
z
" style="fill:#871f78;opacity:0.35;"/>
   </g>
   <g id="patch_44">
    <path clip-path="url(#ped7569a085)" d="M 141.214376 192.24 
L 142.39408 192.24 
L 142.39408 192.24 
L 141.214376 192.24 
z
" style="fill:#871f78;opacity:0.35;"/>
   </g>
   <g id="patch_45">
    <path clip-path="url(#ped7569a085)" d="M 142.689006 192.24 
L 143.86871 192.24 
L 143.86871 192.24 
L 142.689006 192.24 
z
" style="fill:#871f78;opacity:0.35;"/>
   </g>
   <g id="patch_46">
    <path clip-path="url(#ped7569a085)" d="M 144.163636 192.24 
L 145.34334 192.24 
L 145.34334 192.24 
L 144.163636 192.24 
z
" style="fill:#871f78;opacity:0.35;"/>
   </g>
   <g id="patch_47">
    <path clip-path="url(#ped7569a085)" d="M 145.638266 192.24 
L 146.81797 192.24 
L 146.81797 185.231239 
L 145.638266 185.231239 
z
" style="fill:#871f78;opacity:0.35;"/>
   </g>
   <g id="patch_48">
    <path clip-path="url(#ped7569a085)" d="M 147.112896 192.24 
L 148.2926 192.24 
L 148.2926 185.231239 
L 147.112896 185.231239 
z
" style="fill:#871f78;opacity:0.35;"/>
   </g>
   <g id="patch_49">
    <path clip-path="url(#ped7569a085)" d="M 148.587526 192.24 
L 149.76723 192.24 
L 149.76723 192.24 
L 148.587526 192.24 
z
" style="fill:#871f78;opacity:0.35;"/>
   </g>
   <g id="patch_50">
    <path clip-path="url(#ped7569a085)" d="M 150.062156 192.24 
L 151.24186 192.24 
L 151.24186 192.24 
L 150.062156 192.24 
z
" style="fill:#871f78;opacity:0.35;"/>
   </g>
   <g id="patch_51">
    <path clip-path="url(#ped7569a085)" d="M 151.536786 192.24 
L 152.71649 192.24 
L 152.71649 192.24 
L 151.536786 192.24 
z
" style="fill:#871f78;opacity:0.35;"/>
   </g>
   <g id="patch_52">
    <path clip-path="url(#ped7569a085)" d="M 153.011416 192.24 
L 154.191121 192.24 
L 154.191121 192.24 
L 153.011416 192.24 
z
" style="fill:#871f78;opacity:0.35;"/>
   </g>
   <g id="patch_53">
    <path clip-path="url(#ped7569a085)" d="M 154.486047 192.24 
L 155.665751 192.24 
L 155.665751 192.24 
L 154.486047 192.24 
z
" style="fill:#871f78;opacity:0.35;"/>
   </g>
   <g id="patch_54">
    <path clip-path="url(#ped7569a085)" d="M 155.960677 192.24 
L 157.140381 192.24 
L 157.140381 192.24 
L 155.960677 192.24 
z
" style="fill:#871f78;opacity:0.35;"/>
   </g>
   <g id="patch_55">
    <path clip-path="url(#ped7569a085)" d="M 157.435307 192.24 
L 158.615011 192.24 
L 158.615011 192.24 
L 157.435307 192.24 
z
" style="fill:#871f78;opacity:0.35;"/>
   </g>
   <g id="patch_56">
    <path clip-path="url(#ped7569a085)" d="M 158.909937 192.24 
L 160.089641 192.24 
L 160.089641 178.222478 
L 158.909937 178.222478 
z
" style="fill:#871f78;opacity:0.35;"/>
   </g>
   <g id="patch_57">
    <path clip-path="url(#ped7569a085)" d="M 160.384567 192.24 
L 161.564271 192.24 
L 161.564271 192.24 
L 160.384567 192.24 
z
" style="fill:#871f78;opacity:0.35;"/>
   </g>
   <g id="patch_58">
    <path clip-path="url(#ped7569a085)" d="M 161.859197 192.24 
L 163.038901 192.24 
L 163.038901 192.24 
L 161.859197 192.24 
z
" style="fill:#871f78;opacity:0.35;"/>
   </g>
   <g id="patch_59">
    <path clip-path="url(#ped7569a085)" d="M 163.333827 192.24 
L 164.513531 192.24 
L 164.513531 192.24 
L 163.333827 192.24 
z
" style="fill:#871f78;opacity:0.35;"/>
   </g>
   <g id="patch_60">
    <path clip-path="url(#ped7569a085)" d="M 164.808457 192.24 
L 165.988161 192.24 
L 165.988161 192.24 
L 164.808457 192.24 
z
" style="fill:#871f78;opacity:0.35;"/>
   </g>
   <g id="patch_61">
    <path clip-path="url(#ped7569a085)" d="M 166.283087 192.24 
L 167.462791 192.24 
L 167.462791 192.24 
L 166.283087 192.24 
z
" style="fill:#871f78;opacity:0.35;"/>
   </g>
   <g id="patch_62">
    <path clip-path="url(#ped7569a085)" d="M 167.757717 192.24 
L 168.937421 192.24 
L 168.937421 192.24 
L 167.757717 192.24 
z
" style="fill:#871f78;opacity:0.35;"/>
   </g>
   <g id="patch_63">
    <path clip-path="url(#ped7569a085)" d="M 169.232347 192.24 
L 170.412051 192.24 
L 170.412051 192.24 
L 169.232347 192.24 
z
" style="fill:#871f78;opacity:0.35;"/>
   </g>
   <g id="patch_64">
    <path clip-path="url(#ped7569a085)" d="M 170.706977 192.24 
L 171.886681 192.24 
L 171.886681 185.231239 
L 170.706977 185.231239 
z
" style="fill:#871f78;opacity:0.35;"/>
   </g>
   <g id="patch_65">
    <path clip-path="url(#ped7569a085)" d="M 172.181607 192.24 
L 173.361311 192.24 
L 173.361311 192.24 
L 172.181607 192.24 
z
" style="fill:#871f78;opacity:0.35;"/>
   </g>
   <g id="patch_66">
    <path clip-path="url(#ped7569a085)" d="M 173.656237 192.24 
L 174.835941 192.24 
L 174.835941 192.24 
L 173.656237 192.24 
z
" style="fill:#871f78;opacity:0.35;"/>
   </g>
   <g id="patch_67">
    <path clip-path="url(#ped7569a085)" d="M 175.130867 192.24 
L 176.310571 192.24 
L 176.310571 192.24 
L 175.130867 192.24 
z
" style="fill:#871f78;opacity:0.35;"/>
   </g>
   <g id="patch_68">
    <path clip-path="url(#ped7569a085)" d="M 176.605497 192.24 
L 177.785201 192.24 
L 177.785201 192.24 
L 176.605497 192.24 
z
" style="fill:#871f78;opacity:0.35;"/>
   </g>
   <g id="patch_69">
    <path clip-path="url(#ped7569a085)" d="M 178.080127 192.24 
L 179.259831 192.24 
L 179.259831 192.24 
L 178.080127 192.24 
z
" style="fill:#871f78;opacity:0.35;"/>
   </g>
   <g id="patch_70">
    <path clip-path="url(#ped7569a085)" d="M 179.554757 192.24 
L 180.734461 192.24 
L 180.734461 178.222478 
L 179.554757 178.222478 
z
" style="fill:#871f78;opacity:0.35;"/>
   </g>
   <g id="patch_71">
    <path clip-path="url(#ped7569a085)" d="M 181.029387 192.24 
L 182.209091 192.24 
L 182.209091 192.24 
L 181.029387 192.24 
z
" style="fill:#871f78;opacity:0.35;"/>
   </g>
   <g id="patch_72">
    <path clip-path="url(#ped7569a085)" d="M 182.504017 192.24 
L 183.683721 192.24 
L 183.683721 192.24 
L 182.504017 192.24 
z
" style="fill:#871f78;opacity:0.35;"/>
   </g>
   <g id="patch_73">
    <path clip-path="url(#ped7569a085)" d="M 183.978647 192.24 
L 185.158351 192.24 
L 185.158351 192.24 
L 183.978647 192.24 
z
" style="fill:#871f78;opacity:0.35;"/>
   </g>
   <g id="patch_74">
    <path clip-path="url(#ped7569a085)" d="M 185.453277 192.24 
L 186.632981 192.24 
L 186.632981 192.24 
L 185.453277 192.24 
z
" style="fill:#871f78;opacity:0.35;"/>
   </g>
   <g id="patch_75">
    <path clip-path="url(#ped7569a085)" d="M 186.927907 192.24 
L 188.107611 192.24 
L 188.107611 185.231239 
L 186.927907 185.231239 
z
" style="fill:#871f78;opacity:0.35;"/>
   </g>
   <g id="patch_76">
    <path clip-path="url(#ped7569a085)" d="M 188.402537 192.24 
L 189.582241 192.24 
L 189.582241 192.24 
L 188.402537 192.24 
z
" style="fill:#871f78;opacity:0.35;"/>
   </g>
   <g id="patch_77">
    <path clip-path="url(#ped7569a085)" d="M 189.877167 192.24 
L 191.056871 192.24 
L 191.056871 192.24 
L 189.877167 192.24 
z
" style="fill:#871f78;opacity:0.35;"/>
   </g>
   <g id="patch_78">
    <path clip-path="url(#ped7569a085)" d="M 191.351797 192.24 
L 192.531501 192.24 
L 192.531501 192.24 
L 191.351797 192.24 
z
" style="fill:#871f78;opacity:0.35;"/>
   </g>
   <g id="patch_79">
    <path clip-path="url(#ped7569a085)" d="M 192.826427 192.24 
L 194.006131 192.24 
L 194.006131 192.24 
L 192.826427 192.24 
z
" style="fill:#871f78;opacity:0.35;"/>
   </g>
   <g id="patch_80">
    <path clip-path="url(#ped7569a085)" d="M 194.301057 192.24 
L 195.480761 192.24 
L 195.480761 192.24 
L 194.301057 192.24 
z
" style="fill:#871f78;opacity:0.35;"/>
   </g>
   <g id="patch_81">
    <path clip-path="url(#ped7569a085)" d="M 195.775687 192.24 
L 196.955391 192.24 
L 196.955391 185.231239 
L 195.775687 185.231239 
z
" style="fill:#871f78;opacity:0.35;"/>
   </g>
   <g id="patch_82">
    <path clip-path="url(#ped7569a085)" d="M 197.250317 192.24 
L 198.430021 192.24 
L 198.430021 171.213717 
L 197.250317 171.213717 
z
" style="fill:#871f78;opacity:0.35;"/>
   </g>
   <g id="patch_83">
    <path clip-path="url(#ped7569a085)" d="M 198.724947 192.24 
L 199.904651 192.24 
L 199.904651 185.231239 
L 198.724947 185.231239 
z
" style="fill:#871f78;opacity:0.35;"/>
   </g>
   <g id="patch_84">
    <path clip-path="url(#ped7569a085)" d="M 200.199577 192.24 
L 201.379281 192.24 
L 201.379281 192.24 
L 200.199577 192.24 
z
" style="fill:#871f78;opacity:0.35;"/>
   </g>
   <g id="patch_85">
    <path clip-path="url(#ped7569a085)" d="M 201.674207 192.24 
L 202.853911 192.24 
L 202.853911 192.24 
L 201.674207 192.24 
z
" style="fill:#871f78;opacity:0.35;"/>
   </g>
   <g id="patch_86">
    <path clip-path="url(#ped7569a085)" d="M 203.148837 192.24 
L 204.328541 192.24 
L 204.328541 192.24 
L 203.148837 192.24 
z
" style="fill:#871f78;opacity:0.35;"/>
   </g>
   <g id="patch_87">
    <path clip-path="url(#ped7569a085)" d="M 204.623467 192.24 
L 205.803171 192.24 
L 205.803171 192.24 
L 204.623467 192.24 
z
" style="fill:#871f78;opacity:0.35;"/>
   </g>
   <g id="patch_88">
    <path clip-path="url(#ped7569a085)" d="M 206.098097 192.24 
L 207.277801 192.24 
L 207.277801 199.248761 
L 206.098097 199.248761 
z
" style="fill:#871f78;opacity:0.35;"/>
   </g>
   <g id="patch_89">
    <path clip-path="url(#ped7569a085)" d="M 207.572727 192.24 
L 208.752431 192.24 
L 208.752431 192.24 
L 207.572727 192.24 
z
" style="fill:#871f78;opacity:0.35;"/>
   </g>
   <g id="patch_90">
    <path clip-path="url(#ped7569a085)" d="M 209.047357 192.24 
L 210.227061 192.24 
L 210.227061 192.24 
L 209.047357 192.24 
z
" style="fill:#871f78;opacity:0.35;"/>
   </g>
   <g id="patch_91">
    <path clip-path="url(#ped7569a085)" d="M 210.521987 192.24 
L 211.701691 192.24 
L 211.701691 192.24 
L 210.521987 192.24 
z
" style="fill:#871f78;opacity:0.35;"/>
   </g>
   <g id="patch_92">
    <path clip-path="url(#ped7569a085)" d="M 211.996617 192.24 
L 213.176321 192.24 
L 213.176321 192.24 
L 211.996617 192.24 
z
" style="fill:#871f78;opacity:0.35;"/>
   </g>
   <g id="patch_93">
    <path clip-path="url(#ped7569a085)" d="M 213.471247 192.24 
L 214.650951 192.24 
L 214.650951 192.24 
L 213.471247 192.24 
z
" style="fill:#871f78;opacity:0.35;"/>
   </g>
   <g id="patch_94">
    <path clip-path="url(#ped7569a085)" d="M 214.945877 192.24 
L 216.125581 192.24 
L 216.125581 192.24 
L 214.945877 192.24 
z
" style="fill:#871f78;opacity:0.35;"/>
   </g>
   <g id="patch_95">
    <path clip-path="url(#ped7569a085)" d="M 216.420507 192.24 
L 217.600211 192.24 
L 217.600211 192.24 
L 216.420507 192.24 
z
" style="fill:#871f78;opacity:0.35;"/>
   </g>
   <g id="patch_96">
    <path clip-path="url(#ped7569a085)" d="M 217.895137 192.24 
L 219.074841 192.24 
L 219.074841 185.231239 
L 217.895137 185.231239 
z
" style="fill:#871f78;opacity:0.35;"/>
   </g>
   <g id="patch_97">
    <path clip-path="url(#ped7569a085)" d="M 219.369767 192.24 
L 220.549471 192.24 
L 220.549471 178.222478 
L 219.369767 178.222478 
z
" style="fill:#871f78;opacity:0.35;"/>
   </g>
   <g id="patch_98">
    <path clip-path="url(#ped7569a085)" d="M 220.844397 192.24 
L 222.024101 192.24 
L 222.024101 171.213717 
L 220.844397 171.213717 
z
" style="fill:#871f78;opacity:0.35;"/>
   </g>
   <g id="patch_99">
    <path clip-path="url(#ped7569a085)" d="M 222.319027 192.24 
L 223.498732 192.24 
L 223.498732 185.231239 
L 222.319027 185.231239 
z
" style="fill:#871f78;opacity:0.35;"/>
   </g>
   <g id="patch_100">
    <path clip-path="url(#ped7569a085)" d="M 223.793658 192.24 
L 224.973362 192.24 
L 224.973362 192.24 
L 223.793658 192.24 
z
" style="fill:#871f78;opacity:0.35;"/>
   </g>
   <g id="patch_101">
    <path clip-path="url(#ped7569a085)" d="M 225.268288 192.24 
L 226.447992 192.24 
L 226.447992 192.24 
L 225.268288 192.24 
z
" style="fill:#871f78;opacity:0.35;"/>
   </g>
   <g id="patch_102">
    <path clip-path="url(#ped7569a085)" d="M 226.742918 192.24 
L 227.922622 192.24 
L 227.922622 185.231239 
L 226.742918 185.231239 
z
" style="fill:#871f78;opacity:0.35;"/>
   </g>
   <g id="patch_103">
    <path clip-path="url(#ped7569a085)" d="M 228.217548 192.24 
L 229.397252 192.24 
L 229.397252 185.231239 
L 228.217548 185.231239 
z
" style="fill:#871f78;opacity:0.35;"/>
   </g>
   <g id="patch_104">
    <path clip-path="url(#ped7569a085)" d="M 229.692178 192.24 
L 230.871882 192.24 
L 230.871882 185.231239 
L 229.692178 185.231239 
z
" style="fill:#871f78;opacity:0.35;"/>
   </g>
   <g id="patch_105">
    <path clip-path="url(#ped7569a085)" d="M 231.166808 192.24 
L 232.346512 192.24 
L 232.346512 192.24 
L 231.166808 192.24 
z
" style="fill:#871f78;opacity:0.35;"/>
   </g>
   <g id="patch_106">
    <path clip-path="url(#ped7569a085)" d="M 232.641438 192.24 
L 233.821142 192.24 
L 233.821142 185.231239 
L 232.641438 185.231239 
z
" style="fill:#871f78;opacity:0.35;"/>
   </g>
   <g id="patch_107">
    <path clip-path="url(#ped7569a085)" d="M 234.116068 192.24 
L 235.295772 192.24 
L 235.295772 192.24 
L 234.116068 192.24 
z
" style="fill:#871f78;opacity:0.35;"/>
   </g>
   <g id="patch_108">
    <path clip-path="url(#ped7569a085)" d="M 235.590698 192.24 
L 236.770402 192.24 
L 236.770402 192.24 
L 235.590698 192.24 
z
" style="fill:#871f78;opacity:0.35;"/>
   </g>
   <g id="patch_109">
    <path clip-path="url(#ped7569a085)" d="M 237.065328 192.24 
L 238.245032 192.24 
L 238.245032 192.24 
L 237.065328 192.24 
z
" style="fill:#871f78;opacity:0.35;"/>
   </g>
   <g id="patch_110">
    <path clip-path="url(#ped7569a085)" d="M 238.539958 192.24 
L 239.719662 192.24 
L 239.719662 192.24 
L 238.539958 192.24 
z
" style="fill:#871f78;opacity:0.35;"/>
   </g>
   <g id="patch_111">
    <path clip-path="url(#ped7569a085)" d="M 240.014588 192.24 
L 241.194292 192.24 
L 241.194292 192.24 
L 240.014588 192.24 
z
" style="fill:#871f78;opacity:0.35;"/>
   </g>
   <g id="patch_112">
    <path clip-path="url(#ped7569a085)" d="M 241.489218 192.24 
L 242.668922 192.24 
L 242.668922 192.24 
L 241.489218 192.24 
z
" style="fill:#871f78;opacity:0.35;"/>
   </g>
   <g id="patch_113">
    <path clip-path="url(#ped7569a085)" d="M 242.963848 192.24 
L 244.143552 192.24 
L 244.143552 192.24 
L 242.963848 192.24 
z
" style="fill:#871f78;opacity:0.35;"/>
   </g>
   <g id="patch_114">
    <path clip-path="url(#ped7569a085)" d="M 244.438478 192.24 
L 245.618182 192.24 
L 245.618182 192.24 
L 244.438478 192.24 
z
" style="fill:#871f78;opacity:0.35;"/>
   </g>
   <g id="patch_115">
    <path clip-path="url(#ped7569a085)" d="M 245.913108 192.24 
L 247.092812 192.24 
L 247.092812 185.231239 
L 245.913108 185.231239 
z
" style="fill:#871f78;opacity:0.35;"/>
   </g>
   <g id="patch_116">
    <path clip-path="url(#ped7569a085)" d="M 247.387738 192.24 
L 248.567442 192.24 
L 248.567442 185.231239 
L 247.387738 185.231239 
z
" style="fill:#871f78;opacity:0.35;"/>
   </g>
   <g id="patch_117">
    <path clip-path="url(#ped7569a085)" d="M 248.862368 192.24 
L 250.042072 192.24 
L 250.042072 192.24 
L 248.862368 192.24 
z
" style="fill:#871f78;opacity:0.35;"/>
   </g>
   <g id="patch_118">
    <path clip-path="url(#ped7569a085)" d="M 250.336998 192.24 
L 251.516702 192.24 
L 251.516702 192.24 
L 250.336998 192.24 
z
" style="fill:#871f78;opacity:0.35;"/>
   </g>
   <g id="patch_119">
    <path clip-path="url(#ped7569a085)" d="M 251.811628 192.24 
L 252.991332 192.24 
L 252.991332 192.24 
L 251.811628 192.24 
z
" style="fill:#871f78;opacity:0.35;"/>
   </g>
   <g id="patch_120">
    <path clip-path="url(#ped7569a085)" d="M 253.286258 192.24 
L 254.465962 192.24 
L 254.465962 192.24 
L 253.286258 192.24 
z
" style="fill:#871f78;opacity:0.35;"/>
   </g>
   <g id="patch_121">
    <path clip-path="url(#ped7569a085)" d="M 254.760888 192.24 
L 255.940592 192.24 
L 255.940592 185.231239 
L 254.760888 185.231239 
z
" style="fill:#871f78;opacity:0.35;"/>
   </g>
   <g id="patch_122">
    <path clip-path="url(#ped7569a085)" d="M 256.235518 192.24 
L 257.415222 192.24 
L 257.415222 192.24 
L 256.235518 192.24 
z
" style="fill:#871f78;opacity:0.35;"/>
   </g>
   <g id="patch_123">
    <path clip-path="url(#ped7569a085)" d="M 257.710148 192.24 
L 258.889852 192.24 
L 258.889852 192.24 
L 257.710148 192.24 
z
" style="fill:#871f78;opacity:0.35;"/>
   </g>
   <g id="patch_124">
    <path clip-path="url(#ped7569a085)" d="M 259.184778 192.24 
L 260.364482 192.24 
L 260.364482 192.24 
L 259.184778 192.24 
z
" style="fill:#871f78;opacity:0.35;"/>
   </g>
   <g id="patch_125">
    <path clip-path="url(#ped7569a085)" d="M 260.659408 192.24 
L 261.839112 192.24 
L 261.839112 192.24 
L 260.659408 192.24 
z
" style="fill:#871f78;opacity:0.35;"/>
   </g>
   <g id="patch_126">
    <path clip-path="url(#ped7569a085)" d="M 262.134038 192.24 
L 263.313742 192.24 
L 263.313742 192.24 
L 262.134038 192.24 
z
" style="fill:#871f78;opacity:0.35;"/>
   </g>
   <g id="patch_127">
    <path clip-path="url(#ped7569a085)" d="M 263.608668 192.24 
L 264.788372 192.24 
L 264.788372 192.24 
L 263.608668 192.24 
z
" style="fill:#871f78;opacity:0.35;"/>
   </g>
   <g id="patch_128">
    <path clip-path="url(#ped7569a085)" d="M 265.083298 192.24 
L 266.263002 192.24 
L 266.263002 192.24 
L 265.083298 192.24 
z
" style="fill:#871f78;opacity:0.35;"/>
   </g>
   <g id="patch_129">
    <path clip-path="url(#ped7569a085)" d="M 266.557928 192.24 
L 267.737632 192.24 
L 267.737632 192.24 
L 266.557928 192.24 
z
" style="fill:#871f78;opacity:0.35;"/>
   </g>
   <g id="patch_130">
    <path clip-path="url(#ped7569a085)" d="M 268.032558 192.24 
L 269.212262 192.24 
L 269.212262 192.24 
L 268.032558 192.24 
z
" style="fill:#871f78;opacity:0.35;"/>
   </g>
   <g id="patch_131">
    <path clip-path="url(#ped7569a085)" d="M 269.507188 192.24 
L 270.686892 192.24 
L 270.686892 192.24 
L 269.507188 192.24 
z
" style="fill:#871f78;opacity:0.35;"/>
   </g>
   <g id="patch_132">
    <path clip-path="url(#ped7569a085)" d="M 270.981818 192.24 
L 272.161522 192.24 
L 272.161522 192.24 
L 270.981818 192.24 
z
" style="fill:#871f78;opacity:0.35;"/>
   </g>
   <g id="patch_133">
    <path clip-path="url(#ped7569a085)" d="M 272.456448 192.24 
L 273.636152 192.24 
L 273.636152 185.231239 
L 272.456448 185.231239 
z
" style="fill:#871f78;opacity:0.35;"/>
   </g>
   <g id="patch_134">
    <path clip-path="url(#ped7569a085)" d="M 273.931078 192.24 
L 275.110782 192.24 
L 275.110782 185.231239 
L 273.931078 185.231239 
z
" style="fill:#871f78;opacity:0.35;"/>
   </g>
   <g id="patch_135">
    <path clip-path="url(#ped7569a085)" d="M 275.405708 192.24 
L 276.585412 192.24 
L 276.585412 192.24 
L 275.405708 192.24 
z
" style="fill:#871f78;opacity:0.35;"/>
   </g>
   <g id="patch_136">
    <path clip-path="url(#ped7569a085)" d="M 276.880338 192.24 
L 278.060042 192.24 
L 278.060042 192.24 
L 276.880338 192.24 
z
" style="fill:#871f78;opacity:0.35;"/>
   </g>
   <g id="patch_137">
    <path clip-path="url(#ped7569a085)" d="M 278.354968 192.24 
L 279.534672 192.24 
L 279.534672 192.24 
L 278.354968 192.24 
z
" style="fill:#871f78;opacity:0.35;"/>
   </g>
   <g id="patch_138">
    <path clip-path="url(#ped7569a085)" d="M 279.829598 192.24 
L 281.009302 192.24 
L 281.009302 192.24 
L 279.829598 192.24 
z
" style="fill:#871f78;opacity:0.35;"/>
   </g>
   <g id="patch_139">
    <path clip-path="url(#ped7569a085)" d="M 281.304228 192.24 
L 282.483932 192.24 
L 282.483932 192.24 
L 281.304228 192.24 
z
" style="fill:#871f78;opacity:0.35;"/>
   </g>
   <g id="patch_140">
    <path clip-path="url(#ped7569a085)" d="M 282.778858 192.24 
L 283.958562 192.24 
L 283.958562 192.24 
L 282.778858 192.24 
z
" style="fill:#871f78;opacity:0.35;"/>
   </g>
   <g id="patch_141">
    <path clip-path="url(#ped7569a085)" d="M 284.253488 192.24 
L 285.433192 192.24 
L 285.433192 192.24 
L 284.253488 192.24 
z
" style="fill:#871f78;opacity:0.35;"/>
   </g>
   <g id="patch_142">
    <path clip-path="url(#ped7569a085)" d="M 285.728118 192.24 
L 286.907822 192.24 
L 286.907822 192.24 
L 285.728118 192.24 
z
" style="fill:#871f78;opacity:0.35;"/>
   </g>
   <g id="patch_143">
    <path clip-path="url(#ped7569a085)" d="M 287.202748 192.24 
L 288.382452 192.24 
L 288.382452 192.24 
L 287.202748 192.24 
z
" style="fill:#871f78;opacity:0.35;"/>
   </g>
   <g id="patch_144">
    <path clip-path="url(#ped7569a085)" d="M 288.677378 192.24 
L 289.857082 192.24 
L 289.857082 185.231239 
L 288.677378 185.231239 
z
" style="fill:#871f78;opacity:0.35;"/>
   </g>
   <g id="patch_145">
    <path clip-path="url(#ped7569a085)" d="M 290.152008 192.24 
L 291.331712 192.24 
L 291.331712 171.213717 
L 290.152008 171.213717 
z
" style="fill:#871f78;opacity:0.35;"/>
   </g>
   <g id="patch_146">
    <path clip-path="url(#ped7569a085)" d="M 291.626638 192.24 
L 292.806342 192.24 
L 292.806342 192.24 
L 291.626638 192.24 
z
" style="fill:#871f78;opacity:0.35;"/>
   </g>
   <g id="patch_147">
    <path clip-path="url(#ped7569a085)" d="M 293.101268 192.24 
L 294.280973 192.24 
L 294.280973 192.24 
L 293.101268 192.24 
z
" style="fill:#871f78;opacity:0.35;"/>
   </g>
   <g id="patch_148">
    <path clip-path="url(#ped7569a085)" d="M 294.575899 192.24 
L 295.755603 192.24 
L 295.755603 199.248761 
L 294.575899 199.248761 
z
" style="fill:#871f78;opacity:0.35;"/>
   </g>
   <g id="patch_149">
    <path clip-path="url(#ped7569a085)" d="M 296.050529 192.24 
L 297.230233 192.24 
L 297.230233 185.231239 
L 296.050529 185.231239 
z
" style="fill:#871f78;opacity:0.35;"/>
   </g>
   <g id="patch_150">
    <path clip-path="url(#ped7569a085)" d="M 297.525159 192.24 
L 298.704863 192.24 
L 298.704863 192.24 
L 297.525159 192.24 
z
" style="fill:#871f78;opacity:0.35;"/>
   </g>
   <g id="patch_151">
    <path clip-path="url(#ped7569a085)" d="M 298.999789 192.24 
L 300.179493 192.24 
L 300.179493 192.24 
L 298.999789 192.24 
z
" style="fill:#871f78;opacity:0.35;"/>
   </g>
   <g id="patch_152">
    <path clip-path="url(#ped7569a085)" d="M 300.474419 192.24 
L 301.654123 192.24 
L 301.654123 192.24 
L 300.474419 192.24 
z
" style="fill:#871f78;opacity:0.35;"/>
   </g>
   <g id="patch_153">
    <path clip-path="url(#ped7569a085)" d="M 301.949049 192.24 
L 303.128753 192.24 
L 303.128753 192.24 
L 301.949049 192.24 
z
" style="fill:#871f78;opacity:0.35;"/>
   </g>
   <g id="patch_154">
    <path clip-path="url(#ped7569a085)" d="M 303.423679 192.24 
L 304.603383 192.24 
L 304.603383 192.24 
L 303.423679 192.24 
z
" style="fill:#871f78;opacity:0.35;"/>
   </g>
   <g id="patch_155">
    <path clip-path="url(#ped7569a085)" d="M 304.898309 192.24 
L 306.078013 192.24 
L 306.078013 192.24 
L 304.898309 192.24 
z
" style="fill:#871f78;opacity:0.35;"/>
   </g>
   <g id="patch_156">
    <path clip-path="url(#ped7569a085)" d="M 306.372939 192.24 
L 307.552643 192.24 
L 307.552643 192.24 
L 306.372939 192.24 
z
" style="fill:#871f78;opacity:0.35;"/>
   </g>
   <g id="patch_157">
    <path clip-path="url(#ped7569a085)" d="M 307.847569 192.24 
L 309.027273 192.24 
L 309.027273 192.24 
L 307.847569 192.24 
z
" style="fill:#871f78;opacity:0.35;"/>
   </g>
   <g id="patch_158">
    <path clip-path="url(#ped7569a085)" d="M 309.322199 192.24 
L 310.501903 192.24 
L 310.501903 178.222478 
L 309.322199 178.222478 
z
" style="fill:#871f78;opacity:0.35;"/>
   </g>
   <g id="patch_159">
    <path clip-path="url(#ped7569a085)" d="M 310.796829 192.24 
L 311.976533 192.24 
L 311.976533 192.24 
L 310.796829 192.24 
z
" style="fill:#871f78;opacity:0.35;"/>
   </g>
   <g id="patch_160">
    <path clip-path="url(#ped7569a085)" d="M 312.271459 192.24 
L 313.451163 192.24 
L 313.451163 185.231239 
L 312.271459 185.231239 
z
" style="fill:#871f78;opacity:0.35;"/>
   </g>
   <g id="patch_161">
    <path clip-path="url(#ped7569a085)" d="M 313.746089 192.24 
L 314.925793 192.24 
L 314.925793 192.24 
L 313.746089 192.24 
z
" style="fill:#871f78;opacity:0.35;"/>
   </g>
   <g id="patch_162">
    <path clip-path="url(#ped7569a085)" d="M 315.220719 192.24 
L 316.400423 192.24 
L 316.400423 192.24 
L 315.220719 192.24 
z
" style="fill:#871f78;opacity:0.35;"/>
   </g>
   <g id="patch_163">
    <path clip-path="url(#ped7569a085)" d="M 316.695349 192.24 
L 317.875053 192.24 
L 317.875053 192.24 
L 316.695349 192.24 
z
" style="fill:#871f78;opacity:0.35;"/>
   </g>
   <g id="patch_164">
    <path clip-path="url(#ped7569a085)" d="M 318.169979 192.24 
L 319.349683 192.24 
L 319.349683 185.231239 
L 318.169979 185.231239 
z
" style="fill:#871f78;opacity:0.35;"/>
   </g>
   <g id="patch_165">
    <path clip-path="url(#ped7569a085)" d="M 319.644609 192.24 
L 320.824313 192.24 
L 320.824313 192.24 
L 319.644609 192.24 
z
" style="fill:#871f78;opacity:0.35;"/>
   </g>
   <g id="patch_166">
    <path clip-path="url(#ped7569a085)" d="M 321.119239 192.24 
L 322.298943 192.24 
L 322.298943 192.24 
L 321.119239 192.24 
z
" style="fill:#871f78;opacity:0.35;"/>
   </g>
   <g id="patch_167">
    <path clip-path="url(#ped7569a085)" d="M 322.593869 192.24 
L 323.773573 192.24 
L 323.773573 192.24 
L 322.593869 192.24 
z
" style="fill:#871f78;opacity:0.35;"/>
   </g>
   <g id="patch_168">
    <path clip-path="url(#ped7569a085)" d="M 324.068499 192.24 
L 325.248203 192.24 
L 325.248203 192.24 
L 324.068499 192.24 
z
" style="fill:#871f78;opacity:0.35;"/>
   </g>
   <g id="patch_169">
    <path clip-path="url(#ped7569a085)" d="M 325.543129 192.24 
L 326.722833 192.24 
L 326.722833 192.24 
L 325.543129 192.24 
z
" style="fill:#871f78;opacity:0.35;"/>
   </g>
   <g id="patch_170">
    <path clip-path="url(#ped7569a085)" d="M 327.017759 192.24 
L 328.197463 192.24 
L 328.197463 192.24 
L 327.017759 192.24 
z
" style="fill:#871f78;opacity:0.35;"/>
   </g>
   <g id="patch_171">
    <path clip-path="url(#ped7569a085)" d="M 328.492389 192.24 
L 329.672093 192.24 
L 329.672093 192.24 
L 328.492389 192.24 
z
" style="fill:#871f78;opacity:0.35;"/>
   </g>
   <g id="patch_172">
    <path clip-path="url(#ped7569a085)" d="M 329.967019 192.24 
L 331.146723 192.24 
L 331.146723 192.24 
L 329.967019 192.24 
z
" style="fill:#871f78;opacity:0.35;"/>
   </g>
   <g id="patch_173">
    <path clip-path="url(#ped7569a085)" d="M 331.441649 192.24 
L 332.621353 192.24 
L 332.621353 185.231239 
L 331.441649 185.231239 
z
" style="fill:#871f78;opacity:0.35;"/>
   </g>
   <g id="patch_174">
    <path clip-path="url(#ped7569a085)" d="M 332.916279 192.24 
L 334.095983 192.24 
L 334.095983 192.24 
L 332.916279 192.24 
z
" style="fill:#871f78;opacity:0.35;"/>
   </g>
   <g id="patch_175">
    <path clip-path="url(#ped7569a085)" d="M 334.390909 192.24 
L 335.570613 192.24 
L 335.570613 192.24 
L 334.390909 192.24 
z
" style="fill:#871f78;opacity:0.35;"/>
   </g>
   <g id="patch_176">
    <path clip-path="url(#ped7569a085)" d="M 335.865539 192.24 
L 337.045243 192.24 
L 337.045243 192.24 
L 335.865539 192.24 
z
" style="fill:#871f78;opacity:0.35;"/>
   </g>
   <g id="patch_177">
    <path clip-path="url(#ped7569a085)" d="M 337.340169 192.24 
L 338.519873 192.24 
L 338.519873 192.24 
L 337.340169 192.24 
z
" style="fill:#871f78;opacity:0.35;"/>
   </g>
   <g id="patch_178">
    <path clip-path="url(#ped7569a085)" d="M 338.814799 192.24 
L 339.994503 192.24 
L 339.994503 192.24 
L 338.814799 192.24 
z
" style="fill:#871f78;opacity:0.35;"/>
   </g>
   <g id="patch_179">
    <path clip-path="url(#ped7569a085)" d="M 340.289429 192.24 
L 341.469133 192.24 
L 341.469133 192.24 
L 340.289429 192.24 
z
" style="fill:#871f78;opacity:0.35;"/>
   </g>
   <g id="patch_180">
    <path clip-path="url(#ped7569a085)" d="M 341.764059 192.24 
L 342.943763 192.24 
L 342.943763 192.24 
L 341.764059 192.24 
z
" style="fill:#871f78;opacity:0.35;"/>
   </g>
   <g id="patch_181">
    <path clip-path="url(#ped7569a085)" d="M 343.238689 192.24 
L 344.418393 192.24 
L 344.418393 192.24 
L 343.238689 192.24 
z
" style="fill:#871f78;opacity:0.35;"/>
   </g>
   <g id="patch_182">
    <path clip-path="url(#ped7569a085)" d="M 344.713319 192.24 
L 345.893023 192.24 
L 345.893023 185.231239 
L 344.713319 185.231239 
z
" style="fill:#871f78;opacity:0.35;"/>
   </g>
   <g id="patch_183">
    <path clip-path="url(#ped7569a085)" d="M 346.187949 192.24 
L 347.367653 192.24 
L 347.367653 192.24 
L 346.187949 192.24 
z
" style="fill:#871f78;opacity:0.35;"/>
   </g>
   <g id="patch_184">
    <path clip-path="url(#ped7569a085)" d="M 347.662579 192.24 
L 348.842283 192.24 
L 348.842283 185.231239 
L 347.662579 185.231239 
z
" style="fill:#871f78;opacity:0.35;"/>
   </g>
   <g id="patch_185">
    <path clip-path="url(#ped7569a085)" d="M 349.137209 192.24 
L 350.316913 192.24 
L 350.316913 192.24 
L 349.137209 192.24 
z
" style="fill:#871f78;opacity:0.35;"/>
   </g>
   <g id="patch_186">
    <path clip-path="url(#ped7569a085)" d="M 350.611839 192.24 
L 351.791543 192.24 
L 351.791543 185.231239 
L 350.611839 185.231239 
z
" style="fill:#871f78;opacity:0.35;"/>
   </g>
   <g id="patch_187">
    <path clip-path="url(#ped7569a085)" d="M 352.086469 192.24 
L 353.266173 192.24 
L 353.266173 192.24 
L 352.086469 192.24 
z
" style="fill:#871f78;opacity:0.35;"/>
   </g>
   <g id="patch_188">
    <path clip-path="url(#ped7569a085)" d="M 353.561099 192.24 
L 354.740803 192.24 
L 354.740803 185.231239 
L 353.561099 185.231239 
z
" style="fill:#871f78;opacity:0.35;"/>
   </g>
   <g id="patch_189">
    <path clip-path="url(#ped7569a085)" d="M 355.035729 192.24 
L 356.215433 192.24 
L 356.215433 192.24 
L 355.035729 192.24 
z
" style="fill:#871f78;opacity:0.35;"/>
   </g>
   <g id="patch_190">
    <path clip-path="url(#ped7569a085)" d="M 356.510359 192.24 
L 357.690063 192.24 
L 357.690063 185.231239 
L 356.510359 185.231239 
z
" style="fill:#871f78;opacity:0.35;"/>
   </g>
   <g id="patch_191">
    <path clip-path="url(#ped7569a085)" d="M 357.984989 192.24 
L 359.164693 192.24 
L 359.164693 185.231239 
L 357.984989 185.231239 
z
" style="fill:#871f78;opacity:0.35;"/>
   </g>
   <g id="patch_192">
    <path clip-path="url(#ped7569a085)" d="M 359.459619 192.24 
L 360.639323 192.24 
L 360.639323 178.222478 
L 359.459619 178.222478 
z
" style="fill:#871f78;opacity:0.35;"/>
   </g>
   <g id="patch_193">
    <path clip-path="url(#ped7569a085)" d="M 360.934249 192.24 
L 362.113953 192.24 
L 362.113953 185.231239 
L 360.934249 185.231239 
z
" style="fill:#871f78;opacity:0.35;"/>
   </g>
   <g id="patch_194">
    <path clip-path="url(#ped7569a085)" d="M 362.408879 192.24 
L 363.588584 192.24 
L 363.588584 192.24 
L 362.408879 192.24 
z
" style="fill:#871f78;opacity:0.35;"/>
   </g>
   <g id="patch_195">
    <path clip-path="url(#ped7569a085)" d="M 363.88351 192.24 
L 365.063214 192.24 
L 365.063214 192.24 
L 363.88351 192.24 
z
" style="fill:#871f78;opacity:0.35;"/>
   </g>
   <g id="patch_196">
    <path clip-path="url(#ped7569a085)" d="M 365.35814 192.24 
L 366.537844 192.24 
L 366.537844 185.231239 
L 365.35814 185.231239 
z
" style="fill:#871f78;opacity:0.35;"/>
   </g>
   <g id="patch_197">
    <path clip-path="url(#ped7569a085)" d="M 366.83277 192.24 
L 368.012474 192.24 
L 368.012474 192.24 
L 366.83277 192.24 
z
" style="fill:#871f78;opacity:0.35;"/>
   </g>
   <g id="patch_198">
    <path clip-path="url(#ped7569a085)" d="M 368.3074 192.24 
L 369.487104 192.24 
L 369.487104 192.24 
L 368.3074 192.24 
z
" style="fill:#871f78;opacity:0.35;"/>
   </g>
   <g id="patch_199">
    <path clip-path="url(#ped7569a085)" d="M 369.78203 192.24 
L 370.961734 192.24 
L 370.961734 178.222478 
L 369.78203 178.222478 
z
" style="fill:#871f78;opacity:0.35;"/>
   </g>
   <g id="patch_200">
    <path clip-path="url(#ped7569a085)" d="M 371.25666 192.24 
L 372.436364 192.24 
L 372.436364 185.231239 
L 371.25666 185.231239 
z
" style="fill:#871f78;opacity:0.35;"/>
   </g>
   <g id="patch_201">
    <path clip-path="url(#ped7569a085)" d="M 372.73129 192.24 
L 373.910994 192.24 
L 373.910994 192.24 
L 372.73129 192.24 
z
" style="fill:#871f78;opacity:0.35;"/>
   </g>
   <g id="patch_202">
    <path clip-path="url(#ped7569a085)" d="M 374.20592 192.24 
L 375.385624 192.24 
L 375.385624 185.231239 
L 374.20592 185.231239 
z
" style="fill:#871f78;opacity:0.35;"/>
   </g>
   <g id="patch_203">
    <path clip-path="url(#ped7569a085)" d="M 375.68055 192.24 
L 376.860254 192.24 
L 376.860254 185.231239 
L 375.68055 185.231239 
z
" style="fill:#871f78;opacity:0.35;"/>
   </g>
   <g id="patch_204">
    <path clip-path="url(#ped7569a085)" d="M 377.15518 192.24 
L 378.334884 192.24 
L 378.334884 185.231239 
L 377.15518 185.231239 
z
" style="fill:#871f78;opacity:0.35;"/>
   </g>
   <g id="patch_205">
    <path clip-path="url(#ped7569a085)" d="M 378.62981 192.24 
L 379.809514 192.24 
L 379.809514 192.24 
L 378.62981 192.24 
z
" style="fill:#871f78;opacity:0.35;"/>
   </g>
   <g id="patch_206">
    <path clip-path="url(#ped7569a085)" d="M 380.10444 192.24 
L 381.284144 192.24 
L 381.284144 192.24 
L 380.10444 192.24 
z
" style="fill:#871f78;opacity:0.35;"/>
   </g>
   <g id="patch_207">
    <path clip-path="url(#ped7569a085)" d="M 381.57907 192.24 
L 382.758774 192.24 
L 382.758774 192.24 
L 381.57907 192.24 
z
" style="fill:#871f78;opacity:0.35;"/>
   </g>
   <g id="patch_208">
    <path clip-path="url(#ped7569a085)" d="M 383.0537 192.24 
L 384.233404 192.24 
L 384.233404 192.24 
L 383.0537 192.24 
z
" style="fill:#871f78;opacity:0.35;"/>
   </g>
   <g id="patch_209">
    <path clip-path="url(#ped7569a085)" d="M 384.52833 192.24 
L 385.708034 192.24 
L 385.708034 185.231239 
L 384.52833 185.231239 
z
" style="fill:#871f78;opacity:0.35;"/>
   </g>
   <g id="patch_210">
    <path clip-path="url(#ped7569a085)" d="M 386.00296 192.24 
L 387.182664 192.24 
L 387.182664 185.231239 
L 386.00296 185.231239 
z
" style="fill:#871f78;opacity:0.35;"/>
   </g>
   <g id="patch_211">
    <path clip-path="url(#ped7569a085)" d="M 387.47759 192.24 
L 388.657294 192.24 
L 388.657294 185.231239 
L 387.47759 185.231239 
z
" style="fill:#871f78;opacity:0.35;"/>
   </g>
   <g id="patch_212">
    <path clip-path="url(#ped7569a085)" d="M 388.95222 192.24 
L 390.131924 192.24 
L 390.131924 185.231239 
L 388.95222 185.231239 
z
" style="fill:#871f78;opacity:0.35;"/>
   </g>
   <g id="patch_213">
    <path clip-path="url(#ped7569a085)" d="M 390.42685 192.24 
L 391.606554 192.24 
L 391.606554 199.248761 
L 390.42685 199.248761 
z
" style="fill:#871f78;opacity:0.35;"/>
   </g>
   <g id="patch_214">
    <path clip-path="url(#ped7569a085)" d="M 391.90148 192.24 
L 393.081184 192.24 
L 393.081184 192.24 
L 391.90148 192.24 
z
" style="fill:#871f78;opacity:0.35;"/>
   </g>
   <g id="patch_215">
    <path clip-path="url(#ped7569a085)" d="M 393.37611 192.24 
L 394.555814 192.24 
L 394.555814 178.222478 
L 393.37611 178.222478 
z
" style="fill:#871f78;opacity:0.35;"/>
   </g>
   <g id="patch_216">
    <path clip-path="url(#ped7569a085)" d="M 394.85074 192.24 
L 396.030444 192.24 
L 396.030444 178.222478 
L 394.85074 178.222478 
z
" style="fill:#871f78;opacity:0.35;"/>
   </g>
   <g id="patch_217">
    <path clip-path="url(#ped7569a085)" d="M 396.32537 192.24 
L 397.505074 192.24 
L 397.505074 178.222478 
L 396.32537 178.222478 
z
" style="fill:#871f78;opacity:0.35;"/>
   </g>
   <g id="patch_218">
    <path clip-path="url(#ped7569a085)" d="M 397.8 192.24 
L 398.979704 192.24 
L 398.979704 185.231239 
L 397.8 185.231239 
z
" style="fill:#871f78;opacity:0.35;"/>
   </g>
   <g id="patch_219">
    <path clip-path="url(#ped7569a085)" d="M 399.27463 192.24 
L 400.454334 192.24 
L 400.454334 185.231239 
L 399.27463 185.231239 
z
" style="fill:#871f78;opacity:0.35;"/>
   </g>
   <g id="patch_220">
    <path clip-path="url(#ped7569a085)" d="M 400.74926 192.24 
L 401.928964 192.24 
L 401.928964 185.231239 
L 400.74926 185.231239 
z
" style="fill:#871f78;opacity:0.35;"/>
   </g>
   <g id="patch_221">
    <path clip-path="url(#ped7569a085)" d="M 402.22389 192.24 
L 403.403594 192.24 
L 403.403594 178.222478 
L 402.22389 178.222478 
z
" style="fill:#871f78;opacity:0.35;"/>
   </g>
   <g id="patch_222">
    <path clip-path="url(#ped7569a085)" d="M 403.69852 192.24 
L 404.878224 192.24 
L 404.878224 178.222478 
L 403.69852 178.222478 
z
" style="fill:#871f78;opacity:0.35;"/>
   </g>
   <g id="patch_223">
    <path clip-path="url(#ped7569a085)" d="M 405.17315 192.24 
L 406.352854 192.24 
L 406.352854 171.213717 
L 405.17315 171.213717 
z
" style="fill:#871f78;opacity:0.35;"/>
   </g>
   <g id="patch_224">
    <path clip-path="url(#ped7569a085)" d="M 406.64778 192.24 
L 407.827484 192.24 
L 407.827484 178.222478 
L 406.64778 178.222478 
z
" style="fill:#871f78;opacity:0.35;"/>
   </g>
   <g id="patch_225">
    <path clip-path="url(#ped7569a085)" d="M 408.12241 192.24 
L 409.302114 192.24 
L 409.302114 157.196195 
L 408.12241 157.196195 
z
" style="fill:#871f78;opacity:0.35;"/>
   </g>
   <g id="patch_226">
    <path clip-path="url(#ped7569a085)" d="M 409.59704 192.24 
L 410.776744 192.24 
L 410.776744 178.222478 
L 409.59704 178.222478 
z
" style="fill:#871f78;opacity:0.35;"/>
   </g>
   <g id="patch_227">
    <path clip-path="url(#ped7569a085)" d="M 411.07167 192.24 
L 412.251374 192.24 
L 412.251374 178.222478 
L 411.07167 178.222478 
z
" style="fill:#871f78;opacity:0.35;"/>
   </g>
   <g id="patch_228">
    <path clip-path="url(#ped7569a085)" d="M 412.5463 192.24 
L 413.726004 192.24 
L 413.726004 164.204956 
L 412.5463 164.204956 
z
" style="fill:#871f78;opacity:0.35;"/>
   </g>
   <g id="patch_229">
    <path clip-path="url(#ped7569a085)" d="M 414.02093 192.24 
L 415.200634 192.24 
L 415.200634 192.24 
L 414.02093 192.24 
z
" style="fill:#871f78;opacity:0.35;"/>
   </g>
   <g id="patch_230">
    <path clip-path="url(#ped7569a085)" d="M 415.49556 192.24 
L 416.675264 192.24 
L 416.675264 164.204956 
L 415.49556 164.204956 
z
" style="fill:#871f78;opacity:0.35;"/>
   </g>
   <g id="patch_231">
    <path clip-path="url(#ped7569a085)" d="M 416.97019 192.24 
L 418.149894 192.24 
L 418.149894 150.187434 
L 416.97019 150.187434 
z
" style="fill:#871f78;opacity:0.35;"/>
   </g>
   <g id="patch_232">
    <path clip-path="url(#ped7569a085)" d="M 418.44482 192.24 
L 419.624524 192.24 
L 419.624524 129.161151 
L 418.44482 129.161151 
z
" style="fill:#871f78;opacity:0.35;"/>
   </g>
   <g id="patch_233">
    <path clip-path="url(#ped7569a085)" d="M 419.91945 192.24 
L 421.099154 192.24 
L 421.099154 87.108586 
L 419.91945 87.108586 
z
" style="fill:#871f78;opacity:0.35;"/>
   </g>
   <g id="patch_234">
    <path clip-path="url(#ped7569a085)" d="M 421.39408 192.24 
L 422.573784 192.24 
L 422.573784 171.213717 
L 421.39408 171.213717 
z
" style="fill:#871f78;opacity:0.35;"/>
   </g>
   <g id="patch_235">
    <path clip-path="url(#ped7569a085)" d="M 422.86871 192.24 
L 424.048414 192.24 
L 424.048414 157.196195 
L 422.86871 157.196195 
z
" style="fill:#871f78;opacity:0.35;"/>
   </g>
   <g id="patch_236">
    <path clip-path="url(#ped7569a085)" d="M 424.34334 192.24 
L 425.523044 192.24 
L 425.523044 157.196195 
L 424.34334 157.196195 
z
" style="fill:#871f78;opacity:0.35;"/>
   </g>
   <g id="patch_237">
    <path clip-path="url(#ped7569a085)" d="M 425.81797 192.24 
L 426.997674 192.24 
L 426.997674 171.213717 
L 425.81797 171.213717 
z
" style="fill:#871f78;opacity:0.35;"/>
   </g>
   <g id="patch_238">
    <path clip-path="url(#ped7569a085)" d="M 427.2926 192.24 
L 428.472304 192.24 
L 428.472304 150.187434 
L 427.2926 150.187434 
z
" style="fill:#871f78;opacity:0.35;"/>
   </g>
   <g id="patch_239">
    <path clip-path="url(#ped7569a085)" d="M 428.76723 192.24 
L 429.946934 192.24 
L 429.946934 136.169912 
L 428.76723 136.169912 
z
" style="fill:#871f78;opacity:0.35;"/>
   </g>
   <g id="patch_240">
    <path clip-path="url(#ped7569a085)" d="M 430.24186 192.24 
L 431.421564 192.24 
L 431.421564 171.213717 
L 430.24186 171.213717 
z
" style="fill:#871f78;opacity:0.35;"/>
   </g>
   <g id="patch_241">
    <path clip-path="url(#ped7569a085)" d="M 431.71649 192.24 
L 432.896195 192.24 
L 432.896195 143.178673 
L 431.71649 143.178673 
z
" style="fill:#871f78;opacity:0.35;"/>
   </g>
   <g id="patch_242">
    <path clip-path="url(#ped7569a085)" d="M 433.191121 192.24 
L 434.370825 192.24 
L 434.370825 164.204956 
L 433.191121 164.204956 
z
" style="fill:#871f78;opacity:0.35;"/>
   </g>
   <g id="patch_243">
    <path clip-path="url(#ped7569a085)" d="M 434.665751 192.24 
L 435.845455 192.24 
L 435.845455 171.213717 
L 434.665751 171.213717 
z
" style="fill:#871f78;opacity:0.35;"/>
   </g>
   <g id="line2d_21">
    <path clip-path="url(#ped7569a085)" d="M 90.192178 190.237497 
L 91.666808 190.237497 
L 93.141438 189.236245 
L 101.989218 189.236245 
L 103.463848 190.237497 
L 104.938478 190.237497 
L 106.413108 191.238748 
L 109.362368 191.238748 
L 110.836998 192.24 
L 112.311628 192.24 
L 113.786258 191.238748 
L 115.260888 191.238748 
L 119.684778 188.234994 
L 122.634038 188.234994 
L 124.108668 189.236245 
L 125.583298 189.236245 
L 127.057928 190.237497 
L 128.532558 190.237497 
L 130.007188 192.24 
L 131.481818 191.238748 
L 135.905708 191.238748 
L 137.380338 190.237497 
L 138.854968 191.238748 
L 140.329598 190.237497 
L 141.804228 191.238748 
L 144.753488 191.238748 
L 146.228118 190.237497 
L 155.075899 190.237497 
L 158.025159 192.24 
L 159.499789 190.237497 
L 168.347569 190.237497 
L 169.822199 192.24 
L 171.296829 191.238748 
L 178.669979 191.238748 
L 180.144609 189.236245 
L 181.619239 190.237497 
L 186.043129 190.237497 
L 187.517759 189.236245 
L 188.992389 189.236245 
L 190.467019 191.238748 
L 194.890909 191.238748 
L 196.365539 190.237497 
L 197.840169 188.234994 
L 199.314799 187.233742 
L 205.213319 187.233742 
L 206.687949 189.236245 
L 208.162579 192.24 
L 209.637209 193.241252 
L 215.535729 193.241252 
L 218.484989 191.238748 
L 219.959619 189.236245 
L 221.434249 186.232491 
L 222.908879 185.231239 
L 225.85814 185.231239 
L 227.33277 184.229987 
L 228.8074 184.229987 
L 230.28203 185.231239 
L 231.75666 188.234994 
L 236.18055 188.234994 
L 240.60444 191.238748 
L 242.07907 191.238748 
L 243.5537 192.24 
L 245.02833 192.24 
L 247.97759 190.237497 
L 253.87611 190.237497 
L 255.35074 189.236245 
L 258.3 191.238748 
L 264.19852 191.238748 
L 265.67315 192.24 
L 271.57167 192.24 
L 274.52093 190.237497 
L 281.89408 190.237497 
L 284.84334 192.24 
L 287.7926 192.24 
L 289.26723 191.238748 
L 290.74186 188.234994 
L 293.691121 188.234994 
L 295.165751 189.236245 
L 296.640381 188.234994 
L 298.115011 188.234994 
L 299.589641 189.236245 
L 301.064271 192.24 
L 304.013531 192.24 
L 305.488161 191.238748 
L 306.962791 192.24 
L 308.437421 192.24 
L 309.912051 190.237497 
L 311.386681 190.237497 
L 312.861311 189.236245 
L 317.285201 189.236245 
L 318.759831 188.234994 
L 320.234461 190.237497 
L 321.709091 190.237497 
L 323.183721 191.238748 
L 327.607611 191.238748 
L 329.082241 192.24 
L 330.556871 192.24 
L 332.031501 191.238748 
L 340.879281 191.238748 
L 342.353911 192.24 
L 343.828541 192.24 
L 345.303171 191.238748 
L 346.777801 191.238748 
L 348.252431 190.237497 
L 349.727061 190.237497 
L 351.201691 189.236245 
L 352.676321 189.236245 
L 354.150951 188.234994 
L 355.625581 189.236245 
L 357.100211 188.234994 
L 358.574841 188.234994 
L 360.049471 186.232491 
L 362.998732 186.232491 
L 364.473362 187.233742 
L 365.947992 186.232491 
L 368.897252 188.234994 
L 373.321142 188.234994 
L 374.795772 187.233742 
L 376.270402 187.233742 
L 377.745032 186.232491 
L 379.219662 186.232491 
L 380.694292 188.234994 
L 382.168922 189.236245 
L 388.067442 189.236245 
L 389.542072 188.234994 
L 391.016702 189.236245 
L 392.491332 189.236245 
L 393.965962 187.233742 
L 396.915222 185.231239 
L 399.864482 185.231239 
L 402.813742 181.226233 
L 404.288372 181.226233 
L 405.763002 180.224981 
L 407.237632 180.224981 
L 408.712262 176.219975 
L 411.661522 174.217472 
L 413.136152 172.214969 
L 414.610782 174.217472 
L 416.085412 173.21622 
L 419.034672 165.206208 
L 420.509302 152.189937 
L 423.458562 150.187434 
L 424.933192 145.181176 
L 426.407822 146.182428 
L 427.882452 146.182428 
L 429.357082 147.18368 
L 430.831712 159.198698 
L 432.306342 155.193692 
L 433.780973 156.194944 
L 435.255603 158.197447 
L 435.255603 158.197447 
" style="fill:none;stroke:#871f78;stroke-linecap:round;stroke-width:1.5;"/>
   </g>
   <g id="patch_244">
    <path d="M 63 192.24 
L 453.6 192.24 
" style="fill:none;stroke:#cccccc;stroke-linecap:square;stroke-linejoin:miter;"/>
   </g>
   <g id="text_15">
    <!-- 7-day -->
    <defs>
     <path d="M 14.5 0 
Q 15.671875 7.234375 19.484375 17.390625 
Q 24.03125 29.640625 31.390625 41.71875 
Q 38.765625 53.8125 47.796875 62.5 
L 12.109375 62.5 
L 13.8125 70.609375 
L 59.515625 70.609375 
L 57.859375 62.5 
Q 46.234375 52.296875 37.546875 36.1875 
Q 27.4375 17.578125 23.734375 0 
z
" id="Arial-ItalicMT-55"/>
     <path d="M 4.640625 21.484375 
L 6.5 30.328125 
L 33.453125 30.328125 
L 31.640625 21.484375 
z
" id="Arial-ItalicMT-45"/>
     <path d="M 38.28125 7.515625 
Q 30.71875 -1.171875 22.46875 -1.171875 
Q 15.09375 -1.171875 10.1875 4.265625 
Q 5.28125 9.71875 5.28125 20.0625 
Q 5.28125 29.546875 9.15625 37.375 
Q 13.03125 45.21875 18.859375 49.125 
Q 24.703125 53.03125 30.5625 53.03125 
Q 40.234375 53.03125 45.171875 43.703125 
L 51.03125 71.578125 
L 59.8125 71.578125 
L 44.875 0 
L 36.71875 0 
z
M 14.0625 21.734375 
Q 14.0625 16.3125 15.140625 13.1875 
Q 16.21875 10.0625 18.796875 7.984375 
Q 21.390625 5.90625 25 5.90625 
Q 31 5.90625 35.890625 12.15625 
Q 42.4375 20.453125 42.4375 32.671875 
Q 42.4375 38.8125 39.203125 42.28125 
Q 35.984375 45.75 31.109375 45.75 
Q 27.9375 45.75 25.3125 44.328125 
Q 22.703125 42.921875 20.140625 39.53125 
Q 17.578125 36.140625 15.8125 30.90625 
Q 14.0625 25.6875 14.0625 21.734375 
z
" id="Arial-ItalicMT-100"/>
     <path d="M 38.28125 6.453125 
Q 33.6875 2.484375 29.4375 0.65625 
Q 25.203125 -1.171875 20.359375 -1.171875 
Q 13.1875 -1.171875 8.78125 3.046875 
Q 4.390625 7.28125 4.390625 13.875 
Q 4.390625 18.21875 6.359375 21.5625 
Q 8.34375 24.90625 11.609375 26.921875 
Q 14.890625 28.953125 19.625 29.828125 
Q 22.609375 30.421875 30.9375 30.765625 
Q 39.265625 31.109375 42.875 32.515625 
Q 43.890625 36.140625 43.890625 38.53125 
Q 43.890625 41.609375 41.65625 43.359375 
Q 38.578125 45.796875 32.671875 45.796875 
Q 27.09375 45.796875 23.546875 43.328125 
Q 20.015625 40.875 18.40625 36.328125 
L 9.46875 37.109375 
Q 12.203125 44.828125 18.140625 48.921875 
Q 24.078125 53.03125 33.109375 53.03125 
Q 42.71875 53.03125 48.34375 48.4375 
Q 52.640625 45.015625 52.640625 39.546875 
Q 52.640625 35.40625 51.421875 29.9375 
L 48.53125 17.046875 
Q 47.171875 10.890625 47.171875 7.03125 
Q 47.171875 4.59375 48.25 0 
L 39.3125 0 
Q 38.578125 2.546875 38.28125 6.453125 
z
M 41.546875 26.265625 
Q 39.703125 25.53125 37.578125 25.140625 
Q 35.453125 24.75 30.46875 24.3125 
Q 22.75 23.640625 19.578125 22.578125 
Q 16.40625 21.53125 14.796875 19.234375 
Q 13.1875 16.9375 13.1875 14.15625 
Q 13.1875 10.453125 15.75 8.0625 
Q 18.3125 5.671875 23.046875 5.671875 
Q 27.4375 5.671875 31.484375 7.984375 
Q 35.546875 10.296875 37.890625 14.453125 
Q 40.234375 18.609375 41.546875 26.265625 
z
" id="Arial-ItalicMT-97"/>
     <path d="M 0 -20.015625 
L 0.53125 -11.71875 
Q 3.265625 -12.5 5.859375 -12.5 
Q 8.546875 -12.5 10.203125 -11.28125 
Q 12.359375 -9.671875 14.890625 -5.21875 
L 17.71875 -0.140625 
L 9.078125 51.859375 
L 17.78125 51.859375 
L 21.6875 25.640625 
Q 22.859375 17.875 23.6875 10.109375 
L 46.875 51.859375 
L 56.109375 51.859375 
L 23.046875 -6.890625 
Q 18.265625 -15.484375 14.546875 -18.265625 
Q 10.84375 -21.046875 6 -21.046875 
Q 2.9375 -21.046875 0 -20.015625 
z
" id="Arial-ItalicMT-121"/>
    </defs>
    <g style="fill:#871f78;" transform="translate(439.679493 147.503384)scale(0.1 -0.1)">
     <use xlink:href="#Arial-ItalicMT-55"/>
     <use x="55.615234" xlink:href="#Arial-ItalicMT-45"/>
     <use x="88.916016" xlink:href="#Arial-ItalicMT-100"/>
     <use x="144.53125" xlink:href="#Arial-ItalicMT-97"/>
     <use x="200.146484" xlink:href="#Arial-ItalicMT-121"/>
    </g>
    <!-- avg. -->
    <defs>
     <path d="M 16.40625 0 
L 7.90625 51.859375 
L 16.5 51.859375 
L 20.953125 23.296875 
Q 21.6875 18.609375 22.75 8.015625 
Q 25.296875 13.53125 29.25 20.65625 
L 46.578125 51.859375 
L 55.90625 51.859375 
L 26.21875 0 
z
" id="Arial-ItalicMT-118"/>
     <path d="M 2.828125 -4.6875 
L 11.765625 -5.515625 
Q 11.671875 -8.546875 12.5 -10.0625 
Q 13.328125 -11.578125 15.140625 -12.40625 
Q 17.53125 -13.484375 21.34375 -13.484375 
Q 29.34375 -13.484375 32.859375 -9.328125 
Q 35.15625 -6.546875 37.109375 2.78125 
L 37.984375 6.984375 
Q 31.109375 0 23.34375 0 
Q 15.484375 0 10.1875 5.78125 
Q 4.890625 11.578125 4.890625 22.171875 
Q 4.890625 30.90625 9.0625 38.234375 
Q 13.234375 45.5625 18.984375 49.296875 
Q 24.75 53.03125 30.859375 53.03125 
Q 41.0625 53.03125 46.578125 43.359375 
L 48.34375 51.859375 
L 56.453125 51.859375 
L 46 1.8125 
Q 44.28125 -6.453125 41.5 -11.0625 
Q 38.71875 -15.671875 33.765625 -18.203125 
Q 28.8125 -20.75 22.3125 -20.75 
Q 16.0625 -20.75 11.546875 -19.140625 
Q 7.03125 -17.53125 4.8125 -14.421875 
Q 2.59375 -11.328125 2.59375 -7.328125 
Q 2.59375 -6.109375 2.828125 -4.6875 
z
M 13.875 22.953125 
Q 13.875 17.625 14.890625 14.9375 
Q 16.359375 11.1875 19.0625 9.203125 
Q 21.78125 7.234375 25.09375 7.234375 
Q 29.4375 7.234375 33.734375 10.28125 
Q 38.03125 13.328125 40.6875 19.71875 
Q 43.359375 26.125 43.359375 31.9375 
Q 43.359375 38.328125 39.8125 42.109375 
Q 36.28125 45.90625 31.0625 45.90625 
Q 27.828125 45.90625 24.796875 44.171875 
Q 21.78125 42.4375 19.15625 38.890625 
Q 16.546875 35.359375 15.203125 30.421875 
Q 13.875 25.484375 13.875 22.953125 
z
" id="Arial-ItalicMT-103"/>
     <path d="M 5.765625 0 
L 7.859375 10.015625 
L 17.875 10.015625 
L 15.71875 0 
z
" id="Arial-ItalicMT-46"/>
    </defs>
    <g style="fill:#871f78;" transform="translate(439.679493 158.197447)scale(0.1 -0.1)">
     <use xlink:href="#Arial-ItalicMT-97"/>
     <use x="55.615234" xlink:href="#Arial-ItalicMT-118"/>
     <use x="105.615234" xlink:href="#Arial-ItalicMT-103"/>
     <use x="161.230469" xlink:href="#Arial-ItalicMT-46"/>
    </g>
   </g>
  </g>
 </g>
 <defs>
  <clipPath id="ped7569a085">
   <rect height="166.32" width="390.6" x="63" y="25.92"/>
  </clipPath>
 </defs>
</svg>
