<svg version="1.1" viewBox="40 10 440 195" width="100%" xmlns="http://www.w3.org/2000/svg" xmlns:xlink="http://www.w3.org/1999/xlink">
 <defs>
  <style type="text/css">
*{stroke-linecap:butt;stroke-linejoin:round;}
  </style>
 </defs>
 <g id="figure_1">
  <g id="patch_1">
   <path d="M 0 216 
L 504 216 
L 504 0 
L 0 0 
z
" style="fill:#ffffff;"/>
  </g>
  <g id="axes_1">
   <g id="patch_2">
    <path d="M 63 192.24 
L 453.6 192.24 
L 453.6 25.92 
L 63 25.92 
z
" style="fill:#ffffff;"/>
   </g>
   <g id="matplotlib.axis_1">
    <g id="xtick_1">
     <g id="line2d_1"/>
     <g id="text_1">
      <!-- Apr -->
      <defs>
       <path d="M -0.140625 0 
L 27.34375 71.578125 
L 37.546875 71.578125 
L 66.84375 0 
L 56.0625 0 
L 47.703125 21.6875 
L 17.78125 21.6875 
L 9.90625 0 
z
M 20.515625 29.390625 
L 44.78125 29.390625 
L 37.3125 49.21875 
Q 33.890625 58.25 32.234375 64.0625 
Q 30.859375 57.171875 28.375 50.390625 
z
" id="ArialMT-65"/>
       <path d="M 6.59375 -19.875 
L 6.59375 51.859375 
L 14.59375 51.859375 
L 14.59375 45.125 
Q 17.4375 49.078125 21 51.046875 
Q 24.5625 53.03125 29.640625 53.03125 
Q 36.28125 53.03125 41.359375 49.609375 
Q 46.4375 46.1875 49.015625 39.953125 
Q 51.609375 33.734375 51.609375 26.3125 
Q 51.609375 18.359375 48.75 11.984375 
Q 45.90625 5.609375 40.453125 2.21875 
Q 35.015625 -1.171875 29 -1.171875 
Q 24.609375 -1.171875 21.109375 0.6875 
Q 17.625 2.546875 15.375 5.375 
L 15.375 -19.875 
z
M 14.546875 25.640625 
Q 14.546875 15.625 18.59375 10.84375 
Q 22.65625 6.0625 28.421875 6.0625 
Q 34.28125 6.0625 38.453125 11.015625 
Q 42.625 15.96875 42.625 26.375 
Q 42.625 36.28125 38.546875 41.203125 
Q 34.46875 46.140625 28.8125 46.140625 
Q 23.1875 46.140625 18.859375 40.890625 
Q 14.546875 35.640625 14.546875 25.640625 
z
" id="ArialMT-112"/>
       <path d="M 6.5 0 
L 6.5 51.859375 
L 14.40625 51.859375 
L 14.40625 44 
Q 17.4375 49.515625 20 51.265625 
Q 22.5625 53.03125 25.640625 53.03125 
Q 30.078125 53.03125 34.671875 50.203125 
L 31.640625 42.046875 
Q 28.421875 43.953125 25.203125 43.953125 
Q 22.3125 43.953125 20.015625 42.21875 
Q 17.71875 40.484375 16.75 37.40625 
Q 15.28125 32.71875 15.28125 27.15625 
L 15.28125 0 
z
" id="ArialMT-114"/>
      </defs>
      <g style="fill:#871f78;" transform="translate(86.893403 202.897813)scale(0.1 -0.1)">
       <use xlink:href="#ArialMT-65"/>
       <use x="66.699219" xlink:href="#ArialMT-112"/>
       <use x="122.314453" xlink:href="#ArialMT-114"/>
      </g>
     </g>
    </g>
    <g id="xtick_2">
     <g id="line2d_2"/>
     <g id="text_2">
      <!-- May -->
      <defs>
       <path d="M 7.421875 0 
L 7.421875 71.578125 
L 21.6875 71.578125 
L 38.625 20.90625 
Q 40.96875 13.8125 42.046875 10.296875 
Q 43.265625 14.203125 45.84375 21.78125 
L 62.984375 71.578125 
L 75.734375 71.578125 
L 75.734375 0 
L 66.609375 0 
L 66.609375 59.90625 
L 45.796875 0 
L 37.25 0 
L 16.546875 60.9375 
L 16.546875 0 
z
" id="ArialMT-77"/>
       <path d="M 40.4375 6.390625 
Q 35.546875 2.25 31.03125 0.53125 
Q 26.515625 -1.171875 21.34375 -1.171875 
Q 12.796875 -1.171875 8.203125 3 
Q 3.609375 7.171875 3.609375 13.671875 
Q 3.609375 17.484375 5.34375 20.625 
Q 7.078125 23.78125 9.890625 25.6875 
Q 12.703125 27.59375 16.21875 28.5625 
Q 18.796875 29.25 24.03125 29.890625 
Q 34.671875 31.15625 39.703125 32.90625 
Q 39.75 34.71875 39.75 35.203125 
Q 39.75 40.578125 37.25 42.78125 
Q 33.890625 45.75 27.25 45.75 
Q 21.046875 45.75 18.09375 43.578125 
Q 15.140625 41.40625 13.71875 35.890625 
L 5.125 37.0625 
Q 6.296875 42.578125 8.984375 45.96875 
Q 11.671875 49.359375 16.75 51.1875 
Q 21.828125 53.03125 28.515625 53.03125 
Q 35.15625 53.03125 39.296875 51.46875 
Q 43.453125 49.90625 45.40625 47.53125 
Q 47.359375 45.171875 48.140625 41.546875 
Q 48.578125 39.3125 48.578125 33.453125 
L 48.578125 21.734375 
Q 48.578125 9.46875 49.140625 6.21875 
Q 49.703125 2.984375 51.375 0 
L 42.1875 0 
Q 40.828125 2.734375 40.4375 6.390625 
z
M 39.703125 26.03125 
Q 34.90625 24.078125 25.34375 22.703125 
Q 19.921875 21.921875 17.671875 20.9375 
Q 15.4375 19.96875 14.203125 18.09375 
Q 12.984375 16.21875 12.984375 13.921875 
Q 12.984375 10.40625 15.640625 8.0625 
Q 18.3125 5.71875 23.4375 5.71875 
Q 28.515625 5.71875 32.46875 7.9375 
Q 36.421875 10.15625 38.28125 14.015625 
Q 39.703125 17 39.703125 22.796875 
z
" id="ArialMT-97"/>
       <path d="M 6.203125 -19.96875 
L 5.21875 -11.71875 
Q 8.109375 -12.5 10.25 -12.5 
Q 13.1875 -12.5 14.9375 -11.515625 
Q 16.703125 -10.546875 17.828125 -8.796875 
Q 18.65625 -7.46875 20.515625 -2.25 
Q 20.75 -1.515625 21.296875 -0.09375 
L 1.609375 51.859375 
L 11.078125 51.859375 
L 21.875 21.828125 
Q 23.96875 16.109375 25.640625 9.8125 
Q 27.15625 15.875 29.25 21.625 
L 40.328125 51.859375 
L 49.125 51.859375 
L 29.390625 -0.875 
Q 26.21875 -9.421875 24.46875 -12.640625 
Q 22.125 -17 19.09375 -19.015625 
Q 16.0625 -21.046875 11.859375 -21.046875 
Q 9.328125 -21.046875 6.203125 -19.96875 
z
" id="ArialMT-121"/>
      </defs>
      <g style="fill:#871f78;" transform="translate(129.651943 202.897813)scale(0.1 -0.1)">
       <use xlink:href="#ArialMT-77"/>
       <use x="83.300781" xlink:href="#ArialMT-97"/>
       <use x="138.916016" xlink:href="#ArialMT-121"/>
      </g>
     </g>
    </g>
    <g id="xtick_3">
     <g id="line2d_3"/>
     <g id="text_3">
      <!-- Jun -->
      <defs>
       <path d="M 2.875 20.3125 
L 11.421875 21.484375 
Q 11.765625 13.28125 14.5 10.25 
Q 17.234375 7.234375 22.078125 7.234375 
Q 25.640625 7.234375 28.21875 8.859375 
Q 30.8125 10.5 31.78125 13.296875 
Q 32.765625 16.109375 32.765625 22.265625 
L 32.765625 71.578125 
L 42.234375 71.578125 
L 42.234375 22.796875 
Q 42.234375 13.8125 40.0625 8.875 
Q 37.890625 3.953125 33.171875 1.359375 
Q 28.46875 -1.21875 22.125 -1.21875 
Q 12.703125 -1.21875 7.6875 4.203125 
Q 2.6875 9.625 2.875 20.3125 
z
" id="ArialMT-74"/>
       <path d="M 40.578125 0 
L 40.578125 7.625 
Q 34.515625 -1.171875 24.125 -1.171875 
Q 19.53125 -1.171875 15.546875 0.578125 
Q 11.578125 2.34375 9.640625 5 
Q 7.71875 7.671875 6.9375 11.53125 
Q 6.390625 14.109375 6.390625 19.734375 
L 6.390625 51.859375 
L 15.1875 51.859375 
L 15.1875 23.09375 
Q 15.1875 16.21875 15.71875 13.8125 
Q 16.546875 10.359375 19.234375 8.375 
Q 21.921875 6.390625 25.875 6.390625 
Q 29.828125 6.390625 33.296875 8.421875 
Q 36.765625 10.453125 38.203125 13.9375 
Q 39.65625 17.4375 39.65625 24.078125 
L 39.65625 51.859375 
L 48.4375 51.859375 
L 48.4375 0 
z
" id="ArialMT-117"/>
       <path d="M 6.59375 0 
L 6.59375 51.859375 
L 14.5 51.859375 
L 14.5 44.484375 
Q 20.21875 53.03125 31 53.03125 
Q 35.6875 53.03125 39.625 51.34375 
Q 43.5625 49.65625 45.515625 46.921875 
Q 47.46875 44.1875 48.25 40.4375 
Q 48.734375 37.984375 48.734375 31.890625 
L 48.734375 0 
L 39.9375 0 
L 39.9375 31.546875 
Q 39.9375 36.921875 38.90625 39.578125 
Q 37.890625 42.234375 35.28125 43.8125 
Q 32.671875 45.40625 29.15625 45.40625 
Q 23.53125 45.40625 19.453125 41.84375 
Q 15.375 38.28125 15.375 28.328125 
L 15.375 0 
z
" id="ArialMT-110"/>
      </defs>
      <g style="fill:#871f78;" transform="translate(176.94048 202.897813)scale(0.1 -0.1)">
       <use xlink:href="#ArialMT-74"/>
       <use x="50" xlink:href="#ArialMT-117"/>
       <use x="105.615234" xlink:href="#ArialMT-110"/>
      </g>
     </g>
    </g>
    <g id="xtick_4">
     <g id="line2d_4"/>
     <g id="text_4">
      <!-- Jul -->
      <defs>
       <path d="M 6.390625 0 
L 6.390625 71.578125 
L 15.1875 71.578125 
L 15.1875 0 
z
" id="ArialMT-108"/>
      </defs>
      <g style="fill:#871f78;" transform="translate(223.033395 202.897813)scale(0.1 -0.1)">
       <use xlink:href="#ArialMT-74"/>
       <use x="50" xlink:href="#ArialMT-117"/>
       <use x="105.615234" xlink:href="#ArialMT-108"/>
      </g>
     </g>
    </g>
    <g id="xtick_5">
     <g id="line2d_5"/>
     <g id="text_5">
      <!-- Aug -->
      <defs>
       <path d="M 4.984375 -4.296875 
L 13.53125 -5.5625 
Q 14.0625 -9.515625 16.5 -11.328125 
Q 19.78125 -13.765625 25.4375 -13.765625 
Q 31.546875 -13.765625 34.859375 -11.328125 
Q 38.1875 -8.890625 39.359375 -4.5 
Q 40.046875 -1.8125 39.984375 6.78125 
Q 34.234375 0 25.640625 0 
Q 14.9375 0 9.078125 7.71875 
Q 3.21875 15.4375 3.21875 26.21875 
Q 3.21875 33.640625 5.90625 39.90625 
Q 8.59375 46.1875 13.6875 49.609375 
Q 18.796875 53.03125 25.6875 53.03125 
Q 34.859375 53.03125 40.828125 45.609375 
L 40.828125 51.859375 
L 48.921875 51.859375 
L 48.921875 7.03125 
Q 48.921875 -5.078125 46.453125 -10.125 
Q 44 -15.1875 38.640625 -18.109375 
Q 33.296875 -21.046875 25.484375 -21.046875 
Q 16.21875 -21.046875 10.5 -16.875 
Q 4.78125 -12.703125 4.984375 -4.296875 
z
M 12.25 26.859375 
Q 12.25 16.65625 16.296875 11.96875 
Q 20.359375 7.28125 26.46875 7.28125 
Q 32.515625 7.28125 36.609375 11.9375 
Q 40.71875 16.609375 40.71875 26.5625 
Q 40.71875 36.078125 36.5 40.90625 
Q 32.28125 45.75 26.3125 45.75 
Q 20.453125 45.75 16.34375 40.984375 
Q 12.25 36.234375 12.25 26.859375 
z
" id="ArialMT-103"/>
      </defs>
      <g style="fill:#871f78;" transform="translate(266.43287 202.897813)scale(0.1 -0.1)">
       <use xlink:href="#ArialMT-65"/>
       <use x="66.699219" xlink:href="#ArialMT-117"/>
       <use x="122.314453" xlink:href="#ArialMT-103"/>
      </g>
     </g>
    </g>
    <g id="xtick_6">
     <g id="line2d_6"/>
     <g id="text_6">
      <!-- Sep -->
      <defs>
       <path d="M 4.5 23 
L 13.421875 23.78125 
Q 14.0625 18.40625 16.375 14.96875 
Q 18.703125 11.53125 23.578125 9.40625 
Q 28.46875 7.28125 34.578125 7.28125 
Q 39.984375 7.28125 44.140625 8.890625 
Q 48.296875 10.5 50.3125 13.296875 
Q 52.34375 16.109375 52.34375 19.4375 
Q 52.34375 22.796875 50.390625 25.3125 
Q 48.4375 27.828125 43.953125 29.546875 
Q 41.0625 30.671875 31.203125 33.03125 
Q 21.34375 35.40625 17.390625 37.5 
Q 12.25 40.1875 9.734375 44.15625 
Q 7.234375 48.140625 7.234375 53.078125 
Q 7.234375 58.5 10.296875 63.203125 
Q 13.375 67.921875 19.28125 70.359375 
Q 25.203125 72.796875 32.421875 72.796875 
Q 40.375 72.796875 46.453125 70.234375 
Q 52.546875 67.671875 55.8125 62.6875 
Q 59.078125 57.71875 59.328125 51.421875 
L 50.25 50.734375 
Q 49.515625 57.515625 45.28125 60.984375 
Q 41.0625 64.453125 32.8125 64.453125 
Q 24.21875 64.453125 20.28125 61.296875 
Q 16.359375 58.15625 16.359375 53.71875 
Q 16.359375 49.859375 19.140625 47.359375 
Q 21.875 44.875 33.421875 42.265625 
Q 44.96875 39.65625 49.265625 37.703125 
Q 55.515625 34.8125 58.484375 30.390625 
Q 61.46875 25.984375 61.46875 20.21875 
Q 61.46875 14.5 58.203125 9.4375 
Q 54.9375 4.390625 48.796875 1.578125 
Q 42.671875 -1.21875 35.015625 -1.21875 
Q 25.296875 -1.21875 18.71875 1.609375 
Q 12.15625 4.4375 8.421875 10.125 
Q 4.6875 15.828125 4.5 23 
z
" id="ArialMT-83"/>
       <path d="M 42.09375 16.703125 
L 51.171875 15.578125 
Q 49.03125 7.625 43.21875 3.21875 
Q 37.40625 -1.171875 28.375 -1.171875 
Q 17 -1.171875 10.328125 5.828125 
Q 3.65625 12.84375 3.65625 25.484375 
Q 3.65625 38.578125 10.390625 45.796875 
Q 17.140625 53.03125 27.875 53.03125 
Q 38.28125 53.03125 44.875 45.953125 
Q 51.46875 38.875 51.46875 26.03125 
Q 51.46875 25.25 51.421875 23.6875 
L 12.75 23.6875 
Q 13.234375 15.140625 17.578125 10.59375 
Q 21.921875 6.0625 28.421875 6.0625 
Q 33.25 6.0625 36.671875 8.59375 
Q 40.09375 11.140625 42.09375 16.703125 
z
M 13.234375 30.90625 
L 42.1875 30.90625 
Q 41.609375 37.453125 38.875 40.71875 
Q 34.671875 45.796875 27.984375 45.796875 
Q 21.921875 45.796875 17.796875 41.75 
Q 13.671875 37.703125 13.234375 30.90625 
z
" id="ArialMT-101"/>
      </defs>
      <g style="fill:#871f78;" transform="translate(312.337032 203.019688)scale(0.1 -0.1)">
       <use xlink:href="#ArialMT-83"/>
       <use x="66.699219" xlink:href="#ArialMT-101"/>
       <use x="122.314453" xlink:href="#ArialMT-112"/>
      </g>
     </g>
    </g>
    <g id="xtick_7">
     <g id="line2d_7"/>
     <g id="text_7">
      <!-- Oct -->
      <defs>
       <path d="M 4.828125 34.859375 
Q 4.828125 52.6875 14.390625 62.765625 
Q 23.96875 72.859375 39.109375 72.859375 
Q 49.03125 72.859375 56.984375 68.109375 
Q 64.9375 63.375 69.109375 54.90625 
Q 73.296875 46.4375 73.296875 35.6875 
Q 73.296875 24.8125 68.890625 16.21875 
Q 64.5 7.625 56.4375 3.203125 
Q 48.390625 -1.21875 39.0625 -1.21875 
Q 28.953125 -1.21875 20.984375 3.65625 
Q 13.03125 8.546875 8.921875 16.984375 
Q 4.828125 25.4375 4.828125 34.859375 
z
M 14.59375 34.71875 
Q 14.59375 21.78125 21.546875 14.328125 
Q 28.515625 6.890625 39.015625 6.890625 
Q 49.703125 6.890625 56.609375 14.40625 
Q 63.53125 21.921875 63.53125 35.75 
Q 63.53125 44.484375 60.578125 51 
Q 57.625 57.515625 51.921875 61.109375 
Q 46.234375 64.703125 39.15625 64.703125 
Q 29.109375 64.703125 21.84375 57.78125 
Q 14.59375 50.875 14.59375 34.71875 
z
" id="ArialMT-79"/>
       <path d="M 40.4375 19 
L 49.078125 17.875 
Q 47.65625 8.9375 41.8125 3.875 
Q 35.984375 -1.171875 27.484375 -1.171875 
Q 16.84375 -1.171875 10.375 5.78125 
Q 3.90625 12.75 3.90625 25.734375 
Q 3.90625 34.125 6.6875 40.421875 
Q 9.46875 46.734375 15.15625 49.875 
Q 20.84375 53.03125 27.546875 53.03125 
Q 35.984375 53.03125 41.359375 48.75 
Q 46.734375 44.484375 48.25 36.625 
L 39.703125 35.296875 
Q 38.484375 40.53125 35.375 43.15625 
Q 32.28125 45.796875 27.875 45.796875 
Q 21.234375 45.796875 17.078125 41.03125 
Q 12.9375 36.28125 12.9375 25.984375 
Q 12.9375 15.53125 16.9375 10.796875 
Q 20.953125 6.0625 27.390625 6.0625 
Q 32.5625 6.0625 36.03125 9.234375 
Q 39.5 12.40625 40.4375 19 
z
" id="ArialMT-99"/>
       <path d="M 25.78125 7.859375 
L 27.046875 0.09375 
Q 23.34375 -0.6875 20.40625 -0.6875 
Q 15.625 -0.6875 12.984375 0.828125 
Q 10.359375 2.34375 9.28125 4.8125 
Q 8.203125 7.28125 8.203125 15.1875 
L 8.203125 45.015625 
L 1.765625 45.015625 
L 1.765625 51.859375 
L 8.203125 51.859375 
L 8.203125 64.703125 
L 16.9375 69.96875 
L 16.9375 51.859375 
L 25.78125 51.859375 
L 25.78125 45.015625 
L 16.9375 45.015625 
L 16.9375 14.703125 
Q 16.9375 10.9375 17.40625 9.859375 
Q 17.875 8.796875 18.921875 8.15625 
Q 19.96875 7.515625 21.921875 7.515625 
Q 23.390625 7.515625 25.78125 7.859375 
z
" id="ArialMT-116"/>
      </defs>
      <g style="fill:#871f78;" transform="translate(357.878384 202.897813)scale(0.1 -0.1)">
       <use xlink:href="#ArialMT-79"/>
       <use x="77.783203" xlink:href="#ArialMT-99"/>
       <use x="127.783203" xlink:href="#ArialMT-116"/>
      </g>
     </g>
    </g>
    <g id="xtick_8">
     <g id="line2d_8"/>
     <g id="text_8">
      <!-- Nov -->
      <defs>
       <path d="M 7.625 0 
L 7.625 71.578125 
L 17.328125 71.578125 
L 54.9375 15.375 
L 54.9375 71.578125 
L 64.015625 71.578125 
L 64.015625 0 
L 54.296875 0 
L 16.703125 56.25 
L 16.703125 0 
z
" id="ArialMT-78"/>
       <path d="M 3.328125 25.921875 
Q 3.328125 40.328125 11.328125 47.265625 
Q 18.015625 53.03125 27.640625 53.03125 
Q 38.328125 53.03125 45.109375 46.015625 
Q 51.90625 39.015625 51.90625 26.65625 
Q 51.90625 16.65625 48.90625 10.90625 
Q 45.90625 5.171875 40.15625 2 
Q 34.421875 -1.171875 27.640625 -1.171875 
Q 16.75 -1.171875 10.03125 5.8125 
Q 3.328125 12.796875 3.328125 25.921875 
z
M 12.359375 25.921875 
Q 12.359375 15.96875 16.703125 11.015625 
Q 21.046875 6.0625 27.640625 6.0625 
Q 34.1875 6.0625 38.53125 11.03125 
Q 42.875 16.015625 42.875 26.21875 
Q 42.875 35.84375 38.5 40.796875 
Q 34.125 45.75 27.640625 45.75 
Q 21.046875 45.75 16.703125 40.8125 
Q 12.359375 35.890625 12.359375 25.921875 
z
" id="ArialMT-111"/>
       <path d="M 21 0 
L 1.265625 51.859375 
L 10.546875 51.859375 
L 21.6875 20.796875 
Q 23.484375 15.765625 25 10.359375 
Q 26.171875 14.453125 28.265625 20.21875 
L 39.796875 51.859375 
L 48.828125 51.859375 
L 29.203125 0 
z
" id="ArialMT-118"/>
      </defs>
      <g style="fill:#871f78;" transform="translate(402.669266 202.897813)scale(0.1 -0.1)">
       <use xlink:href="#ArialMT-78"/>
       <use x="72.216797" xlink:href="#ArialMT-111"/>
       <use x="127.832031" xlink:href="#ArialMT-118"/>
      </g>
     </g>
    </g>
   </g>
   <g id="matplotlib.axis_2">
    <g id="ytick_1">
     <g id="line2d_9">
      <path clip-path="url(#p37d0da769c)" d="M 63 192.24 
L 453.6 192.24 
" style="fill:none;stroke:#cccccc;stroke-linecap:round;stroke-width:0.8;"/>
     </g>
     <g id="line2d_10"/>
     <g id="text_9">
      <!-- 0 -->
      <defs>
       <path d="M 4.15625 35.296875 
Q 4.15625 48 6.765625 55.734375 
Q 9.375 63.484375 14.515625 67.671875 
Q 19.671875 71.875 27.484375 71.875 
Q 33.25 71.875 37.59375 69.546875 
Q 41.9375 67.234375 44.765625 62.859375 
Q 47.609375 58.5 49.21875 52.21875 
Q 50.828125 45.953125 50.828125 35.296875 
Q 50.828125 22.703125 48.234375 14.96875 
Q 45.65625 7.234375 40.5 3 
Q 35.359375 -1.21875 27.484375 -1.21875 
Q 17.140625 -1.21875 11.234375 6.203125 
Q 4.15625 15.140625 4.15625 35.296875 
z
M 13.1875 35.296875 
Q 13.1875 17.671875 17.3125 11.828125 
Q 21.4375 6 27.484375 6 
Q 33.546875 6 37.671875 11.859375 
Q 41.796875 17.71875 41.796875 35.296875 
Q 41.796875 52.984375 37.671875 58.78125 
Q 33.546875 64.59375 27.390625 64.59375 
Q 21.34375 64.59375 17.71875 59.46875 
Q 13.1875 52.9375 13.1875 35.296875 
z
" id="ArialMT-48"/>
      </defs>
      <g style="fill:#871f78;" transform="translate(53.939062 195.818906)scale(0.1 -0.1)">
       <use xlink:href="#ArialMT-48"/>
      </g>
     </g>
    </g>
    <g id="ytick_2">
     <g id="line2d_11">
      <path clip-path="url(#p37d0da769c)" d="M 63 162 
L 453.6 162 
" style="fill:none;stroke:#cccccc;stroke-linecap:round;stroke-width:0.8;"/>
     </g>
     <g id="line2d_12"/>
     <g id="text_10">
      <!-- 10 -->
      <defs>
       <path d="M 37.25 0 
L 28.46875 0 
L 28.46875 56 
Q 25.296875 52.984375 20.140625 49.953125 
Q 14.984375 46.921875 10.890625 45.40625 
L 10.890625 53.90625 
Q 18.265625 57.375 23.78125 62.296875 
Q 29.296875 67.234375 31.59375 71.875 
L 37.25 71.875 
z
" id="ArialMT-49"/>
      </defs>
      <g style="fill:#871f78;" transform="translate(48.378125 165.578906)scale(0.1 -0.1)">
       <use xlink:href="#ArialMT-49"/>
       <use x="55.615234" xlink:href="#ArialMT-48"/>
      </g>
     </g>
    </g>
    <g id="ytick_3">
     <g id="line2d_13">
      <path clip-path="url(#p37d0da769c)" d="M 63 131.76 
L 453.6 131.76 
" style="fill:none;stroke:#cccccc;stroke-linecap:round;stroke-width:0.8;"/>
     </g>
     <g id="line2d_14"/>
     <g id="text_11">
      <!-- 20 -->
      <defs>
       <path d="M 50.34375 8.453125 
L 50.34375 0 
L 3.03125 0 
Q 2.9375 3.171875 4.046875 6.109375 
Q 5.859375 10.9375 9.828125 15.625 
Q 13.8125 20.3125 21.34375 26.46875 
Q 33.015625 36.03125 37.109375 41.625 
Q 41.21875 47.21875 41.21875 52.203125 
Q 41.21875 57.421875 37.46875 61 
Q 33.734375 64.59375 27.734375 64.59375 
Q 21.390625 64.59375 17.578125 60.78125 
Q 13.765625 56.984375 13.71875 50.25 
L 4.6875 51.171875 
Q 5.609375 61.28125 11.65625 66.578125 
Q 17.71875 71.875 27.9375 71.875 
Q 38.234375 71.875 44.234375 66.15625 
Q 50.25 60.453125 50.25 52 
Q 50.25 47.703125 48.484375 43.546875 
Q 46.734375 39.40625 42.65625 34.8125 
Q 38.578125 30.21875 29.109375 22.21875 
Q 21.1875 15.578125 18.9375 13.203125 
Q 16.703125 10.84375 15.234375 8.453125 
z
" id="ArialMT-50"/>
      </defs>
      <g style="fill:#871f78;" transform="translate(48.378125 135.338906)scale(0.1 -0.1)">
       <use xlink:href="#ArialMT-50"/>
       <use x="55.615234" xlink:href="#ArialMT-48"/>
      </g>
     </g>
    </g>
    <g id="ytick_4">
     <g id="line2d_15">
      <path clip-path="url(#p37d0da769c)" d="M 63 101.52 
L 453.6 101.52 
" style="fill:none;stroke:#cccccc;stroke-linecap:round;stroke-width:0.8;"/>
     </g>
     <g id="line2d_16"/>
     <g id="text_12">
      <!-- 30 -->
      <defs>
       <path d="M 4.203125 18.890625 
L 12.984375 20.0625 
Q 14.5 12.59375 18.140625 9.296875 
Q 21.78125 6 27 6 
Q 33.203125 6 37.46875 10.296875 
Q 41.75 14.59375 41.75 20.953125 
Q 41.75 27 37.796875 30.921875 
Q 33.84375 34.859375 27.734375 34.859375 
Q 25.25 34.859375 21.53125 33.890625 
L 22.515625 41.609375 
Q 23.390625 41.5 23.921875 41.5 
Q 29.546875 41.5 34.03125 44.421875 
Q 38.53125 47.359375 38.53125 53.46875 
Q 38.53125 58.296875 35.25 61.46875 
Q 31.984375 64.65625 26.8125 64.65625 
Q 21.6875 64.65625 18.265625 61.421875 
Q 14.84375 58.203125 13.875 51.765625 
L 5.078125 53.328125 
Q 6.6875 62.15625 12.390625 67.015625 
Q 18.109375 71.875 26.609375 71.875 
Q 32.46875 71.875 37.390625 69.359375 
Q 42.328125 66.84375 44.9375 62.5 
Q 47.5625 58.15625 47.5625 53.265625 
Q 47.5625 48.640625 45.0625 44.828125 
Q 42.578125 41.015625 37.703125 38.765625 
Q 44.046875 37.3125 47.5625 32.6875 
Q 51.078125 28.078125 51.078125 21.140625 
Q 51.078125 11.765625 44.234375 5.25 
Q 37.40625 -1.265625 26.953125 -1.265625 
Q 17.53125 -1.265625 11.296875 4.34375 
Q 5.078125 9.96875 4.203125 18.890625 
z
" id="ArialMT-51"/>
      </defs>
      <g style="fill:#871f78;" transform="translate(48.378125 105.098906)scale(0.1 -0.1)">
       <use xlink:href="#ArialMT-51"/>
       <use x="55.615234" xlink:href="#ArialMT-48"/>
      </g>
     </g>
    </g>
    <g id="ytick_5">
     <g id="line2d_17">
      <path clip-path="url(#p37d0da769c)" d="M 63 71.28 
L 453.6 71.28 
" style="fill:none;stroke:#cccccc;stroke-linecap:round;stroke-width:0.8;"/>
     </g>
     <g id="line2d_18"/>
     <g id="text_13">
      <!-- 40 -->
      <defs>
       <path d="M 32.328125 0 
L 32.328125 17.140625 
L 1.265625 17.140625 
L 1.265625 25.203125 
L 33.9375 71.578125 
L 41.109375 71.578125 
L 41.109375 25.203125 
L 50.78125 25.203125 
L 50.78125 17.140625 
L 41.109375 17.140625 
L 41.109375 0 
z
M 32.328125 25.203125 
L 32.328125 57.46875 
L 9.90625 25.203125 
z
" id="ArialMT-52"/>
      </defs>
      <g style="fill:#871f78;" transform="translate(48.378125 74.858906)scale(0.1 -0.1)">
       <use xlink:href="#ArialMT-52"/>
       <use x="55.615234" xlink:href="#ArialMT-48"/>
      </g>
     </g>
    </g>
    <g id="ytick_6">
     <g id="line2d_19">
      <path clip-path="url(#p37d0da769c)" d="M 63 41.04 
L 453.6 41.04 
" style="fill:none;stroke:#cccccc;stroke-linecap:round;stroke-width:0.8;"/>
     </g>
     <g id="line2d_20"/>
     <g id="text_14">
      <!-- 50 -->
      <defs>
       <path d="M 4.15625 18.75 
L 13.375 19.53125 
Q 14.40625 12.796875 18.140625 9.390625 
Q 21.875 6 27.15625 6 
Q 33.5 6 37.890625 10.78125 
Q 42.28125 15.578125 42.28125 23.484375 
Q 42.28125 31 38.0625 35.34375 
Q 33.84375 39.703125 27 39.703125 
Q 22.75 39.703125 19.328125 37.765625 
Q 15.921875 35.84375 13.96875 32.765625 
L 5.71875 33.84375 
L 12.640625 70.609375 
L 48.25 70.609375 
L 48.25 62.203125 
L 19.671875 62.203125 
L 15.828125 42.96875 
Q 22.265625 47.46875 29.34375 47.46875 
Q 38.71875 47.46875 45.15625 40.96875 
Q 51.609375 34.46875 51.609375 24.265625 
Q 51.609375 14.546875 45.953125 7.46875 
Q 39.0625 -1.21875 27.15625 -1.21875 
Q 17.390625 -1.21875 11.203125 4.25 
Q 5.03125 9.71875 4.15625 18.75 
z
" id="ArialMT-53"/>
      </defs>
      <g style="fill:#871f78;" transform="translate(48.378125 44.618906)scale(0.1 -0.1)">
       <use xlink:href="#ArialMT-53"/>
       <use x="55.615234" xlink:href="#ArialMT-48"/>
      </g>
     </g>
    </g>
   </g>
   <g id="patch_3">
    <path clip-path="url(#p37d0da769c)" d="M 80.754545 192.24 
L 81.939169 192.24 
L 81.939169 192.24 
L 80.754545 192.24 
z
" style="fill:#871f78;opacity:0.35;"/>
   </g>
   <g id="patch_4">
    <path clip-path="url(#p37d0da769c)" d="M 82.235325 192.24 
L 83.419948 192.24 
L 83.419948 192.24 
L 82.235325 192.24 
z
" style="fill:#871f78;opacity:0.35;"/>
   </g>
   <g id="patch_5">
    <path clip-path="url(#p37d0da769c)" d="M 83.716104 192.24 
L 84.900728 192.24 
L 84.900728 192.24 
L 83.716104 192.24 
z
" style="fill:#871f78;opacity:0.35;"/>
   </g>
   <g id="patch_6">
    <path clip-path="url(#p37d0da769c)" d="M 85.196884 192.24 
L 86.381507 192.24 
L 86.381507 185.231239 
L 85.196884 185.231239 
z
" style="fill:#871f78;opacity:0.35;"/>
   </g>
   <g id="patch_7">
    <path clip-path="url(#p37d0da769c)" d="M 86.677663 192.24 
L 87.862287 192.24 
L 87.862287 192.24 
L 86.677663 192.24 
z
" style="fill:#871f78;opacity:0.35;"/>
   </g>
   <g id="patch_8">
    <path clip-path="url(#p37d0da769c)" d="M 88.158443 192.24 
L 89.343066 192.24 
L 89.343066 192.24 
L 88.158443 192.24 
z
" style="fill:#871f78;opacity:0.35;"/>
   </g>
   <g id="patch_9">
    <path clip-path="url(#p37d0da769c)" d="M 89.639222 192.24 
L 90.823846 192.24 
L 90.823846 185.231239 
L 89.639222 185.231239 
z
" style="fill:#871f78;opacity:0.35;"/>
   </g>
   <g id="patch_10">
    <path clip-path="url(#p37d0da769c)" d="M 91.120002 192.24 
L 92.304625 192.24 
L 92.304625 192.24 
L 91.120002 192.24 
z
" style="fill:#871f78;opacity:0.35;"/>
   </g>
   <g id="patch_11">
    <path clip-path="url(#p37d0da769c)" d="M 92.600781 192.24 
L 93.785405 192.24 
L 93.785405 185.231239 
L 92.600781 185.231239 
z
" style="fill:#871f78;opacity:0.35;"/>
   </g>
   <g id="patch_12">
    <path clip-path="url(#p37d0da769c)" d="M 94.08156 192.24 
L 95.266184 192.24 
L 95.266184 192.24 
L 94.08156 192.24 
z
" style="fill:#871f78;opacity:0.35;"/>
   </g>
   <g id="patch_13">
    <path clip-path="url(#p37d0da769c)" d="M 95.56234 192.24 
L 96.746963 192.24 
L 96.746963 185.231239 
L 95.56234 185.231239 
z
" style="fill:#871f78;opacity:0.35;"/>
   </g>
   <g id="patch_14">
    <path clip-path="url(#p37d0da769c)" d="M 97.043119 192.24 
L 98.227743 192.24 
L 98.227743 192.24 
L 97.043119 192.24 
z
" style="fill:#871f78;opacity:0.35;"/>
   </g>
   <g id="patch_15">
    <path clip-path="url(#p37d0da769c)" d="M 98.523899 192.24 
L 99.708522 192.24 
L 99.708522 192.24 
L 98.523899 192.24 
z
" style="fill:#871f78;opacity:0.35;"/>
   </g>
   <g id="patch_16">
    <path clip-path="url(#p37d0da769c)" d="M 100.004678 192.24 
L 101.189302 192.24 
L 101.189302 185.231239 
L 100.004678 185.231239 
z
" style="fill:#871f78;opacity:0.35;"/>
   </g>
   <g id="patch_17">
    <path clip-path="url(#p37d0da769c)" d="M 101.485458 192.24 
L 102.670081 192.24 
L 102.670081 192.24 
L 101.485458 192.24 
z
" style="fill:#871f78;opacity:0.35;"/>
   </g>
   <g id="patch_18">
    <path clip-path="url(#p37d0da769c)" d="M 102.966237 192.24 
L 104.150861 192.24 
L 104.150861 192.24 
L 102.966237 192.24 
z
" style="fill:#871f78;opacity:0.35;"/>
   </g>
   <g id="patch_19">
    <path clip-path="url(#p37d0da769c)" d="M 104.447016 192.24 
L 105.63164 192.24 
L 105.63164 192.24 
L 104.447016 192.24 
z
" style="fill:#871f78;opacity:0.35;"/>
   </g>
   <g id="patch_20">
    <path clip-path="url(#p37d0da769c)" d="M 105.927796 192.24 
L 107.112419 192.24 
L 107.112419 192.24 
L 105.927796 192.24 
z
" style="fill:#871f78;opacity:0.35;"/>
   </g>
   <g id="patch_21">
    <path clip-path="url(#p37d0da769c)" d="M 107.408575 192.24 
L 108.593199 192.24 
L 108.593199 192.24 
L 107.408575 192.24 
z
" style="fill:#871f78;opacity:0.35;"/>
   </g>
   <g id="patch_22">
    <path clip-path="url(#p37d0da769c)" d="M 108.889355 192.24 
L 110.073978 192.24 
L 110.073978 192.24 
L 108.889355 192.24 
z
" style="fill:#871f78;opacity:0.35;"/>
   </g>
   <g id="patch_23">
    <path clip-path="url(#p37d0da769c)" d="M 110.370134 192.24 
L 111.554758 192.24 
L 111.554758 192.24 
L 110.370134 192.24 
z
" style="fill:#871f78;opacity:0.35;"/>
   </g>
   <g id="patch_24">
    <path clip-path="url(#p37d0da769c)" d="M 111.850914 192.24 
L 113.035537 192.24 
L 113.035537 192.24 
L 111.850914 192.24 
z
" style="fill:#871f78;opacity:0.35;"/>
   </g>
   <g id="patch_25">
    <path clip-path="url(#p37d0da769c)" d="M 113.331693 192.24 
L 114.516317 192.24 
L 114.516317 185.231239 
L 113.331693 185.231239 
z
" style="fill:#871f78;opacity:0.35;"/>
   </g>
   <g id="patch_26">
    <path clip-path="url(#p37d0da769c)" d="M 114.812473 192.24 
L 115.997096 192.24 
L 115.997096 192.24 
L 114.812473 192.24 
z
" style="fill:#871f78;opacity:0.35;"/>
   </g>
   <g id="patch_27">
    <path clip-path="url(#p37d0da769c)" d="M 116.293252 192.24 
L 117.477876 192.24 
L 117.477876 185.231239 
L 116.293252 185.231239 
z
" style="fill:#871f78;opacity:0.35;"/>
   </g>
   <g id="patch_28">
    <path clip-path="url(#p37d0da769c)" d="M 117.774031 192.24 
L 118.958655 192.24 
L 118.958655 185.231239 
L 117.774031 185.231239 
z
" style="fill:#871f78;opacity:0.35;"/>
   </g>
   <g id="patch_29">
    <path clip-path="url(#p37d0da769c)" d="M 119.254811 192.24 
L 120.439434 192.24 
L 120.439434 185.231239 
L 119.254811 185.231239 
z
" style="fill:#871f78;opacity:0.35;"/>
   </g>
   <g id="patch_30">
    <path clip-path="url(#p37d0da769c)" d="M 120.73559 192.24 
L 121.920214 192.24 
L 121.920214 192.24 
L 120.73559 192.24 
z
" style="fill:#871f78;opacity:0.35;"/>
   </g>
   <g id="patch_31">
    <path clip-path="url(#p37d0da769c)" d="M 122.21637 192.24 
L 123.400993 192.24 
L 123.400993 192.24 
L 122.21637 192.24 
z
" style="fill:#871f78;opacity:0.35;"/>
   </g>
   <g id="patch_32">
    <path clip-path="url(#p37d0da769c)" d="M 123.697149 192.24 
L 124.881773 192.24 
L 124.881773 192.24 
L 123.697149 192.24 
z
" style="fill:#871f78;opacity:0.35;"/>
   </g>
   <g id="patch_33">
    <path clip-path="url(#p37d0da769c)" d="M 125.177929 192.24 
L 126.362552 192.24 
L 126.362552 192.24 
L 125.177929 192.24 
z
" style="fill:#871f78;opacity:0.35;"/>
   </g>
   <g id="patch_34">
    <path clip-path="url(#p37d0da769c)" d="M 126.658708 192.24 
L 127.843332 192.24 
L 127.843332 192.24 
L 126.658708 192.24 
z
" style="fill:#871f78;opacity:0.35;"/>
   </g>
   <g id="patch_35">
    <path clip-path="url(#p37d0da769c)" d="M 128.139487 192.24 
L 129.324111 192.24 
L 129.324111 185.231239 
L 128.139487 185.231239 
z
" style="fill:#871f78;opacity:0.35;"/>
   </g>
   <g id="patch_36">
    <path clip-path="url(#p37d0da769c)" d="M 129.620267 192.24 
L 130.80489 192.24 
L 130.80489 199.248761 
L 129.620267 199.248761 
z
" style="fill:#871f78;opacity:0.35;"/>
   </g>
   <g id="patch_37">
    <path clip-path="url(#p37d0da769c)" d="M 131.101046 192.24 
L 132.28567 192.24 
L 132.28567 185.231239 
L 131.101046 185.231239 
z
" style="fill:#871f78;opacity:0.35;"/>
   </g>
   <g id="patch_38">
    <path clip-path="url(#p37d0da769c)" d="M 132.581826 192.24 
L 133.766449 192.24 
L 133.766449 192.24 
L 132.581826 192.24 
z
" style="fill:#871f78;opacity:0.35;"/>
   </g>
   <g id="patch_39">
    <path clip-path="url(#p37d0da769c)" d="M 134.062605 192.24 
L 135.247229 192.24 
L 135.247229 192.24 
L 134.062605 192.24 
z
" style="fill:#871f78;opacity:0.35;"/>
   </g>
   <g id="patch_40">
    <path clip-path="url(#p37d0da769c)" d="M 135.543385 192.24 
L 136.728008 192.24 
L 136.728008 192.24 
L 135.543385 192.24 
z
" style="fill:#871f78;opacity:0.35;"/>
   </g>
   <g id="patch_41">
    <path clip-path="url(#p37d0da769c)" d="M 137.024164 192.24 
L 138.208788 192.24 
L 138.208788 185.231239 
L 137.024164 185.231239 
z
" style="fill:#871f78;opacity:0.35;"/>
   </g>
   <g id="patch_42">
    <path clip-path="url(#p37d0da769c)" d="M 138.504944 192.24 
L 139.689567 192.24 
L 139.689567 192.24 
L 138.504944 192.24 
z
" style="fill:#871f78;opacity:0.35;"/>
   </g>
   <g id="patch_43">
    <path clip-path="url(#p37d0da769c)" d="M 139.985723 192.24 
L 141.170347 192.24 
L 141.170347 192.24 
L 139.985723 192.24 
z
" style="fill:#871f78;opacity:0.35;"/>
   </g>
   <g id="patch_44">
    <path clip-path="url(#p37d0da769c)" d="M 141.466502 192.24 
L 142.651126 192.24 
L 142.651126 192.24 
L 141.466502 192.24 
z
" style="fill:#871f78;opacity:0.35;"/>
   </g>
   <g id="patch_45">
    <path clip-path="url(#p37d0da769c)" d="M 142.947282 192.24 
L 144.131905 192.24 
L 144.131905 192.24 
L 142.947282 192.24 
z
" style="fill:#871f78;opacity:0.35;"/>
   </g>
   <g id="patch_46">
    <path clip-path="url(#p37d0da769c)" d="M 144.428061 192.24 
L 145.612685 192.24 
L 145.612685 192.24 
L 144.428061 192.24 
z
" style="fill:#871f78;opacity:0.35;"/>
   </g>
   <g id="patch_47">
    <path clip-path="url(#p37d0da769c)" d="M 145.908841 192.24 
L 147.093464 192.24 
L 147.093464 185.231239 
L 145.908841 185.231239 
z
" style="fill:#871f78;opacity:0.35;"/>
   </g>
   <g id="patch_48">
    <path clip-path="url(#p37d0da769c)" d="M 147.38962 192.24 
L 148.574244 192.24 
L 148.574244 185.231239 
L 147.38962 185.231239 
z
" style="fill:#871f78;opacity:0.35;"/>
   </g>
   <g id="patch_49">
    <path clip-path="url(#p37d0da769c)" d="M 148.8704 192.24 
L 150.055023 192.24 
L 150.055023 192.24 
L 148.8704 192.24 
z
" style="fill:#871f78;opacity:0.35;"/>
   </g>
   <g id="patch_50">
    <path clip-path="url(#p37d0da769c)" d="M 150.351179 192.24 
L 151.535803 192.24 
L 151.535803 192.24 
L 150.351179 192.24 
z
" style="fill:#871f78;opacity:0.35;"/>
   </g>
   <g id="patch_51">
    <path clip-path="url(#p37d0da769c)" d="M 151.831958 192.24 
L 153.016582 192.24 
L 153.016582 192.24 
L 151.831958 192.24 
z
" style="fill:#871f78;opacity:0.35;"/>
   </g>
   <g id="patch_52">
    <path clip-path="url(#p37d0da769c)" d="M 153.312738 192.24 
L 154.497361 192.24 
L 154.497361 192.24 
L 153.312738 192.24 
z
" style="fill:#871f78;opacity:0.35;"/>
   </g>
   <g id="patch_53">
    <path clip-path="url(#p37d0da769c)" d="M 154.793517 192.24 
L 155.978141 192.24 
L 155.978141 192.24 
L 154.793517 192.24 
z
" style="fill:#871f78;opacity:0.35;"/>
   </g>
   <g id="patch_54">
    <path clip-path="url(#p37d0da769c)" d="M 156.274297 192.24 
L 157.45892 192.24 
L 157.45892 192.24 
L 156.274297 192.24 
z
" style="fill:#871f78;opacity:0.35;"/>
   </g>
   <g id="patch_55">
    <path clip-path="url(#p37d0da769c)" d="M 157.755076 192.24 
L 158.9397 192.24 
L 158.9397 192.24 
L 157.755076 192.24 
z
" style="fill:#871f78;opacity:0.35;"/>
   </g>
   <g id="patch_56">
    <path clip-path="url(#p37d0da769c)" d="M 159.235856 192.24 
L 160.420479 192.24 
L 160.420479 178.222478 
L 159.235856 178.222478 
z
" style="fill:#871f78;opacity:0.35;"/>
   </g>
   <g id="patch_57">
    <path clip-path="url(#p37d0da769c)" d="M 160.716635 192.24 
L 161.901259 192.24 
L 161.901259 192.24 
L 160.716635 192.24 
z
" style="fill:#871f78;opacity:0.35;"/>
   </g>
   <g id="patch_58">
    <path clip-path="url(#p37d0da769c)" d="M 162.197415 192.24 
L 163.382038 192.24 
L 163.382038 192.24 
L 162.197415 192.24 
z
" style="fill:#871f78;opacity:0.35;"/>
   </g>
   <g id="patch_59">
    <path clip-path="url(#p37d0da769c)" d="M 163.678194 192.24 
L 164.862817 192.24 
L 164.862817 192.24 
L 163.678194 192.24 
z
" style="fill:#871f78;opacity:0.35;"/>
   </g>
   <g id="patch_60">
    <path clip-path="url(#p37d0da769c)" d="M 165.158973 192.24 
L 166.343597 192.24 
L 166.343597 192.24 
L 165.158973 192.24 
z
" style="fill:#871f78;opacity:0.35;"/>
   </g>
   <g id="patch_61">
    <path clip-path="url(#p37d0da769c)" d="M 166.639753 192.24 
L 167.824376 192.24 
L 167.824376 192.24 
L 166.639753 192.24 
z
" style="fill:#871f78;opacity:0.35;"/>
   </g>
   <g id="patch_62">
    <path clip-path="url(#p37d0da769c)" d="M 168.120532 192.24 
L 169.305156 192.24 
L 169.305156 192.24 
L 168.120532 192.24 
z
" style="fill:#871f78;opacity:0.35;"/>
   </g>
   <g id="patch_63">
    <path clip-path="url(#p37d0da769c)" d="M 169.601312 192.24 
L 170.785935 192.24 
L 170.785935 192.24 
L 169.601312 192.24 
z
" style="fill:#871f78;opacity:0.35;"/>
   </g>
   <g id="patch_64">
    <path clip-path="url(#p37d0da769c)" d="M 171.082091 192.24 
L 172.266715 192.24 
L 172.266715 185.231239 
L 171.082091 185.231239 
z
" style="fill:#871f78;opacity:0.35;"/>
   </g>
   <g id="patch_65">
    <path clip-path="url(#p37d0da769c)" d="M 172.562871 192.24 
L 173.747494 192.24 
L 173.747494 192.24 
L 172.562871 192.24 
z
" style="fill:#871f78;opacity:0.35;"/>
   </g>
   <g id="patch_66">
    <path clip-path="url(#p37d0da769c)" d="M 174.04365 192.24 
L 175.228274 192.24 
L 175.228274 192.24 
L 174.04365 192.24 
z
" style="fill:#871f78;opacity:0.35;"/>
   </g>
   <g id="patch_67">
    <path clip-path="url(#p37d0da769c)" d="M 175.524429 192.24 
L 176.709053 192.24 
L 176.709053 192.24 
L 175.524429 192.24 
z
" style="fill:#871f78;opacity:0.35;"/>
   </g>
   <g id="patch_68">
    <path clip-path="url(#p37d0da769c)" d="M 177.005209 192.24 
L 178.189832 192.24 
L 178.189832 192.24 
L 177.005209 192.24 
z
" style="fill:#871f78;opacity:0.35;"/>
   </g>
   <g id="patch_69">
    <path clip-path="url(#p37d0da769c)" d="M 178.485988 192.24 
L 179.670612 192.24 
L 179.670612 192.24 
L 178.485988 192.24 
z
" style="fill:#871f78;opacity:0.35;"/>
   </g>
   <g id="patch_70">
    <path clip-path="url(#p37d0da769c)" d="M 179.966768 192.24 
L 181.151391 192.24 
L 181.151391 178.222478 
L 179.966768 178.222478 
z
" style="fill:#871f78;opacity:0.35;"/>
   </g>
   <g id="patch_71">
    <path clip-path="url(#p37d0da769c)" d="M 181.447547 192.24 
L 182.632171 192.24 
L 182.632171 192.24 
L 181.447547 192.24 
z
" style="fill:#871f78;opacity:0.35;"/>
   </g>
   <g id="patch_72">
    <path clip-path="url(#p37d0da769c)" d="M 182.928327 192.24 
L 184.11295 192.24 
L 184.11295 192.24 
L 182.928327 192.24 
z
" style="fill:#871f78;opacity:0.35;"/>
   </g>
   <g id="patch_73">
    <path clip-path="url(#p37d0da769c)" d="M 184.409106 192.24 
L 185.59373 192.24 
L 185.59373 192.24 
L 184.409106 192.24 
z
" style="fill:#871f78;opacity:0.35;"/>
   </g>
   <g id="patch_74">
    <path clip-path="url(#p37d0da769c)" d="M 185.889886 192.24 
L 187.074509 192.24 
L 187.074509 192.24 
L 185.889886 192.24 
z
" style="fill:#871f78;opacity:0.35;"/>
   </g>
   <g id="patch_75">
    <path clip-path="url(#p37d0da769c)" d="M 187.370665 192.24 
L 188.555288 192.24 
L 188.555288 185.231239 
L 187.370665 185.231239 
z
" style="fill:#871f78;opacity:0.35;"/>
   </g>
   <g id="patch_76">
    <path clip-path="url(#p37d0da769c)" d="M 188.851444 192.24 
L 190.036068 192.24 
L 190.036068 192.24 
L 188.851444 192.24 
z
" style="fill:#871f78;opacity:0.35;"/>
   </g>
   <g id="patch_77">
    <path clip-path="url(#p37d0da769c)" d="M 190.332224 192.24 
L 191.516847 192.24 
L 191.516847 192.24 
L 190.332224 192.24 
z
" style="fill:#871f78;opacity:0.35;"/>
   </g>
   <g id="patch_78">
    <path clip-path="url(#p37d0da769c)" d="M 191.813003 192.24 
L 192.997627 192.24 
L 192.997627 192.24 
L 191.813003 192.24 
z
" style="fill:#871f78;opacity:0.35;"/>
   </g>
   <g id="patch_79">
    <path clip-path="url(#p37d0da769c)" d="M 193.293783 192.24 
L 194.478406 192.24 
L 194.478406 192.24 
L 193.293783 192.24 
z
" style="fill:#871f78;opacity:0.35;"/>
   </g>
   <g id="patch_80">
    <path clip-path="url(#p37d0da769c)" d="M 194.774562 192.24 
L 195.959186 192.24 
L 195.959186 192.24 
L 194.774562 192.24 
z
" style="fill:#871f78;opacity:0.35;"/>
   </g>
   <g id="patch_81">
    <path clip-path="url(#p37d0da769c)" d="M 196.255342 192.24 
L 197.439965 192.24 
L 197.439965 185.231239 
L 196.255342 185.231239 
z
" style="fill:#871f78;opacity:0.35;"/>
   </g>
   <g id="patch_82">
    <path clip-path="url(#p37d0da769c)" d="M 197.736121 192.24 
L 198.920745 192.24 
L 198.920745 171.213717 
L 197.736121 171.213717 
z
" style="fill:#871f78;opacity:0.35;"/>
   </g>
   <g id="patch_83">
    <path clip-path="url(#p37d0da769c)" d="M 199.2169 192.24 
L 200.401524 192.24 
L 200.401524 185.231239 
L 199.2169 185.231239 
z
" style="fill:#871f78;opacity:0.35;"/>
   </g>
   <g id="patch_84">
    <path clip-path="url(#p37d0da769c)" d="M 200.69768 192.24 
L 201.882303 192.24 
L 201.882303 192.24 
L 200.69768 192.24 
z
" style="fill:#871f78;opacity:0.35;"/>
   </g>
   <g id="patch_85">
    <path clip-path="url(#p37d0da769c)" d="M 202.178459 192.24 
L 203.363083 192.24 
L 203.363083 192.24 
L 202.178459 192.24 
z
" style="fill:#871f78;opacity:0.35;"/>
   </g>
   <g id="patch_86">
    <path clip-path="url(#p37d0da769c)" d="M 203.659239 192.24 
L 204.843862 192.24 
L 204.843862 192.24 
L 203.659239 192.24 
z
" style="fill:#871f78;opacity:0.35;"/>
   </g>
   <g id="patch_87">
    <path clip-path="url(#p37d0da769c)" d="M 205.140018 192.24 
L 206.324642 192.24 
L 206.324642 192.24 
L 205.140018 192.24 
z
" style="fill:#871f78;opacity:0.35;"/>
   </g>
   <g id="patch_88">
    <path clip-path="url(#p37d0da769c)" d="M 206.620798 192.24 
L 207.805421 192.24 
L 207.805421 199.248761 
L 206.620798 199.248761 
z
" style="fill:#871f78;opacity:0.35;"/>
   </g>
   <g id="patch_89">
    <path clip-path="url(#p37d0da769c)" d="M 208.101577 192.24 
L 209.286201 192.24 
L 209.286201 192.24 
L 208.101577 192.24 
z
" style="fill:#871f78;opacity:0.35;"/>
   </g>
   <g id="patch_90">
    <path clip-path="url(#p37d0da769c)" d="M 209.582357 192.24 
L 210.76698 192.24 
L 210.76698 192.24 
L 209.582357 192.24 
z
" style="fill:#871f78;opacity:0.35;"/>
   </g>
   <g id="patch_91">
    <path clip-path="url(#p37d0da769c)" d="M 211.063136 192.24 
L 212.247759 192.24 
L 212.247759 192.24 
L 211.063136 192.24 
z
" style="fill:#871f78;opacity:0.35;"/>
   </g>
   <g id="patch_92">
    <path clip-path="url(#p37d0da769c)" d="M 212.543915 192.24 
L 213.728539 192.24 
L 213.728539 192.24 
L 212.543915 192.24 
z
" style="fill:#871f78;opacity:0.35;"/>
   </g>
   <g id="patch_93">
    <path clip-path="url(#p37d0da769c)" d="M 214.024695 192.24 
L 215.209318 192.24 
L 215.209318 192.24 
L 214.024695 192.24 
z
" style="fill:#871f78;opacity:0.35;"/>
   </g>
   <g id="patch_94">
    <path clip-path="url(#p37d0da769c)" d="M 215.505474 192.24 
L 216.690098 192.24 
L 216.690098 192.24 
L 215.505474 192.24 
z
" style="fill:#871f78;opacity:0.35;"/>
   </g>
   <g id="patch_95">
    <path clip-path="url(#p37d0da769c)" d="M 216.986254 192.24 
L 218.170877 192.24 
L 218.170877 192.24 
L 216.986254 192.24 
z
" style="fill:#871f78;opacity:0.35;"/>
   </g>
   <g id="patch_96">
    <path clip-path="url(#p37d0da769c)" d="M 218.467033 192.24 
L 219.651657 192.24 
L 219.651657 185.231239 
L 218.467033 185.231239 
z
" style="fill:#871f78;opacity:0.35;"/>
   </g>
   <g id="patch_97">
    <path clip-path="url(#p37d0da769c)" d="M 219.947813 192.24 
L 221.132436 192.24 
L 221.132436 178.222478 
L 219.947813 178.222478 
z
" style="fill:#871f78;opacity:0.35;"/>
   </g>
   <g id="patch_98">
    <path clip-path="url(#p37d0da769c)" d="M 221.428592 192.24 
L 222.613216 192.24 
L 222.613216 171.213717 
L 221.428592 171.213717 
z
" style="fill:#871f78;opacity:0.35;"/>
   </g>
   <g id="patch_99">
    <path clip-path="url(#p37d0da769c)" d="M 222.909371 192.24 
L 224.093995 192.24 
L 224.093995 185.231239 
L 222.909371 185.231239 
z
" style="fill:#871f78;opacity:0.35;"/>
   </g>
   <g id="patch_100">
    <path clip-path="url(#p37d0da769c)" d="M 224.390151 192.24 
L 225.574774 192.24 
L 225.574774 192.24 
L 224.390151 192.24 
z
" style="fill:#871f78;opacity:0.35;"/>
   </g>
   <g id="patch_101">
    <path clip-path="url(#p37d0da769c)" d="M 225.87093 192.24 
L 227.055554 192.24 
L 227.055554 192.24 
L 225.87093 192.24 
z
" style="fill:#871f78;opacity:0.35;"/>
   </g>
   <g id="patch_102">
    <path clip-path="url(#p37d0da769c)" d="M 227.35171 192.24 
L 228.536333 192.24 
L 228.536333 185.231239 
L 227.35171 185.231239 
z
" style="fill:#871f78;opacity:0.35;"/>
   </g>
   <g id="patch_103">
    <path clip-path="url(#p37d0da769c)" d="M 228.832489 192.24 
L 230.017113 192.24 
L 230.017113 185.231239 
L 228.832489 185.231239 
z
" style="fill:#871f78;opacity:0.35;"/>
   </g>
   <g id="patch_104">
    <path clip-path="url(#p37d0da769c)" d="M 230.313269 192.24 
L 231.497892 192.24 
L 231.497892 185.231239 
L 230.313269 185.231239 
z
" style="fill:#871f78;opacity:0.35;"/>
   </g>
   <g id="patch_105">
    <path clip-path="url(#p37d0da769c)" d="M 231.794048 192.24 
L 232.978672 192.24 
L 232.978672 192.24 
L 231.794048 192.24 
z
" style="fill:#871f78;opacity:0.35;"/>
   </g>
   <g id="patch_106">
    <path clip-path="url(#p37d0da769c)" d="M 233.274828 192.24 
L 234.459451 192.24 
L 234.459451 185.231239 
L 233.274828 185.231239 
z
" style="fill:#871f78;opacity:0.35;"/>
   </g>
   <g id="patch_107">
    <path clip-path="url(#p37d0da769c)" d="M 234.755607 192.24 
L 235.94023 192.24 
L 235.94023 192.24 
L 234.755607 192.24 
z
" style="fill:#871f78;opacity:0.35;"/>
   </g>
   <g id="patch_108">
    <path clip-path="url(#p37d0da769c)" d="M 236.236386 192.24 
L 237.42101 192.24 
L 237.42101 192.24 
L 236.236386 192.24 
z
" style="fill:#871f78;opacity:0.35;"/>
   </g>
   <g id="patch_109">
    <path clip-path="url(#p37d0da769c)" d="M 237.717166 192.24 
L 238.901789 192.24 
L 238.901789 192.24 
L 237.717166 192.24 
z
" style="fill:#871f78;opacity:0.35;"/>
   </g>
   <g id="patch_110">
    <path clip-path="url(#p37d0da769c)" d="M 239.197945 192.24 
L 240.382569 192.24 
L 240.382569 192.24 
L 239.197945 192.24 
z
" style="fill:#871f78;opacity:0.35;"/>
   </g>
   <g id="patch_111">
    <path clip-path="url(#p37d0da769c)" d="M 240.678725 192.24 
L 241.863348 192.24 
L 241.863348 192.24 
L 240.678725 192.24 
z
" style="fill:#871f78;opacity:0.35;"/>
   </g>
   <g id="patch_112">
    <path clip-path="url(#p37d0da769c)" d="M 242.159504 192.24 
L 243.344128 192.24 
L 243.344128 192.24 
L 242.159504 192.24 
z
" style="fill:#871f78;opacity:0.35;"/>
   </g>
   <g id="patch_113">
    <path clip-path="url(#p37d0da769c)" d="M 243.640284 192.24 
L 244.824907 192.24 
L 244.824907 192.24 
L 243.640284 192.24 
z
" style="fill:#871f78;opacity:0.35;"/>
   </g>
   <g id="patch_114">
    <path clip-path="url(#p37d0da769c)" d="M 245.121063 192.24 
L 246.305687 192.24 
L 246.305687 192.24 
L 245.121063 192.24 
z
" style="fill:#871f78;opacity:0.35;"/>
   </g>
   <g id="patch_115">
    <path clip-path="url(#p37d0da769c)" d="M 246.601842 192.24 
L 247.786466 192.24 
L 247.786466 185.231239 
L 246.601842 185.231239 
z
" style="fill:#871f78;opacity:0.35;"/>
   </g>
   <g id="patch_116">
    <path clip-path="url(#p37d0da769c)" d="M 248.082622 192.24 
L 249.267245 192.24 
L 249.267245 185.231239 
L 248.082622 185.231239 
z
" style="fill:#871f78;opacity:0.35;"/>
   </g>
   <g id="patch_117">
    <path clip-path="url(#p37d0da769c)" d="M 249.563401 192.24 
L 250.748025 192.24 
L 250.748025 192.24 
L 249.563401 192.24 
z
" style="fill:#871f78;opacity:0.35;"/>
   </g>
   <g id="patch_118">
    <path clip-path="url(#p37d0da769c)" d="M 251.044181 192.24 
L 252.228804 192.24 
L 252.228804 192.24 
L 251.044181 192.24 
z
" style="fill:#871f78;opacity:0.35;"/>
   </g>
   <g id="patch_119">
    <path clip-path="url(#p37d0da769c)" d="M 252.52496 192.24 
L 253.709584 192.24 
L 253.709584 192.24 
L 252.52496 192.24 
z
" style="fill:#871f78;opacity:0.35;"/>
   </g>
   <g id="patch_120">
    <path clip-path="url(#p37d0da769c)" d="M 254.00574 192.24 
L 255.190363 192.24 
L 255.190363 192.24 
L 254.00574 192.24 
z
" style="fill:#871f78;opacity:0.35;"/>
   </g>
   <g id="patch_121">
    <path clip-path="url(#p37d0da769c)" d="M 255.486519 192.24 
L 256.671143 192.24 
L 256.671143 185.231239 
L 255.486519 185.231239 
z
" style="fill:#871f78;opacity:0.35;"/>
   </g>
   <g id="patch_122">
    <path clip-path="url(#p37d0da769c)" d="M 256.967299 192.24 
L 258.151922 192.24 
L 258.151922 192.24 
L 256.967299 192.24 
z
" style="fill:#871f78;opacity:0.35;"/>
   </g>
   <g id="patch_123">
    <path clip-path="url(#p37d0da769c)" d="M 258.448078 192.24 
L 259.632701 192.24 
L 259.632701 192.24 
L 258.448078 192.24 
z
" style="fill:#871f78;opacity:0.35;"/>
   </g>
   <g id="patch_124">
    <path clip-path="url(#p37d0da769c)" d="M 259.928857 192.24 
L 261.113481 192.24 
L 261.113481 192.24 
L 259.928857 192.24 
z
" style="fill:#871f78;opacity:0.35;"/>
   </g>
   <g id="patch_125">
    <path clip-path="url(#p37d0da769c)" d="M 261.409637 192.24 
L 262.59426 192.24 
L 262.59426 192.24 
L 261.409637 192.24 
z
" style="fill:#871f78;opacity:0.35;"/>
   </g>
   <g id="patch_126">
    <path clip-path="url(#p37d0da769c)" d="M 262.890416 192.24 
L 264.07504 192.24 
L 264.07504 192.24 
L 262.890416 192.24 
z
" style="fill:#871f78;opacity:0.35;"/>
   </g>
   <g id="patch_127">
    <path clip-path="url(#p37d0da769c)" d="M 264.371196 192.24 
L 265.555819 192.24 
L 265.555819 192.24 
L 264.371196 192.24 
z
" style="fill:#871f78;opacity:0.35;"/>
   </g>
   <g id="patch_128">
    <path clip-path="url(#p37d0da769c)" d="M 265.851975 192.24 
L 267.036599 192.24 
L 267.036599 192.24 
L 265.851975 192.24 
z
" style="fill:#871f78;opacity:0.35;"/>
   </g>
   <g id="patch_129">
    <path clip-path="url(#p37d0da769c)" d="M 267.332755 192.24 
L 268.517378 192.24 
L 268.517378 192.24 
L 267.332755 192.24 
z
" style="fill:#871f78;opacity:0.35;"/>
   </g>
   <g id="patch_130">
    <path clip-path="url(#p37d0da769c)" d="M 268.813534 192.24 
L 269.998158 192.24 
L 269.998158 192.24 
L 268.813534 192.24 
z
" style="fill:#871f78;opacity:0.35;"/>
   </g>
   <g id="patch_131">
    <path clip-path="url(#p37d0da769c)" d="M 270.294313 192.24 
L 271.478937 192.24 
L 271.478937 192.24 
L 270.294313 192.24 
z
" style="fill:#871f78;opacity:0.35;"/>
   </g>
   <g id="patch_132">
    <path clip-path="url(#p37d0da769c)" d="M 271.775093 192.24 
L 272.959716 192.24 
L 272.959716 192.24 
L 271.775093 192.24 
z
" style="fill:#871f78;opacity:0.35;"/>
   </g>
   <g id="patch_133">
    <path clip-path="url(#p37d0da769c)" d="M 273.255872 192.24 
L 274.440496 192.24 
L 274.440496 185.231239 
L 273.255872 185.231239 
z
" style="fill:#871f78;opacity:0.35;"/>
   </g>
   <g id="patch_134">
    <path clip-path="url(#p37d0da769c)" d="M 274.736652 192.24 
L 275.921275 192.24 
L 275.921275 185.231239 
L 274.736652 185.231239 
z
" style="fill:#871f78;opacity:0.35;"/>
   </g>
   <g id="patch_135">
    <path clip-path="url(#p37d0da769c)" d="M 276.217431 192.24 
L 277.402055 192.24 
L 277.402055 192.24 
L 276.217431 192.24 
z
" style="fill:#871f78;opacity:0.35;"/>
   </g>
   <g id="patch_136">
    <path clip-path="url(#p37d0da769c)" d="M 277.698211 192.24 
L 278.882834 192.24 
L 278.882834 192.24 
L 277.698211 192.24 
z
" style="fill:#871f78;opacity:0.35;"/>
   </g>
   <g id="patch_137">
    <path clip-path="url(#p37d0da769c)" d="M 279.17899 192.24 
L 280.363614 192.24 
L 280.363614 192.24 
L 279.17899 192.24 
z
" style="fill:#871f78;opacity:0.35;"/>
   </g>
   <g id="patch_138">
    <path clip-path="url(#p37d0da769c)" d="M 280.65977 192.24 
L 281.844393 192.24 
L 281.844393 192.24 
L 280.65977 192.24 
z
" style="fill:#871f78;opacity:0.35;"/>
   </g>
   <g id="patch_139">
    <path clip-path="url(#p37d0da769c)" d="M 282.140549 192.24 
L 283.325172 192.24 
L 283.325172 192.24 
L 282.140549 192.24 
z
" style="fill:#871f78;opacity:0.35;"/>
   </g>
   <g id="patch_140">
    <path clip-path="url(#p37d0da769c)" d="M 283.621328 192.24 
L 284.805952 192.24 
L 284.805952 192.24 
L 283.621328 192.24 
z
" style="fill:#871f78;opacity:0.35;"/>
   </g>
   <g id="patch_141">
    <path clip-path="url(#p37d0da769c)" d="M 285.102108 192.24 
L 286.286731 192.24 
L 286.286731 192.24 
L 285.102108 192.24 
z
" style="fill:#871f78;opacity:0.35;"/>
   </g>
   <g id="patch_142">
    <path clip-path="url(#p37d0da769c)" d="M 286.582887 192.24 
L 287.767511 192.24 
L 287.767511 192.24 
L 286.582887 192.24 
z
" style="fill:#871f78;opacity:0.35;"/>
   </g>
   <g id="patch_143">
    <path clip-path="url(#p37d0da769c)" d="M 288.063667 192.24 
L 289.24829 192.24 
L 289.24829 192.24 
L 288.063667 192.24 
z
" style="fill:#871f78;opacity:0.35;"/>
   </g>
   <g id="patch_144">
    <path clip-path="url(#p37d0da769c)" d="M 289.544446 192.24 
L 290.72907 192.24 
L 290.72907 185.231239 
L 289.544446 185.231239 
z
" style="fill:#871f78;opacity:0.35;"/>
   </g>
   <g id="patch_145">
    <path clip-path="url(#p37d0da769c)" d="M 291.025226 192.24 
L 292.209849 192.24 
L 292.209849 171.213717 
L 291.025226 171.213717 
z
" style="fill:#871f78;opacity:0.35;"/>
   </g>
   <g id="patch_146">
    <path clip-path="url(#p37d0da769c)" d="M 292.506005 192.24 
L 293.690629 192.24 
L 293.690629 192.24 
L 292.506005 192.24 
z
" style="fill:#871f78;opacity:0.35;"/>
   </g>
   <g id="patch_147">
    <path clip-path="url(#p37d0da769c)" d="M 293.986784 192.24 
L 295.171408 192.24 
L 295.171408 192.24 
L 293.986784 192.24 
z
" style="fill:#871f78;opacity:0.35;"/>
   </g>
   <g id="patch_148">
    <path clip-path="url(#p37d0da769c)" d="M 295.467564 192.24 
L 296.652187 192.24 
L 296.652187 199.248761 
L 295.467564 199.248761 
z
" style="fill:#871f78;opacity:0.35;"/>
   </g>
   <g id="patch_149">
    <path clip-path="url(#p37d0da769c)" d="M 296.948343 192.24 
L 298.132967 192.24 
L 298.132967 185.231239 
L 296.948343 185.231239 
z
" style="fill:#871f78;opacity:0.35;"/>
   </g>
   <g id="patch_150">
    <path clip-path="url(#p37d0da769c)" d="M 298.429123 192.24 
L 299.613746 192.24 
L 299.613746 192.24 
L 298.429123 192.24 
z
" style="fill:#871f78;opacity:0.35;"/>
   </g>
   <g id="patch_151">
    <path clip-path="url(#p37d0da769c)" d="M 299.909902 192.24 
L 301.094526 192.24 
L 301.094526 192.24 
L 299.909902 192.24 
z
" style="fill:#871f78;opacity:0.35;"/>
   </g>
   <g id="patch_152">
    <path clip-path="url(#p37d0da769c)" d="M 301.390682 192.24 
L 302.575305 192.24 
L 302.575305 192.24 
L 301.390682 192.24 
z
" style="fill:#871f78;opacity:0.35;"/>
   </g>
   <g id="patch_153">
    <path clip-path="url(#p37d0da769c)" d="M 302.871461 192.24 
L 304.056085 192.24 
L 304.056085 192.24 
L 302.871461 192.24 
z
" style="fill:#871f78;opacity:0.35;"/>
   </g>
   <g id="patch_154">
    <path clip-path="url(#p37d0da769c)" d="M 304.352241 192.24 
L 305.536864 192.24 
L 305.536864 192.24 
L 304.352241 192.24 
z
" style="fill:#871f78;opacity:0.35;"/>
   </g>
   <g id="patch_155">
    <path clip-path="url(#p37d0da769c)" d="M 305.83302 192.24 
L 307.017643 192.24 
L 307.017643 192.24 
L 305.83302 192.24 
z
" style="fill:#871f78;opacity:0.35;"/>
   </g>
   <g id="patch_156">
    <path clip-path="url(#p37d0da769c)" d="M 307.313799 192.24 
L 308.498423 192.24 
L 308.498423 192.24 
L 307.313799 192.24 
z
" style="fill:#871f78;opacity:0.35;"/>
   </g>
   <g id="patch_157">
    <path clip-path="url(#p37d0da769c)" d="M 308.794579 192.24 
L 309.979202 192.24 
L 309.979202 192.24 
L 308.794579 192.24 
z
" style="fill:#871f78;opacity:0.35;"/>
   </g>
   <g id="patch_158">
    <path clip-path="url(#p37d0da769c)" d="M 310.275358 192.24 
L 311.459982 192.24 
L 311.459982 178.222478 
L 310.275358 178.222478 
z
" style="fill:#871f78;opacity:0.35;"/>
   </g>
   <g id="patch_159">
    <path clip-path="url(#p37d0da769c)" d="M 311.756138 192.24 
L 312.940761 192.24 
L 312.940761 192.24 
L 311.756138 192.24 
z
" style="fill:#871f78;opacity:0.35;"/>
   </g>
   <g id="patch_160">
    <path clip-path="url(#p37d0da769c)" d="M 313.236917 192.24 
L 314.421541 192.24 
L 314.421541 185.231239 
L 313.236917 185.231239 
z
" style="fill:#871f78;opacity:0.35;"/>
   </g>
   <g id="patch_161">
    <path clip-path="url(#p37d0da769c)" d="M 314.717697 192.24 
L 315.90232 192.24 
L 315.90232 192.24 
L 314.717697 192.24 
z
" style="fill:#871f78;opacity:0.35;"/>
   </g>
   <g id="patch_162">
    <path clip-path="url(#p37d0da769c)" d="M 316.198476 192.24 
L 317.3831 192.24 
L 317.3831 192.24 
L 316.198476 192.24 
z
" style="fill:#871f78;opacity:0.35;"/>
   </g>
   <g id="patch_163">
    <path clip-path="url(#p37d0da769c)" d="M 317.679255 192.24 
L 318.863879 192.24 
L 318.863879 192.24 
L 317.679255 192.24 
z
" style="fill:#871f78;opacity:0.35;"/>
   </g>
   <g id="patch_164">
    <path clip-path="url(#p37d0da769c)" d="M 319.160035 192.24 
L 320.344658 192.24 
L 320.344658 185.231239 
L 319.160035 185.231239 
z
" style="fill:#871f78;opacity:0.35;"/>
   </g>
   <g id="patch_165">
    <path clip-path="url(#p37d0da769c)" d="M 320.640814 192.24 
L 321.825438 192.24 
L 321.825438 192.24 
L 320.640814 192.24 
z
" style="fill:#871f78;opacity:0.35;"/>
   </g>
   <g id="patch_166">
    <path clip-path="url(#p37d0da769c)" d="M 322.121594 192.24 
L 323.306217 192.24 
L 323.306217 192.24 
L 322.121594 192.24 
z
" style="fill:#871f78;opacity:0.35;"/>
   </g>
   <g id="patch_167">
    <path clip-path="url(#p37d0da769c)" d="M 323.602373 192.24 
L 324.786997 192.24 
L 324.786997 192.24 
L 323.602373 192.24 
z
" style="fill:#871f78;opacity:0.35;"/>
   </g>
   <g id="patch_168">
    <path clip-path="url(#p37d0da769c)" d="M 325.083153 192.24 
L 326.267776 192.24 
L 326.267776 192.24 
L 325.083153 192.24 
z
" style="fill:#871f78;opacity:0.35;"/>
   </g>
   <g id="patch_169">
    <path clip-path="url(#p37d0da769c)" d="M 326.563932 192.24 
L 327.748556 192.24 
L 327.748556 192.24 
L 326.563932 192.24 
z
" style="fill:#871f78;opacity:0.35;"/>
   </g>
   <g id="patch_170">
    <path clip-path="url(#p37d0da769c)" d="M 328.044712 192.24 
L 329.229335 192.24 
L 329.229335 192.24 
L 328.044712 192.24 
z
" style="fill:#871f78;opacity:0.35;"/>
   </g>
   <g id="patch_171">
    <path clip-path="url(#p37d0da769c)" d="M 329.525491 192.24 
L 330.710114 192.24 
L 330.710114 192.24 
L 329.525491 192.24 
z
" style="fill:#871f78;opacity:0.35;"/>
   </g>
   <g id="patch_172">
    <path clip-path="url(#p37d0da769c)" d="M 331.00627 192.24 
L 332.190894 192.24 
L 332.190894 192.24 
L 331.00627 192.24 
z
" style="fill:#871f78;opacity:0.35;"/>
   </g>
   <g id="patch_173">
    <path clip-path="url(#p37d0da769c)" d="M 332.48705 192.24 
L 333.671673 192.24 
L 333.671673 185.231239 
L 332.48705 185.231239 
z
" style="fill:#871f78;opacity:0.35;"/>
   </g>
   <g id="patch_174">
    <path clip-path="url(#p37d0da769c)" d="M 333.967829 192.24 
L 335.152453 192.24 
L 335.152453 192.24 
L 333.967829 192.24 
z
" style="fill:#871f78;opacity:0.35;"/>
   </g>
   <g id="patch_175">
    <path clip-path="url(#p37d0da769c)" d="M 335.448609 192.24 
L 336.633232 192.24 
L 336.633232 192.24 
L 335.448609 192.24 
z
" style="fill:#871f78;opacity:0.35;"/>
   </g>
   <g id="patch_176">
    <path clip-path="url(#p37d0da769c)" d="M 336.929388 192.24 
L 338.114012 192.24 
L 338.114012 192.24 
L 336.929388 192.24 
z
" style="fill:#871f78;opacity:0.35;"/>
   </g>
   <g id="patch_177">
    <path clip-path="url(#p37d0da769c)" d="M 338.410168 192.24 
L 339.594791 192.24 
L 339.594791 192.24 
L 338.410168 192.24 
z
" style="fill:#871f78;opacity:0.35;"/>
   </g>
   <g id="patch_178">
    <path clip-path="url(#p37d0da769c)" d="M 339.890947 192.24 
L 341.075571 192.24 
L 341.075571 192.24 
L 339.890947 192.24 
z
" style="fill:#871f78;opacity:0.35;"/>
   </g>
   <g id="patch_179">
    <path clip-path="url(#p37d0da769c)" d="M 341.371726 192.24 
L 342.55635 192.24 
L 342.55635 192.24 
L 341.371726 192.24 
z
" style="fill:#871f78;opacity:0.35;"/>
   </g>
   <g id="patch_180">
    <path clip-path="url(#p37d0da769c)" d="M 342.852506 192.24 
L 344.037129 192.24 
L 344.037129 192.24 
L 342.852506 192.24 
z
" style="fill:#871f78;opacity:0.35;"/>
   </g>
   <g id="patch_181">
    <path clip-path="url(#p37d0da769c)" d="M 344.333285 192.24 
L 345.517909 192.24 
L 345.517909 192.24 
L 344.333285 192.24 
z
" style="fill:#871f78;opacity:0.35;"/>
   </g>
   <g id="patch_182">
    <path clip-path="url(#p37d0da769c)" d="M 345.814065 192.24 
L 346.998688 192.24 
L 346.998688 185.231239 
L 345.814065 185.231239 
z
" style="fill:#871f78;opacity:0.35;"/>
   </g>
   <g id="patch_183">
    <path clip-path="url(#p37d0da769c)" d="M 347.294844 192.24 
L 348.479468 192.24 
L 348.479468 192.24 
L 347.294844 192.24 
z
" style="fill:#871f78;opacity:0.35;"/>
   </g>
   <g id="patch_184">
    <path clip-path="url(#p37d0da769c)" d="M 348.775624 192.24 
L 349.960247 192.24 
L 349.960247 185.231239 
L 348.775624 185.231239 
z
" style="fill:#871f78;opacity:0.35;"/>
   </g>
   <g id="patch_185">
    <path clip-path="url(#p37d0da769c)" d="M 350.256403 192.24 
L 351.441027 192.24 
L 351.441027 192.24 
L 350.256403 192.24 
z
" style="fill:#871f78;opacity:0.35;"/>
   </g>
   <g id="patch_186">
    <path clip-path="url(#p37d0da769c)" d="M 351.737183 192.24 
L 352.921806 192.24 
L 352.921806 185.231239 
L 351.737183 185.231239 
z
" style="fill:#871f78;opacity:0.35;"/>
   </g>
   <g id="patch_187">
    <path clip-path="url(#p37d0da769c)" d="M 353.217962 192.24 
L 354.402585 192.24 
L 354.402585 192.24 
L 353.217962 192.24 
z
" style="fill:#871f78;opacity:0.35;"/>
   </g>
   <g id="patch_188">
    <path clip-path="url(#p37d0da769c)" d="M 354.698741 192.24 
L 355.883365 192.24 
L 355.883365 185.231239 
L 354.698741 185.231239 
z
" style="fill:#871f78;opacity:0.35;"/>
   </g>
   <g id="patch_189">
    <path clip-path="url(#p37d0da769c)" d="M 356.179521 192.24 
L 357.364144 192.24 
L 357.364144 192.24 
L 356.179521 192.24 
z
" style="fill:#871f78;opacity:0.35;"/>
   </g>
   <g id="patch_190">
    <path clip-path="url(#p37d0da769c)" d="M 357.6603 192.24 
L 358.844924 192.24 
L 358.844924 185.231239 
L 357.6603 185.231239 
z
" style="fill:#871f78;opacity:0.35;"/>
   </g>
   <g id="patch_191">
    <path clip-path="url(#p37d0da769c)" d="M 359.14108 192.24 
L 360.325703 192.24 
L 360.325703 185.231239 
L 359.14108 185.231239 
z
" style="fill:#871f78;opacity:0.35;"/>
   </g>
   <g id="patch_192">
    <path clip-path="url(#p37d0da769c)" d="M 360.621859 192.24 
L 361.806483 192.24 
L 361.806483 178.222478 
L 360.621859 178.222478 
z
" style="fill:#871f78;opacity:0.35;"/>
   </g>
   <g id="patch_193">
    <path clip-path="url(#p37d0da769c)" d="M 362.102639 192.24 
L 363.287262 192.24 
L 363.287262 185.231239 
L 362.102639 185.231239 
z
" style="fill:#871f78;opacity:0.35;"/>
   </g>
   <g id="patch_194">
    <path clip-path="url(#p37d0da769c)" d="M 363.583418 192.24 
L 364.768042 192.24 
L 364.768042 192.24 
L 363.583418 192.24 
z
" style="fill:#871f78;opacity:0.35;"/>
   </g>
   <g id="patch_195">
    <path clip-path="url(#p37d0da769c)" d="M 365.064197 192.24 
L 366.248821 192.24 
L 366.248821 192.24 
L 365.064197 192.24 
z
" style="fill:#871f78;opacity:0.35;"/>
   </g>
   <g id="patch_196">
    <path clip-path="url(#p37d0da769c)" d="M 366.544977 192.24 
L 367.7296 192.24 
L 367.7296 185.231239 
L 366.544977 185.231239 
z
" style="fill:#871f78;opacity:0.35;"/>
   </g>
   <g id="patch_197">
    <path clip-path="url(#p37d0da769c)" d="M 368.025756 192.24 
L 369.21038 192.24 
L 369.21038 192.24 
L 368.025756 192.24 
z
" style="fill:#871f78;opacity:0.35;"/>
   </g>
   <g id="patch_198">
    <path clip-path="url(#p37d0da769c)" d="M 369.506536 192.24 
L 370.691159 192.24 
L 370.691159 192.24 
L 369.506536 192.24 
z
" style="fill:#871f78;opacity:0.35;"/>
   </g>
   <g id="patch_199">
    <path clip-path="url(#p37d0da769c)" d="M 370.987315 192.24 
L 372.171939 192.24 
L 372.171939 178.222478 
L 370.987315 178.222478 
z
" style="fill:#871f78;opacity:0.35;"/>
   </g>
   <g id="patch_200">
    <path clip-path="url(#p37d0da769c)" d="M 372.468095 192.24 
L 373.652718 192.24 
L 373.652718 185.231239 
L 372.468095 185.231239 
z
" style="fill:#871f78;opacity:0.35;"/>
   </g>
   <g id="patch_201">
    <path clip-path="url(#p37d0da769c)" d="M 373.948874 192.24 
L 375.133498 192.24 
L 375.133498 192.24 
L 373.948874 192.24 
z
" style="fill:#871f78;opacity:0.35;"/>
   </g>
   <g id="patch_202">
    <path clip-path="url(#p37d0da769c)" d="M 375.429653 192.24 
L 376.614277 192.24 
L 376.614277 185.231239 
L 375.429653 185.231239 
z
" style="fill:#871f78;opacity:0.35;"/>
   </g>
   <g id="patch_203">
    <path clip-path="url(#p37d0da769c)" d="M 376.910433 192.24 
L 378.095056 192.24 
L 378.095056 185.231239 
L 376.910433 185.231239 
z
" style="fill:#871f78;opacity:0.35;"/>
   </g>
   <g id="patch_204">
    <path clip-path="url(#p37d0da769c)" d="M 378.391212 192.24 
L 379.575836 192.24 
L 379.575836 185.231239 
L 378.391212 185.231239 
z
" style="fill:#871f78;opacity:0.35;"/>
   </g>
   <g id="patch_205">
    <path clip-path="url(#p37d0da769c)" d="M 379.871992 192.24 
L 381.056615 192.24 
L 381.056615 192.24 
L 379.871992 192.24 
z
" style="fill:#871f78;opacity:0.35;"/>
   </g>
   <g id="patch_206">
    <path clip-path="url(#p37d0da769c)" d="M 381.352771 192.24 
L 382.537395 192.24 
L 382.537395 192.24 
L 381.352771 192.24 
z
" style="fill:#871f78;opacity:0.35;"/>
   </g>
   <g id="patch_207">
    <path clip-path="url(#p37d0da769c)" d="M 382.833551 192.24 
L 384.018174 192.24 
L 384.018174 192.24 
L 382.833551 192.24 
z
" style="fill:#871f78;opacity:0.35;"/>
   </g>
   <g id="patch_208">
    <path clip-path="url(#p37d0da769c)" d="M 384.31433 192.24 
L 385.498954 192.24 
L 385.498954 192.24 
L 384.31433 192.24 
z
" style="fill:#871f78;opacity:0.35;"/>
   </g>
   <g id="patch_209">
    <path clip-path="url(#p37d0da769c)" d="M 385.79511 192.24 
L 386.979733 192.24 
L 386.979733 185.231239 
L 385.79511 185.231239 
z
" style="fill:#871f78;opacity:0.35;"/>
   </g>
   <g id="patch_210">
    <path clip-path="url(#p37d0da769c)" d="M 387.275889 192.24 
L 388.460513 192.24 
L 388.460513 185.231239 
L 387.275889 185.231239 
z
" style="fill:#871f78;opacity:0.35;"/>
   </g>
   <g id="patch_211">
    <path clip-path="url(#p37d0da769c)" d="M 388.756668 192.24 
L 389.941292 192.24 
L 389.941292 185.231239 
L 388.756668 185.231239 
z
" style="fill:#871f78;opacity:0.35;"/>
   </g>
   <g id="patch_212">
    <path clip-path="url(#p37d0da769c)" d="M 390.237448 192.24 
L 391.422071 192.24 
L 391.422071 185.231239 
L 390.237448 185.231239 
z
" style="fill:#871f78;opacity:0.35;"/>
   </g>
   <g id="patch_213">
    <path clip-path="url(#p37d0da769c)" d="M 391.718227 192.24 
L 392.902851 192.24 
L 392.902851 199.248761 
L 391.718227 199.248761 
z
" style="fill:#871f78;opacity:0.35;"/>
   </g>
   <g id="patch_214">
    <path clip-path="url(#p37d0da769c)" d="M 393.199007 192.24 
L 394.38363 192.24 
L 394.38363 192.24 
L 393.199007 192.24 
z
" style="fill:#871f78;opacity:0.35;"/>
   </g>
   <g id="patch_215">
    <path clip-path="url(#p37d0da769c)" d="M 394.679786 192.24 
L 395.86441 192.24 
L 395.86441 178.222478 
L 394.679786 178.222478 
z
" style="fill:#871f78;opacity:0.35;"/>
   </g>
   <g id="patch_216">
    <path clip-path="url(#p37d0da769c)" d="M 396.160566 192.24 
L 397.345189 192.24 
L 397.345189 178.222478 
L 396.160566 178.222478 
z
" style="fill:#871f78;opacity:0.35;"/>
   </g>
   <g id="patch_217">
    <path clip-path="url(#p37d0da769c)" d="M 397.641345 192.24 
L 398.825969 192.24 
L 398.825969 178.222478 
L 397.641345 178.222478 
z
" style="fill:#871f78;opacity:0.35;"/>
   </g>
   <g id="patch_218">
    <path clip-path="url(#p37d0da769c)" d="M 399.122124 192.24 
L 400.306748 192.24 
L 400.306748 185.231239 
L 399.122124 185.231239 
z
" style="fill:#871f78;opacity:0.35;"/>
   </g>
   <g id="patch_219">
    <path clip-path="url(#p37d0da769c)" d="M 400.602904 192.24 
L 401.787527 192.24 
L 401.787527 185.231239 
L 400.602904 185.231239 
z
" style="fill:#871f78;opacity:0.35;"/>
   </g>
   <g id="patch_220">
    <path clip-path="url(#p37d0da769c)" d="M 402.083683 192.24 
L 403.268307 192.24 
L 403.268307 185.231239 
L 402.083683 185.231239 
z
" style="fill:#871f78;opacity:0.35;"/>
   </g>
   <g id="patch_221">
    <path clip-path="url(#p37d0da769c)" d="M 403.564463 192.24 
L 404.749086 192.24 
L 404.749086 178.222478 
L 403.564463 178.222478 
z
" style="fill:#871f78;opacity:0.35;"/>
   </g>
   <g id="patch_222">
    <path clip-path="url(#p37d0da769c)" d="M 405.045242 192.24 
L 406.229866 192.24 
L 406.229866 178.222478 
L 405.045242 178.222478 
z
" style="fill:#871f78;opacity:0.35;"/>
   </g>
   <g id="patch_223">
    <path clip-path="url(#p37d0da769c)" d="M 406.526022 192.24 
L 407.710645 192.24 
L 407.710645 171.213717 
L 406.526022 171.213717 
z
" style="fill:#871f78;opacity:0.35;"/>
   </g>
   <g id="patch_224">
    <path clip-path="url(#p37d0da769c)" d="M 408.006801 192.24 
L 409.191425 192.24 
L 409.191425 178.222478 
L 408.006801 178.222478 
z
" style="fill:#871f78;opacity:0.35;"/>
   </g>
   <g id="patch_225">
    <path clip-path="url(#p37d0da769c)" d="M 409.487581 192.24 
L 410.672204 192.24 
L 410.672204 157.196195 
L 409.487581 157.196195 
z
" style="fill:#871f78;opacity:0.35;"/>
   </g>
   <g id="patch_226">
    <path clip-path="url(#p37d0da769c)" d="M 410.96836 192.24 
L 412.152984 192.24 
L 412.152984 178.222478 
L 410.96836 178.222478 
z
" style="fill:#871f78;opacity:0.35;"/>
   </g>
   <g id="patch_227">
    <path clip-path="url(#p37d0da769c)" d="M 412.449139 192.24 
L 413.633763 192.24 
L 413.633763 178.222478 
L 412.449139 178.222478 
z
" style="fill:#871f78;opacity:0.35;"/>
   </g>
   <g id="patch_228">
    <path clip-path="url(#p37d0da769c)" d="M 413.929919 192.24 
L 415.114542 192.24 
L 415.114542 164.204956 
L 413.929919 164.204956 
z
" style="fill:#871f78;opacity:0.35;"/>
   </g>
   <g id="patch_229">
    <path clip-path="url(#p37d0da769c)" d="M 415.410698 192.24 
L 416.595322 192.24 
L 416.595322 192.24 
L 415.410698 192.24 
z
" style="fill:#871f78;opacity:0.35;"/>
   </g>
   <g id="patch_230">
    <path clip-path="url(#p37d0da769c)" d="M 416.891478 192.24 
L 418.076101 192.24 
L 418.076101 164.204956 
L 416.891478 164.204956 
z
" style="fill:#871f78;opacity:0.35;"/>
   </g>
   <g id="patch_231">
    <path clip-path="url(#p37d0da769c)" d="M 418.372257 192.24 
L 419.556881 192.24 
L 419.556881 150.187434 
L 418.372257 150.187434 
z
" style="fill:#871f78;opacity:0.35;"/>
   </g>
   <g id="patch_232">
    <path clip-path="url(#p37d0da769c)" d="M 419.853037 192.24 
L 421.03766 192.24 
L 421.03766 129.161151 
L 419.853037 129.161151 
z
" style="fill:#871f78;opacity:0.35;"/>
   </g>
   <g id="patch_233">
    <path clip-path="url(#p37d0da769c)" d="M 421.333816 192.24 
L 422.51844 192.24 
L 422.51844 87.108586 
L 421.333816 87.108586 
z
" style="fill:#871f78;opacity:0.35;"/>
   </g>
   <g id="patch_234">
    <path clip-path="url(#p37d0da769c)" d="M 422.814595 192.24 
L 423.999219 192.24 
L 423.999219 171.213717 
L 422.814595 171.213717 
z
" style="fill:#871f78;opacity:0.35;"/>
   </g>
   <g id="patch_235">
    <path clip-path="url(#p37d0da769c)" d="M 424.295375 192.24 
L 425.479998 192.24 
L 425.479998 157.196195 
L 424.295375 157.196195 
z
" style="fill:#871f78;opacity:0.35;"/>
   </g>
   <g id="patch_236">
    <path clip-path="url(#p37d0da769c)" d="M 425.776154 192.24 
L 426.960778 192.24 
L 426.960778 157.196195 
L 425.776154 157.196195 
z
" style="fill:#871f78;opacity:0.35;"/>
   </g>
   <g id="patch_237">
    <path clip-path="url(#p37d0da769c)" d="M 427.256934 192.24 
L 428.441557 192.24 
L 428.441557 171.213717 
L 427.256934 171.213717 
z
" style="fill:#871f78;opacity:0.35;"/>
   </g>
   <g id="patch_238">
    <path clip-path="url(#p37d0da769c)" d="M 428.737713 192.24 
L 429.922337 192.24 
L 429.922337 150.187434 
L 428.737713 150.187434 
z
" style="fill:#871f78;opacity:0.35;"/>
   </g>
   <g id="patch_239">
    <path clip-path="url(#p37d0da769c)" d="M 430.218493 192.24 
L 431.403116 192.24 
L 431.403116 136.169912 
L 430.218493 136.169912 
z
" style="fill:#871f78;opacity:0.35;"/>
   </g>
   <g id="patch_240">
    <path clip-path="url(#p37d0da769c)" d="M 431.699272 192.24 
L 432.883896 192.24 
L 432.883896 171.213717 
L 431.699272 171.213717 
z
" style="fill:#871f78;opacity:0.35;"/>
   </g>
   <g id="patch_241">
    <path clip-path="url(#p37d0da769c)" d="M 433.180052 192.24 
L 434.364675 192.24 
L 434.364675 143.178673 
L 433.180052 143.178673 
z
" style="fill:#871f78;opacity:0.35;"/>
   </g>
   <g id="patch_242">
    <path clip-path="url(#p37d0da769c)" d="M 434.660831 192.24 
L 435.845455 192.24 
L 435.845455 164.204956 
L 434.660831 164.204956 
z
" style="fill:#871f78;opacity:0.35;"/>
   </g>
   <g id="line2d_21">
    <path clip-path="url(#p37d0da769c)" d="M 90.231534 190.237497 
L 91.712313 190.237497 
L 93.193093 189.236245 
L 102.077769 189.236245 
L 103.558549 190.237497 
L 105.039328 190.237497 
L 106.520108 191.238748 
L 109.481667 191.238748 
L 110.962446 192.24 
L 112.443225 192.24 
L 113.924005 191.238748 
L 115.404784 191.238748 
L 119.847123 188.234994 
L 122.808681 188.234994 
L 124.289461 189.236245 
L 125.77024 189.236245 
L 127.25102 190.237497 
L 128.731799 190.237497 
L 130.212579 192.24 
L 131.693358 191.238748 
L 136.135696 191.238748 
L 137.616476 190.237497 
L 139.097255 191.238748 
L 140.578035 190.237497 
L 142.058814 191.238748 
L 145.020373 191.238748 
L 146.501152 190.237497 
L 155.385829 190.237497 
L 158.347388 192.24 
L 159.828167 190.237497 
L 168.712844 190.237497 
L 170.193623 192.24 
L 171.674403 191.238748 
L 179.0783 191.238748 
L 180.55908 189.236245 
L 182.039859 190.237497 
L 186.482197 190.237497 
L 187.962977 189.236245 
L 189.443756 189.236245 
L 190.924536 191.238748 
L 195.366874 191.238748 
L 196.847653 190.237497 
L 198.328433 188.234994 
L 199.809212 187.233742 
L 205.73233 187.233742 
L 207.213109 189.236245 
L 208.693889 192.24 
L 210.174668 193.241252 
L 216.097786 193.241252 
L 219.059345 191.238748 
L 220.540124 189.236245 
L 222.020904 186.232491 
L 223.501683 185.231239 
L 226.463242 185.231239 
L 227.944022 184.229987 
L 229.424801 184.229987 
L 230.90558 185.231239 
L 232.38636 188.234994 
L 236.828698 188.234994 
L 241.271036 191.238748 
L 242.751816 191.238748 
L 244.232595 192.24 
L 245.713375 192.24 
L 248.674934 190.237497 
L 254.598051 190.237497 
L 256.078831 189.236245 
L 259.04039 191.238748 
L 264.963507 191.238748 
L 266.444287 192.24 
L 272.367405 192.24 
L 275.328964 190.237497 
L 282.732861 190.237497 
L 285.69442 192.24 
L 288.655978 192.24 
L 290.136758 191.238748 
L 291.617537 188.234994 
L 294.579096 188.234994 
L 296.059876 189.236245 
L 297.540655 188.234994 
L 299.021435 188.234994 
L 300.502214 189.236245 
L 301.982993 192.24 
L 304.944552 192.24 
L 306.425332 191.238748 
L 307.906111 192.24 
L 309.386891 192.24 
L 310.86767 190.237497 
L 312.348449 190.237497 
L 313.829229 189.236245 
L 318.271567 189.236245 
L 319.752347 188.234994 
L 321.233126 190.237497 
L 322.713906 190.237497 
L 324.194685 191.238748 
L 328.637023 191.238748 
L 330.117803 192.24 
L 331.598582 192.24 
L 333.079362 191.238748 
L 341.964038 191.238748 
L 343.444818 192.24 
L 344.925597 192.24 
L 346.406377 191.238748 
L 347.887156 191.238748 
L 349.367935 190.237497 
L 350.848715 190.237497 
L 352.329494 189.236245 
L 353.810274 189.236245 
L 355.291053 188.234994 
L 356.771833 189.236245 
L 358.252612 188.234994 
L 359.733391 188.234994 
L 361.214171 186.232491 
L 364.17573 186.232491 
L 365.656509 187.233742 
L 367.137289 186.232491 
L 370.098848 188.234994 
L 374.541186 188.234994 
L 376.021965 187.233742 
L 377.502745 187.233742 
L 378.983524 186.232491 
L 380.464304 186.232491 
L 381.945083 188.234994 
L 383.425862 189.236245 
L 389.34898 189.236245 
L 390.82976 188.234994 
L 392.310539 189.236245 
L 393.791319 189.236245 
L 395.272098 187.233742 
L 398.233657 185.231239 
L 401.195216 185.231239 
L 404.156775 181.226233 
L 405.637554 181.226233 
L 407.118333 180.224981 
L 408.599113 180.224981 
L 410.079892 176.219975 
L 413.041451 174.217472 
L 414.522231 172.214969 
L 416.00301 174.217472 
L 417.48379 173.21622 
L 420.445348 165.206208 
L 421.926128 152.189937 
L 424.887687 150.187434 
L 426.368466 145.181176 
L 427.849246 146.182428 
L 429.330025 146.182428 
L 430.810804 147.18368 
L 432.291584 159.198698 
L 433.772363 155.193692 
L 435.253143 156.194944 
L 435.253143 156.194944 
" style="fill:none;stroke:#871f78;stroke-linecap:round;stroke-width:1.5;"/>
   </g>
   <g id="patch_243">
    <path d="M 63 192.24 
L 453.6 192.24 
" style="fill:none;stroke:#cccccc;stroke-linecap:square;stroke-linejoin:miter;"/>
   </g>
   <g id="text_15">
    <!-- 7-day -->
    <defs>
     <path d="M 14.5 0 
Q 15.671875 7.234375 19.484375 17.390625 
Q 24.03125 29.640625 31.390625 41.71875 
Q 38.765625 53.8125 47.796875 62.5 
L 12.109375 62.5 
L 13.8125 70.609375 
L 59.515625 70.609375 
L 57.859375 62.5 
Q 46.234375 52.296875 37.546875 36.1875 
Q 27.4375 17.578125 23.734375 0 
z
" id="Arial-ItalicMT-55"/>
     <path d="M 4.640625 21.484375 
L 6.5 30.328125 
L 33.453125 30.328125 
L 31.640625 21.484375 
z
" id="Arial-ItalicMT-45"/>
     <path d="M 38.28125 7.515625 
Q 30.71875 -1.171875 22.46875 -1.171875 
Q 15.09375 -1.171875 10.1875 4.265625 
Q 5.28125 9.71875 5.28125 20.0625 
Q 5.28125 29.546875 9.15625 37.375 
Q 13.03125 45.21875 18.859375 49.125 
Q 24.703125 53.03125 30.5625 53.03125 
Q 40.234375 53.03125 45.171875 43.703125 
L 51.03125 71.578125 
L 59.8125 71.578125 
L 44.875 0 
L 36.71875 0 
z
M 14.0625 21.734375 
Q 14.0625 16.3125 15.140625 13.1875 
Q 16.21875 10.0625 18.796875 7.984375 
Q 21.390625 5.90625 25 5.90625 
Q 31 5.90625 35.890625 12.15625 
Q 42.4375 20.453125 42.4375 32.671875 
Q 42.4375 38.8125 39.203125 42.28125 
Q 35.984375 45.75 31.109375 45.75 
Q 27.9375 45.75 25.3125 44.328125 
Q 22.703125 42.921875 20.140625 39.53125 
Q 17.578125 36.140625 15.8125 30.90625 
Q 14.0625 25.6875 14.0625 21.734375 
z
" id="Arial-ItalicMT-100"/>
     <path d="M 38.28125 6.453125 
Q 33.6875 2.484375 29.4375 0.65625 
Q 25.203125 -1.171875 20.359375 -1.171875 
Q 13.1875 -1.171875 8.78125 3.046875 
Q 4.390625 7.28125 4.390625 13.875 
Q 4.390625 18.21875 6.359375 21.5625 
Q 8.34375 24.90625 11.609375 26.921875 
Q 14.890625 28.953125 19.625 29.828125 
Q 22.609375 30.421875 30.9375 30.765625 
Q 39.265625 31.109375 42.875 32.515625 
Q 43.890625 36.140625 43.890625 38.53125 
Q 43.890625 41.609375 41.65625 43.359375 
Q 38.578125 45.796875 32.671875 45.796875 
Q 27.09375 45.796875 23.546875 43.328125 
Q 20.015625 40.875 18.40625 36.328125 
L 9.46875 37.109375 
Q 12.203125 44.828125 18.140625 48.921875 
Q 24.078125 53.03125 33.109375 53.03125 
Q 42.71875 53.03125 48.34375 48.4375 
Q 52.640625 45.015625 52.640625 39.546875 
Q 52.640625 35.40625 51.421875 29.9375 
L 48.53125 17.046875 
Q 47.171875 10.890625 47.171875 7.03125 
Q 47.171875 4.59375 48.25 0 
L 39.3125 0 
Q 38.578125 2.546875 38.28125 6.453125 
z
M 41.546875 26.265625 
Q 39.703125 25.53125 37.578125 25.140625 
Q 35.453125 24.75 30.46875 24.3125 
Q 22.75 23.640625 19.578125 22.578125 
Q 16.40625 21.53125 14.796875 19.234375 
Q 13.1875 16.9375 13.1875 14.15625 
Q 13.1875 10.453125 15.75 8.0625 
Q 18.3125 5.671875 23.046875 5.671875 
Q 27.4375 5.671875 31.484375 7.984375 
Q 35.546875 10.296875 37.890625 14.453125 
Q 40.234375 18.609375 41.546875 26.265625 
z
" id="Arial-ItalicMT-97"/>
     <path d="M 0 -20.015625 
L 0.53125 -11.71875 
Q 3.265625 -12.5 5.859375 -12.5 
Q 8.546875 -12.5 10.203125 -11.28125 
Q 12.359375 -9.671875 14.890625 -5.21875 
L 17.71875 -0.140625 
L 9.078125 51.859375 
L 17.78125 51.859375 
L 21.6875 25.640625 
Q 22.859375 17.875 23.6875 10.109375 
L 46.875 51.859375 
L 56.109375 51.859375 
L 23.046875 -6.890625 
Q 18.265625 -15.484375 14.546875 -18.265625 
Q 10.84375 -21.046875 6 -21.046875 
Q 2.9375 -21.046875 0 -20.015625 
z
" id="Arial-ItalicMT-121"/>
    </defs>
    <g style="fill:#871f78;" transform="translate(439.695481 145.500881)scale(0.1 -0.1)">
     <use xlink:href="#Arial-ItalicMT-55"/>
     <use x="55.615234" xlink:href="#Arial-ItalicMT-45"/>
     <use x="88.916016" xlink:href="#Arial-ItalicMT-100"/>
     <use x="144.53125" xlink:href="#Arial-ItalicMT-97"/>
     <use x="200.146484" xlink:href="#Arial-ItalicMT-121"/>
    </g>
    <!-- avg. -->
    <defs>
     <path d="M 16.40625 0 
L 7.90625 51.859375 
L 16.5 51.859375 
L 20.953125 23.296875 
Q 21.6875 18.609375 22.75 8.015625 
Q 25.296875 13.53125 29.25 20.65625 
L 46.578125 51.859375 
L 55.90625 51.859375 
L 26.21875 0 
z
" id="Arial-ItalicMT-118"/>
     <path d="M 2.828125 -4.6875 
L 11.765625 -5.515625 
Q 11.671875 -8.546875 12.5 -10.0625 
Q 13.328125 -11.578125 15.140625 -12.40625 
Q 17.53125 -13.484375 21.34375 -13.484375 
Q 29.34375 -13.484375 32.859375 -9.328125 
Q 35.15625 -6.546875 37.109375 2.78125 
L 37.984375 6.984375 
Q 31.109375 0 23.34375 0 
Q 15.484375 0 10.1875 5.78125 
Q 4.890625 11.578125 4.890625 22.171875 
Q 4.890625 30.90625 9.0625 38.234375 
Q 13.234375 45.5625 18.984375 49.296875 
Q 24.75 53.03125 30.859375 53.03125 
Q 41.0625 53.03125 46.578125 43.359375 
L 48.34375 51.859375 
L 56.453125 51.859375 
L 46 1.8125 
Q 44.28125 -6.453125 41.5 -11.0625 
Q 38.71875 -15.671875 33.765625 -18.203125 
Q 28.8125 -20.75 22.3125 -20.75 
Q 16.0625 -20.75 11.546875 -19.140625 
Q 7.03125 -17.53125 4.8125 -14.421875 
Q 2.59375 -11.328125 2.59375 -7.328125 
Q 2.59375 -6.109375 2.828125 -4.6875 
z
M 13.875 22.953125 
Q 13.875 17.625 14.890625 14.9375 
Q 16.359375 11.1875 19.0625 9.203125 
Q 21.78125 7.234375 25.09375 7.234375 
Q 29.4375 7.234375 33.734375 10.28125 
Q 38.03125 13.328125 40.6875 19.71875 
Q 43.359375 26.125 43.359375 31.9375 
Q 43.359375 38.328125 39.8125 42.109375 
Q 36.28125 45.90625 31.0625 45.90625 
Q 27.828125 45.90625 24.796875 44.171875 
Q 21.78125 42.4375 19.15625 38.890625 
Q 16.546875 35.359375 15.203125 30.421875 
Q 13.875 25.484375 13.875 22.953125 
z
" id="Arial-ItalicMT-103"/>
     <path d="M 5.765625 0 
L 7.859375 10.015625 
L 17.875 10.015625 
L 15.71875 0 
z
" id="Arial-ItalicMT-46"/>
    </defs>
    <g style="fill:#871f78;" transform="translate(439.695481 156.194944)scale(0.1 -0.1)">
     <use xlink:href="#Arial-ItalicMT-97"/>
     <use x="55.615234" xlink:href="#Arial-ItalicMT-118"/>
     <use x="105.615234" xlink:href="#Arial-ItalicMT-103"/>
     <use x="161.230469" xlink:href="#Arial-ItalicMT-46"/>
    </g>
   </g>
  </g>
 </g>
 <defs>
  <clipPath id="p37d0da769c">
   <rect height="166.32" width="390.6" x="63" y="25.92"/>
  </clipPath>
 </defs>
</svg>
