<svg version="1.1" viewBox="40 10 440 195" width="100%" xmlns="http://www.w3.org/2000/svg" xmlns:xlink="http://www.w3.org/1999/xlink">
 <defs>
  <style type="text/css">
*{stroke-linecap:butt;stroke-linejoin:round;}
  </style>
 </defs>
 <g id="figure_1">
  <g id="patch_1">
   <path d="M 0 216 
L 504 216 
L 504 0 
L 0 0 
z
" style="fill:#ffffff;"/>
  </g>
  <g id="axes_1">
   <g id="patch_2">
    <path d="M 63 192.24 
L 453.6 192.24 
L 453.6 25.92 
L 63 25.92 
z
" style="fill:#ffffff;"/>
   </g>
   <g id="matplotlib.axis_1">
    <g id="xtick_1">
     <g id="line2d_1"/>
     <g id="text_1">
      <!-- Apr -->
      <defs>
       <path d="M -0.140625 0 
L 27.34375 71.578125 
L 37.546875 71.578125 
L 66.84375 0 
L 56.0625 0 
L 47.703125 21.6875 
L 17.78125 21.6875 
L 9.90625 0 
z
M 20.515625 29.390625 
L 44.78125 29.390625 
L 37.3125 49.21875 
Q 33.890625 58.25 32.234375 64.0625 
Q 30.859375 57.171875 28.375 50.390625 
z
" id="ArialMT-65"/>
       <path d="M 6.59375 -19.875 
L 6.59375 51.859375 
L 14.59375 51.859375 
L 14.59375 45.125 
Q 17.4375 49.078125 21 51.046875 
Q 24.5625 53.03125 29.640625 53.03125 
Q 36.28125 53.03125 41.359375 49.609375 
Q 46.4375 46.1875 49.015625 39.953125 
Q 51.609375 33.734375 51.609375 26.3125 
Q 51.609375 18.359375 48.75 11.984375 
Q 45.90625 5.609375 40.453125 2.21875 
Q 35.015625 -1.171875 29 -1.171875 
Q 24.609375 -1.171875 21.109375 0.6875 
Q 17.625 2.546875 15.375 5.375 
L 15.375 -19.875 
z
M 14.546875 25.640625 
Q 14.546875 15.625 18.59375 10.84375 
Q 22.65625 6.0625 28.421875 6.0625 
Q 34.28125 6.0625 38.453125 11.015625 
Q 42.625 15.96875 42.625 26.375 
Q 42.625 36.28125 38.546875 41.203125 
Q 34.46875 46.140625 28.8125 46.140625 
Q 23.1875 46.140625 18.859375 40.890625 
Q 14.546875 35.640625 14.546875 25.640625 
z
" id="ArialMT-112"/>
       <path d="M 6.5 0 
L 6.5 51.859375 
L 14.40625 51.859375 
L 14.40625 44 
Q 17.4375 49.515625 20 51.265625 
Q 22.5625 53.03125 25.640625 53.03125 
Q 30.078125 53.03125 34.671875 50.203125 
L 31.640625 42.046875 
Q 28.421875 43.953125 25.203125 43.953125 
Q 22.3125 43.953125 20.015625 42.21875 
Q 17.71875 40.484375 16.75 37.40625 
Q 15.28125 32.71875 15.28125 27.15625 
L 15.28125 0 
z
" id="ArialMT-114"/>
      </defs>
      <g style="fill:#1f77b4;" transform="translate(97.907821 202.897813)scale(0.1 -0.1)">
       <use xlink:href="#ArialMT-65"/>
       <use x="66.699219" xlink:href="#ArialMT-112"/>
       <use x="122.314453" xlink:href="#ArialMT-114"/>
      </g>
     </g>
    </g>
    <g id="xtick_2">
     <g id="line2d_2"/>
     <g id="text_2">
      <!-- May -->
      <defs>
       <path d="M 7.421875 0 
L 7.421875 71.578125 
L 21.6875 71.578125 
L 38.625 20.90625 
Q 40.96875 13.8125 42.046875 10.296875 
Q 43.265625 14.203125 45.84375 21.78125 
L 62.984375 71.578125 
L 75.734375 71.578125 
L 75.734375 0 
L 66.609375 0 
L 66.609375 59.90625 
L 45.796875 0 
L 37.25 0 
L 16.546875 60.9375 
L 16.546875 0 
z
" id="ArialMT-77"/>
       <path d="M 40.4375 6.390625 
Q 35.546875 2.25 31.03125 0.53125 
Q 26.515625 -1.171875 21.34375 -1.171875 
Q 12.796875 -1.171875 8.203125 3 
Q 3.609375 7.171875 3.609375 13.671875 
Q 3.609375 17.484375 5.34375 20.625 
Q 7.078125 23.78125 9.890625 25.6875 
Q 12.703125 27.59375 16.21875 28.5625 
Q 18.796875 29.25 24.03125 29.890625 
Q 34.671875 31.15625 39.703125 32.90625 
Q 39.75 34.71875 39.75 35.203125 
Q 39.75 40.578125 37.25 42.78125 
Q 33.890625 45.75 27.25 45.75 
Q 21.046875 45.75 18.09375 43.578125 
Q 15.140625 41.40625 13.71875 35.890625 
L 5.125 37.0625 
Q 6.296875 42.578125 8.984375 45.96875 
Q 11.671875 49.359375 16.75 51.1875 
Q 21.828125 53.03125 28.515625 53.03125 
Q 35.15625 53.03125 39.296875 51.46875 
Q 43.453125 49.90625 45.40625 47.53125 
Q 47.359375 45.171875 48.140625 41.546875 
Q 48.578125 39.3125 48.578125 33.453125 
L 48.578125 21.734375 
Q 48.578125 9.46875 49.140625 6.21875 
Q 49.703125 2.984375 51.375 0 
L 42.1875 0 
Q 40.828125 2.734375 40.4375 6.390625 
z
M 39.703125 26.03125 
Q 34.90625 24.078125 25.34375 22.703125 
Q 19.921875 21.921875 17.671875 20.9375 
Q 15.4375 19.96875 14.203125 18.09375 
Q 12.984375 16.21875 12.984375 13.921875 
Q 12.984375 10.40625 15.640625 8.0625 
Q 18.3125 5.71875 23.4375 5.71875 
Q 28.515625 5.71875 32.46875 7.9375 
Q 36.421875 10.15625 38.28125 14.015625 
Q 39.703125 17 39.703125 22.796875 
z
" id="ArialMT-97"/>
       <path d="M 6.203125 -19.96875 
L 5.21875 -11.71875 
Q 8.109375 -12.5 10.25 -12.5 
Q 13.1875 -12.5 14.9375 -11.515625 
Q 16.703125 -10.546875 17.828125 -8.796875 
Q 18.65625 -7.46875 20.515625 -2.25 
Q 20.75 -1.515625 21.296875 -0.09375 
L 1.609375 51.859375 
L 11.078125 51.859375 
L 21.875 21.828125 
Q 23.96875 16.109375 25.640625 9.8125 
Q 27.15625 15.875 29.25 21.625 
L 40.328125 51.859375 
L 49.125 51.859375 
L 29.390625 -0.875 
Q 26.21875 -9.421875 24.46875 -12.640625 
Q 22.125 -17 19.09375 -19.015625 
Q 16.0625 -21.046875 11.859375 -21.046875 
Q 9.328125 -21.046875 6.203125 -19.96875 
z
" id="ArialMT-121"/>
      </defs>
      <g style="fill:#1f77b4;" transform="translate(139.232191 202.897813)scale(0.1 -0.1)">
       <use xlink:href="#ArialMT-77"/>
       <use x="83.300781" xlink:href="#ArialMT-97"/>
       <use x="138.916016" xlink:href="#ArialMT-121"/>
      </g>
     </g>
    </g>
    <g id="xtick_3">
     <g id="line2d_3"/>
     <g id="text_3">
      <!-- Jun -->
      <defs>
       <path d="M 2.875 20.3125 
L 11.421875 21.484375 
Q 11.765625 13.28125 14.5 10.25 
Q 17.234375 7.234375 22.078125 7.234375 
Q 25.640625 7.234375 28.21875 8.859375 
Q 30.8125 10.5 31.78125 13.296875 
Q 32.765625 16.109375 32.765625 22.265625 
L 32.765625 71.578125 
L 42.234375 71.578125 
L 42.234375 22.796875 
Q 42.234375 13.8125 40.0625 8.875 
Q 37.890625 3.953125 33.171875 1.359375 
Q 28.46875 -1.21875 22.125 -1.21875 
Q 12.703125 -1.21875 7.6875 4.203125 
Q 2.6875 9.625 2.875 20.3125 
z
" id="ArialMT-74"/>
       <path d="M 40.578125 0 
L 40.578125 7.625 
Q 34.515625 -1.171875 24.125 -1.171875 
Q 19.53125 -1.171875 15.546875 0.578125 
Q 11.578125 2.34375 9.640625 5 
Q 7.71875 7.671875 6.9375 11.53125 
Q 6.390625 14.109375 6.390625 19.734375 
L 6.390625 51.859375 
L 15.1875 51.859375 
L 15.1875 23.09375 
Q 15.1875 16.21875 15.71875 13.8125 
Q 16.546875 10.359375 19.234375 8.375 
Q 21.921875 6.390625 25.875 6.390625 
Q 29.828125 6.390625 33.296875 8.421875 
Q 36.765625 10.453125 38.203125 13.9375 
Q 39.65625 17.4375 39.65625 24.078125 
L 39.65625 51.859375 
L 48.4375 51.859375 
L 48.4375 0 
z
" id="ArialMT-117"/>
       <path d="M 6.59375 0 
L 6.59375 51.859375 
L 14.5 51.859375 
L 14.5 44.484375 
Q 20.21875 53.03125 31 53.03125 
Q 35.6875 53.03125 39.625 51.34375 
Q 43.5625 49.65625 45.515625 46.921875 
Q 47.46875 44.1875 48.25 40.4375 
Q 48.734375 37.984375 48.734375 31.890625 
L 48.734375 0 
L 39.9375 0 
L 39.9375 31.546875 
Q 39.9375 36.921875 38.90625 39.578125 
Q 37.890625 42.234375 35.28125 43.8125 
Q 32.671875 45.40625 29.15625 45.40625 
Q 23.53125 45.40625 19.453125 41.84375 
Q 15.375 38.28125 15.375 28.328125 
L 15.375 0 
z
" id="ArialMT-110"/>
      </defs>
      <g style="fill:#1f77b4;" transform="translate(185.038754 202.897813)scale(0.1 -0.1)">
       <use xlink:href="#ArialMT-74"/>
       <use x="50" xlink:href="#ArialMT-117"/>
       <use x="105.615234" xlink:href="#ArialMT-110"/>
      </g>
     </g>
    </g>
    <g id="xtick_4">
     <g id="line2d_4"/>
     <g id="text_4">
      <!-- Jul -->
      <defs>
       <path d="M 6.390625 0 
L 6.390625 71.578125 
L 15.1875 71.578125 
L 15.1875 0 
z
" id="ArialMT-108"/>
      </defs>
      <g style="fill:#1f77b4;" transform="translate(229.6975 202.897813)scale(0.1 -0.1)">
       <use xlink:href="#ArialMT-74"/>
       <use x="50" xlink:href="#ArialMT-117"/>
       <use x="105.615234" xlink:href="#ArialMT-108"/>
      </g>
     </g>
    </g>
    <g id="xtick_5">
     <g id="line2d_5"/>
     <g id="text_5">
      <!-- Aug -->
      <defs>
       <path d="M 4.984375 -4.296875 
L 13.53125 -5.5625 
Q 14.0625 -9.515625 16.5 -11.328125 
Q 19.78125 -13.765625 25.4375 -13.765625 
Q 31.546875 -13.765625 34.859375 -11.328125 
Q 38.1875 -8.890625 39.359375 -4.5 
Q 40.046875 -1.8125 39.984375 6.78125 
Q 34.234375 0 25.640625 0 
Q 14.9375 0 9.078125 7.71875 
Q 3.21875 15.4375 3.21875 26.21875 
Q 3.21875 33.640625 5.90625 39.90625 
Q 8.59375 46.1875 13.6875 49.609375 
Q 18.796875 53.03125 25.6875 53.03125 
Q 34.859375 53.03125 40.828125 45.609375 
L 40.828125 51.859375 
L 48.921875 51.859375 
L 48.921875 7.03125 
Q 48.921875 -5.078125 46.453125 -10.125 
Q 44 -15.1875 38.640625 -18.109375 
Q 33.296875 -21.046875 25.484375 -21.046875 
Q 16.21875 -21.046875 10.5 -16.875 
Q 4.78125 -12.703125 4.984375 -4.296875 
z
M 12.25 26.859375 
Q 12.25 16.65625 16.296875 11.96875 
Q 20.359375 7.28125 26.46875 7.28125 
Q 32.515625 7.28125 36.609375 11.9375 
Q 40.71875 16.609375 40.71875 26.5625 
Q 40.71875 36.078125 36.5 40.90625 
Q 32.28125 45.75 26.3125 45.75 
Q 20.453125 45.75 16.34375 40.984375 
Q 12.25 36.234375 12.25 26.859375 
z
" id="ArialMT-103"/>
      </defs>
      <g style="fill:#1f77b4;" transform="translate(271.615 202.897813)scale(0.1 -0.1)">
       <use xlink:href="#ArialMT-65"/>
       <use x="66.699219" xlink:href="#ArialMT-117"/>
       <use x="122.314453" xlink:href="#ArialMT-103"/>
      </g>
     </g>
    </g>
    <g id="xtick_6">
     <g id="line2d_6"/>
     <g id="text_6">
      <!-- Sep -->
      <defs>
       <path d="M 4.5 23 
L 13.421875 23.78125 
Q 14.0625 18.40625 16.375 14.96875 
Q 18.703125 11.53125 23.578125 9.40625 
Q 28.46875 7.28125 34.578125 7.28125 
Q 39.984375 7.28125 44.140625 8.890625 
Q 48.296875 10.5 50.3125 13.296875 
Q 52.34375 16.109375 52.34375 19.4375 
Q 52.34375 22.796875 50.390625 25.3125 
Q 48.4375 27.828125 43.953125 29.546875 
Q 41.0625 30.671875 31.203125 33.03125 
Q 21.34375 35.40625 17.390625 37.5 
Q 12.25 40.1875 9.734375 44.15625 
Q 7.234375 48.140625 7.234375 53.078125 
Q 7.234375 58.5 10.296875 63.203125 
Q 13.375 67.921875 19.28125 70.359375 
Q 25.203125 72.796875 32.421875 72.796875 
Q 40.375 72.796875 46.453125 70.234375 
Q 52.546875 67.671875 55.8125 62.6875 
Q 59.078125 57.71875 59.328125 51.421875 
L 50.25 50.734375 
Q 49.515625 57.515625 45.28125 60.984375 
Q 41.0625 64.453125 32.8125 64.453125 
Q 24.21875 64.453125 20.28125 61.296875 
Q 16.359375 58.15625 16.359375 53.71875 
Q 16.359375 49.859375 19.140625 47.359375 
Q 21.875 44.875 33.421875 42.265625 
Q 44.96875 39.65625 49.265625 37.703125 
Q 55.515625 34.8125 58.484375 30.390625 
Q 61.46875 25.984375 61.46875 20.21875 
Q 61.46875 14.5 58.203125 9.4375 
Q 54.9375 4.390625 48.796875 1.578125 
Q 42.671875 -1.21875 35.015625 -1.21875 
Q 25.296875 -1.21875 18.71875 1.609375 
Q 12.15625 4.4375 8.421875 10.125 
Q 4.6875 15.828125 4.5 23 
z
" id="ArialMT-83"/>
       <path d="M 42.09375 16.703125 
L 51.171875 15.578125 
Q 49.03125 7.625 43.21875 3.21875 
Q 37.40625 -1.171875 28.375 -1.171875 
Q 17 -1.171875 10.328125 5.828125 
Q 3.65625 12.84375 3.65625 25.484375 
Q 3.65625 38.578125 10.390625 45.796875 
Q 17.140625 53.03125 27.875 53.03125 
Q 38.28125 53.03125 44.875 45.953125 
Q 51.46875 38.875 51.46875 26.03125 
Q 51.46875 25.25 51.421875 23.6875 
L 12.75 23.6875 
Q 13.234375 15.140625 17.578125 10.59375 
Q 21.921875 6.0625 28.421875 6.0625 
Q 33.25 6.0625 36.671875 8.59375 
Q 40.09375 11.140625 42.09375 16.703125 
z
M 13.234375 30.90625 
L 42.1875 30.90625 
Q 41.609375 37.453125 38.875 40.71875 
Q 34.671875 45.796875 27.984375 45.796875 
Q 21.921875 45.796875 17.796875 41.75 
Q 13.671875 37.703125 13.234375 30.90625 
z
" id="ArialMT-101"/>
      </defs>
      <g style="fill:#1f77b4;" transform="translate(316.037188 203.019688)scale(0.1 -0.1)">
       <use xlink:href="#ArialMT-83"/>
       <use x="66.699219" xlink:href="#ArialMT-101"/>
       <use x="122.314453" xlink:href="#ArialMT-112"/>
      </g>
     </g>
    </g>
    <g id="xtick_7">
     <g id="line2d_7"/>
     <g id="text_7">
      <!-- Oct -->
      <defs>
       <path d="M 4.828125 34.859375 
Q 4.828125 52.6875 14.390625 62.765625 
Q 23.96875 72.859375 39.109375 72.859375 
Q 49.03125 72.859375 56.984375 68.109375 
Q 64.9375 63.375 69.109375 54.90625 
Q 73.296875 46.4375 73.296875 35.6875 
Q 73.296875 24.8125 68.890625 16.21875 
Q 64.5 7.625 56.4375 3.203125 
Q 48.390625 -1.21875 39.0625 -1.21875 
Q 28.953125 -1.21875 20.984375 3.65625 
Q 13.03125 8.546875 8.921875 16.984375 
Q 4.828125 25.4375 4.828125 34.859375 
z
M 14.59375 34.71875 
Q 14.59375 21.78125 21.546875 14.328125 
Q 28.515625 6.890625 39.015625 6.890625 
Q 49.703125 6.890625 56.609375 14.40625 
Q 63.53125 21.921875 63.53125 35.75 
Q 63.53125 44.484375 60.578125 51 
Q 57.625 57.515625 51.921875 61.109375 
Q 46.234375 64.703125 39.15625 64.703125 
Q 29.109375 64.703125 21.84375 57.78125 
Q 14.59375 50.875 14.59375 34.71875 
z
" id="ArialMT-79"/>
       <path d="M 40.4375 19 
L 49.078125 17.875 
Q 47.65625 8.9375 41.8125 3.875 
Q 35.984375 -1.171875 27.484375 -1.171875 
Q 16.84375 -1.171875 10.375 5.78125 
Q 3.90625 12.75 3.90625 25.734375 
Q 3.90625 34.125 6.6875 40.421875 
Q 9.46875 46.734375 15.15625 49.875 
Q 20.84375 53.03125 27.546875 53.03125 
Q 35.984375 53.03125 41.359375 48.75 
Q 46.734375 44.484375 48.25 36.625 
L 39.703125 35.296875 
Q 38.484375 40.53125 35.375 43.15625 
Q 32.28125 45.796875 27.875 45.796875 
Q 21.234375 45.796875 17.078125 41.03125 
Q 12.9375 36.28125 12.9375 25.984375 
Q 12.9375 15.53125 16.9375 10.796875 
Q 20.953125 6.0625 27.390625 6.0625 
Q 32.5625 6.0625 36.03125 9.234375 
Q 39.5 12.40625 40.4375 19 
z
" id="ArialMT-99"/>
       <path d="M 25.78125 7.859375 
L 27.046875 0.09375 
Q 23.34375 -0.6875 20.40625 -0.6875 
Q 15.625 -0.6875 12.984375 0.828125 
Q 10.359375 2.34375 9.28125 4.8125 
Q 8.203125 7.28125 8.203125 15.1875 
L 8.203125 45.015625 
L 1.765625 45.015625 
L 1.765625 51.859375 
L 8.203125 51.859375 
L 8.203125 64.703125 
L 16.9375 69.96875 
L 16.9375 51.859375 
L 25.78125 51.859375 
L 25.78125 45.015625 
L 16.9375 45.015625 
L 16.9375 14.703125 
Q 16.9375 10.9375 17.40625 9.859375 
Q 17.875 8.796875 18.921875 8.15625 
Q 19.96875 7.515625 21.921875 7.515625 
Q 23.390625 7.515625 25.78125 7.859375 
z
" id="ArialMT-116"/>
      </defs>
      <g style="fill:#1f77b4;" transform="translate(360.144371 202.897813)scale(0.1 -0.1)">
       <use xlink:href="#ArialMT-79"/>
       <use x="77.783203" xlink:href="#ArialMT-99"/>
       <use x="127.783203" xlink:href="#ArialMT-116"/>
      </g>
     </g>
    </g>
    <g id="xtick_8">
     <g id="line2d_8"/>
     <g id="text_8">
      <!-- Nov -->
      <defs>
       <path d="M 7.625 0 
L 7.625 71.578125 
L 17.328125 71.578125 
L 54.9375 15.375 
L 54.9375 71.578125 
L 64.015625 71.578125 
L 64.015625 0 
L 54.296875 0 
L 16.703125 56.25 
L 16.703125 0 
z
" id="ArialMT-78"/>
       <path d="M 3.328125 25.921875 
Q 3.328125 40.328125 11.328125 47.265625 
Q 18.015625 53.03125 27.640625 53.03125 
Q 38.328125 53.03125 45.109375 46.015625 
Q 51.90625 39.015625 51.90625 26.65625 
Q 51.90625 16.65625 48.90625 10.90625 
Q 45.90625 5.171875 40.15625 2 
Q 34.421875 -1.171875 27.640625 -1.171875 
Q 16.75 -1.171875 10.03125 5.8125 
Q 3.328125 12.796875 3.328125 25.921875 
z
M 12.359375 25.921875 
Q 12.359375 15.96875 16.703125 11.015625 
Q 21.046875 6.0625 27.640625 6.0625 
Q 34.1875 6.0625 38.53125 11.03125 
Q 42.875 16.015625 42.875 26.21875 
Q 42.875 35.84375 38.5 40.796875 
Q 34.125 45.75 27.640625 45.75 
Q 21.046875 45.75 16.703125 40.8125 
Q 12.359375 35.890625 12.359375 25.921875 
z
" id="ArialMT-111"/>
       <path d="M 21 0 
L 1.265625 51.859375 
L 10.546875 51.859375 
L 21.6875 20.796875 
Q 23.484375 15.765625 25 10.359375 
Q 26.171875 14.453125 28.265625 20.21875 
L 39.796875 51.859375 
L 48.828125 51.859375 
L 29.203125 0 
z
" id="ArialMT-118"/>
      </defs>
      <g style="fill:#1f77b4;" transform="translate(403.453278 202.897813)scale(0.1 -0.1)">
       <use xlink:href="#ArialMT-78"/>
       <use x="72.216797" xlink:href="#ArialMT-111"/>
       <use x="127.832031" xlink:href="#ArialMT-118"/>
      </g>
     </g>
    </g>
   </g>
   <g id="matplotlib.axis_2">
    <g id="ytick_1">
     <g id="line2d_9">
      <path clip-path="url(#p9d47baa28a)" d="M 63 192.24 
L 453.6 192.24 
" style="fill:none;stroke:#cccccc;stroke-linecap:round;stroke-width:0.8;"/>
     </g>
     <g id="line2d_10"/>
     <g id="text_9">
      <!-- 0 -->
      <defs>
       <path d="M 4.15625 35.296875 
Q 4.15625 48 6.765625 55.734375 
Q 9.375 63.484375 14.515625 67.671875 
Q 19.671875 71.875 27.484375 71.875 
Q 33.25 71.875 37.59375 69.546875 
Q 41.9375 67.234375 44.765625 62.859375 
Q 47.609375 58.5 49.21875 52.21875 
Q 50.828125 45.953125 50.828125 35.296875 
Q 50.828125 22.703125 48.234375 14.96875 
Q 45.65625 7.234375 40.5 3 
Q 35.359375 -1.21875 27.484375 -1.21875 
Q 17.140625 -1.21875 11.234375 6.203125 
Q 4.15625 15.140625 4.15625 35.296875 
z
M 13.1875 35.296875 
Q 13.1875 17.671875 17.3125 11.828125 
Q 21.4375 6 27.484375 6 
Q 33.546875 6 37.671875 11.859375 
Q 41.796875 17.71875 41.796875 35.296875 
Q 41.796875 52.984375 37.671875 58.78125 
Q 33.546875 64.59375 27.390625 64.59375 
Q 21.34375 64.59375 17.71875 59.46875 
Q 13.1875 52.9375 13.1875 35.296875 
z
" id="ArialMT-48"/>
      </defs>
      <g style="fill:#1f77b4;" transform="translate(53.939062 195.818906)scale(0.1 -0.1)">
       <use xlink:href="#ArialMT-48"/>
      </g>
     </g>
    </g>
    <g id="ytick_2">
     <g id="line2d_11">
      <path clip-path="url(#p9d47baa28a)" d="M 63 162 
L 453.6 162 
" style="fill:none;stroke:#cccccc;stroke-linecap:round;stroke-width:0.8;"/>
     </g>
     <g id="line2d_12"/>
     <g id="text_10">
      <!-- 10 -->
      <defs>
       <path d="M 37.25 0 
L 28.46875 0 
L 28.46875 56 
Q 25.296875 52.984375 20.140625 49.953125 
Q 14.984375 46.921875 10.890625 45.40625 
L 10.890625 53.90625 
Q 18.265625 57.375 23.78125 62.296875 
Q 29.296875 67.234375 31.59375 71.875 
L 37.25 71.875 
z
" id="ArialMT-49"/>
      </defs>
      <g style="fill:#1f77b4;" transform="translate(48.378125 165.578906)scale(0.1 -0.1)">
       <use xlink:href="#ArialMT-49"/>
       <use x="55.615234" xlink:href="#ArialMT-48"/>
      </g>
     </g>
    </g>
    <g id="ytick_3">
     <g id="line2d_13">
      <path clip-path="url(#p9d47baa28a)" d="M 63 131.76 
L 453.6 131.76 
" style="fill:none;stroke:#cccccc;stroke-linecap:round;stroke-width:0.8;"/>
     </g>
     <g id="line2d_14"/>
     <g id="text_11">
      <!-- 20 -->
      <defs>
       <path d="M 50.34375 8.453125 
L 50.34375 0 
L 3.03125 0 
Q 2.9375 3.171875 4.046875 6.109375 
Q 5.859375 10.9375 9.828125 15.625 
Q 13.8125 20.3125 21.34375 26.46875 
Q 33.015625 36.03125 37.109375 41.625 
Q 41.21875 47.21875 41.21875 52.203125 
Q 41.21875 57.421875 37.46875 61 
Q 33.734375 64.59375 27.734375 64.59375 
Q 21.390625 64.59375 17.578125 60.78125 
Q 13.765625 56.984375 13.71875 50.25 
L 4.6875 51.171875 
Q 5.609375 61.28125 11.65625 66.578125 
Q 17.71875 71.875 27.9375 71.875 
Q 38.234375 71.875 44.234375 66.15625 
Q 50.25 60.453125 50.25 52 
Q 50.25 47.703125 48.484375 43.546875 
Q 46.734375 39.40625 42.65625 34.8125 
Q 38.578125 30.21875 29.109375 22.21875 
Q 21.1875 15.578125 18.9375 13.203125 
Q 16.703125 10.84375 15.234375 8.453125 
z
" id="ArialMT-50"/>
      </defs>
      <g style="fill:#1f77b4;" transform="translate(48.378125 135.338906)scale(0.1 -0.1)">
       <use xlink:href="#ArialMT-50"/>
       <use x="55.615234" xlink:href="#ArialMT-48"/>
      </g>
     </g>
    </g>
    <g id="ytick_4">
     <g id="line2d_15">
      <path clip-path="url(#p9d47baa28a)" d="M 63 101.52 
L 453.6 101.52 
" style="fill:none;stroke:#cccccc;stroke-linecap:round;stroke-width:0.8;"/>
     </g>
     <g id="line2d_16"/>
     <g id="text_12">
      <!-- 30 -->
      <defs>
       <path d="M 4.203125 18.890625 
L 12.984375 20.0625 
Q 14.5 12.59375 18.140625 9.296875 
Q 21.78125 6 27 6 
Q 33.203125 6 37.46875 10.296875 
Q 41.75 14.59375 41.75 20.953125 
Q 41.75 27 37.796875 30.921875 
Q 33.84375 34.859375 27.734375 34.859375 
Q 25.25 34.859375 21.53125 33.890625 
L 22.515625 41.609375 
Q 23.390625 41.5 23.921875 41.5 
Q 29.546875 41.5 34.03125 44.421875 
Q 38.53125 47.359375 38.53125 53.46875 
Q 38.53125 58.296875 35.25 61.46875 
Q 31.984375 64.65625 26.8125 64.65625 
Q 21.6875 64.65625 18.265625 61.421875 
Q 14.84375 58.203125 13.875 51.765625 
L 5.078125 53.328125 
Q 6.6875 62.15625 12.390625 67.015625 
Q 18.109375 71.875 26.609375 71.875 
Q 32.46875 71.875 37.390625 69.359375 
Q 42.328125 66.84375 44.9375 62.5 
Q 47.5625 58.15625 47.5625 53.265625 
Q 47.5625 48.640625 45.0625 44.828125 
Q 42.578125 41.015625 37.703125 38.765625 
Q 44.046875 37.3125 47.5625 32.6875 
Q 51.078125 28.078125 51.078125 21.140625 
Q 51.078125 11.765625 44.234375 5.25 
Q 37.40625 -1.265625 26.953125 -1.265625 
Q 17.53125 -1.265625 11.296875 4.34375 
Q 5.078125 9.96875 4.203125 18.890625 
z
" id="ArialMT-51"/>
      </defs>
      <g style="fill:#1f77b4;" transform="translate(48.378125 105.098906)scale(0.1 -0.1)">
       <use xlink:href="#ArialMT-51"/>
       <use x="55.615234" xlink:href="#ArialMT-48"/>
      </g>
     </g>
    </g>
    <g id="ytick_5">
     <g id="line2d_17">
      <path clip-path="url(#p9d47baa28a)" d="M 63 71.28 
L 453.6 71.28 
" style="fill:none;stroke:#cccccc;stroke-linecap:round;stroke-width:0.8;"/>
     </g>
     <g id="line2d_18"/>
     <g id="text_13">
      <!-- 40 -->
      <defs>
       <path d="M 32.328125 0 
L 32.328125 17.140625 
L 1.265625 17.140625 
L 1.265625 25.203125 
L 33.9375 71.578125 
L 41.109375 71.578125 
L 41.109375 25.203125 
L 50.78125 25.203125 
L 50.78125 17.140625 
L 41.109375 17.140625 
L 41.109375 0 
z
M 32.328125 25.203125 
L 32.328125 57.46875 
L 9.90625 25.203125 
z
" id="ArialMT-52"/>
      </defs>
      <g style="fill:#1f77b4;" transform="translate(48.378125 74.858906)scale(0.1 -0.1)">
       <use xlink:href="#ArialMT-52"/>
       <use x="55.615234" xlink:href="#ArialMT-48"/>
      </g>
     </g>
    </g>
    <g id="ytick_6">
     <g id="line2d_19">
      <path clip-path="url(#p9d47baa28a)" d="M 63 41.04 
L 453.6 41.04 
" style="fill:none;stroke:#cccccc;stroke-linecap:round;stroke-width:0.8;"/>
     </g>
     <g id="line2d_20"/>
     <g id="text_14">
      <!-- 50 -->
      <defs>
       <path d="M 4.15625 18.75 
L 13.375 19.53125 
Q 14.40625 12.796875 18.140625 9.390625 
Q 21.875 6 27.15625 6 
Q 33.5 6 37.890625 10.78125 
Q 42.28125 15.578125 42.28125 23.484375 
Q 42.28125 31 38.0625 35.34375 
Q 33.84375 39.703125 27 39.703125 
Q 22.75 39.703125 19.328125 37.765625 
Q 15.921875 35.84375 13.96875 32.765625 
L 5.71875 33.84375 
L 12.640625 70.609375 
L 48.25 70.609375 
L 48.25 62.203125 
L 19.671875 62.203125 
L 15.828125 42.96875 
Q 22.265625 47.46875 29.34375 47.46875 
Q 38.71875 47.46875 45.15625 40.96875 
Q 51.609375 34.46875 51.609375 24.265625 
Q 51.609375 14.546875 45.953125 7.46875 
Q 39.0625 -1.21875 27.15625 -1.21875 
Q 17.390625 -1.21875 11.203125 4.25 
Q 5.03125 9.71875 4.15625 18.75 
z
" id="ArialMT-53"/>
      </defs>
      <g style="fill:#1f77b4;" transform="translate(48.378125 44.618906)scale(0.1 -0.1)">
       <use xlink:href="#ArialMT-53"/>
       <use x="55.615234" xlink:href="#ArialMT-48"/>
      </g>
     </g>
    </g>
   </g>
   <g id="patch_3">
    <path clip-path="url(#p9d47baa28a)" d="M 80.754545 192.24 
L 81.900924 192.24 
L 81.900924 186.748009 
L 80.754545 186.748009 
z
" style="fill:#1f77b4;opacity:0.35;"/>
   </g>
   <g id="patch_4">
    <path clip-path="url(#p9d47baa28a)" d="M 82.187519 192.24 
L 83.333898 192.24 
L 83.333898 192.24 
L 82.187519 192.24 
z
" style="fill:#1f77b4;opacity:0.35;"/>
   </g>
   <g id="patch_5">
    <path clip-path="url(#p9d47baa28a)" d="M 83.620493 192.24 
L 84.766872 192.24 
L 84.766872 192.24 
L 83.620493 192.24 
z
" style="fill:#1f77b4;opacity:0.35;"/>
   </g>
   <g id="patch_6">
    <path clip-path="url(#p9d47baa28a)" d="M 85.053467 192.24 
L 86.199846 192.24 
L 86.199846 192.24 
L 85.053467 192.24 
z
" style="fill:#1f77b4;opacity:0.35;"/>
   </g>
   <g id="patch_7">
    <path clip-path="url(#p9d47baa28a)" d="M 86.486441 192.24 
L 87.63282 192.24 
L 87.63282 192.24 
L 86.486441 192.24 
z
" style="fill:#1f77b4;opacity:0.35;"/>
   </g>
   <g id="patch_8">
    <path clip-path="url(#p9d47baa28a)" d="M 87.919414 192.24 
L 89.065794 192.24 
L 89.065794 175.764027 
L 87.919414 175.764027 
z
" style="fill:#1f77b4;opacity:0.35;"/>
   </g>
   <g id="patch_9">
    <path clip-path="url(#p9d47baa28a)" d="M 89.352388 192.24 
L 90.498767 192.24 
L 90.498767 181.256018 
L 89.352388 181.256018 
z
" style="fill:#1f77b4;opacity:0.35;"/>
   </g>
   <g id="patch_10">
    <path clip-path="url(#p9d47baa28a)" d="M 90.785362 192.24 
L 91.931741 192.24 
L 91.931741 192.24 
L 90.785362 192.24 
z
" style="fill:#1f77b4;opacity:0.35;"/>
   </g>
   <g id="patch_11">
    <path clip-path="url(#p9d47baa28a)" d="M 92.218336 192.24 
L 93.364715 192.24 
L 93.364715 192.24 
L 92.218336 192.24 
z
" style="fill:#1f77b4;opacity:0.35;"/>
   </g>
   <g id="patch_12">
    <path clip-path="url(#p9d47baa28a)" d="M 93.65131 192.24 
L 94.797689 192.24 
L 94.797689 153.796064 
L 93.65131 153.796064 
z
" style="fill:#1f77b4;opacity:0.35;"/>
   </g>
   <g id="patch_13">
    <path clip-path="url(#p9d47baa28a)" d="M 95.084284 192.24 
L 96.230663 192.24 
L 96.230663 181.256018 
L 95.084284 181.256018 
z
" style="fill:#1f77b4;opacity:0.35;"/>
   </g>
   <g id="patch_14">
    <path clip-path="url(#p9d47baa28a)" d="M 96.517257 192.24 
L 97.663636 192.24 
L 97.663636 192.24 
L 96.517257 192.24 
z
" style="fill:#1f77b4;opacity:0.35;"/>
   </g>
   <g id="patch_15">
    <path clip-path="url(#p9d47baa28a)" d="M 97.950231 192.24 
L 99.09661 192.24 
L 99.09661 186.748009 
L 97.950231 186.748009 
z
" style="fill:#1f77b4;opacity:0.35;"/>
   </g>
   <g id="patch_16">
    <path clip-path="url(#p9d47baa28a)" d="M 99.383205 192.24 
L 100.529584 192.24 
L 100.529584 192.24 
L 99.383205 192.24 
z
" style="fill:#1f77b4;opacity:0.35;"/>
   </g>
   <g id="patch_17">
    <path clip-path="url(#p9d47baa28a)" d="M 100.816179 192.24 
L 101.962558 192.24 
L 101.962558 192.24 
L 100.816179 192.24 
z
" style="fill:#1f77b4;opacity:0.35;"/>
   </g>
   <g id="patch_18">
    <path clip-path="url(#p9d47baa28a)" d="M 102.249153 192.24 
L 103.395532 192.24 
L 103.395532 192.24 
L 102.249153 192.24 
z
" style="fill:#1f77b4;opacity:0.35;"/>
   </g>
   <g id="patch_19">
    <path clip-path="url(#p9d47baa28a)" d="M 103.682126 192.24 
L 104.828505 192.24 
L 104.828505 192.24 
L 103.682126 192.24 
z
" style="fill:#1f77b4;opacity:0.35;"/>
   </g>
   <g id="patch_20">
    <path clip-path="url(#p9d47baa28a)" d="M 105.1151 192.24 
L 106.261479 192.24 
L 106.261479 192.24 
L 105.1151 192.24 
z
" style="fill:#1f77b4;opacity:0.35;"/>
   </g>
   <g id="patch_21">
    <path clip-path="url(#p9d47baa28a)" d="M 106.548074 192.24 
L 107.694453 192.24 
L 107.694453 181.256018 
L 106.548074 181.256018 
z
" style="fill:#1f77b4;opacity:0.35;"/>
   </g>
   <g id="patch_22">
    <path clip-path="url(#p9d47baa28a)" d="M 107.981048 192.24 
L 109.127427 192.24 
L 109.127427 192.24 
L 107.981048 192.24 
z
" style="fill:#1f77b4;opacity:0.35;"/>
   </g>
   <g id="patch_23">
    <path clip-path="url(#p9d47baa28a)" d="M 109.414022 192.24 
L 110.560401 192.24 
L 110.560401 170.272037 
L 109.414022 170.272037 
z
" style="fill:#1f77b4;opacity:0.35;"/>
   </g>
   <g id="patch_24">
    <path clip-path="url(#p9d47baa28a)" d="M 110.846995 192.24 
L 111.993374 192.24 
L 111.993374 203.223982 
L 110.846995 203.223982 
z
" style="fill:#1f77b4;opacity:0.35;"/>
   </g>
   <g id="patch_25">
    <path clip-path="url(#p9d47baa28a)" d="M 112.279969 192.24 
L 113.426348 192.24 
L 113.426348 192.24 
L 112.279969 192.24 
z
" style="fill:#1f77b4;opacity:0.35;"/>
   </g>
   <g id="patch_26">
    <path clip-path="url(#p9d47baa28a)" d="M 113.712943 192.24 
L 114.859322 192.24 
L 114.859322 181.256018 
L 113.712943 181.256018 
z
" style="fill:#1f77b4;opacity:0.35;"/>
   </g>
   <g id="patch_27">
    <path clip-path="url(#p9d47baa28a)" d="M 115.145917 192.24 
L 116.292296 192.24 
L 116.292296 192.24 
L 115.145917 192.24 
z
" style="fill:#1f77b4;opacity:0.35;"/>
   </g>
   <g id="patch_28">
    <path clip-path="url(#p9d47baa28a)" d="M 116.578891 192.24 
L 117.72527 192.24 
L 117.72527 192.24 
L 116.578891 192.24 
z
" style="fill:#1f77b4;opacity:0.35;"/>
   </g>
   <g id="patch_29">
    <path clip-path="url(#p9d47baa28a)" d="M 118.011864 192.24 
L 119.158243 192.24 
L 119.158243 192.24 
L 118.011864 192.24 
z
" style="fill:#1f77b4;opacity:0.35;"/>
   </g>
   <g id="patch_30">
    <path clip-path="url(#p9d47baa28a)" d="M 119.444838 192.24 
L 120.591217 192.24 
L 120.591217 186.748009 
L 119.444838 186.748009 
z
" style="fill:#1f77b4;opacity:0.35;"/>
   </g>
   <g id="patch_31">
    <path clip-path="url(#p9d47baa28a)" d="M 120.877812 192.24 
L 122.024191 192.24 
L 122.024191 192.24 
L 120.877812 192.24 
z
" style="fill:#1f77b4;opacity:0.35;"/>
   </g>
   <g id="patch_32">
    <path clip-path="url(#p9d47baa28a)" d="M 122.310786 192.24 
L 123.457165 192.24 
L 123.457165 181.256018 
L 122.310786 181.256018 
z
" style="fill:#1f77b4;opacity:0.35;"/>
   </g>
   <g id="patch_33">
    <path clip-path="url(#p9d47baa28a)" d="M 123.74376 192.24 
L 124.890139 192.24 
L 124.890139 192.24 
L 123.74376 192.24 
z
" style="fill:#1f77b4;opacity:0.35;"/>
   </g>
   <g id="patch_34">
    <path clip-path="url(#p9d47baa28a)" d="M 125.176733 192.24 
L 126.323112 192.24 
L 126.323112 181.256018 
L 125.176733 181.256018 
z
" style="fill:#1f77b4;opacity:0.35;"/>
   </g>
   <g id="patch_35">
    <path clip-path="url(#p9d47baa28a)" d="M 126.609707 192.24 
L 127.756086 192.24 
L 127.756086 181.256018 
L 126.609707 181.256018 
z
" style="fill:#1f77b4;opacity:0.35;"/>
   </g>
   <g id="patch_36">
    <path clip-path="url(#p9d47baa28a)" d="M 128.042681 192.24 
L 129.18906 192.24 
L 129.18906 181.256018 
L 128.042681 181.256018 
z
" style="fill:#1f77b4;opacity:0.35;"/>
   </g>
   <g id="patch_37">
    <path clip-path="url(#p9d47baa28a)" d="M 129.475655 192.24 
L 130.622034 192.24 
L 130.622034 186.748009 
L 129.475655 186.748009 
z
" style="fill:#1f77b4;opacity:0.35;"/>
   </g>
   <g id="patch_38">
    <path clip-path="url(#p9d47baa28a)" d="M 130.908629 192.24 
L 132.055008 192.24 
L 132.055008 175.764027 
L 130.908629 175.764027 
z
" style="fill:#1f77b4;opacity:0.35;"/>
   </g>
   <g id="patch_39">
    <path clip-path="url(#p9d47baa28a)" d="M 132.341602 192.24 
L 133.487982 192.24 
L 133.487982 192.24 
L 132.341602 192.24 
z
" style="fill:#1f77b4;opacity:0.35;"/>
   </g>
   <g id="patch_40">
    <path clip-path="url(#p9d47baa28a)" d="M 133.774576 192.24 
L 134.920955 192.24 
L 134.920955 186.748009 
L 133.774576 186.748009 
z
" style="fill:#1f77b4;opacity:0.35;"/>
   </g>
   <g id="patch_41">
    <path clip-path="url(#p9d47baa28a)" d="M 135.20755 192.24 
L 136.353929 192.24 
L 136.353929 192.24 
L 135.20755 192.24 
z
" style="fill:#1f77b4;opacity:0.35;"/>
   </g>
   <g id="patch_42">
    <path clip-path="url(#p9d47baa28a)" d="M 136.640524 192.24 
L 137.786903 192.24 
L 137.786903 192.24 
L 136.640524 192.24 
z
" style="fill:#1f77b4;opacity:0.35;"/>
   </g>
   <g id="patch_43">
    <path clip-path="url(#p9d47baa28a)" d="M 138.073498 192.24 
L 139.219877 192.24 
L 139.219877 192.24 
L 138.073498 192.24 
z
" style="fill:#1f77b4;opacity:0.35;"/>
   </g>
   <g id="patch_44">
    <path clip-path="url(#p9d47baa28a)" d="M 139.506471 192.24 
L 140.652851 192.24 
L 140.652851 186.748009 
L 139.506471 186.748009 
z
" style="fill:#1f77b4;opacity:0.35;"/>
   </g>
   <g id="patch_45">
    <path clip-path="url(#p9d47baa28a)" d="M 140.939445 192.24 
L 142.085824 192.24 
L 142.085824 192.24 
L 140.939445 192.24 
z
" style="fill:#1f77b4;opacity:0.35;"/>
   </g>
   <g id="patch_46">
    <path clip-path="url(#p9d47baa28a)" d="M 142.372419 192.24 
L 143.518798 192.24 
L 143.518798 186.748009 
L 142.372419 186.748009 
z
" style="fill:#1f77b4;opacity:0.35;"/>
   </g>
   <g id="patch_47">
    <path clip-path="url(#p9d47baa28a)" d="M 143.805393 192.24 
L 144.951772 192.24 
L 144.951772 192.24 
L 143.805393 192.24 
z
" style="fill:#1f77b4;opacity:0.35;"/>
   </g>
   <g id="patch_48">
    <path clip-path="url(#p9d47baa28a)" d="M 145.238367 192.24 
L 146.384746 192.24 
L 146.384746 192.24 
L 145.238367 192.24 
z
" style="fill:#1f77b4;opacity:0.35;"/>
   </g>
   <g id="patch_49">
    <path clip-path="url(#p9d47baa28a)" d="M 146.671341 192.24 
L 147.81772 192.24 
L 147.81772 192.24 
L 146.671341 192.24 
z
" style="fill:#1f77b4;opacity:0.35;"/>
   </g>
   <g id="patch_50">
    <path clip-path="url(#p9d47baa28a)" d="M 148.104314 192.24 
L 149.250693 192.24 
L 149.250693 192.24 
L 148.104314 192.24 
z
" style="fill:#1f77b4;opacity:0.35;"/>
   </g>
   <g id="patch_51">
    <path clip-path="url(#p9d47baa28a)" d="M 149.537288 192.24 
L 150.683667 192.24 
L 150.683667 186.748009 
L 149.537288 186.748009 
z
" style="fill:#1f77b4;opacity:0.35;"/>
   </g>
   <g id="patch_52">
    <path clip-path="url(#p9d47baa28a)" d="M 150.970262 192.24 
L 152.116641 192.24 
L 152.116641 186.748009 
L 150.970262 186.748009 
z
" style="fill:#1f77b4;opacity:0.35;"/>
   </g>
   <g id="patch_53">
    <path clip-path="url(#p9d47baa28a)" d="M 152.403236 192.24 
L 153.549615 192.24 
L 153.549615 186.748009 
L 152.403236 186.748009 
z
" style="fill:#1f77b4;opacity:0.35;"/>
   </g>
   <g id="patch_54">
    <path clip-path="url(#p9d47baa28a)" d="M 153.83621 192.24 
L 154.982589 192.24 
L 154.982589 192.24 
L 153.83621 192.24 
z
" style="fill:#1f77b4;opacity:0.35;"/>
   </g>
   <g id="patch_55">
    <path clip-path="url(#p9d47baa28a)" d="M 155.269183 192.24 
L 156.415562 192.24 
L 156.415562 186.748009 
L 155.269183 186.748009 
z
" style="fill:#1f77b4;opacity:0.35;"/>
   </g>
   <g id="patch_56">
    <path clip-path="url(#p9d47baa28a)" d="M 156.702157 192.24 
L 157.848536 192.24 
L 157.848536 181.256018 
L 156.702157 181.256018 
z
" style="fill:#1f77b4;opacity:0.35;"/>
   </g>
   <g id="patch_57">
    <path clip-path="url(#p9d47baa28a)" d="M 158.135131 192.24 
L 159.28151 192.24 
L 159.28151 192.24 
L 158.135131 192.24 
z
" style="fill:#1f77b4;opacity:0.35;"/>
   </g>
   <g id="patch_58">
    <path clip-path="url(#p9d47baa28a)" d="M 159.568105 192.24 
L 160.714484 192.24 
L 160.714484 192.24 
L 159.568105 192.24 
z
" style="fill:#1f77b4;opacity:0.35;"/>
   </g>
   <g id="patch_59">
    <path clip-path="url(#p9d47baa28a)" d="M 161.001079 192.24 
L 162.147458 192.24 
L 162.147458 197.731991 
L 161.001079 197.731991 
z
" style="fill:#1f77b4;opacity:0.35;"/>
   </g>
   <g id="patch_60">
    <path clip-path="url(#p9d47baa28a)" d="M 162.434052 192.24 
L 163.580431 192.24 
L 163.580431 192.24 
L 162.434052 192.24 
z
" style="fill:#1f77b4;opacity:0.35;"/>
   </g>
   <g id="patch_61">
    <path clip-path="url(#p9d47baa28a)" d="M 163.867026 192.24 
L 165.013405 192.24 
L 165.013405 192.24 
L 163.867026 192.24 
z
" style="fill:#1f77b4;opacity:0.35;"/>
   </g>
   <g id="patch_62">
    <path clip-path="url(#p9d47baa28a)" d="M 165.3 192.24 
L 166.446379 192.24 
L 166.446379 186.748009 
L 165.3 186.748009 
z
" style="fill:#1f77b4;opacity:0.35;"/>
   </g>
   <g id="patch_63">
    <path clip-path="url(#p9d47baa28a)" d="M 166.732974 192.24 
L 167.879353 192.24 
L 167.879353 186.748009 
L 166.732974 186.748009 
z
" style="fill:#1f77b4;opacity:0.35;"/>
   </g>
   <g id="patch_64">
    <path clip-path="url(#p9d47baa28a)" d="M 168.165948 192.24 
L 169.312327 192.24 
L 169.312327 192.24 
L 168.165948 192.24 
z
" style="fill:#1f77b4;opacity:0.35;"/>
   </g>
   <g id="patch_65">
    <path clip-path="url(#p9d47baa28a)" d="M 169.598921 192.24 
L 170.7453 192.24 
L 170.7453 192.24 
L 169.598921 192.24 
z
" style="fill:#1f77b4;opacity:0.35;"/>
   </g>
   <g id="patch_66">
    <path clip-path="url(#p9d47baa28a)" d="M 171.031895 192.24 
L 172.178274 192.24 
L 172.178274 192.24 
L 171.031895 192.24 
z
" style="fill:#1f77b4;opacity:0.35;"/>
   </g>
   <g id="patch_67">
    <path clip-path="url(#p9d47baa28a)" d="M 172.464869 192.24 
L 173.611248 192.24 
L 173.611248 192.24 
L 172.464869 192.24 
z
" style="fill:#1f77b4;opacity:0.35;"/>
   </g>
   <g id="patch_68">
    <path clip-path="url(#p9d47baa28a)" d="M 173.897843 192.24 
L 175.044222 192.24 
L 175.044222 186.748009 
L 173.897843 186.748009 
z
" style="fill:#1f77b4;opacity:0.35;"/>
   </g>
   <g id="patch_69">
    <path clip-path="url(#p9d47baa28a)" d="M 175.330817 192.24 
L 176.477196 192.24 
L 176.477196 192.24 
L 175.330817 192.24 
z
" style="fill:#1f77b4;opacity:0.35;"/>
   </g>
   <g id="patch_70">
    <path clip-path="url(#p9d47baa28a)" d="M 176.76379 192.24 
L 177.910169 192.24 
L 177.910169 186.748009 
L 176.76379 186.748009 
z
" style="fill:#1f77b4;opacity:0.35;"/>
   </g>
   <g id="patch_71">
    <path clip-path="url(#p9d47baa28a)" d="M 178.196764 192.24 
L 179.343143 192.24 
L 179.343143 192.24 
L 178.196764 192.24 
z
" style="fill:#1f77b4;opacity:0.35;"/>
   </g>
   <g id="patch_72">
    <path clip-path="url(#p9d47baa28a)" d="M 179.629738 192.24 
L 180.776117 192.24 
L 180.776117 192.24 
L 179.629738 192.24 
z
" style="fill:#1f77b4;opacity:0.35;"/>
   </g>
   <g id="patch_73">
    <path clip-path="url(#p9d47baa28a)" d="M 181.062712 192.24 
L 182.209091 192.24 
L 182.209091 192.24 
L 181.062712 192.24 
z
" style="fill:#1f77b4;opacity:0.35;"/>
   </g>
   <g id="patch_74">
    <path clip-path="url(#p9d47baa28a)" d="M 182.495686 192.24 
L 183.642065 192.24 
L 183.642065 186.748009 
L 182.495686 186.748009 
z
" style="fill:#1f77b4;opacity:0.35;"/>
   </g>
   <g id="patch_75">
    <path clip-path="url(#p9d47baa28a)" d="M 183.928659 192.24 
L 185.075039 192.24 
L 185.075039 186.748009 
L 183.928659 186.748009 
z
" style="fill:#1f77b4;opacity:0.35;"/>
   </g>
   <g id="patch_76">
    <path clip-path="url(#p9d47baa28a)" d="M 185.361633 192.24 
L 186.508012 192.24 
L 186.508012 192.24 
L 185.361633 192.24 
z
" style="fill:#1f77b4;opacity:0.35;"/>
   </g>
   <g id="patch_77">
    <path clip-path="url(#p9d47baa28a)" d="M 186.794607 192.24 
L 187.940986 192.24 
L 187.940986 192.24 
L 186.794607 192.24 
z
" style="fill:#1f77b4;opacity:0.35;"/>
   </g>
   <g id="patch_78">
    <path clip-path="url(#p9d47baa28a)" d="M 188.227581 192.24 
L 189.37396 192.24 
L 189.37396 192.24 
L 188.227581 192.24 
z
" style="fill:#1f77b4;opacity:0.35;"/>
   </g>
   <g id="patch_79">
    <path clip-path="url(#p9d47baa28a)" d="M 189.660555 192.24 
L 190.806934 192.24 
L 190.806934 192.24 
L 189.660555 192.24 
z
" style="fill:#1f77b4;opacity:0.35;"/>
   </g>
   <g id="patch_80">
    <path clip-path="url(#p9d47baa28a)" d="M 191.093529 192.24 
L 192.239908 192.24 
L 192.239908 192.24 
L 191.093529 192.24 
z
" style="fill:#1f77b4;opacity:0.35;"/>
   </g>
   <g id="patch_81">
    <path clip-path="url(#p9d47baa28a)" d="M 192.526502 192.24 
L 193.672881 192.24 
L 193.672881 192.24 
L 192.526502 192.24 
z
" style="fill:#1f77b4;opacity:0.35;"/>
   </g>
   <g id="patch_82">
    <path clip-path="url(#p9d47baa28a)" d="M 193.959476 192.24 
L 195.105855 192.24 
L 195.105855 192.24 
L 193.959476 192.24 
z
" style="fill:#1f77b4;opacity:0.35;"/>
   </g>
   <g id="patch_83">
    <path clip-path="url(#p9d47baa28a)" d="M 195.39245 192.24 
L 196.538829 192.24 
L 196.538829 186.748009 
L 195.39245 186.748009 
z
" style="fill:#1f77b4;opacity:0.35;"/>
   </g>
   <g id="patch_84">
    <path clip-path="url(#p9d47baa28a)" d="M 196.825424 192.24 
L 197.971803 192.24 
L 197.971803 192.24 
L 196.825424 192.24 
z
" style="fill:#1f77b4;opacity:0.35;"/>
   </g>
   <g id="patch_85">
    <path clip-path="url(#p9d47baa28a)" d="M 198.258398 192.24 
L 199.404777 192.24 
L 199.404777 192.24 
L 198.258398 192.24 
z
" style="fill:#1f77b4;opacity:0.35;"/>
   </g>
   <g id="patch_86">
    <path clip-path="url(#p9d47baa28a)" d="M 199.691371 192.24 
L 200.83775 192.24 
L 200.83775 175.764027 
L 199.691371 175.764027 
z
" style="fill:#1f77b4;opacity:0.35;"/>
   </g>
   <g id="patch_87">
    <path clip-path="url(#p9d47baa28a)" d="M 201.124345 192.24 
L 202.270724 192.24 
L 202.270724 192.24 
L 201.124345 192.24 
z
" style="fill:#1f77b4;opacity:0.35;"/>
   </g>
   <g id="patch_88">
    <path clip-path="url(#p9d47baa28a)" d="M 202.557319 192.24 
L 203.703698 192.24 
L 203.703698 192.24 
L 202.557319 192.24 
z
" style="fill:#1f77b4;opacity:0.35;"/>
   </g>
   <g id="patch_89">
    <path clip-path="url(#p9d47baa28a)" d="M 203.990293 192.24 
L 205.136672 192.24 
L 205.136672 186.748009 
L 203.990293 186.748009 
z
" style="fill:#1f77b4;opacity:0.35;"/>
   </g>
   <g id="patch_90">
    <path clip-path="url(#p9d47baa28a)" d="M 205.423267 192.24 
L 206.569646 192.24 
L 206.569646 192.24 
L 205.423267 192.24 
z
" style="fill:#1f77b4;opacity:0.35;"/>
   </g>
   <g id="patch_91">
    <path clip-path="url(#p9d47baa28a)" d="M 206.85624 192.24 
L 208.002619 192.24 
L 208.002619 197.731991 
L 206.85624 197.731991 
z
" style="fill:#1f77b4;opacity:0.35;"/>
   </g>
   <g id="patch_92">
    <path clip-path="url(#p9d47baa28a)" d="M 208.289214 192.24 
L 209.435593 192.24 
L 209.435593 192.24 
L 208.289214 192.24 
z
" style="fill:#1f77b4;opacity:0.35;"/>
   </g>
   <g id="patch_93">
    <path clip-path="url(#p9d47baa28a)" d="M 209.722188 192.24 
L 210.868567 192.24 
L 210.868567 192.24 
L 209.722188 192.24 
z
" style="fill:#1f77b4;opacity:0.35;"/>
   </g>
   <g id="patch_94">
    <path clip-path="url(#p9d47baa28a)" d="M 211.155162 192.24 
L 212.301541 192.24 
L 212.301541 192.24 
L 211.155162 192.24 
z
" style="fill:#1f77b4;opacity:0.35;"/>
   </g>
   <g id="patch_95">
    <path clip-path="url(#p9d47baa28a)" d="M 212.588136 192.24 
L 213.734515 192.24 
L 213.734515 192.24 
L 212.588136 192.24 
z
" style="fill:#1f77b4;opacity:0.35;"/>
   </g>
   <g id="patch_96">
    <path clip-path="url(#p9d47baa28a)" d="M 214.021109 192.24 
L 215.167488 192.24 
L 215.167488 192.24 
L 214.021109 192.24 
z
" style="fill:#1f77b4;opacity:0.35;"/>
   </g>
   <g id="patch_97">
    <path clip-path="url(#p9d47baa28a)" d="M 215.454083 192.24 
L 216.600462 192.24 
L 216.600462 192.24 
L 215.454083 192.24 
z
" style="fill:#1f77b4;opacity:0.35;"/>
   </g>
   <g id="patch_98">
    <path clip-path="url(#p9d47baa28a)" d="M 216.887057 192.24 
L 218.033436 192.24 
L 218.033436 192.24 
L 216.887057 192.24 
z
" style="fill:#1f77b4;opacity:0.35;"/>
   </g>
   <g id="patch_99">
    <path clip-path="url(#p9d47baa28a)" d="M 218.320031 192.24 
L 219.46641 192.24 
L 219.46641 192.24 
L 218.320031 192.24 
z
" style="fill:#1f77b4;opacity:0.35;"/>
   </g>
   <g id="patch_100">
    <path clip-path="url(#p9d47baa28a)" d="M 219.753005 192.24 
L 220.899384 192.24 
L 220.899384 192.24 
L 219.753005 192.24 
z
" style="fill:#1f77b4;opacity:0.35;"/>
   </g>
   <g id="patch_101">
    <path clip-path="url(#p9d47baa28a)" d="M 221.185978 192.24 
L 222.332357 192.24 
L 222.332357 192.24 
L 221.185978 192.24 
z
" style="fill:#1f77b4;opacity:0.35;"/>
   </g>
   <g id="patch_102">
    <path clip-path="url(#p9d47baa28a)" d="M 222.618952 192.24 
L 223.765331 192.24 
L 223.765331 192.24 
L 222.618952 192.24 
z
" style="fill:#1f77b4;opacity:0.35;"/>
   </g>
   <g id="patch_103">
    <path clip-path="url(#p9d47baa28a)" d="M 224.051926 192.24 
L 225.198305 192.24 
L 225.198305 192.24 
L 224.051926 192.24 
z
" style="fill:#1f77b4;opacity:0.35;"/>
   </g>
   <g id="patch_104">
    <path clip-path="url(#p9d47baa28a)" d="M 225.4849 192.24 
L 226.631279 192.24 
L 226.631279 192.24 
L 225.4849 192.24 
z
" style="fill:#1f77b4;opacity:0.35;"/>
   </g>
   <g id="patch_105">
    <path clip-path="url(#p9d47baa28a)" d="M 226.917874 192.24 
L 228.064253 192.24 
L 228.064253 186.748009 
L 226.917874 186.748009 
z
" style="fill:#1f77b4;opacity:0.35;"/>
   </g>
   <g id="patch_106">
    <path clip-path="url(#p9d47baa28a)" d="M 228.350847 192.24 
L 229.497227 192.24 
L 229.497227 181.256018 
L 228.350847 181.256018 
z
" style="fill:#1f77b4;opacity:0.35;"/>
   </g>
   <g id="patch_107">
    <path clip-path="url(#p9d47baa28a)" d="M 229.783821 192.24 
L 230.9302 192.24 
L 230.9302 192.24 
L 229.783821 192.24 
z
" style="fill:#1f77b4;opacity:0.35;"/>
   </g>
   <g id="patch_108">
    <path clip-path="url(#p9d47baa28a)" d="M 231.216795 192.24 
L 232.363174 192.24 
L 232.363174 192.24 
L 231.216795 192.24 
z
" style="fill:#1f77b4;opacity:0.35;"/>
   </g>
   <g id="patch_109">
    <path clip-path="url(#p9d47baa28a)" d="M 232.649769 192.24 
L 233.796148 192.24 
L 233.796148 192.24 
L 232.649769 192.24 
z
" style="fill:#1f77b4;opacity:0.35;"/>
   </g>
   <g id="patch_110">
    <path clip-path="url(#p9d47baa28a)" d="M 234.082743 192.24 
L 235.229122 192.24 
L 235.229122 192.24 
L 234.082743 192.24 
z
" style="fill:#1f77b4;opacity:0.35;"/>
   </g>
   <g id="patch_111">
    <path clip-path="url(#p9d47baa28a)" d="M 235.515716 192.24 
L 236.662096 192.24 
L 236.662096 192.24 
L 235.515716 192.24 
z
" style="fill:#1f77b4;opacity:0.35;"/>
   </g>
   <g id="patch_112">
    <path clip-path="url(#p9d47baa28a)" d="M 236.94869 192.24 
L 238.095069 192.24 
L 238.095069 186.748009 
L 236.94869 186.748009 
z
" style="fill:#1f77b4;opacity:0.35;"/>
   </g>
   <g id="patch_113">
    <path clip-path="url(#p9d47baa28a)" d="M 238.381664 192.24 
L 239.528043 192.24 
L 239.528043 192.24 
L 238.381664 192.24 
z
" style="fill:#1f77b4;opacity:0.35;"/>
   </g>
   <g id="patch_114">
    <path clip-path="url(#p9d47baa28a)" d="M 239.814638 192.24 
L 240.961017 192.24 
L 240.961017 192.24 
L 239.814638 192.24 
z
" style="fill:#1f77b4;opacity:0.35;"/>
   </g>
   <g id="patch_115">
    <path clip-path="url(#p9d47baa28a)" d="M 241.247612 192.24 
L 242.393991 192.24 
L 242.393991 192.24 
L 241.247612 192.24 
z
" style="fill:#1f77b4;opacity:0.35;"/>
   </g>
   <g id="patch_116">
    <path clip-path="url(#p9d47baa28a)" d="M 242.680586 192.24 
L 243.826965 192.24 
L 243.826965 192.24 
L 242.680586 192.24 
z
" style="fill:#1f77b4;opacity:0.35;"/>
   </g>
   <g id="patch_117">
    <path clip-path="url(#p9d47baa28a)" d="M 244.113559 192.24 
L 245.259938 192.24 
L 245.259938 192.24 
L 244.113559 192.24 
z
" style="fill:#1f77b4;opacity:0.35;"/>
   </g>
   <g id="patch_118">
    <path clip-path="url(#p9d47baa28a)" d="M 245.546533 192.24 
L 246.692912 192.24 
L 246.692912 181.256018 
L 245.546533 181.256018 
z
" style="fill:#1f77b4;opacity:0.35;"/>
   </g>
   <g id="patch_119">
    <path clip-path="url(#p9d47baa28a)" d="M 246.979507 192.24 
L 248.125886 192.24 
L 248.125886 192.24 
L 246.979507 192.24 
z
" style="fill:#1f77b4;opacity:0.35;"/>
   </g>
   <g id="patch_120">
    <path clip-path="url(#p9d47baa28a)" d="M 248.412481 192.24 
L 249.55886 192.24 
L 249.55886 186.748009 
L 248.412481 186.748009 
z
" style="fill:#1f77b4;opacity:0.35;"/>
   </g>
   <g id="patch_121">
    <path clip-path="url(#p9d47baa28a)" d="M 249.845455 192.24 
L 250.991834 192.24 
L 250.991834 192.24 
L 249.845455 192.24 
z
" style="fill:#1f77b4;opacity:0.35;"/>
   </g>
   <g id="patch_122">
    <path clip-path="url(#p9d47baa28a)" d="M 251.278428 192.24 
L 252.424807 192.24 
L 252.424807 192.24 
L 251.278428 192.24 
z
" style="fill:#1f77b4;opacity:0.35;"/>
   </g>
   <g id="patch_123">
    <path clip-path="url(#p9d47baa28a)" d="M 252.711402 192.24 
L 253.857781 192.24 
L 253.857781 192.24 
L 252.711402 192.24 
z
" style="fill:#1f77b4;opacity:0.35;"/>
   </g>
   <g id="patch_124">
    <path clip-path="url(#p9d47baa28a)" d="M 254.144376 192.24 
L 255.290755 192.24 
L 255.290755 192.24 
L 254.144376 192.24 
z
" style="fill:#1f77b4;opacity:0.35;"/>
   </g>
   <g id="patch_125">
    <path clip-path="url(#p9d47baa28a)" d="M 255.57735 192.24 
L 256.723729 192.24 
L 256.723729 181.256018 
L 255.57735 181.256018 
z
" style="fill:#1f77b4;opacity:0.35;"/>
   </g>
   <g id="patch_126">
    <path clip-path="url(#p9d47baa28a)" d="M 257.010324 192.24 
L 258.156703 192.24 
L 258.156703 192.24 
L 257.010324 192.24 
z
" style="fill:#1f77b4;opacity:0.35;"/>
   </g>
   <g id="patch_127">
    <path clip-path="url(#p9d47baa28a)" d="M 258.443297 192.24 
L 259.589676 192.24 
L 259.589676 186.748009 
L 258.443297 186.748009 
z
" style="fill:#1f77b4;opacity:0.35;"/>
   </g>
   <g id="patch_128">
    <path clip-path="url(#p9d47baa28a)" d="M 259.876271 192.24 
L 261.02265 192.24 
L 261.02265 192.24 
L 259.876271 192.24 
z
" style="fill:#1f77b4;opacity:0.35;"/>
   </g>
   <g id="patch_129">
    <path clip-path="url(#p9d47baa28a)" d="M 261.309245 192.24 
L 262.455624 192.24 
L 262.455624 192.24 
L 261.309245 192.24 
z
" style="fill:#1f77b4;opacity:0.35;"/>
   </g>
   <g id="patch_130">
    <path clip-path="url(#p9d47baa28a)" d="M 262.742219 192.24 
L 263.888598 192.24 
L 263.888598 181.256018 
L 262.742219 181.256018 
z
" style="fill:#1f77b4;opacity:0.35;"/>
   </g>
   <g id="patch_131">
    <path clip-path="url(#p9d47baa28a)" d="M 264.175193 192.24 
L 265.321572 192.24 
L 265.321572 192.24 
L 264.175193 192.24 
z
" style="fill:#1f77b4;opacity:0.35;"/>
   </g>
   <g id="patch_132">
    <path clip-path="url(#p9d47baa28a)" d="M 265.608166 192.24 
L 266.754545 192.24 
L 266.754545 186.748009 
L 265.608166 186.748009 
z
" style="fill:#1f77b4;opacity:0.35;"/>
   </g>
   <g id="patch_133">
    <path clip-path="url(#p9d47baa28a)" d="M 267.04114 192.24 
L 268.187519 192.24 
L 268.187519 186.748009 
L 267.04114 186.748009 
z
" style="fill:#1f77b4;opacity:0.35;"/>
   </g>
   <g id="patch_134">
    <path clip-path="url(#p9d47baa28a)" d="M 268.474114 192.24 
L 269.620493 192.24 
L 269.620493 192.24 
L 268.474114 192.24 
z
" style="fill:#1f77b4;opacity:0.35;"/>
   </g>
   <g id="patch_135">
    <path clip-path="url(#p9d47baa28a)" d="M 269.907088 192.24 
L 271.053467 192.24 
L 271.053467 192.24 
L 269.907088 192.24 
z
" style="fill:#1f77b4;opacity:0.35;"/>
   </g>
   <g id="patch_136">
    <path clip-path="url(#p9d47baa28a)" d="M 271.340062 192.24 
L 272.486441 192.24 
L 272.486441 192.24 
L 271.340062 192.24 
z
" style="fill:#1f77b4;opacity:0.35;"/>
   </g>
   <g id="patch_137">
    <path clip-path="url(#p9d47baa28a)" d="M 272.773035 192.24 
L 273.919414 192.24 
L 273.919414 192.24 
L 272.773035 192.24 
z
" style="fill:#1f77b4;opacity:0.35;"/>
   </g>
   <g id="patch_138">
    <path clip-path="url(#p9d47baa28a)" d="M 274.206009 192.24 
L 275.352388 192.24 
L 275.352388 192.24 
L 274.206009 192.24 
z
" style="fill:#1f77b4;opacity:0.35;"/>
   </g>
   <g id="patch_139">
    <path clip-path="url(#p9d47baa28a)" d="M 275.638983 192.24 
L 276.785362 192.24 
L 276.785362 192.24 
L 275.638983 192.24 
z
" style="fill:#1f77b4;opacity:0.35;"/>
   </g>
   <g id="patch_140">
    <path clip-path="url(#p9d47baa28a)" d="M 277.071957 192.24 
L 278.218336 192.24 
L 278.218336 186.748009 
L 277.071957 186.748009 
z
" style="fill:#1f77b4;opacity:0.35;"/>
   </g>
   <g id="patch_141">
    <path clip-path="url(#p9d47baa28a)" d="M 278.504931 192.24 
L 279.65131 192.24 
L 279.65131 192.24 
L 278.504931 192.24 
z
" style="fill:#1f77b4;opacity:0.35;"/>
   </g>
   <g id="patch_142">
    <path clip-path="url(#p9d47baa28a)" d="M 279.937904 192.24 
L 281.084284 192.24 
L 281.084284 186.748009 
L 279.937904 186.748009 
z
" style="fill:#1f77b4;opacity:0.35;"/>
   </g>
   <g id="patch_143">
    <path clip-path="url(#p9d47baa28a)" d="M 281.370878 192.24 
L 282.517257 192.24 
L 282.517257 192.24 
L 281.370878 192.24 
z
" style="fill:#1f77b4;opacity:0.35;"/>
   </g>
   <g id="patch_144">
    <path clip-path="url(#p9d47baa28a)" d="M 282.803852 192.24 
L 283.950231 192.24 
L 283.950231 192.24 
L 282.803852 192.24 
z
" style="fill:#1f77b4;opacity:0.35;"/>
   </g>
   <g id="patch_145">
    <path clip-path="url(#p9d47baa28a)" d="M 284.236826 192.24 
L 285.383205 192.24 
L 285.383205 192.24 
L 284.236826 192.24 
z
" style="fill:#1f77b4;opacity:0.35;"/>
   </g>
   <g id="patch_146">
    <path clip-path="url(#p9d47baa28a)" d="M 285.6698 192.24 
L 286.816179 192.24 
L 286.816179 192.24 
L 285.6698 192.24 
z
" style="fill:#1f77b4;opacity:0.35;"/>
   </g>
   <g id="patch_147">
    <path clip-path="url(#p9d47baa28a)" d="M 287.102773 192.24 
L 288.249153 192.24 
L 288.249153 186.748009 
L 287.102773 186.748009 
z
" style="fill:#1f77b4;opacity:0.35;"/>
   </g>
   <g id="patch_148">
    <path clip-path="url(#p9d47baa28a)" d="M 288.535747 192.24 
L 289.682126 192.24 
L 289.682126 192.24 
L 288.535747 192.24 
z
" style="fill:#1f77b4;opacity:0.35;"/>
   </g>
   <g id="patch_149">
    <path clip-path="url(#p9d47baa28a)" d="M 289.968721 192.24 
L 291.1151 192.24 
L 291.1151 192.24 
L 289.968721 192.24 
z
" style="fill:#1f77b4;opacity:0.35;"/>
   </g>
   <g id="patch_150">
    <path clip-path="url(#p9d47baa28a)" d="M 291.401695 192.24 
L 292.548074 192.24 
L 292.548074 192.24 
L 291.401695 192.24 
z
" style="fill:#1f77b4;opacity:0.35;"/>
   </g>
   <g id="patch_151">
    <path clip-path="url(#p9d47baa28a)" d="M 292.834669 192.24 
L 293.981048 192.24 
L 293.981048 192.24 
L 292.834669 192.24 
z
" style="fill:#1f77b4;opacity:0.35;"/>
   </g>
   <g id="patch_152">
    <path clip-path="url(#p9d47baa28a)" d="M 294.267643 192.24 
L 295.414022 192.24 
L 295.414022 192.24 
L 294.267643 192.24 
z
" style="fill:#1f77b4;opacity:0.35;"/>
   </g>
   <g id="patch_153">
    <path clip-path="url(#p9d47baa28a)" d="M 295.700616 192.24 
L 296.846995 192.24 
L 296.846995 186.748009 
L 295.700616 186.748009 
z
" style="fill:#1f77b4;opacity:0.35;"/>
   </g>
   <g id="patch_154">
    <path clip-path="url(#p9d47baa28a)" d="M 297.13359 192.24 
L 298.279969 192.24 
L 298.279969 192.24 
L 297.13359 192.24 
z
" style="fill:#1f77b4;opacity:0.35;"/>
   </g>
   <g id="patch_155">
    <path clip-path="url(#p9d47baa28a)" d="M 298.566564 192.24 
L 299.712943 192.24 
L 299.712943 186.748009 
L 298.566564 186.748009 
z
" style="fill:#1f77b4;opacity:0.35;"/>
   </g>
   <g id="patch_156">
    <path clip-path="url(#p9d47baa28a)" d="M 299.999538 192.24 
L 301.145917 192.24 
L 301.145917 186.748009 
L 299.999538 186.748009 
z
" style="fill:#1f77b4;opacity:0.35;"/>
   </g>
   <g id="patch_157">
    <path clip-path="url(#p9d47baa28a)" d="M 301.432512 192.24 
L 302.578891 192.24 
L 302.578891 192.24 
L 301.432512 192.24 
z
" style="fill:#1f77b4;opacity:0.35;"/>
   </g>
   <g id="patch_158">
    <path clip-path="url(#p9d47baa28a)" d="M 302.865485 192.24 
L 304.011864 192.24 
L 304.011864 192.24 
L 302.865485 192.24 
z
" style="fill:#1f77b4;opacity:0.35;"/>
   </g>
   <g id="patch_159">
    <path clip-path="url(#p9d47baa28a)" d="M 304.298459 192.24 
L 305.444838 192.24 
L 305.444838 192.24 
L 304.298459 192.24 
z
" style="fill:#1f77b4;opacity:0.35;"/>
   </g>
   <g id="patch_160">
    <path clip-path="url(#p9d47baa28a)" d="M 305.731433 192.24 
L 306.877812 192.24 
L 306.877812 192.24 
L 305.731433 192.24 
z
" style="fill:#1f77b4;opacity:0.35;"/>
   </g>
   <g id="patch_161">
    <path clip-path="url(#p9d47baa28a)" d="M 307.164407 192.24 
L 308.310786 192.24 
L 308.310786 192.24 
L 307.164407 192.24 
z
" style="fill:#1f77b4;opacity:0.35;"/>
   </g>
   <g id="patch_162">
    <path clip-path="url(#p9d47baa28a)" d="M 308.597381 192.24 
L 309.74376 192.24 
L 309.74376 192.24 
L 308.597381 192.24 
z
" style="fill:#1f77b4;opacity:0.35;"/>
   </g>
   <g id="patch_163">
    <path clip-path="url(#p9d47baa28a)" d="M 310.030354 192.24 
L 311.176733 192.24 
L 311.176733 192.24 
L 310.030354 192.24 
z
" style="fill:#1f77b4;opacity:0.35;"/>
   </g>
   <g id="patch_164">
    <path clip-path="url(#p9d47baa28a)" d="M 311.463328 192.24 
L 312.609707 192.24 
L 312.609707 192.24 
L 311.463328 192.24 
z
" style="fill:#1f77b4;opacity:0.35;"/>
   </g>
   <g id="patch_165">
    <path clip-path="url(#p9d47baa28a)" d="M 312.896302 192.24 
L 314.042681 192.24 
L 314.042681 192.24 
L 312.896302 192.24 
z
" style="fill:#1f77b4;opacity:0.35;"/>
   </g>
   <g id="patch_166">
    <path clip-path="url(#p9d47baa28a)" d="M 314.329276 192.24 
L 315.475655 192.24 
L 315.475655 192.24 
L 314.329276 192.24 
z
" style="fill:#1f77b4;opacity:0.35;"/>
   </g>
   <g id="patch_167">
    <path clip-path="url(#p9d47baa28a)" d="M 315.76225 192.24 
L 316.908629 192.24 
L 316.908629 192.24 
L 315.76225 192.24 
z
" style="fill:#1f77b4;opacity:0.35;"/>
   </g>
   <g id="patch_168">
    <path clip-path="url(#p9d47baa28a)" d="M 317.195223 192.24 
L 318.341602 192.24 
L 318.341602 181.256018 
L 317.195223 181.256018 
z
" style="fill:#1f77b4;opacity:0.35;"/>
   </g>
   <g id="patch_169">
    <path clip-path="url(#p9d47baa28a)" d="M 318.628197 192.24 
L 319.774576 192.24 
L 319.774576 192.24 
L 318.628197 192.24 
z
" style="fill:#1f77b4;opacity:0.35;"/>
   </g>
   <g id="patch_170">
    <path clip-path="url(#p9d47baa28a)" d="M 320.061171 192.24 
L 321.20755 192.24 
L 321.20755 186.748009 
L 320.061171 186.748009 
z
" style="fill:#1f77b4;opacity:0.35;"/>
   </g>
   <g id="patch_171">
    <path clip-path="url(#p9d47baa28a)" d="M 321.494145 192.24 
L 322.640524 192.24 
L 322.640524 186.748009 
L 321.494145 186.748009 
z
" style="fill:#1f77b4;opacity:0.35;"/>
   </g>
   <g id="patch_172">
    <path clip-path="url(#p9d47baa28a)" d="M 322.927119 192.24 
L 324.073498 192.24 
L 324.073498 192.24 
L 322.927119 192.24 
z
" style="fill:#1f77b4;opacity:0.35;"/>
   </g>
   <g id="patch_173">
    <path clip-path="url(#p9d47baa28a)" d="M 324.360092 192.24 
L 325.506471 192.24 
L 325.506471 186.748009 
L 324.360092 186.748009 
z
" style="fill:#1f77b4;opacity:0.35;"/>
   </g>
   <g id="patch_174">
    <path clip-path="url(#p9d47baa28a)" d="M 325.793066 192.24 
L 326.939445 192.24 
L 326.939445 197.731991 
L 325.793066 197.731991 
z
" style="fill:#1f77b4;opacity:0.35;"/>
   </g>
   <g id="patch_175">
    <path clip-path="url(#p9d47baa28a)" d="M 327.22604 192.24 
L 328.372419 192.24 
L 328.372419 192.24 
L 327.22604 192.24 
z
" style="fill:#1f77b4;opacity:0.35;"/>
   </g>
   <g id="patch_176">
    <path clip-path="url(#p9d47baa28a)" d="M 328.659014 192.24 
L 329.805393 192.24 
L 329.805393 186.748009 
L 328.659014 186.748009 
z
" style="fill:#1f77b4;opacity:0.35;"/>
   </g>
   <g id="patch_177">
    <path clip-path="url(#p9d47baa28a)" d="M 330.091988 192.24 
L 331.238367 192.24 
L 331.238367 192.24 
L 330.091988 192.24 
z
" style="fill:#1f77b4;opacity:0.35;"/>
   </g>
   <g id="patch_178">
    <path clip-path="url(#p9d47baa28a)" d="M 331.524961 192.24 
L 332.671341 192.24 
L 332.671341 192.24 
L 331.524961 192.24 
z
" style="fill:#1f77b4;opacity:0.35;"/>
   </g>
   <g id="patch_179">
    <path clip-path="url(#p9d47baa28a)" d="M 332.957935 192.24 
L 334.104314 192.24 
L 334.104314 186.748009 
L 332.957935 186.748009 
z
" style="fill:#1f77b4;opacity:0.35;"/>
   </g>
   <g id="patch_180">
    <path clip-path="url(#p9d47baa28a)" d="M 334.390909 192.24 
L 335.537288 192.24 
L 335.537288 192.24 
L 334.390909 192.24 
z
" style="fill:#1f77b4;opacity:0.35;"/>
   </g>
   <g id="patch_181">
    <path clip-path="url(#p9d47baa28a)" d="M 335.823883 192.24 
L 336.970262 192.24 
L 336.970262 192.24 
L 335.823883 192.24 
z
" style="fill:#1f77b4;opacity:0.35;"/>
   </g>
   <g id="patch_182">
    <path clip-path="url(#p9d47baa28a)" d="M 337.256857 192.24 
L 338.403236 192.24 
L 338.403236 192.24 
L 337.256857 192.24 
z
" style="fill:#1f77b4;opacity:0.35;"/>
   </g>
   <g id="patch_183">
    <path clip-path="url(#p9d47baa28a)" d="M 338.689831 192.24 
L 339.83621 192.24 
L 339.83621 186.748009 
L 338.689831 186.748009 
z
" style="fill:#1f77b4;opacity:0.35;"/>
   </g>
   <g id="patch_184">
    <path clip-path="url(#p9d47baa28a)" d="M 340.122804 192.24 
L 341.269183 192.24 
L 341.269183 192.24 
L 340.122804 192.24 
z
" style="fill:#1f77b4;opacity:0.35;"/>
   </g>
   <g id="patch_185">
    <path clip-path="url(#p9d47baa28a)" d="M 341.555778 192.24 
L 342.702157 192.24 
L 342.702157 192.24 
L 341.555778 192.24 
z
" style="fill:#1f77b4;opacity:0.35;"/>
   </g>
   <g id="patch_186">
    <path clip-path="url(#p9d47baa28a)" d="M 342.988752 192.24 
L 344.135131 192.24 
L 344.135131 186.748009 
L 342.988752 186.748009 
z
" style="fill:#1f77b4;opacity:0.35;"/>
   </g>
   <g id="patch_187">
    <path clip-path="url(#p9d47baa28a)" d="M 344.421726 192.24 
L 345.568105 192.24 
L 345.568105 192.24 
L 344.421726 192.24 
z
" style="fill:#1f77b4;opacity:0.35;"/>
   </g>
   <g id="patch_188">
    <path clip-path="url(#p9d47baa28a)" d="M 345.8547 192.24 
L 347.001079 192.24 
L 347.001079 192.24 
L 345.8547 192.24 
z
" style="fill:#1f77b4;opacity:0.35;"/>
   </g>
   <g id="patch_189">
    <path clip-path="url(#p9d47baa28a)" d="M 347.287673 192.24 
L 348.434052 192.24 
L 348.434052 192.24 
L 347.287673 192.24 
z
" style="fill:#1f77b4;opacity:0.35;"/>
   </g>
   <g id="patch_190">
    <path clip-path="url(#p9d47baa28a)" d="M 348.720647 192.24 
L 349.867026 192.24 
L 349.867026 192.24 
L 348.720647 192.24 
z
" style="fill:#1f77b4;opacity:0.35;"/>
   </g>
   <g id="patch_191">
    <path clip-path="url(#p9d47baa28a)" d="M 350.153621 192.24 
L 351.3 192.24 
L 351.3 192.24 
L 350.153621 192.24 
z
" style="fill:#1f77b4;opacity:0.35;"/>
   </g>
   <g id="patch_192">
    <path clip-path="url(#p9d47baa28a)" d="M 351.586595 192.24 
L 352.732974 192.24 
L 352.732974 192.24 
L 351.586595 192.24 
z
" style="fill:#1f77b4;opacity:0.35;"/>
   </g>
   <g id="patch_193">
    <path clip-path="url(#p9d47baa28a)" d="M 353.019569 192.24 
L 354.165948 192.24 
L 354.165948 192.24 
L 353.019569 192.24 
z
" style="fill:#1f77b4;opacity:0.35;"/>
   </g>
   <g id="patch_194">
    <path clip-path="url(#p9d47baa28a)" d="M 354.452542 192.24 
L 355.598921 192.24 
L 355.598921 186.748009 
L 354.452542 186.748009 
z
" style="fill:#1f77b4;opacity:0.35;"/>
   </g>
   <g id="patch_195">
    <path clip-path="url(#p9d47baa28a)" d="M 355.885516 192.24 
L 357.031895 192.24 
L 357.031895 192.24 
L 355.885516 192.24 
z
" style="fill:#1f77b4;opacity:0.35;"/>
   </g>
   <g id="patch_196">
    <path clip-path="url(#p9d47baa28a)" d="M 357.31849 192.24 
L 358.464869 192.24 
L 358.464869 192.24 
L 357.31849 192.24 
z
" style="fill:#1f77b4;opacity:0.35;"/>
   </g>
   <g id="patch_197">
    <path clip-path="url(#p9d47baa28a)" d="M 358.751464 192.24 
L 359.897843 192.24 
L 359.897843 181.256018 
L 358.751464 181.256018 
z
" style="fill:#1f77b4;opacity:0.35;"/>
   </g>
   <g id="patch_198">
    <path clip-path="url(#p9d47baa28a)" d="M 360.184438 192.24 
L 361.330817 192.24 
L 361.330817 192.24 
L 360.184438 192.24 
z
" style="fill:#1f77b4;opacity:0.35;"/>
   </g>
   <g id="patch_199">
    <path clip-path="url(#p9d47baa28a)" d="M 361.617411 192.24 
L 362.76379 192.24 
L 362.76379 186.748009 
L 361.617411 186.748009 
z
" style="fill:#1f77b4;opacity:0.35;"/>
   </g>
   <g id="patch_200">
    <path clip-path="url(#p9d47baa28a)" d="M 363.050385 192.24 
L 364.196764 192.24 
L 364.196764 192.24 
L 363.050385 192.24 
z
" style="fill:#1f77b4;opacity:0.35;"/>
   </g>
   <g id="patch_201">
    <path clip-path="url(#p9d47baa28a)" d="M 364.483359 192.24 
L 365.629738 192.24 
L 365.629738 192.24 
L 364.483359 192.24 
z
" style="fill:#1f77b4;opacity:0.35;"/>
   </g>
   <g id="patch_202">
    <path clip-path="url(#p9d47baa28a)" d="M 365.916333 192.24 
L 367.062712 192.24 
L 367.062712 192.24 
L 365.916333 192.24 
z
" style="fill:#1f77b4;opacity:0.35;"/>
   </g>
   <g id="patch_203">
    <path clip-path="url(#p9d47baa28a)" d="M 367.349307 192.24 
L 368.495686 192.24 
L 368.495686 181.256018 
L 367.349307 181.256018 
z
" style="fill:#1f77b4;opacity:0.35;"/>
   </g>
   <g id="patch_204">
    <path clip-path="url(#p9d47baa28a)" d="M 368.78228 192.24 
L 369.928659 192.24 
L 369.928659 186.748009 
L 368.78228 186.748009 
z
" style="fill:#1f77b4;opacity:0.35;"/>
   </g>
   <g id="patch_205">
    <path clip-path="url(#p9d47baa28a)" d="M 370.215254 192.24 
L 371.361633 192.24 
L 371.361633 186.748009 
L 370.215254 186.748009 
z
" style="fill:#1f77b4;opacity:0.35;"/>
   </g>
   <g id="patch_206">
    <path clip-path="url(#p9d47baa28a)" d="M 371.648228 192.24 
L 372.794607 192.24 
L 372.794607 186.748009 
L 371.648228 186.748009 
z
" style="fill:#1f77b4;opacity:0.35;"/>
   </g>
   <g id="patch_207">
    <path clip-path="url(#p9d47baa28a)" d="M 373.081202 192.24 
L 374.227581 192.24 
L 374.227581 192.24 
L 373.081202 192.24 
z
" style="fill:#1f77b4;opacity:0.35;"/>
   </g>
   <g id="patch_208">
    <path clip-path="url(#p9d47baa28a)" d="M 374.514176 192.24 
L 375.660555 192.24 
L 375.660555 181.256018 
L 374.514176 181.256018 
z
" style="fill:#1f77b4;opacity:0.35;"/>
   </g>
   <g id="patch_209">
    <path clip-path="url(#p9d47baa28a)" d="M 375.947149 192.24 
L 377.093529 192.24 
L 377.093529 186.748009 
L 375.947149 186.748009 
z
" style="fill:#1f77b4;opacity:0.35;"/>
   </g>
   <g id="patch_210">
    <path clip-path="url(#p9d47baa28a)" d="M 377.380123 192.24 
L 378.526502 192.24 
L 378.526502 181.256018 
L 377.380123 181.256018 
z
" style="fill:#1f77b4;opacity:0.35;"/>
   </g>
   <g id="patch_211">
    <path clip-path="url(#p9d47baa28a)" d="M 378.813097 192.24 
L 379.959476 192.24 
L 379.959476 175.764027 
L 378.813097 175.764027 
z
" style="fill:#1f77b4;opacity:0.35;"/>
   </g>
   <g id="patch_212">
    <path clip-path="url(#p9d47baa28a)" d="M 380.246071 192.24 
L 381.39245 192.24 
L 381.39245 186.748009 
L 380.246071 186.748009 
z
" style="fill:#1f77b4;opacity:0.35;"/>
   </g>
   <g id="patch_213">
    <path clip-path="url(#p9d47baa28a)" d="M 381.679045 192.24 
L 382.825424 192.24 
L 382.825424 181.256018 
L 381.679045 181.256018 
z
" style="fill:#1f77b4;opacity:0.35;"/>
   </g>
   <g id="patch_214">
    <path clip-path="url(#p9d47baa28a)" d="M 383.112018 192.24 
L 384.258398 192.24 
L 384.258398 186.748009 
L 383.112018 186.748009 
z
" style="fill:#1f77b4;opacity:0.35;"/>
   </g>
   <g id="patch_215">
    <path clip-path="url(#p9d47baa28a)" d="M 384.544992 192.24 
L 385.691371 192.24 
L 385.691371 192.24 
L 384.544992 192.24 
z
" style="fill:#1f77b4;opacity:0.35;"/>
   </g>
   <g id="patch_216">
    <path clip-path="url(#p9d47baa28a)" d="M 385.977966 192.24 
L 387.124345 192.24 
L 387.124345 192.24 
L 385.977966 192.24 
z
" style="fill:#1f77b4;opacity:0.35;"/>
   </g>
   <g id="patch_217">
    <path clip-path="url(#p9d47baa28a)" d="M 387.41094 192.24 
L 388.557319 192.24 
L 388.557319 186.748009 
L 387.41094 186.748009 
z
" style="fill:#1f77b4;opacity:0.35;"/>
   </g>
   <g id="patch_218">
    <path clip-path="url(#p9d47baa28a)" d="M 388.843914 192.24 
L 389.990293 192.24 
L 389.990293 186.748009 
L 388.843914 186.748009 
z
" style="fill:#1f77b4;opacity:0.35;"/>
   </g>
   <g id="patch_219">
    <path clip-path="url(#p9d47baa28a)" d="M 390.276888 192.24 
L 391.423267 192.24 
L 391.423267 181.256018 
L 390.276888 181.256018 
z
" style="fill:#1f77b4;opacity:0.35;"/>
   </g>
   <g id="patch_220">
    <path clip-path="url(#p9d47baa28a)" d="M 391.709861 192.24 
L 392.85624 192.24 
L 392.85624 192.24 
L 391.709861 192.24 
z
" style="fill:#1f77b4;opacity:0.35;"/>
   </g>
   <g id="patch_221">
    <path clip-path="url(#p9d47baa28a)" d="M 393.142835 192.24 
L 394.289214 192.24 
L 394.289214 186.748009 
L 393.142835 186.748009 
z
" style="fill:#1f77b4;opacity:0.35;"/>
   </g>
   <g id="patch_222">
    <path clip-path="url(#p9d47baa28a)" d="M 394.575809 192.24 
L 395.722188 192.24 
L 395.722188 186.748009 
L 394.575809 186.748009 
z
" style="fill:#1f77b4;opacity:0.35;"/>
   </g>
   <g id="patch_223">
    <path clip-path="url(#p9d47baa28a)" d="M 396.008783 192.24 
L 397.155162 192.24 
L 397.155162 175.764027 
L 396.008783 175.764027 
z
" style="fill:#1f77b4;opacity:0.35;"/>
   </g>
   <g id="patch_224">
    <path clip-path="url(#p9d47baa28a)" d="M 397.441757 192.24 
L 398.588136 192.24 
L 398.588136 186.748009 
L 397.441757 186.748009 
z
" style="fill:#1f77b4;opacity:0.35;"/>
   </g>
   <g id="patch_225">
    <path clip-path="url(#p9d47baa28a)" d="M 398.87473 192.24 
L 400.021109 192.24 
L 400.021109 181.256018 
L 398.87473 181.256018 
z
" style="fill:#1f77b4;opacity:0.35;"/>
   </g>
   <g id="patch_226">
    <path clip-path="url(#p9d47baa28a)" d="M 400.307704 192.24 
L 401.454083 192.24 
L 401.454083 186.748009 
L 400.307704 186.748009 
z
" style="fill:#1f77b4;opacity:0.35;"/>
   </g>
   <g id="patch_227">
    <path clip-path="url(#p9d47baa28a)" d="M 401.740678 192.24 
L 402.887057 192.24 
L 402.887057 181.256018 
L 401.740678 181.256018 
z
" style="fill:#1f77b4;opacity:0.35;"/>
   </g>
   <g id="patch_228">
    <path clip-path="url(#p9d47baa28a)" d="M 403.173652 192.24 
L 404.320031 192.24 
L 404.320031 192.24 
L 403.173652 192.24 
z
" style="fill:#1f77b4;opacity:0.35;"/>
   </g>
   <g id="patch_229">
    <path clip-path="url(#p9d47baa28a)" d="M 404.606626 192.24 
L 405.753005 192.24 
L 405.753005 192.24 
L 404.606626 192.24 
z
" style="fill:#1f77b4;opacity:0.35;"/>
   </g>
   <g id="patch_230">
    <path clip-path="url(#p9d47baa28a)" d="M 406.039599 192.24 
L 407.185978 192.24 
L 407.185978 192.24 
L 406.039599 192.24 
z
" style="fill:#1f77b4;opacity:0.35;"/>
   </g>
   <g id="patch_231">
    <path clip-path="url(#p9d47baa28a)" d="M 407.472573 192.24 
L 408.618952 192.24 
L 408.618952 164.780046 
L 407.472573 164.780046 
z
" style="fill:#1f77b4;opacity:0.35;"/>
   </g>
   <g id="patch_232">
    <path clip-path="url(#p9d47baa28a)" d="M 408.905547 192.24 
L 410.051926 192.24 
L 410.051926 186.748009 
L 408.905547 186.748009 
z
" style="fill:#1f77b4;opacity:0.35;"/>
   </g>
   <g id="patch_233">
    <path clip-path="url(#p9d47baa28a)" d="M 410.338521 192.24 
L 411.4849 192.24 
L 411.4849 175.764027 
L 410.338521 175.764027 
z
" style="fill:#1f77b4;opacity:0.35;"/>
   </g>
   <g id="patch_234">
    <path clip-path="url(#p9d47baa28a)" d="M 411.771495 192.24 
L 412.917874 192.24 
L 412.917874 192.24 
L 411.771495 192.24 
z
" style="fill:#1f77b4;opacity:0.35;"/>
   </g>
   <g id="patch_235">
    <path clip-path="url(#p9d47baa28a)" d="M 413.204468 192.24 
L 414.350847 192.24 
L 414.350847 192.24 
L 413.204468 192.24 
z
" style="fill:#1f77b4;opacity:0.35;"/>
   </g>
   <g id="patch_236">
    <path clip-path="url(#p9d47baa28a)" d="M 414.637442 192.24 
L 415.783821 192.24 
L 415.783821 192.24 
L 414.637442 192.24 
z
" style="fill:#1f77b4;opacity:0.35;"/>
   </g>
   <g id="patch_237">
    <path clip-path="url(#p9d47baa28a)" d="M 416.070416 192.24 
L 417.216795 192.24 
L 417.216795 192.24 
L 416.070416 192.24 
z
" style="fill:#1f77b4;opacity:0.35;"/>
   </g>
   <g id="patch_238">
    <path clip-path="url(#p9d47baa28a)" d="M 417.50339 192.24 
L 418.649769 192.24 
L 418.649769 192.24 
L 417.50339 192.24 
z
" style="fill:#1f77b4;opacity:0.35;"/>
   </g>
   <g id="patch_239">
    <path clip-path="url(#p9d47baa28a)" d="M 418.936364 192.24 
L 420.082743 192.24 
L 420.082743 175.764027 
L 418.936364 175.764027 
z
" style="fill:#1f77b4;opacity:0.35;"/>
   </g>
   <g id="patch_240">
    <path clip-path="url(#p9d47baa28a)" d="M 420.369337 192.24 
L 421.515716 192.24 
L 421.515716 175.764027 
L 420.369337 175.764027 
z
" style="fill:#1f77b4;opacity:0.35;"/>
   </g>
   <g id="patch_241">
    <path clip-path="url(#p9d47baa28a)" d="M 421.802311 192.24 
L 422.94869 192.24 
L 422.94869 175.764027 
L 421.802311 175.764027 
z
" style="fill:#1f77b4;opacity:0.35;"/>
   </g>
   <g id="patch_242">
    <path clip-path="url(#p9d47baa28a)" d="M 423.235285 192.24 
L 424.381664 192.24 
L 424.381664 192.24 
L 423.235285 192.24 
z
" style="fill:#1f77b4;opacity:0.35;"/>
   </g>
   <g id="patch_243">
    <path clip-path="url(#p9d47baa28a)" d="M 424.668259 192.24 
L 425.814638 192.24 
L 425.814638 170.272037 
L 424.668259 170.272037 
z
" style="fill:#1f77b4;opacity:0.35;"/>
   </g>
   <g id="patch_244">
    <path clip-path="url(#p9d47baa28a)" d="M 426.101233 192.24 
L 427.247612 192.24 
L 427.247612 175.764027 
L 426.101233 175.764027 
z
" style="fill:#1f77b4;opacity:0.35;"/>
   </g>
   <g id="patch_245">
    <path clip-path="url(#p9d47baa28a)" d="M 427.534206 192.24 
L 428.680586 192.24 
L 428.680586 181.256018 
L 427.534206 181.256018 
z
" style="fill:#1f77b4;opacity:0.35;"/>
   </g>
   <g id="patch_246">
    <path clip-path="url(#p9d47baa28a)" d="M 428.96718 192.24 
L 430.113559 192.24 
L 430.113559 175.764027 
L 428.96718 175.764027 
z
" style="fill:#1f77b4;opacity:0.35;"/>
   </g>
   <g id="patch_247">
    <path clip-path="url(#p9d47baa28a)" d="M 430.400154 192.24 
L 431.546533 192.24 
L 431.546533 186.748009 
L 430.400154 186.748009 
z
" style="fill:#1f77b4;opacity:0.35;"/>
   </g>
   <g id="patch_248">
    <path clip-path="url(#p9d47baa28a)" d="M 431.833128 192.24 
L 432.979507 192.24 
L 432.979507 186.748009 
L 431.833128 186.748009 
z
" style="fill:#1f77b4;opacity:0.35;"/>
   </g>
   <g id="patch_249">
    <path clip-path="url(#p9d47baa28a)" d="M 433.266102 192.24 
L 434.412481 192.24 
L 434.412481 186.748009 
L 433.266102 186.748009 
z
" style="fill:#1f77b4;opacity:0.35;"/>
   </g>
   <g id="patch_250">
    <path clip-path="url(#p9d47baa28a)" d="M 434.699076 192.24 
L 435.845455 192.24 
L 435.845455 192.24 
L 434.699076 192.24 
z
" style="fill:#1f77b4;opacity:0.35;"/>
   </g>
   <g id="line2d_21">
    <path clip-path="url(#p9d47baa28a)" d="M 89.925578 187.532579 
L 91.358552 188.317149 
L 92.791525 188.317149 
L 94.224499 182.825159 
L 95.657473 181.256018 
L 97.090447 181.256018 
L 99.956394 184.394299 
L 102.822342 184.394299 
L 104.255316 189.88629 
L 105.68829 191.45543 
L 107.121263 189.88629 
L 108.554237 190.67086 
L 109.987211 187.532579 
L 111.420185 189.10172 
L 112.853159 189.10172 
L 114.286133 187.532579 
L 115.719106 187.532579 
L 117.15208 189.10172 
L 118.585054 189.10172 
L 120.018028 191.45543 
L 122.883975 188.317149 
L 124.316949 189.88629 
L 128.615871 185.178869 
L 130.048844 185.178869 
L 131.481818 182.825159 
L 132.914792 184.394299 
L 134.347766 183.609729 
L 138.646687 188.317149 
L 140.079661 188.317149 
L 141.512635 190.67086 
L 142.945609 189.88629 
L 144.378582 190.67086 
L 150.110478 190.67086 
L 151.543451 189.88629 
L 154.409399 189.88629 
L 155.842373 189.10172 
L 157.275347 187.532579 
L 158.70832 187.532579 
L 160.141294 188.317149 
L 161.574268 189.88629 
L 163.007242 190.67086 
L 165.87319 190.67086 
L 167.306163 191.45543 
L 170.172111 191.45543 
L 171.605085 190.67086 
L 173.038059 190.67086 
L 174.471032 189.88629 
L 175.904006 190.67086 
L 181.635901 190.67086 
L 183.068875 189.88629 
L 185.934823 189.88629 
L 187.367797 190.67086 
L 191.666718 190.67086 
L 194.532666 192.24 
L 195.965639 191.45543 
L 198.831587 191.45543 
L 200.264561 189.10172 
L 203.130508 189.10172 
L 204.563482 188.317149 
L 207.42943 189.88629 
L 208.862404 189.88629 
L 210.295378 192.24 
L 213.161325 192.24 
L 214.594299 193.02457 
L 216.027273 193.02457 
L 217.460247 192.24 
L 226.058089 192.24 
L 227.491063 191.45543 
L 228.924037 189.88629 
L 237.52188 189.88629 
L 238.954854 191.45543 
L 244.686749 191.45543 
L 246.119723 189.88629 
L 247.552696 190.67086 
L 248.98567 189.88629 
L 261.882435 189.88629 
L 263.315408 188.317149 
L 264.748382 188.317149 
L 266.181356 189.10172 
L 267.61433 188.317149 
L 269.047304 189.10172 
L 271.913251 189.10172 
L 273.346225 190.67086 
L 274.779199 190.67086 
L 276.212173 191.45543 
L 279.07812 191.45543 
L 280.511094 190.67086 
L 289.108937 190.67086 
L 290.541911 191.45543 
L 294.840832 191.45543 
L 296.273806 190.67086 
L 297.70678 191.45543 
L 300.572727 189.88629 
L 304.871649 189.88629 
L 306.304622 190.67086 
L 307.737596 190.67086 
L 310.603544 192.24 
L 316.335439 192.24 
L 317.768413 190.67086 
L 319.201387 190.67086 
L 322.067334 189.10172 
L 323.500308 189.10172 
L 324.933282 188.317149 
L 326.366256 189.10172 
L 327.79923 190.67086 
L 329.232203 189.88629 
L 332.098151 191.45543 
L 333.531125 190.67086 
L 334.964099 191.45543 
L 336.397072 190.67086 
L 347.860863 190.67086 
L 349.293837 191.45543 
L 352.159784 191.45543 
L 353.592758 192.24 
L 355.025732 191.45543 
L 357.89168 191.45543 
L 359.324653 189.88629 
L 360.757627 189.88629 
L 362.190601 189.10172 
L 363.623575 189.10172 
L 365.056549 189.88629 
L 366.489522 189.88629 
L 367.922496 188.317149 
L 369.35547 189.10172 
L 370.788444 188.317149 
L 373.654391 188.317149 
L 375.087365 186.748009 
L 376.520339 185.963439 
L 377.953313 185.963439 
L 379.386287 184.394299 
L 380.81926 184.394299 
L 383.685208 182.825159 
L 385.118182 184.394299 
L 387.984129 185.963439 
L 389.417103 187.532579 
L 390.850077 186.748009 
L 392.283051 188.317149 
L 393.716025 188.317149 
L 395.148998 187.532579 
L 396.581972 185.178869 
L 398.014946 185.178869 
L 399.44792 184.394299 
L 400.880894 185.178869 
L 402.313867 183.609729 
L 405.179815 185.178869 
L 406.612789 187.532579 
L 408.045763 184.394299 
L 409.478737 185.178869 
L 410.91171 183.609729 
L 412.344684 185.178869 
L 416.643606 185.178869 
L 418.076579 189.10172 
L 419.509553 187.532579 
L 420.942527 187.532579 
L 422.375501 185.178869 
L 423.808475 185.178869 
L 425.241448 182.040588 
L 426.674422 179.686878 
L 428.107396 178.117738 
L 429.54037 178.117738 
L 432.406317 181.256018 
L 433.839291 180.471448 
L 435.272265 183.609729 
L 435.272265 183.609729 
" style="fill:none;stroke:#1f77b4;stroke-linecap:round;stroke-width:1.5;"/>
   </g>
   <g id="patch_251">
    <path d="M 63 192.24 
L 453.6 192.24 
" style="fill:none;stroke:#cccccc;stroke-linecap:square;stroke-linejoin:miter;"/>
   </g>
   <g id="text_15">
    <!-- 7-day -->
    <defs>
     <path d="M 14.5 0 
Q 15.671875 7.234375 19.484375 17.390625 
Q 24.03125 29.640625 31.390625 41.71875 
Q 38.765625 53.8125 47.796875 62.5 
L 12.109375 62.5 
L 13.8125 70.609375 
L 59.515625 70.609375 
L 57.859375 62.5 
Q 46.234375 52.296875 37.546875 36.1875 
Q 27.4375 17.578125 23.734375 0 
z
" id="Arial-ItalicMT-55"/>
     <path d="M 4.640625 21.484375 
L 6.5 30.328125 
L 33.453125 30.328125 
L 31.640625 21.484375 
z
" id="Arial-ItalicMT-45"/>
     <path d="M 38.28125 7.515625 
Q 30.71875 -1.171875 22.46875 -1.171875 
Q 15.09375 -1.171875 10.1875 4.265625 
Q 5.28125 9.71875 5.28125 20.0625 
Q 5.28125 29.546875 9.15625 37.375 
Q 13.03125 45.21875 18.859375 49.125 
Q 24.703125 53.03125 30.5625 53.03125 
Q 40.234375 53.03125 45.171875 43.703125 
L 51.03125 71.578125 
L 59.8125 71.578125 
L 44.875 0 
L 36.71875 0 
z
M 14.0625 21.734375 
Q 14.0625 16.3125 15.140625 13.1875 
Q 16.21875 10.0625 18.796875 7.984375 
Q 21.390625 5.90625 25 5.90625 
Q 31 5.90625 35.890625 12.15625 
Q 42.4375 20.453125 42.4375 32.671875 
Q 42.4375 38.8125 39.203125 42.28125 
Q 35.984375 45.75 31.109375 45.75 
Q 27.9375 45.75 25.3125 44.328125 
Q 22.703125 42.921875 20.140625 39.53125 
Q 17.578125 36.140625 15.8125 30.90625 
Q 14.0625 25.6875 14.0625 21.734375 
z
" id="Arial-ItalicMT-100"/>
     <path d="M 38.28125 6.453125 
Q 33.6875 2.484375 29.4375 0.65625 
Q 25.203125 -1.171875 20.359375 -1.171875 
Q 13.1875 -1.171875 8.78125 3.046875 
Q 4.390625 7.28125 4.390625 13.875 
Q 4.390625 18.21875 6.359375 21.5625 
Q 8.34375 24.90625 11.609375 26.921875 
Q 14.890625 28.953125 19.625 29.828125 
Q 22.609375 30.421875 30.9375 30.765625 
Q 39.265625 31.109375 42.875 32.515625 
Q 43.890625 36.140625 43.890625 38.53125 
Q 43.890625 41.609375 41.65625 43.359375 
Q 38.578125 45.796875 32.671875 45.796875 
Q 27.09375 45.796875 23.546875 43.328125 
Q 20.015625 40.875 18.40625 36.328125 
L 9.46875 37.109375 
Q 12.203125 44.828125 18.140625 48.921875 
Q 24.078125 53.03125 33.109375 53.03125 
Q 42.71875 53.03125 48.34375 48.4375 
Q 52.640625 45.015625 52.640625 39.546875 
Q 52.640625 35.40625 51.421875 29.9375 
L 48.53125 17.046875 
Q 47.171875 10.890625 47.171875 7.03125 
Q 47.171875 4.59375 48.25 0 
L 39.3125 0 
Q 38.578125 2.546875 38.28125 6.453125 
z
M 41.546875 26.265625 
Q 39.703125 25.53125 37.578125 25.140625 
Q 35.453125 24.75 30.46875 24.3125 
Q 22.75 23.640625 19.578125 22.578125 
Q 16.40625 21.53125 14.796875 19.234375 
Q 13.1875 16.9375 13.1875 14.15625 
Q 13.1875 10.453125 15.75 8.0625 
Q 18.3125 5.671875 23.046875 5.671875 
Q 27.4375 5.671875 31.484375 7.984375 
Q 35.546875 10.296875 37.890625 14.453125 
Q 40.234375 18.609375 41.546875 26.265625 
z
" id="Arial-ItalicMT-97"/>
     <path d="M 0 -20.015625 
L 0.53125 -11.71875 
Q 3.265625 -12.5 5.859375 -12.5 
Q 8.546875 -12.5 10.203125 -11.28125 
Q 12.359375 -9.671875 14.890625 -5.21875 
L 17.71875 -0.140625 
L 9.078125 51.859375 
L 17.78125 51.859375 
L 21.6875 25.640625 
Q 22.859375 17.875 23.6875 10.109375 
L 46.875 51.859375 
L 56.109375 51.859375 
L 23.046875 -6.890625 
Q 18.265625 -15.484375 14.546875 -18.265625 
Q 10.84375 -21.046875 6 -21.046875 
Q 2.9375 -21.046875 0 -20.015625 
z
" id="Arial-ItalicMT-121"/>
    </defs>
    <g style="fill:#1f77b4;" transform="translate(439.571186 172.915666)scale(0.1 -0.1)">
     <use xlink:href="#Arial-ItalicMT-55"/>
     <use x="55.615234" xlink:href="#Arial-ItalicMT-45"/>
     <use x="88.916016" xlink:href="#Arial-ItalicMT-100"/>
     <use x="144.53125" xlink:href="#Arial-ItalicMT-97"/>
     <use x="200.146484" xlink:href="#Arial-ItalicMT-121"/>
    </g>
    <!-- avg. -->
    <defs>
     <path d="M 16.40625 0 
L 7.90625 51.859375 
L 16.5 51.859375 
L 20.953125 23.296875 
Q 21.6875 18.609375 22.75 8.015625 
Q 25.296875 13.53125 29.25 20.65625 
L 46.578125 51.859375 
L 55.90625 51.859375 
L 26.21875 0 
z
" id="Arial-ItalicMT-118"/>
     <path d="M 2.828125 -4.6875 
L 11.765625 -5.515625 
Q 11.671875 -8.546875 12.5 -10.0625 
Q 13.328125 -11.578125 15.140625 -12.40625 
Q 17.53125 -13.484375 21.34375 -13.484375 
Q 29.34375 -13.484375 32.859375 -9.328125 
Q 35.15625 -6.546875 37.109375 2.78125 
L 37.984375 6.984375 
Q 31.109375 0 23.34375 0 
Q 15.484375 0 10.1875 5.78125 
Q 4.890625 11.578125 4.890625 22.171875 
Q 4.890625 30.90625 9.0625 38.234375 
Q 13.234375 45.5625 18.984375 49.296875 
Q 24.75 53.03125 30.859375 53.03125 
Q 41.0625 53.03125 46.578125 43.359375 
L 48.34375 51.859375 
L 56.453125 51.859375 
L 46 1.8125 
Q 44.28125 -6.453125 41.5 -11.0625 
Q 38.71875 -15.671875 33.765625 -18.203125 
Q 28.8125 -20.75 22.3125 -20.75 
Q 16.0625 -20.75 11.546875 -19.140625 
Q 7.03125 -17.53125 4.8125 -14.421875 
Q 2.59375 -11.328125 2.59375 -7.328125 
Q 2.59375 -6.109375 2.828125 -4.6875 
z
M 13.875 22.953125 
Q 13.875 17.625 14.890625 14.9375 
Q 16.359375 11.1875 19.0625 9.203125 
Q 21.78125 7.234375 25.09375 7.234375 
Q 29.4375 7.234375 33.734375 10.28125 
Q 38.03125 13.328125 40.6875 19.71875 
Q 43.359375 26.125 43.359375 31.9375 
Q 43.359375 38.328125 39.8125 42.109375 
Q 36.28125 45.90625 31.0625 45.90625 
Q 27.828125 45.90625 24.796875 44.171875 
Q 21.78125 42.4375 19.15625 38.890625 
Q 16.546875 35.359375 15.203125 30.421875 
Q 13.875 25.484375 13.875 22.953125 
z
" id="Arial-ItalicMT-103"/>
     <path d="M 5.765625 0 
L 7.859375 10.015625 
L 17.875 10.015625 
L 15.71875 0 
z
" id="Arial-ItalicMT-46"/>
    </defs>
    <g style="fill:#1f77b4;" transform="translate(439.571186 183.609729)scale(0.1 -0.1)">
     <use xlink:href="#Arial-ItalicMT-97"/>
     <use x="55.615234" xlink:href="#Arial-ItalicMT-118"/>
     <use x="105.615234" xlink:href="#Arial-ItalicMT-103"/>
     <use x="161.230469" xlink:href="#Arial-ItalicMT-46"/>
    </g>
   </g>
  </g>
 </g>
 <defs>
  <clipPath id="p9d47baa28a">
   <rect height="166.32" width="390.6" x="63" y="25.92"/>
  </clipPath>
 </defs>
</svg>
